<?xml version="1.0" encoding="utf-8" standalone="no"?>
<!DOCTYPE svg PUBLIC "-//W3C//DTD SVG 1.1//EN"
  "http://www.w3.org/Graphics/SVG/1.1/DTD/svg11.dtd">
<!-- Created with matplotlib (http://matplotlib.org/) -->
<svg height="345pt" version="1.1" viewBox="0 0 460 345" width="460pt" xmlns="http://www.w3.org/2000/svg" xmlns:xlink="http://www.w3.org/1999/xlink">
 <defs>
  <style type="text/css">
*{stroke-linecap:butt;stroke-linejoin:round;}
  </style>
 </defs>
 <g id="figure_1">
  <g id="patch_1">
   <path d="M 0 345.6 
L 460.8 345.6 
L 460.8 0 
L 0 0 
z
" style="fill:#ffffff;"/>
  </g>
  <g id="axes_1">
   <g id="patch_2">
    <path d="M 57.6 307.584 
L 414.72 307.584 
L 414.72 41.472 
L 57.6 41.472 
z
" style="fill:#ffffff;"/>
   </g>
   <g id="patch_3">
    <path clip-path="url(#pf72dbaacf4)" d="M 73.832727 307.584 
L 80.325818 307.584 
L 80.325818 305.016372 
L 73.832727 305.016372 
z
" style="fill:#3d65c2;"/>
   </g>
   <g id="patch_4">
    <path clip-path="url(#pf72dbaacf4)" d="M 80.325818 307.584 
L 86.818909 307.584 
L 86.818909 305.167409 
L 80.325818 305.167409 
z
" style="fill:#3d65c2;"/>
   </g>
   <g id="patch_5">
    <path clip-path="url(#pf72dbaacf4)" d="M 86.818909 307.584 
L 93.312 307.584 
L 93.312 305.469483 
L 86.818909 305.469483 
z
" style="fill:#3d65c2;"/>
   </g>
   <g id="patch_6">
    <path clip-path="url(#pf72dbaacf4)" d="M 93.312 307.584 
L 99.805091 307.584 
L 99.805091 304.865335 
L 93.312 304.865335 
z
" style="fill:#3d65c2;"/>
   </g>
   <g id="patch_7">
    <path clip-path="url(#pf72dbaacf4)" d="M 99.805091 307.584 
L 106.298182 307.584 
L 106.298182 302.448744 
L 99.805091 302.448744 
z
" style="fill:#3d65c2;"/>
   </g>
   <g id="patch_8">
    <path clip-path="url(#pf72dbaacf4)" d="M 106.298182 307.584 
L 112.791273 307.584 
L 112.791273 303.959113 
L 106.298182 303.959113 
z
" style="fill:#3d65c2;"/>
   </g>
   <g id="patch_9">
    <path clip-path="url(#pf72dbaacf4)" d="M 112.791273 307.584 
L 119.284364 307.584 
L 119.284364 303.959113 
L 112.791273 303.959113 
z
" style="fill:#3d65c2;"/>
   </g>
   <g id="patch_10">
    <path clip-path="url(#pf72dbaacf4)" d="M 119.284364 307.584 
L 125.777455 307.584 
L 125.777455 302.901855 
L 119.284364 302.901855 
z
" style="fill:#3d65c2;"/>
   </g>
   <g id="patch_11">
    <path clip-path="url(#pf72dbaacf4)" d="M 125.777455 307.584 
L 132.270545 307.584 
L 132.270545 300.938374 
L 125.777455 300.938374 
z
" style="fill:#3d65c2;"/>
   </g>
   <g id="patch_12">
    <path clip-path="url(#pf72dbaacf4)" d="M 132.270545 307.584 
L 138.763636 307.584 
L 138.763636 301.693559 
L 132.270545 301.693559 
z
" style="fill:#3d65c2;"/>
   </g>
   <g id="patch_13">
    <path clip-path="url(#pf72dbaacf4)" d="M 138.763636 307.584 
L 145.256727 307.584 
L 145.256727 301.240448 
L 138.763636 301.240448 
z
" style="fill:#3d65c2;"/>
   </g>
   <g id="patch_14">
    <path clip-path="url(#pf72dbaacf4)" d="M 145.256727 307.584 
L 151.749818 307.584 
L 151.749818 300.485263 
L 145.256727 300.485263 
z
" style="fill:#3d65c2;"/>
   </g>
   <g id="patch_15">
    <path clip-path="url(#pf72dbaacf4)" d="M 151.749818 307.584 
L 158.242909 307.584 
L 158.242909 300.787337 
L 151.749818 300.787337 
z
" style="fill:#3d65c2;"/>
   </g>
   <g id="patch_16">
    <path clip-path="url(#pf72dbaacf4)" d="M 158.242909 307.584 
L 164.736 307.584 
L 164.736 298.823857 
L 158.242909 298.823857 
z
" style="fill:#3d65c2;"/>
   </g>
   <g id="patch_17">
    <path clip-path="url(#pf72dbaacf4)" d="M 164.736 307.584 
L 171.229091 307.584 
L 171.229091 298.370746 
L 164.736 298.370746 
z
" style="fill:#3d65c2;"/>
   </g>
   <g id="patch_18">
    <path clip-path="url(#pf72dbaacf4)" d="M 171.229091 307.584 
L 177.722182 307.584 
L 177.722182 298.068672 
L 171.229091 298.068672 
z
" style="fill:#3d65c2;"/>
   </g>
   <g id="patch_19">
    <path clip-path="url(#pf72dbaacf4)" d="M 177.722182 307.584 
L 184.215273 307.584 
L 184.215273 298.068672 
L 177.722182 298.068672 
z
" style="fill:#3d65c2;"/>
   </g>
   <g id="patch_20">
    <path clip-path="url(#pf72dbaacf4)" d="M 184.215273 307.584 
L 190.708364 307.584 
L 190.708364 296.70934 
L 184.215273 296.70934 
z
" style="fill:#3d65c2;"/>
   </g>
   <g id="patch_21">
    <path clip-path="url(#pf72dbaacf4)" d="M 190.708364 307.584 
L 197.201455 307.584 
L 197.201455 298.974894 
L 190.708364 298.974894 
z
" style="fill:#3d65c2;"/>
   </g>
   <g id="patch_22">
    <path clip-path="url(#pf72dbaacf4)" d="M 197.201455 307.584 
L 203.694545 307.584 
L 203.694545 294.896896 
L 197.201455 294.896896 
z
" style="fill:#3d65c2;"/>
   </g>
   <g id="patch_23">
    <path clip-path="url(#pf72dbaacf4)" d="M 203.694545 307.584 
L 210.187636 307.584 
L 210.187636 294.141712 
L 203.694545 294.141712 
z
" style="fill:#3d65c2;"/>
   </g>
   <g id="patch_24">
    <path clip-path="url(#pf72dbaacf4)" d="M 210.187636 307.584 
L 216.680727 307.584 
L 216.680727 294.745859 
L 210.187636 294.745859 
z
" style="fill:#3d65c2;"/>
   </g>
   <g id="patch_25">
    <path clip-path="url(#pf72dbaacf4)" d="M 216.680727 307.584 
L 223.173818 307.584 
L 223.173818 294.292749 
L 216.680727 294.292749 
z
" style="fill:#3d65c2;"/>
   </g>
   <g id="patch_26">
    <path clip-path="url(#pf72dbaacf4)" d="M 223.173818 307.584 
L 229.666909 307.584 
L 229.666909 291.574083 
L 223.173818 291.574083 
z
" style="fill:#3d65c2;"/>
   </g>
   <g id="patch_27">
    <path clip-path="url(#pf72dbaacf4)" d="M 229.666909 307.584 
L 236.16 307.584 
L 236.16 290.969936 
L 229.666909 290.969936 
z
" style="fill:#3d65c2;"/>
   </g>
   <g id="patch_28">
    <path clip-path="url(#pf72dbaacf4)" d="M 236.16 307.584 
L 242.653091 307.584 
L 242.653091 290.818899 
L 236.16 290.818899 
z
" style="fill:#3d65c2;"/>
   </g>
   <g id="patch_29">
    <path clip-path="url(#pf72dbaacf4)" d="M 242.653091 307.584 
L 249.146182 307.584 
L 249.146182 290.063714 
L 242.653091 290.063714 
z
" style="fill:#3d65c2;"/>
   </g>
   <g id="patch_30">
    <path clip-path="url(#pf72dbaacf4)" d="M 249.146182 307.584 
L 255.639273 307.584 
L 255.639273 288.553344 
L 249.146182 288.553344 
z
" style="fill:#3d65c2;"/>
   </g>
   <g id="patch_31">
    <path clip-path="url(#pf72dbaacf4)" d="M 255.639273 307.584 
L 262.132364 307.584 
L 262.132364 288.855418 
L 255.639273 288.855418 
z
" style="fill:#3d65c2;"/>
   </g>
   <g id="patch_32">
    <path clip-path="url(#pf72dbaacf4)" d="M 262.132364 307.584 
L 268.625455 307.584 
L 268.625455 290.063714 
L 262.132364 290.063714 
z
" style="fill:#3d65c2;"/>
   </g>
   <g id="patch_33">
    <path clip-path="url(#pf72dbaacf4)" d="M 268.625455 307.584 
L 275.118545 307.584 
L 275.118545 289.157492 
L 268.625455 289.157492 
z
" style="fill:#3d65c2;"/>
   </g>
   <g id="patch_34">
    <path clip-path="url(#pf72dbaacf4)" d="M 275.118545 307.584 
L 281.611636 307.584 
L 281.611636 287.79816 
L 275.118545 287.79816 
z
" style="fill:#3d65c2;"/>
   </g>
   <g id="patch_35">
    <path clip-path="url(#pf72dbaacf4)" d="M 281.611636 307.584 
L 288.104727 307.584 
L 288.104727 289.610603 
L 281.611636 289.610603 
z
" style="fill:#3d65c2;"/>
   </g>
   <g id="patch_36">
    <path clip-path="url(#pf72dbaacf4)" d="M 288.104727 307.584 
L 294.597818 307.584 
L 294.597818 289.912677 
L 288.104727 289.912677 
z
" style="fill:#3d65c2;"/>
   </g>
   <g id="patch_37">
    <path clip-path="url(#pf72dbaacf4)" d="M 294.597818 307.584 
L 301.090909 307.584 
L 301.090909 289.157492 
L 294.597818 289.157492 
z
" style="fill:#3d65c2;"/>
   </g>
   <g id="patch_38">
    <path clip-path="url(#pf72dbaacf4)" d="M 301.090909 307.584 
L 307.584 307.584 
L 307.584 287.949197 
L 301.090909 287.949197 
z
" style="fill:#3d65c2;"/>
   </g>
   <g id="patch_39">
    <path clip-path="url(#pf72dbaacf4)" d="M 307.584 307.584 
L 314.077091 307.584 
L 314.077091 286.438827 
L 307.584 286.438827 
z
" style="fill:#3d65c2;"/>
   </g>
   <g id="patch_40">
    <path clip-path="url(#pf72dbaacf4)" d="M 314.077091 307.584 
L 320.570182 307.584 
L 320.570182 286.740901 
L 314.077091 286.740901 
z
" style="fill:#3d65c2;"/>
   </g>
   <g id="patch_41">
    <path clip-path="url(#pf72dbaacf4)" d="M 320.570182 307.584 
L 327.063273 307.584 
L 327.063273 274.960019 
L 320.570182 274.960019 
z
" style="fill:#3d65c2;"/>
   </g>
   <g id="patch_42">
    <path clip-path="url(#pf72dbaacf4)" d="M 327.063273 307.584 
L 333.556364 307.584 
L 333.556364 263.481211 
L 327.063273 263.481211 
z
" style="fill:#3d65c2;"/>
   </g>
   <g id="patch_43">
    <path clip-path="url(#pf72dbaacf4)" d="M 333.556364 307.584 
L 340.049455 307.584 
L 340.049455 241.278779 
L 333.556364 241.278779 
z
" style="fill:#3d65c2;"/>
   </g>
   <g id="patch_44">
    <path clip-path="url(#pf72dbaacf4)" d="M 340.049455 307.584 
L 346.542545 307.584 
L 346.542545 193.702141 
L 340.049455 193.702141 
z
" style="fill:#3d65c2;"/>
   </g>
   <g id="patch_45">
    <path clip-path="url(#pf72dbaacf4)" d="M 346.542545 307.584 
L 353.035636 307.584 
L 353.035636 151.260758 
L 346.542545 151.260758 
z
" style="fill:#3d65c2;"/>
   </g>
   <g id="patch_46">
    <path clip-path="url(#pf72dbaacf4)" d="M 353.035636 307.584 
L 359.528727 307.584 
L 359.528727 81.028577 
L 353.035636 81.028577 
z
" style="fill:#3d65c2;"/>
   </g>
   <g id="patch_47">
    <path clip-path="url(#pf72dbaacf4)" d="M 359.528727 307.584 
L 366.021818 307.584 
L 366.021818 65.320734 
L 359.528727 65.320734 
z
" style="fill:#3d65c2;"/>
   </g>
   <g id="patch_48">
    <path clip-path="url(#pf72dbaacf4)" d="M 366.021818 307.584 
L 372.514909 307.584 
L 372.514909 54.144 
L 366.021818 54.144 
z
" style="fill:#3d65c2;"/>
   </g>
   <g id="patch_49">
    <path clip-path="url(#pf72dbaacf4)" d="M 372.514909 307.584 
L 379.008 307.584 
L 379.008 88.882498 
L 372.514909 88.882498 
z
" style="fill:#3d65c2;"/>
   </g>
   <g id="patch_50">
    <path clip-path="url(#pf72dbaacf4)" d="M 379.008 307.584 
L 385.501091 307.584 
L 385.501091 133.891509 
L 379.008 133.891509 
z
" style="fill:#3d65c2;"/>
   </g>
   <g id="patch_51">
    <path clip-path="url(#pf72dbaacf4)" d="M 385.501091 307.584 
L 391.994182 307.584 
L 391.994182 198.384286 
L 385.501091 198.384286 
z
" style="fill:#3d65c2;"/>
   </g>
   <g id="patch_52">
    <path clip-path="url(#pf72dbaacf4)" d="M 391.994182 307.584 
L 398.487273 307.584 
L 398.487273 241.73189 
L 391.994182 241.73189 
z
" style="fill:#3d65c2;"/>
   </g>
   <g id="matplotlib.axis_1"/>
   <g id="matplotlib.axis_2"/>
   <g id="patch_53">
    <path d="M 57.6 307.584 
L 57.6 41.472 
" style="fill:none;"/>
   </g>
   <g id="patch_54">
    <path d="M 414.72 307.584 
L 414.72 41.472 
" style="fill:none;"/>
   </g>
   <g id="patch_55">
    <path d="M 57.6 307.584 
L 414.72 307.584 
" style="fill:none;"/>
   </g>
   <g id="patch_56">
    <path d="M 57.6 41.472 
L 414.72 41.472 
" style="fill:none;"/>
   </g>
   <g id="text_1">
    <!-- Skew-Left -->
    <defs>
     <path d="M 53.515625 70.515625 
L 53.515625 60.890625 
Q 47.90625 63.578125 42.921875 64.890625 
Q 37.9375 66.21875 33.296875 66.21875 
Q 25.25 66.21875 20.875 63.09375 
Q 16.5 59.96875 16.5 54.203125 
Q 16.5 49.359375 19.40625 46.890625 
Q 22.3125 44.4375 30.421875 42.921875 
L 36.375 41.703125 
Q 47.40625 39.59375 52.65625 34.296875 
Q 57.90625 29 57.90625 20.125 
Q 57.90625 9.515625 50.796875 4.046875 
Q 43.703125 -1.421875 29.984375 -1.421875 
Q 24.8125 -1.421875 18.96875 -0.25 
Q 13.140625 0.921875 6.890625 3.21875 
L 6.890625 13.375 
Q 12.890625 10.015625 18.65625 8.296875 
Q 24.421875 6.59375 29.984375 6.59375 
Q 38.421875 6.59375 43.015625 9.90625 
Q 47.609375 13.234375 47.609375 19.390625 
Q 47.609375 24.75 44.3125 27.78125 
Q 41.015625 30.8125 33.5 32.328125 
L 27.484375 33.5 
Q 16.453125 35.6875 11.515625 40.375 
Q 6.59375 45.0625 6.59375 53.421875 
Q 6.59375 63.09375 13.40625 68.65625 
Q 20.21875 74.21875 32.171875 74.21875 
Q 37.3125 74.21875 42.625 73.28125 
Q 47.953125 72.359375 53.515625 70.515625 
z
" id="DejaVuSans-53"/>
     <path d="M 9.078125 75.984375 
L 18.109375 75.984375 
L 18.109375 31.109375 
L 44.921875 54.6875 
L 56.390625 54.6875 
L 27.390625 29.109375 
L 57.625 0 
L 45.90625 0 
L 18.109375 26.703125 
L 18.109375 0 
L 9.078125 0 
z
" id="DejaVuSans-6b"/>
     <path d="M 56.203125 29.59375 
L 56.203125 25.203125 
L 14.890625 25.203125 
Q 15.484375 15.921875 20.484375 11.0625 
Q 25.484375 6.203125 34.421875 6.203125 
Q 39.59375 6.203125 44.453125 7.46875 
Q 49.3125 8.734375 54.109375 11.28125 
L 54.109375 2.78125 
Q 49.265625 0.734375 44.1875 -0.34375 
Q 39.109375 -1.421875 33.890625 -1.421875 
Q 20.796875 -1.421875 13.15625 6.1875 
Q 5.515625 13.8125 5.515625 26.8125 
Q 5.515625 40.234375 12.765625 48.109375 
Q 20.015625 56 32.328125 56 
Q 43.359375 56 49.78125 48.890625 
Q 56.203125 41.796875 56.203125 29.59375 
z
M 47.21875 32.234375 
Q 47.125 39.59375 43.09375 43.984375 
Q 39.0625 48.390625 32.421875 48.390625 
Q 24.90625 48.390625 20.390625 44.140625 
Q 15.875 39.890625 15.1875 32.171875 
z
" id="DejaVuSans-65"/>
     <path d="M 4.203125 54.6875 
L 13.1875 54.6875 
L 24.421875 12.015625 
L 35.59375 54.6875 
L 46.1875 54.6875 
L 57.421875 12.015625 
L 68.609375 54.6875 
L 77.59375 54.6875 
L 63.28125 0 
L 52.6875 0 
L 40.921875 44.828125 
L 29.109375 0 
L 18.5 0 
z
" id="DejaVuSans-77"/>
     <path d="M 4.890625 31.390625 
L 31.203125 31.390625 
L 31.203125 23.390625 
L 4.890625 23.390625 
z
" id="DejaVuSans-2d"/>
     <path d="M 9.8125 72.90625 
L 19.671875 72.90625 
L 19.671875 8.296875 
L 55.171875 8.296875 
L 55.171875 0 
L 9.8125 0 
z
" id="DejaVuSans-4c"/>
     <path d="M 37.109375 75.984375 
L 37.109375 68.5 
L 28.515625 68.5 
Q 23.6875 68.5 21.796875 66.546875 
Q 19.921875 64.59375 19.921875 59.515625 
L 19.921875 54.6875 
L 34.71875 54.6875 
L 34.71875 47.703125 
L 19.921875 47.703125 
L 19.921875 0 
L 10.890625 0 
L 10.890625 47.703125 
L 2.296875 47.703125 
L 2.296875 54.6875 
L 10.890625 54.6875 
L 10.890625 58.5 
Q 10.890625 67.625 15.140625 71.796875 
Q 19.390625 75.984375 28.609375 75.984375 
z
" id="DejaVuSans-66"/>
     <path d="M 18.3125 70.21875 
L 18.3125 54.6875 
L 36.8125 54.6875 
L 36.8125 47.703125 
L 18.3125 47.703125 
L 18.3125 18.015625 
Q 18.3125 11.328125 20.140625 9.421875 
Q 21.96875 7.515625 27.59375 7.515625 
L 36.8125 7.515625 
L 36.8125 0 
L 27.59375 0 
Q 17.1875 0 13.234375 3.875 
Q 9.28125 7.765625 9.28125 18.015625 
L 9.28125 47.703125 
L 2.6875 47.703125 
L 2.6875 54.6875 
L 9.28125 54.6875 
L 9.28125 70.21875 
z
" id="DejaVuSans-74"/>
    </defs>
    <g transform="translate(206.618437 35.472)scale(0.12 -0.12)">
     <use xlink:href="#DejaVuSans-53"/>
     <use x="63.476562" xlink:href="#DejaVuSans-6b"/>
     <use x="121.339844" xlink:href="#DejaVuSans-65"/>
     <use x="182.863281" xlink:href="#DejaVuSans-77"/>
     <use x="264.650391" xlink:href="#DejaVuSans-2d"/>
     <use x="300.734375" xlink:href="#DejaVuSans-4c"/>
     <use x="356.431641" xlink:href="#DejaVuSans-65"/>
     <use x="417.955078" xlink:href="#DejaVuSans-66"/>
     <use x="453.144531" xlink:href="#DejaVuSans-74"/>
    </g>
   </g>
  </g>
 </g>
 <defs>
  <clipPath id="pf72dbaacf4">
   <rect height="266.112" width="357.12" x="57.6" y="41.472"/>
  </clipPath>
 </defs>
</svg>
