<?xml version="1.0" encoding="utf-8" standalone="no"?>
<!DOCTYPE svg PUBLIC "-//W3C//DTD SVG 1.1//EN"
  "http://www.w3.org/Graphics/SVG/1.1/DTD/svg11.dtd">
<!-- Created with matplotlib (http://matplotlib.org/) -->
<svg height="345pt" version="1.1" viewBox="0 0 460 345" width="460pt" xmlns="http://www.w3.org/2000/svg" xmlns:xlink="http://www.w3.org/1999/xlink">
 <defs>
  <style type="text/css">
*{stroke-linecap:butt;stroke-linejoin:round;}
  </style>
 </defs>
 <g id="figure_1">
  <g id="patch_1">
   <path d="M 0 345.6 
L 460.8 345.6 
L 460.8 0 
L 0 0 
z
" style="fill:#ffffff;"/>
  </g>
  <g id="axes_1">
   <g id="patch_2">
    <path d="M 57.6 307.584 
L 414.72 307.584 
L 414.72 41.472 
L 57.6 41.472 
z
" style="fill:#ffffff;"/>
   </g>
   <g id="patch_3">
    <path clip-path="url(#p4730838f49)" d="M 73.832727 307.584 
L 80.325818 307.584 
L 80.325818 305.513895 
L 73.832727 305.513895 
z
" style="fill:#dbe5fd;"/>
   </g>
   <g id="patch_4">
    <path clip-path="url(#p4730838f49)" d="M 80.325818 307.584 
L 86.818909 307.584 
L 86.818909 305.513895 
L 80.325818 305.513895 
z
" style="fill:#dbe5fd;"/>
   </g>
   <g id="patch_5">
    <path clip-path="url(#p4730838f49)" d="M 86.818909 307.584 
L 93.312 307.584 
L 93.312 304.922436 
L 86.818909 304.922436 
z
" style="fill:#dbe5fd;"/>
   </g>
   <g id="patch_6">
    <path clip-path="url(#p4730838f49)" d="M 93.312 307.584 
L 99.805091 307.584 
L 99.805091 304.774572 
L 93.312 304.774572 
z
" style="fill:#dbe5fd;"/>
   </g>
   <g id="patch_7">
    <path clip-path="url(#p4730838f49)" d="M 99.805091 307.584 
L 106.298182 307.584 
L 106.298182 303.887384 
L 99.805091 303.887384 
z
" style="fill:#dbe5fd;"/>
   </g>
   <g id="patch_8">
    <path clip-path="url(#p4730838f49)" d="M 106.298182 307.584 
L 112.791273 307.584 
L 112.791273 305.070301 
L 106.298182 305.070301 
z
" style="fill:#dbe5fd;"/>
   </g>
   <g id="patch_9">
    <path clip-path="url(#p4730838f49)" d="M 112.791273 307.584 
L 119.284364 307.584 
L 119.284364 303.44379 
L 112.791273 303.44379 
z
" style="fill:#dbe5fd;"/>
   </g>
   <g id="patch_10">
    <path clip-path="url(#p4730838f49)" d="M 119.284364 307.584 
L 125.777455 307.584 
L 125.777455 301.965144 
L 119.284364 301.965144 
z
" style="fill:#dbe5fd;"/>
   </g>
   <g id="patch_11">
    <path clip-path="url(#p4730838f49)" d="M 125.777455 307.584 
L 132.270545 307.584 
L 132.270545 304.922436 
L 125.777455 304.922436 
z
" style="fill:#dbe5fd;"/>
   </g>
   <g id="patch_12">
    <path clip-path="url(#p4730838f49)" d="M 132.270545 307.584 
L 138.763636 307.584 
L 138.763636 302.852331 
L 132.270545 302.852331 
z
" style="fill:#dbe5fd;"/>
   </g>
   <g id="patch_13">
    <path clip-path="url(#p4730838f49)" d="M 138.763636 307.584 
L 145.256727 307.584 
L 145.256727 301.077956 
L 138.763636 301.077956 
z
" style="fill:#dbe5fd;"/>
   </g>
   <g id="patch_14">
    <path clip-path="url(#p4730838f49)" d="M 145.256727 307.584 
L 151.749818 307.584 
L 151.749818 301.669414 
L 145.256727 301.669414 
z
" style="fill:#dbe5fd;"/>
   </g>
   <g id="patch_15">
    <path clip-path="url(#p4730838f49)" d="M 151.749818 307.584 
L 158.242909 307.584 
L 158.242909 296.642016 
L 151.749818 296.642016 
z
" style="fill:#dbe5fd;"/>
   </g>
   <g id="patch_16">
    <path clip-path="url(#p4730838f49)" d="M 158.242909 307.584 
L 164.736 307.584 
L 164.736 299.155715 
L 158.242909 299.155715 
z
" style="fill:#dbe5fd;"/>
   </g>
   <g id="patch_17">
    <path clip-path="url(#p4730838f49)" d="M 164.736 307.584 
L 171.229091 307.584 
L 171.229091 297.08561 
L 164.736 297.08561 
z
" style="fill:#dbe5fd;"/>
   </g>
   <g id="patch_18">
    <path clip-path="url(#p4730838f49)" d="M 171.229091 307.584 
L 177.722182 307.584 
L 177.722182 297.677069 
L 171.229091 297.677069 
z
" style="fill:#dbe5fd;"/>
   </g>
   <g id="patch_19">
    <path clip-path="url(#p4730838f49)" d="M 177.722182 307.584 
L 184.215273 307.584 
L 184.215273 297.08561 
L 177.722182 297.08561 
z
" style="fill:#dbe5fd;"/>
   </g>
   <g id="patch_20">
    <path clip-path="url(#p4730838f49)" d="M 184.215273 307.584 
L 190.708364 307.584 
L 190.708364 294.867641 
L 184.215273 294.867641 
z
" style="fill:#dbe5fd;"/>
   </g>
   <g id="patch_21">
    <path clip-path="url(#p4730838f49)" d="M 190.708364 307.584 
L 197.201455 307.584 
L 197.201455 294.424047 
L 190.708364 294.424047 
z
" style="fill:#dbe5fd;"/>
   </g>
   <g id="patch_22">
    <path clip-path="url(#p4730838f49)" d="M 197.201455 307.584 
L 203.694545 307.584 
L 203.694545 296.642016 
L 197.201455 296.642016 
z
" style="fill:#dbe5fd;"/>
   </g>
   <g id="patch_23">
    <path clip-path="url(#p4730838f49)" d="M 203.694545 307.584 
L 210.187636 307.584 
L 210.187636 294.719776 
L 203.694545 294.719776 
z
" style="fill:#dbe5fd;"/>
   </g>
   <g id="patch_24">
    <path clip-path="url(#p4730838f49)" d="M 210.187636 307.584 
L 216.680727 307.584 
L 216.680727 296.789881 
L 210.187636 296.789881 
z
" style="fill:#dbe5fd;"/>
   </g>
   <g id="patch_25">
    <path clip-path="url(#p4730838f49)" d="M 216.680727 307.584 
L 223.173818 307.584 
L 223.173818 293.093265 
L 216.680727 293.093265 
z
" style="fill:#dbe5fd;"/>
   </g>
   <g id="patch_26">
    <path clip-path="url(#p4730838f49)" d="M 223.173818 307.584 
L 229.666909 307.584 
L 229.666909 291.171025 
L 223.173818 291.171025 
z
" style="fill:#dbe5fd;"/>
   </g>
   <g id="patch_27">
    <path clip-path="url(#p4730838f49)" d="M 229.666909 307.584 
L 236.16 307.584 
L 236.16 292.797536 
L 229.666909 292.797536 
z
" style="fill:#dbe5fd;"/>
   </g>
   <g id="patch_28">
    <path clip-path="url(#p4730838f49)" d="M 236.16 307.584 
L 242.653091 307.584 
L 242.653091 289.692378 
L 236.16 289.692378 
z
" style="fill:#dbe5fd;"/>
   </g>
   <g id="patch_29">
    <path clip-path="url(#p4730838f49)" d="M 242.653091 307.584 
L 249.146182 307.584 
L 249.146182 288.657326 
L 242.653091 288.657326 
z
" style="fill:#dbe5fd;"/>
   </g>
   <g id="patch_30">
    <path clip-path="url(#p4730838f49)" d="M 249.146182 307.584 
L 255.639273 307.584 
L 255.639273 292.501806 
L 249.146182 292.501806 
z
" style="fill:#dbe5fd;"/>
   </g>
   <g id="patch_31">
    <path clip-path="url(#p4730838f49)" d="M 255.639273 307.584 
L 262.132364 307.584 
L 262.132364 288.80519 
L 255.639273 288.80519 
z
" style="fill:#dbe5fd;"/>
   </g>
   <g id="patch_32">
    <path clip-path="url(#p4730838f49)" d="M 262.132364 307.584 
L 268.625455 307.584 
L 268.625455 289.988107 
L 262.132364 289.988107 
z
" style="fill:#dbe5fd;"/>
   </g>
   <g id="patch_33">
    <path clip-path="url(#p4730838f49)" d="M 268.625455 307.584 
L 275.118545 307.584 
L 275.118545 289.396649 
L 268.625455 289.396649 
z
" style="fill:#dbe5fd;"/>
   </g>
   <g id="patch_34">
    <path clip-path="url(#p4730838f49)" d="M 275.118545 307.584 
L 281.611636 307.584 
L 281.611636 292.058212 
L 275.118545 292.058212 
z
" style="fill:#dbe5fd;"/>
   </g>
   <g id="patch_35">
    <path clip-path="url(#p4730838f49)" d="M 281.611636 307.584 
L 288.104727 307.584 
L 288.104727 288.213732 
L 281.611636 288.213732 
z
" style="fill:#dbe5fd;"/>
   </g>
   <g id="patch_36">
    <path clip-path="url(#p4730838f49)" d="M 288.104727 307.584 
L 294.597818 307.584 
L 294.597818 287.770138 
L 288.104727 287.770138 
z
" style="fill:#dbe5fd;"/>
   </g>
   <g id="patch_37">
    <path clip-path="url(#p4730838f49)" d="M 294.597818 307.584 
L 301.090909 307.584 
L 301.090909 290.135972 
L 294.597818 290.135972 
z
" style="fill:#dbe5fd;"/>
   </g>
   <g id="patch_38">
    <path clip-path="url(#p4730838f49)" d="M 301.090909 307.584 
L 307.584 307.584 
L 307.584 283.482063 
L 301.090909 283.482063 
z
" style="fill:#dbe5fd;"/>
   </g>
   <g id="patch_39">
    <path clip-path="url(#p4730838f49)" d="M 307.584 307.584 
L 314.077091 307.584 
L 314.077091 288.80519 
L 307.584 288.80519 
z
" style="fill:#dbe5fd;"/>
   </g>
   <g id="patch_40">
    <path clip-path="url(#p4730838f49)" d="M 314.077091 307.584 
L 320.570182 307.584 
L 320.570182 285.700033 
L 314.077091 285.700033 
z
" style="fill:#dbe5fd;"/>
   </g>
   <g id="patch_41">
    <path clip-path="url(#p4730838f49)" d="M 320.570182 307.584 
L 327.063273 307.584 
L 327.063273 282.003417 
L 320.570182 282.003417 
z
" style="fill:#dbe5fd;"/>
   </g>
   <g id="patch_42">
    <path clip-path="url(#p4730838f49)" d="M 327.063273 307.584 
L 333.556364 307.584 
L 333.556364 264.555389 
L 327.063273 264.555389 
z
" style="fill:#dbe5fd;"/>
   </g>
   <g id="patch_43">
    <path clip-path="url(#p4730838f49)" d="M 333.556364 307.584 
L 340.049455 307.584 
L 340.049455 240.601316 
L 333.556364 240.601316 
z
" style="fill:#dbe5fd;"/>
   </g>
   <g id="patch_44">
    <path clip-path="url(#p4730838f49)" d="M 340.049455 307.584 
L 346.542545 307.584 
L 346.542545 197.868434 
L 340.049455 197.868434 
z
" style="fill:#dbe5fd;"/>
   </g>
   <g id="patch_45">
    <path clip-path="url(#p4730838f49)" d="M 346.542545 307.584 
L 353.035636 307.584 
L 353.035636 147.44659 
L 346.542545 147.44659 
z
" style="fill:#dbe5fd;"/>
   </g>
   <g id="patch_46">
    <path clip-path="url(#p4730838f49)" d="M 353.035636 307.584 
L 359.528727 307.584 
L 359.528727 100.721363 
L 353.035636 100.721363 
z
" style="fill:#dbe5fd;"/>
   </g>
   <g id="patch_47">
    <path clip-path="url(#p4730838f49)" d="M 359.528727 307.584 
L 366.021818 307.584 
L 366.021818 54.144 
L 359.528727 54.144 
z
" style="fill:#dbe5fd;"/>
   </g>
   <g id="patch_48">
    <path clip-path="url(#p4730838f49)" d="M 366.021818 307.584 
L 372.514909 307.584 
L 372.514909 59.023533 
L 366.021818 59.023533 
z
" style="fill:#dbe5fd;"/>
   </g>
   <g id="patch_49">
    <path clip-path="url(#p4730838f49)" d="M 372.514909 307.584 
L 379.008 307.584 
L 379.008 88.596462 
L 372.514909 88.596462 
z
" style="fill:#dbe5fd;"/>
   </g>
   <g id="patch_50">
    <path clip-path="url(#p4730838f49)" d="M 379.008 307.584 
L 385.501091 307.584 
L 385.501091 146.707267 
L 379.008 146.707267 
z
" style="fill:#dbe5fd;"/>
   </g>
   <g id="patch_51">
    <path clip-path="url(#p4730838f49)" d="M 385.501091 307.584 
L 391.994182 307.584 
L 391.994182 202.008644 
L 385.501091 202.008644 
z
" style="fill:#dbe5fd;"/>
   </g>
   <g id="patch_52">
    <path clip-path="url(#p4730838f49)" d="M 391.994182 307.584 
L 398.487273 307.584 
L 398.487273 246.811631 
L 391.994182 246.811631 
z
" style="fill:#dbe5fd;"/>
   </g>
   <g id="matplotlib.axis_1"/>
   <g id="matplotlib.axis_2"/>
   <g id="line2d_1">
    <path clip-path="url(#p4730838f49)" d="M 336.930567 307.584 
L 336.930567 41.472 
" style="fill:none;stroke:#3d65c2;stroke-linecap:square;stroke-width:3;"/>
   </g>
   <g id="line2d_2">
    <path clip-path="url(#p4730838f49)" d="M 359.405582 307.584 
L 359.405582 41.472 
" style="fill:none;stroke:#2c9c98;stroke-linecap:square;stroke-width:3;"/>
   </g>
   <g id="patch_53">
    <path d="M 57.6 307.584 
L 57.6 41.472 
" style="fill:none;"/>
   </g>
   <g id="patch_54">
    <path d="M 414.72 307.584 
L 414.72 41.472 
" style="fill:none;"/>
   </g>
   <g id="patch_55">
    <path d="M 57.6 307.584 
L 414.72 307.584 
" style="fill:none;"/>
   </g>
   <g id="patch_56">
    <path d="M 57.6 41.472 
L 414.72 41.472 
" style="fill:none;"/>
   </g>
   <g id="text_1">
    <!-- Skew-Left -->
    <defs>
     <path d="M 53.515625 70.515625 
L 53.515625 60.890625 
Q 47.90625 63.578125 42.921875 64.890625 
Q 37.9375 66.21875 33.296875 66.21875 
Q 25.25 66.21875 20.875 63.09375 
Q 16.5 59.96875 16.5 54.203125 
Q 16.5 49.359375 19.40625 46.890625 
Q 22.3125 44.4375 30.421875 42.921875 
L 36.375 41.703125 
Q 47.40625 39.59375 52.65625 34.296875 
Q 57.90625 29 57.90625 20.125 
Q 57.90625 9.515625 50.796875 4.046875 
Q 43.703125 -1.421875 29.984375 -1.421875 
Q 24.8125 -1.421875 18.96875 -0.25 
Q 13.140625 0.921875 6.890625 3.21875 
L 6.890625 13.375 
Q 12.890625 10.015625 18.65625 8.296875 
Q 24.421875 6.59375 29.984375 6.59375 
Q 38.421875 6.59375 43.015625 9.90625 
Q 47.609375 13.234375 47.609375 19.390625 
Q 47.609375 24.75 44.3125 27.78125 
Q 41.015625 30.8125 33.5 32.328125 
L 27.484375 33.5 
Q 16.453125 35.6875 11.515625 40.375 
Q 6.59375 45.0625 6.59375 53.421875 
Q 6.59375 63.09375 13.40625 68.65625 
Q 20.21875 74.21875 32.171875 74.21875 
Q 37.3125 74.21875 42.625 73.28125 
Q 47.953125 72.359375 53.515625 70.515625 
z
" id="DejaVuSans-53"/>
     <path d="M 9.078125 75.984375 
L 18.109375 75.984375 
L 18.109375 31.109375 
L 44.921875 54.6875 
L 56.390625 54.6875 
L 27.390625 29.109375 
L 57.625 0 
L 45.90625 0 
L 18.109375 26.703125 
L 18.109375 0 
L 9.078125 0 
z
" id="DejaVuSans-6b"/>
     <path d="M 56.203125 29.59375 
L 56.203125 25.203125 
L 14.890625 25.203125 
Q 15.484375 15.921875 20.484375 11.0625 
Q 25.484375 6.203125 34.421875 6.203125 
Q 39.59375 6.203125 44.453125 7.46875 
Q 49.3125 8.734375 54.109375 11.28125 
L 54.109375 2.78125 
Q 49.265625 0.734375 44.1875 -0.34375 
Q 39.109375 -1.421875 33.890625 -1.421875 
Q 20.796875 -1.421875 13.15625 6.1875 
Q 5.515625 13.8125 5.515625 26.8125 
Q 5.515625 40.234375 12.765625 48.109375 
Q 20.015625 56 32.328125 56 
Q 43.359375 56 49.78125 48.890625 
Q 56.203125 41.796875 56.203125 29.59375 
z
M 47.21875 32.234375 
Q 47.125 39.59375 43.09375 43.984375 
Q 39.0625 48.390625 32.421875 48.390625 
Q 24.90625 48.390625 20.390625 44.140625 
Q 15.875 39.890625 15.1875 32.171875 
z
" id="DejaVuSans-65"/>
     <path d="M 4.203125 54.6875 
L 13.1875 54.6875 
L 24.421875 12.015625 
L 35.59375 54.6875 
L 46.1875 54.6875 
L 57.421875 12.015625 
L 68.609375 54.6875 
L 77.59375 54.6875 
L 63.28125 0 
L 52.6875 0 
L 40.921875 44.828125 
L 29.109375 0 
L 18.5 0 
z
" id="DejaVuSans-77"/>
     <path d="M 4.890625 31.390625 
L 31.203125 31.390625 
L 31.203125 23.390625 
L 4.890625 23.390625 
z
" id="DejaVuSans-2d"/>
     <path d="M 9.8125 72.90625 
L 19.671875 72.90625 
L 19.671875 8.296875 
L 55.171875 8.296875 
L 55.171875 0 
L 9.8125 0 
z
" id="DejaVuSans-4c"/>
     <path d="M 37.109375 75.984375 
L 37.109375 68.5 
L 28.515625 68.5 
Q 23.6875 68.5 21.796875 66.546875 
Q 19.921875 64.59375 19.921875 59.515625 
L 19.921875 54.6875 
L 34.71875 54.6875 
L 34.71875 47.703125 
L 19.921875 47.703125 
L 19.921875 0 
L 10.890625 0 
L 10.890625 47.703125 
L 2.296875 47.703125 
L 2.296875 54.6875 
L 10.890625 54.6875 
L 10.890625 58.5 
Q 10.890625 67.625 15.140625 71.796875 
Q 19.390625 75.984375 28.609375 75.984375 
z
" id="DejaVuSans-66"/>
     <path d="M 18.3125 70.21875 
L 18.3125 54.6875 
L 36.8125 54.6875 
L 36.8125 47.703125 
L 18.3125 47.703125 
L 18.3125 18.015625 
Q 18.3125 11.328125 20.140625 9.421875 
Q 21.96875 7.515625 27.59375 7.515625 
L 36.8125 7.515625 
L 36.8125 0 
L 27.59375 0 
Q 17.1875 0 13.234375 3.875 
Q 9.28125 7.765625 9.28125 18.015625 
L 9.28125 47.703125 
L 2.6875 47.703125 
L 2.6875 54.6875 
L 9.28125 54.6875 
L 9.28125 70.21875 
z
" id="DejaVuSans-74"/>
    </defs>
    <g transform="translate(206.618437 35.472)scale(0.12 -0.12)">
     <use xlink:href="#DejaVuSans-53"/>
     <use x="63.476562" xlink:href="#DejaVuSans-6b"/>
     <use x="121.339844" xlink:href="#DejaVuSans-65"/>
     <use x="182.863281" xlink:href="#DejaVuSans-77"/>
     <use x="264.650391" xlink:href="#DejaVuSans-2d"/>
     <use x="300.734375" xlink:href="#DejaVuSans-4c"/>
     <use x="356.431641" xlink:href="#DejaVuSans-65"/>
     <use x="417.955078" xlink:href="#DejaVuSans-66"/>
     <use x="453.144531" xlink:href="#DejaVuSans-74"/>
    </g>
   </g>
   <g id="legend_1">
    <g id="patch_57">
     <path d="M 64.6 78.82825 
L 132.973437 78.82825 
Q 134.973437 78.82825 134.973437 76.82825 
L 134.973437 48.472 
Q 134.973437 46.472 132.973437 46.472 
L 64.6 46.472 
Q 62.6 46.472 62.6 48.472 
L 62.6 76.82825 
Q 62.6 78.82825 64.6 78.82825 
z
" style="fill:#ffffff;opacity:0.8;stroke:#cccccc;stroke-linejoin:miter;"/>
    </g>
    <g id="line2d_3">
     <path d="M 66.6 54.570437 
L 86.6 54.570437 
" style="fill:none;stroke:#3d65c2;stroke-linecap:square;stroke-width:3;"/>
    </g>
    <g id="line2d_4"/>
    <g id="text_2">
     <!-- Mean -->
     <defs>
      <path d="M 9.8125 72.90625 
L 24.515625 72.90625 
L 43.109375 23.296875 
L 61.8125 72.90625 
L 76.515625 72.90625 
L 76.515625 0 
L 66.890625 0 
L 66.890625 64.015625 
L 48.09375 14.015625 
L 38.1875 14.015625 
L 19.390625 64.015625 
L 19.390625 0 
L 9.8125 0 
z
" id="DejaVuSans-4d"/>
      <path d="M 34.28125 27.484375 
Q 23.390625 27.484375 19.1875 25 
Q 14.984375 22.515625 14.984375 16.5 
Q 14.984375 11.71875 18.140625 8.90625 
Q 21.296875 6.109375 26.703125 6.109375 
Q 34.1875 6.109375 38.703125 11.40625 
Q 43.21875 16.703125 43.21875 25.484375 
L 43.21875 27.484375 
z
M 52.203125 31.203125 
L 52.203125 0 
L 43.21875 0 
L 43.21875 8.296875 
Q 40.140625 3.328125 35.546875 0.953125 
Q 30.953125 -1.421875 24.3125 -1.421875 
Q 15.921875 -1.421875 10.953125 3.296875 
Q 6 8.015625 6 15.921875 
Q 6 25.140625 12.171875 29.828125 
Q 18.359375 34.515625 30.609375 34.515625 
L 43.21875 34.515625 
L 43.21875 35.40625 
Q 43.21875 41.609375 39.140625 45 
Q 35.0625 48.390625 27.6875 48.390625 
Q 23 48.390625 18.546875 47.265625 
Q 14.109375 46.140625 10.015625 43.890625 
L 10.015625 52.203125 
Q 14.9375 54.109375 19.578125 55.046875 
Q 24.21875 56 28.609375 56 
Q 40.484375 56 46.34375 49.84375 
Q 52.203125 43.703125 52.203125 31.203125 
z
" id="DejaVuSans-61"/>
      <path d="M 54.890625 33.015625 
L 54.890625 0 
L 45.90625 0 
L 45.90625 32.71875 
Q 45.90625 40.484375 42.875 44.328125 
Q 39.84375 48.1875 33.796875 48.1875 
Q 26.515625 48.1875 22.3125 43.546875 
Q 18.109375 38.921875 18.109375 30.90625 
L 18.109375 0 
L 9.078125 0 
L 9.078125 54.6875 
L 18.109375 54.6875 
L 18.109375 46.1875 
Q 21.34375 51.125 25.703125 53.5625 
Q 30.078125 56 35.796875 56 
Q 45.21875 56 50.046875 50.171875 
Q 54.890625 44.34375 54.890625 33.015625 
z
" id="DejaVuSans-6e"/>
     </defs>
     <g transform="translate(94.6 58.070437)scale(0.1 -0.1)">
      <use xlink:href="#DejaVuSans-4d"/>
      <use x="86.279297" xlink:href="#DejaVuSans-65"/>
      <use x="147.802734" xlink:href="#DejaVuSans-61"/>
      <use x="209.082031" xlink:href="#DejaVuSans-6e"/>
     </g>
    </g>
    <g id="line2d_5">
     <path d="M 66.6 69.248562 
L 86.6 69.248562 
" style="fill:none;stroke:#2c9c98;stroke-linecap:square;stroke-width:3;"/>
    </g>
    <g id="line2d_6"/>
    <g id="text_3">
     <!-- Median -->
     <defs>
      <path d="M 45.40625 46.390625 
L 45.40625 75.984375 
L 54.390625 75.984375 
L 54.390625 0 
L 45.40625 0 
L 45.40625 8.203125 
Q 42.578125 3.328125 38.25 0.953125 
Q 33.9375 -1.421875 27.875 -1.421875 
Q 17.96875 -1.421875 11.734375 6.484375 
Q 5.515625 14.40625 5.515625 27.296875 
Q 5.515625 40.1875 11.734375 48.09375 
Q 17.96875 56 27.875 56 
Q 33.9375 56 38.25 53.625 
Q 42.578125 51.265625 45.40625 46.390625 
z
M 14.796875 27.296875 
Q 14.796875 17.390625 18.875 11.75 
Q 22.953125 6.109375 30.078125 6.109375 
Q 37.203125 6.109375 41.296875 11.75 
Q 45.40625 17.390625 45.40625 27.296875 
Q 45.40625 37.203125 41.296875 42.84375 
Q 37.203125 48.484375 30.078125 48.484375 
Q 22.953125 48.484375 18.875 42.84375 
Q 14.796875 37.203125 14.796875 27.296875 
z
" id="DejaVuSans-64"/>
      <path d="M 9.421875 54.6875 
L 18.40625 54.6875 
L 18.40625 0 
L 9.421875 0 
z
M 9.421875 75.984375 
L 18.40625 75.984375 
L 18.40625 64.59375 
L 9.421875 64.59375 
z
" id="DejaVuSans-69"/>
     </defs>
     <g transform="translate(94.6 72.748562)scale(0.1 -0.1)">
      <use xlink:href="#DejaVuSans-4d"/>
      <use x="86.279297" xlink:href="#DejaVuSans-65"/>
      <use x="147.802734" xlink:href="#DejaVuSans-64"/>
      <use x="211.279297" xlink:href="#DejaVuSans-69"/>
      <use x="239.0625" xlink:href="#DejaVuSans-61"/>
      <use x="300.341797" xlink:href="#DejaVuSans-6e"/>
     </g>
    </g>
   </g>
  </g>
 </g>
 <defs>
  <clipPath id="p4730838f49">
   <rect height="266.112" width="357.12" x="57.6" y="41.472"/>
  </clipPath>
 </defs>
</svg>
