<?xml version="1.0" encoding="utf-8" standalone="no"?>
<!DOCTYPE svg PUBLIC "-//W3C//DTD SVG 1.1//EN"
  "http://www.w3.org/Graphics/SVG/1.1/DTD/svg11.dtd">
<!-- Created with matplotlib (http://matplotlib.org/) -->
<svg height="345pt" version="1.1" viewBox="0 0 460 345" width="460pt" xmlns="http://www.w3.org/2000/svg" xmlns:xlink="http://www.w3.org/1999/xlink">
 <defs>
  <style type="text/css">
*{stroke-linecap:butt;stroke-linejoin:round;}
  </style>
 </defs>
 <g id="figure_1">
  <g id="patch_1">
   <path d="M 0 345.6 
L 460.8 345.6 
L 460.8 0 
L 0 0 
z
" style="fill:#ffffff;"/>
  </g>
  <g id="axes_1">
   <g id="patch_2">
    <path d="M 57.6 307.584 
L 414.72 307.584 
L 414.72 41.472 
L 57.6 41.472 
z
" style="fill:#ffffff;"/>
   </g>
   <g id="patch_3">
    <path clip-path="url(#p625916a9c8)" d="M 73.832727 307.584 
L 80.325818 307.584 
L 80.325818 306.070361 
L 73.832727 306.070361 
z
" style="fill:#3d65c2;"/>
   </g>
   <g id="patch_4">
    <path clip-path="url(#p625916a9c8)" d="M 80.325818 307.584 
L 86.818909 307.584 
L 86.818909 306.164963 
L 80.325818 306.164963 
z
" style="fill:#3d65c2;"/>
   </g>
   <g id="patch_5">
    <path clip-path="url(#p625916a9c8)" d="M 86.818909 307.584 
L 93.312 307.584 
L 93.312 305.077035 
L 86.818909 305.077035 
z
" style="fill:#3d65c2;"/>
   </g>
   <g id="patch_6">
    <path clip-path="url(#p625916a9c8)" d="M 93.312 307.584 
L 99.805091 307.584 
L 99.805091 303.894504 
L 93.312 303.894504 
z
" style="fill:#3d65c2;"/>
   </g>
   <g id="patch_7">
    <path clip-path="url(#p625916a9c8)" d="M 99.805091 307.584 
L 106.298182 307.584 
L 106.298182 301.576744 
L 99.805091 301.576744 
z
" style="fill:#3d65c2;"/>
   </g>
   <g id="patch_8">
    <path clip-path="url(#p625916a9c8)" d="M 106.298182 307.584 
L 112.791273 307.584 
L 112.791273 297.887247 
L 106.298182 297.887247 
z
" style="fill:#3d65c2;"/>
   </g>
   <g id="patch_9">
    <path clip-path="url(#p625916a9c8)" d="M 112.791273 307.584 
L 119.284364 307.584 
L 119.284364 297.035825 
L 112.791273 297.035825 
z
" style="fill:#3d65c2;"/>
   </g>
   <g id="patch_10">
    <path clip-path="url(#p625916a9c8)" d="M 119.284364 307.584 
L 125.777455 307.584 
L 125.777455 290.744761 
L 119.284364 290.744761 
z
" style="fill:#3d65c2;"/>
   </g>
   <g id="patch_11">
    <path clip-path="url(#p625916a9c8)" d="M 125.777455 307.584 
L 132.270545 307.584 
L 132.270545 284.264493 
L 125.777455 284.264493 
z
" style="fill:#3d65c2;"/>
   </g>
   <g id="patch_12">
    <path clip-path="url(#p625916a9c8)" d="M 132.270545 307.584 
L 138.763636 307.584 
L 138.763636 274.378535 
L 132.270545 274.378535 
z
" style="fill:#3d65c2;"/>
   </g>
   <g id="patch_13">
    <path clip-path="url(#p625916a9c8)" d="M 138.763636 307.584 
L 145.256727 307.584 
L 145.256727 267.519857 
L 138.763636 267.519857 
z
" style="fill:#3d65c2;"/>
   </g>
   <g id="patch_14">
    <path clip-path="url(#p625916a9c8)" d="M 145.256727 307.584 
L 151.749818 307.584 
L 151.749818 259.620551 
L 145.256727 259.620551 
z
" style="fill:#3d65c2;"/>
   </g>
   <g id="patch_15">
    <path clip-path="url(#p625916a9c8)" d="M 151.749818 307.584 
L 158.242909 307.584 
L 158.242909 242.68671 
L 151.749818 242.68671 
z
" style="fill:#3d65c2;"/>
   </g>
   <g id="patch_16">
    <path clip-path="url(#p625916a9c8)" d="M 158.242909 307.584 
L 164.736 307.584 
L 164.736 225.469062 
L 158.242909 225.469062 
z
" style="fill:#3d65c2;"/>
   </g>
   <g id="patch_17">
    <path clip-path="url(#p625916a9c8)" d="M 164.736 307.584 
L 171.229091 307.584 
L 171.229091 212.36662 
L 164.736 212.36662 
z
" style="fill:#3d65c2;"/>
   </g>
   <g id="patch_18">
    <path clip-path="url(#p625916a9c8)" d="M 171.229091 307.584 
L 177.722182 307.584 
L 177.722182 191.790585 
L 171.229091 191.790585 
z
" style="fill:#3d65c2;"/>
   </g>
   <g id="patch_19">
    <path clip-path="url(#p625916a9c8)" d="M 177.722182 307.584 
L 184.215273 307.584 
L 184.215273 178.54624 
L 177.722182 178.54624 
z
" style="fill:#3d65c2;"/>
   </g>
   <g id="patch_20">
    <path clip-path="url(#p625916a9c8)" d="M 184.215273 307.584 
L 190.708364 307.584 
L 190.708364 156.314661 
L 184.215273 156.314661 
z
" style="fill:#3d65c2;"/>
   </g>
   <g id="patch_21">
    <path clip-path="url(#p625916a9c8)" d="M 190.708364 307.584 
L 197.201455 307.584 
L 197.201455 127.697415 
L 190.708364 127.697415 
z
" style="fill:#3d65c2;"/>
   </g>
   <g id="patch_22">
    <path clip-path="url(#p625916a9c8)" d="M 197.201455 307.584 
L 203.694545 307.584 
L 203.694545 116.203216 
L 197.201455 116.203216 
z
" style="fill:#3d65c2;"/>
   </g>
   <g id="patch_23">
    <path clip-path="url(#p625916a9c8)" d="M 203.694545 307.584 
L 210.187636 307.584 
L 210.187636 95.532578 
L 203.694545 95.532578 
z
" style="fill:#3d65c2;"/>
   </g>
   <g id="patch_24">
    <path clip-path="url(#p625916a9c8)" d="M 210.187636 307.584 
L 216.680727 307.584 
L 216.680727 81.153003 
L 210.187636 81.153003 
z
" style="fill:#3d65c2;"/>
   </g>
   <g id="patch_25">
    <path clip-path="url(#p625916a9c8)" d="M 216.680727 307.584 
L 223.173818 307.584 
L 223.173818 72.875288 
L 216.680727 72.875288 
z
" style="fill:#3d65c2;"/>
   </g>
   <g id="patch_26">
    <path clip-path="url(#p625916a9c8)" d="M 223.173818 307.584 
L 229.666909 307.584 
L 229.666909 61.239185 
L 223.173818 61.239185 
z
" style="fill:#3d65c2;"/>
   </g>
   <g id="patch_27">
    <path clip-path="url(#p625916a9c8)" d="M 229.666909 307.584 
L 236.16 307.584 
L 236.16 54.144 
L 229.666909 54.144 
z
" style="fill:#3d65c2;"/>
   </g>
   <g id="patch_28">
    <path clip-path="url(#p625916a9c8)" d="M 236.16 307.584 
L 242.653091 307.584 
L 242.653091 56.650965 
L 236.16 56.650965 
z
" style="fill:#3d65c2;"/>
   </g>
   <g id="patch_29">
    <path clip-path="url(#p625916a9c8)" d="M 242.653091 307.584 
L 249.146182 307.584 
L 249.146182 64.834078 
L 242.653091 64.834078 
z
" style="fill:#3d65c2;"/>
   </g>
   <g id="patch_30">
    <path clip-path="url(#p625916a9c8)" d="M 249.146182 307.584 
L 255.639273 307.584 
L 255.639273 69.13849 
L 249.146182 69.13849 
z
" style="fill:#3d65c2;"/>
   </g>
   <g id="patch_31">
    <path clip-path="url(#p625916a9c8)" d="M 255.639273 307.584 
L 262.132364 307.584 
L 262.132364 81.578714 
L 255.639273 81.578714 
z
" style="fill:#3d65c2;"/>
   </g>
   <g id="patch_32">
    <path clip-path="url(#p625916a9c8)" d="M 262.132364 307.584 
L 268.625455 307.584 
L 268.625455 94.586553 
L 262.132364 94.586553 
z
" style="fill:#3d65c2;"/>
   </g>
   <g id="patch_33">
    <path clip-path="url(#p625916a9c8)" d="M 268.625455 307.584 
L 275.118545 307.584 
L 275.118545 118.047964 
L 268.625455 118.047964 
z
" style="fill:#3d65c2;"/>
   </g>
   <g id="patch_34">
    <path clip-path="url(#p625916a9c8)" d="M 275.118545 307.584 
L 281.611636 307.584 
L 281.611636 136.731951 
L 275.118545 136.731951 
z
" style="fill:#3d65c2;"/>
   </g>
   <g id="patch_35">
    <path clip-path="url(#p625916a9c8)" d="M 281.611636 307.584 
L 288.104727 307.584 
L 288.104727 158.395915 
L 281.611636 158.395915 
z
" style="fill:#3d65c2;"/>
   </g>
   <g id="patch_36">
    <path clip-path="url(#p625916a9c8)" d="M 288.104727 307.584 
L 294.597818 307.584 
L 294.597818 176.039274 
L 288.104727 176.039274 
z
" style="fill:#3d65c2;"/>
   </g>
   <g id="patch_37">
    <path clip-path="url(#p625916a9c8)" d="M 294.597818 307.584 
L 301.090909 307.584 
L 301.090909 195.905792 
L 294.597818 195.905792 
z
" style="fill:#3d65c2;"/>
   </g>
   <g id="patch_38">
    <path clip-path="url(#p625916a9c8)" d="M 301.090909 307.584 
L 307.584 307.584 
L 307.584 216.056116 
L 301.090909 216.056116 
z
" style="fill:#3d65c2;"/>
   </g>
   <g id="patch_39">
    <path clip-path="url(#p625916a9c8)" d="M 307.584 307.584 
L 314.077091 307.584 
L 314.077091 231.145209 
L 307.584 231.145209 
z
" style="fill:#3d65c2;"/>
   </g>
   <g id="patch_40">
    <path clip-path="url(#p625916a9c8)" d="M 314.077091 307.584 
L 320.570182 307.584 
L 320.570182 245.193675 
L 314.077091 245.193675 
z
" style="fill:#3d65c2;"/>
   </g>
   <g id="patch_41">
    <path clip-path="url(#p625916a9c8)" d="M 320.570182 307.584 
L 327.063273 307.584 
L 327.063273 258.012309 
L 320.570182 258.012309 
z
" style="fill:#3d65c2;"/>
   </g>
   <g id="patch_42">
    <path clip-path="url(#p625916a9c8)" d="M 327.063273 307.584 
L 333.556364 307.584 
L 333.556364 270.547135 
L 327.063273 270.547135 
z
" style="fill:#3d65c2;"/>
   </g>
   <g id="patch_43">
    <path clip-path="url(#p625916a9c8)" d="M 333.556364 307.584 
L 340.049455 307.584 
L 340.049455 275.371861 
L 333.556364 275.371861 
z
" style="fill:#3d65c2;"/>
   </g>
   <g id="patch_44">
    <path clip-path="url(#p625916a9c8)" d="M 340.049455 307.584 
L 346.542545 307.584 
L 346.542545 286.86606 
L 340.049455 286.86606 
z
" style="fill:#3d65c2;"/>
   </g>
   <g id="patch_45">
    <path clip-path="url(#p625916a9c8)" d="M 346.542545 307.584 
L 353.035636 307.584 
L 353.035636 290.602858 
L 346.542545 290.602858 
z
" style="fill:#3d65c2;"/>
   </g>
   <g id="patch_46">
    <path clip-path="url(#p625916a9c8)" d="M 353.035636 307.584 
L 359.528727 307.584 
L 359.528727 295.995198 
L 353.035636 295.995198 
z
" style="fill:#3d65c2;"/>
   </g>
   <g id="patch_47">
    <path clip-path="url(#p625916a9c8)" d="M 359.528727 307.584 
L 366.021818 307.584 
L 366.021818 297.98185 
L 359.528727 297.98185 
z
" style="fill:#3d65c2;"/>
   </g>
   <g id="patch_48">
    <path clip-path="url(#p625916a9c8)" d="M 366.021818 307.584 
L 372.514909 307.584 
L 372.514909 301.624045 
L 366.021818 301.624045 
z
" style="fill:#3d65c2;"/>
   </g>
   <g id="patch_49">
    <path clip-path="url(#p625916a9c8)" d="M 372.514909 307.584 
L 379.008 307.584 
L 379.008 303.610697 
L 372.514909 303.610697 
z
" style="fill:#3d65c2;"/>
   </g>
   <g id="patch_50">
    <path clip-path="url(#p625916a9c8)" d="M 379.008 307.584 
L 385.501091 307.584 
L 385.501091 304.88783 
L 379.008 304.88783 
z
" style="fill:#3d65c2;"/>
   </g>
   <g id="patch_51">
    <path clip-path="url(#p625916a9c8)" d="M 385.501091 307.584 
L 391.994182 307.584 
L 391.994182 306.117662 
L 385.501091 306.117662 
z
" style="fill:#3d65c2;"/>
   </g>
   <g id="patch_52">
    <path clip-path="url(#p625916a9c8)" d="M 391.994182 307.584 
L 398.487273 307.584 
L 398.487273 306.685277 
L 391.994182 306.685277 
z
" style="fill:#3d65c2;"/>
   </g>
   <g id="matplotlib.axis_1"/>
   <g id="matplotlib.axis_2"/>
   <g id="patch_53">
    <path d="M 57.6 307.584 
L 57.6 41.472 
" style="fill:none;"/>
   </g>
   <g id="patch_54">
    <path d="M 414.72 307.584 
L 414.72 41.472 
" style="fill:none;"/>
   </g>
   <g id="patch_55">
    <path d="M 57.6 307.584 
L 414.72 307.584 
" style="fill:none;"/>
   </g>
   <g id="patch_56">
    <path d="M 57.6 41.472 
L 414.72 41.472 
" style="fill:none;"/>
   </g>
   <g id="text_1">
    <!-- Symmetric -->
    <defs>
     <path d="M 53.515625 70.515625 
L 53.515625 60.890625 
Q 47.90625 63.578125 42.921875 64.890625 
Q 37.9375 66.21875 33.296875 66.21875 
Q 25.25 66.21875 20.875 63.09375 
Q 16.5 59.96875 16.5 54.203125 
Q 16.5 49.359375 19.40625 46.890625 
Q 22.3125 44.4375 30.421875 42.921875 
L 36.375 41.703125 
Q 47.40625 39.59375 52.65625 34.296875 
Q 57.90625 29 57.90625 20.125 
Q 57.90625 9.515625 50.796875 4.046875 
Q 43.703125 -1.421875 29.984375 -1.421875 
Q 24.8125 -1.421875 18.96875 -0.25 
Q 13.140625 0.921875 6.890625 3.21875 
L 6.890625 13.375 
Q 12.890625 10.015625 18.65625 8.296875 
Q 24.421875 6.59375 29.984375 6.59375 
Q 38.421875 6.59375 43.015625 9.90625 
Q 47.609375 13.234375 47.609375 19.390625 
Q 47.609375 24.75 44.3125 27.78125 
Q 41.015625 30.8125 33.5 32.328125 
L 27.484375 33.5 
Q 16.453125 35.6875 11.515625 40.375 
Q 6.59375 45.0625 6.59375 53.421875 
Q 6.59375 63.09375 13.40625 68.65625 
Q 20.21875 74.21875 32.171875 74.21875 
Q 37.3125 74.21875 42.625 73.28125 
Q 47.953125 72.359375 53.515625 70.515625 
z
" id="DejaVuSans-53"/>
     <path d="M 32.171875 -5.078125 
Q 28.375 -14.84375 24.75 -17.8125 
Q 21.140625 -20.796875 15.09375 -20.796875 
L 7.90625 -20.796875 
L 7.90625 -13.28125 
L 13.1875 -13.28125 
Q 16.890625 -13.28125 18.9375 -11.515625 
Q 21 -9.765625 23.484375 -3.21875 
L 25.09375 0.875 
L 2.984375 54.6875 
L 12.5 54.6875 
L 29.59375 11.921875 
L 46.6875 54.6875 
L 56.203125 54.6875 
z
" id="DejaVuSans-79"/>
     <path d="M 52 44.1875 
Q 55.375 50.25 60.0625 53.125 
Q 64.75 56 71.09375 56 
Q 79.640625 56 84.28125 50.015625 
Q 88.921875 44.046875 88.921875 33.015625 
L 88.921875 0 
L 79.890625 0 
L 79.890625 32.71875 
Q 79.890625 40.578125 77.09375 44.375 
Q 74.3125 48.1875 68.609375 48.1875 
Q 61.625 48.1875 57.5625 43.546875 
Q 53.515625 38.921875 53.515625 30.90625 
L 53.515625 0 
L 44.484375 0 
L 44.484375 32.71875 
Q 44.484375 40.625 41.703125 44.40625 
Q 38.921875 48.1875 33.109375 48.1875 
Q 26.21875 48.1875 22.15625 43.53125 
Q 18.109375 38.875 18.109375 30.90625 
L 18.109375 0 
L 9.078125 0 
L 9.078125 54.6875 
L 18.109375 54.6875 
L 18.109375 46.1875 
Q 21.1875 51.21875 25.484375 53.609375 
Q 29.78125 56 35.6875 56 
Q 41.65625 56 45.828125 52.96875 
Q 50 49.953125 52 44.1875 
z
" id="DejaVuSans-6d"/>
     <path d="M 56.203125 29.59375 
L 56.203125 25.203125 
L 14.890625 25.203125 
Q 15.484375 15.921875 20.484375 11.0625 
Q 25.484375 6.203125 34.421875 6.203125 
Q 39.59375 6.203125 44.453125 7.46875 
Q 49.3125 8.734375 54.109375 11.28125 
L 54.109375 2.78125 
Q 49.265625 0.734375 44.1875 -0.34375 
Q 39.109375 -1.421875 33.890625 -1.421875 
Q 20.796875 -1.421875 13.15625 6.1875 
Q 5.515625 13.8125 5.515625 26.8125 
Q 5.515625 40.234375 12.765625 48.109375 
Q 20.015625 56 32.328125 56 
Q 43.359375 56 49.78125 48.890625 
Q 56.203125 41.796875 56.203125 29.59375 
z
M 47.21875 32.234375 
Q 47.125 39.59375 43.09375 43.984375 
Q 39.0625 48.390625 32.421875 48.390625 
Q 24.90625 48.390625 20.390625 44.140625 
Q 15.875 39.890625 15.1875 32.171875 
z
" id="DejaVuSans-65"/>
     <path d="M 18.3125 70.21875 
L 18.3125 54.6875 
L 36.8125 54.6875 
L 36.8125 47.703125 
L 18.3125 47.703125 
L 18.3125 18.015625 
Q 18.3125 11.328125 20.140625 9.421875 
Q 21.96875 7.515625 27.59375 7.515625 
L 36.8125 7.515625 
L 36.8125 0 
L 27.59375 0 
Q 17.1875 0 13.234375 3.875 
Q 9.28125 7.765625 9.28125 18.015625 
L 9.28125 47.703125 
L 2.6875 47.703125 
L 2.6875 54.6875 
L 9.28125 54.6875 
L 9.28125 70.21875 
z
" id="DejaVuSans-74"/>
     <path d="M 41.109375 46.296875 
Q 39.59375 47.171875 37.8125 47.578125 
Q 36.03125 48 33.890625 48 
Q 26.265625 48 22.1875 43.046875 
Q 18.109375 38.09375 18.109375 28.8125 
L 18.109375 0 
L 9.078125 0 
L 9.078125 54.6875 
L 18.109375 54.6875 
L 18.109375 46.1875 
Q 20.953125 51.171875 25.484375 53.578125 
Q 30.03125 56 36.53125 56 
Q 37.453125 56 38.578125 55.875 
Q 39.703125 55.765625 41.0625 55.515625 
z
" id="DejaVuSans-72"/>
     <path d="M 9.421875 54.6875 
L 18.40625 54.6875 
L 18.40625 0 
L 9.421875 0 
z
M 9.421875 75.984375 
L 18.40625 75.984375 
L 18.40625 64.59375 
L 9.421875 64.59375 
z
" id="DejaVuSans-69"/>
     <path d="M 48.78125 52.59375 
L 48.78125 44.1875 
Q 44.96875 46.296875 41.140625 47.34375 
Q 37.3125 48.390625 33.40625 48.390625 
Q 24.65625 48.390625 19.8125 42.84375 
Q 14.984375 37.3125 14.984375 27.296875 
Q 14.984375 17.28125 19.8125 11.734375 
Q 24.65625 6.203125 33.40625 6.203125 
Q 37.3125 6.203125 41.140625 7.25 
Q 44.96875 8.296875 48.78125 10.40625 
L 48.78125 2.09375 
Q 45.015625 0.34375 40.984375 -0.53125 
Q 36.96875 -1.421875 32.421875 -1.421875 
Q 20.0625 -1.421875 12.78125 6.34375 
Q 5.515625 14.109375 5.515625 27.296875 
Q 5.515625 40.671875 12.859375 48.328125 
Q 20.21875 56 33.015625 56 
Q 37.15625 56 41.109375 55.140625 
Q 45.0625 54.296875 48.78125 52.59375 
z
" id="DejaVuSans-63"/>
    </defs>
    <g transform="translate(203.634375 35.472)scale(0.12 -0.12)">
     <use xlink:href="#DejaVuSans-53"/>
     <use x="63.476562" xlink:href="#DejaVuSans-79"/>
     <use x="122.65625" xlink:href="#DejaVuSans-6d"/>
     <use x="220.068359" xlink:href="#DejaVuSans-6d"/>
     <use x="317.480469" xlink:href="#DejaVuSans-65"/>
     <use x="379.003906" xlink:href="#DejaVuSans-74"/>
     <use x="418.212891" xlink:href="#DejaVuSans-72"/>
     <use x="459.326172" xlink:href="#DejaVuSans-69"/>
     <use x="487.109375" xlink:href="#DejaVuSans-63"/>
    </g>
   </g>
  </g>
 </g>
 <defs>
  <clipPath id="p625916a9c8">
   <rect height="266.112" width="357.12" x="57.6" y="41.472"/>
  </clipPath>
 </defs>
</svg>
