<?xml version="1.0" encoding="utf-8" standalone="no"?>
<!DOCTYPE svg PUBLIC "-//W3C//DTD SVG 1.1//EN"
  "http://www.w3.org/Graphics/SVG/1.1/DTD/svg11.dtd">
<!-- Created with matplotlib (http://matplotlib.org/) -->
<svg height="345pt" version="1.1" viewBox="0 0 460 345" width="460pt" xmlns="http://www.w3.org/2000/svg" xmlns:xlink="http://www.w3.org/1999/xlink">
 <defs>
  <style type="text/css">
*{stroke-linecap:butt;stroke-linejoin:round;}
  </style>
 </defs>
 <g id="figure_1">
  <g id="patch_1">
   <path d="M 0 345.6 
L 460.8 345.6 
L 460.8 0 
L 0 0 
z
" style="fill:#ffffff;"/>
  </g>
  <g id="axes_1">
   <g id="patch_2">
    <path d="M 57.6 307.584 
L 414.72 307.584 
L 414.72 41.472 
L 57.6 41.472 
z
" style="fill:#ffffff;"/>
   </g>
   <g id="patch_3">
    <path clip-path="url(#p5f129c8cd8)" d="M 73.832727 307.584 
L 80.325818 307.584 
L 80.325818 244.224 
L 73.832727 244.224 
z
" style="fill:#3d65c2;"/>
   </g>
   <g id="patch_4">
    <path clip-path="url(#p5f129c8cd8)" d="M 80.325818 307.584 
L 86.818909 307.584 
L 86.818909 201.733763 
L 80.325818 201.733763 
z
" style="fill:#3d65c2;"/>
   </g>
   <g id="patch_5">
    <path clip-path="url(#p5f129c8cd8)" d="M 86.818909 307.584 
L 93.312 307.584 
L 93.312 149.033858 
L 86.818909 149.033858 
z
" style="fill:#3d65c2;"/>
   </g>
   <g id="patch_6">
    <path clip-path="url(#p5f129c8cd8)" d="M 93.312 307.584 
L 99.805091 307.584 
L 99.805091 84.322578 
L 93.312 84.322578 
z
" style="fill:#3d65c2;"/>
   </g>
   <g id="patch_7">
    <path clip-path="url(#p5f129c8cd8)" d="M 99.805091 307.584 
L 106.298182 307.584 
L 106.298182 55.044853 
L 99.805091 55.044853 
z
" style="fill:#3d65c2;"/>
   </g>
   <g id="patch_8">
    <path clip-path="url(#p5f129c8cd8)" d="M 106.298182 307.584 
L 112.791273 307.584 
L 112.791273 54.144 
L 106.298182 54.144 
z
" style="fill:#3d65c2;"/>
   </g>
   <g id="patch_9">
    <path clip-path="url(#p5f129c8cd8)" d="M 112.791273 307.584 
L 119.284364 307.584 
L 119.284364 97.835374 
L 112.791273 97.835374 
z
" style="fill:#3d65c2;"/>
   </g>
   <g id="patch_10">
    <path clip-path="url(#p5f129c8cd8)" d="M 119.284364 307.584 
L 125.777455 307.584 
L 125.777455 134.770351 
L 119.284364 134.770351 
z
" style="fill:#3d65c2;"/>
   </g>
   <g id="patch_11">
    <path clip-path="url(#p5f129c8cd8)" d="M 125.777455 307.584 
L 132.270545 307.584 
L 132.270545 200.682768 
L 125.777455 200.682768 
z
" style="fill:#3d65c2;"/>
   </g>
   <g id="patch_12">
    <path clip-path="url(#p5f129c8cd8)" d="M 132.270545 307.584 
L 138.763636 307.584 
L 138.763636 234.6149 
L 132.270545 234.6149 
z
" style="fill:#3d65c2;"/>
   </g>
   <g id="patch_13">
    <path clip-path="url(#p5f129c8cd8)" d="M 138.763636 307.584 
L 145.256727 307.584 
L 145.256727 266.595185 
L 138.763636 266.595185 
z
" style="fill:#3d65c2;"/>
   </g>
   <g id="patch_14">
    <path clip-path="url(#p5f129c8cd8)" d="M 145.256727 307.584 
L 151.749818 307.584 
L 151.749818 276.954995 
L 145.256727 276.954995 
z
" style="fill:#3d65c2;"/>
   </g>
   <g id="patch_15">
    <path clip-path="url(#p5f129c8cd8)" d="M 151.749818 307.584 
L 158.242909 307.584 
L 158.242909 284.762389 
L 151.749818 284.762389 
z
" style="fill:#3d65c2;"/>
   </g>
   <g id="patch_16">
    <path clip-path="url(#p5f129c8cd8)" d="M 158.242909 307.584 
L 164.736 307.584 
L 164.736 287.314806 
L 158.242909 287.314806 
z
" style="fill:#3d65c2;"/>
   </g>
   <g id="patch_17">
    <path clip-path="url(#p5f129c8cd8)" d="M 164.736 307.584 
L 171.229091 307.584 
L 171.229091 288.065517 
L 164.736 288.065517 
z
" style="fill:#3d65c2;"/>
   </g>
   <g id="patch_18">
    <path clip-path="url(#p5f129c8cd8)" d="M 171.229091 307.584 
L 177.722182 307.584 
L 177.722182 287.915374 
L 171.229091 287.915374 
z
" style="fill:#3d65c2;"/>
   </g>
   <g id="patch_19">
    <path clip-path="url(#p5f129c8cd8)" d="M 177.722182 307.584 
L 184.215273 307.584 
L 184.215273 288.215659 
L 177.722182 288.215659 
z
" style="fill:#3d65c2;"/>
   </g>
   <g id="patch_20">
    <path clip-path="url(#p5f129c8cd8)" d="M 184.215273 307.584 
L 190.708364 307.584 
L 190.708364 287.014521 
L 184.215273 287.014521 
z
" style="fill:#3d65c2;"/>
   </g>
   <g id="patch_21">
    <path clip-path="url(#p5f129c8cd8)" d="M 190.708364 307.584 
L 197.201455 307.584 
L 197.201455 287.314806 
L 190.708364 287.314806 
z
" style="fill:#3d65c2;"/>
   </g>
   <g id="patch_22">
    <path clip-path="url(#p5f129c8cd8)" d="M 197.201455 307.584 
L 203.694545 307.584 
L 203.694545 287.765232 
L 197.201455 287.765232 
z
" style="fill:#3d65c2;"/>
   </g>
   <g id="patch_23">
    <path clip-path="url(#p5f129c8cd8)" d="M 203.694545 307.584 
L 210.187636 307.584 
L 210.187636 289.266654 
L 203.694545 289.266654 
z
" style="fill:#3d65c2;"/>
   </g>
   <g id="patch_24">
    <path clip-path="url(#p5f129c8cd8)" d="M 210.187636 307.584 
L 216.680727 307.584 
L 216.680727 290.768076 
L 210.187636 290.768076 
z
" style="fill:#3d65c2;"/>
   </g>
   <g id="patch_25">
    <path clip-path="url(#p5f129c8cd8)" d="M 216.680727 307.584 
L 223.173818 307.584 
L 223.173818 290.317649 
L 216.680727 290.317649 
z
" style="fill:#3d65c2;"/>
   </g>
   <g id="patch_26">
    <path clip-path="url(#p5f129c8cd8)" d="M 223.173818 307.584 
L 229.666909 307.584 
L 229.666909 291.218502 
L 223.173818 291.218502 
z
" style="fill:#3d65c2;"/>
   </g>
   <g id="patch_27">
    <path clip-path="url(#p5f129c8cd8)" d="M 229.666909 307.584 
L 236.16 307.584 
L 236.16 290.467791 
L 229.666909 290.467791 
z
" style="fill:#3d65c2;"/>
   </g>
   <g id="patch_28">
    <path clip-path="url(#p5f129c8cd8)" d="M 236.16 307.584 
L 242.653091 307.584 
L 242.653091 293.020209 
L 236.16 293.020209 
z
" style="fill:#3d65c2;"/>
   </g>
   <g id="patch_29">
    <path clip-path="url(#p5f129c8cd8)" d="M 242.653091 307.584 
L 249.146182 307.584 
L 249.146182 292.269498 
L 242.653091 292.269498 
z
" style="fill:#3d65c2;"/>
   </g>
   <g id="patch_30">
    <path clip-path="url(#p5f129c8cd8)" d="M 249.146182 307.584 
L 255.639273 307.584 
L 255.639273 292.41964 
L 249.146182 292.41964 
z
" style="fill:#3d65c2;"/>
   </g>
   <g id="patch_31">
    <path clip-path="url(#p5f129c8cd8)" d="M 255.639273 307.584 
L 262.132364 307.584 
L 262.132364 294.972057 
L 255.639273 294.972057 
z
" style="fill:#3d65c2;"/>
   </g>
   <g id="patch_32">
    <path clip-path="url(#p5f129c8cd8)" d="M 262.132364 307.584 
L 268.625455 307.584 
L 268.625455 296.473479 
L 262.132364 296.473479 
z
" style="fill:#3d65c2;"/>
   </g>
   <g id="patch_33">
    <path clip-path="url(#p5f129c8cd8)" d="M 268.625455 307.584 
L 275.118545 307.584 
L 275.118545 293.020209 
L 268.625455 293.020209 
z
" style="fill:#3d65c2;"/>
   </g>
   <g id="patch_34">
    <path clip-path="url(#p5f129c8cd8)" d="M 275.118545 307.584 
L 281.611636 307.584 
L 281.611636 296.023052 
L 275.118545 296.023052 
z
" style="fill:#3d65c2;"/>
   </g>
   <g id="patch_35">
    <path clip-path="url(#p5f129c8cd8)" d="M 281.611636 307.584 
L 288.104727 307.584 
L 288.104727 296.023052 
L 281.611636 296.023052 
z
" style="fill:#3d65c2;"/>
   </g>
   <g id="patch_36">
    <path clip-path="url(#p5f129c8cd8)" d="M 288.104727 307.584 
L 294.597818 307.584 
L 294.597818 298.275185 
L 288.104727 298.275185 
z
" style="fill:#3d65c2;"/>
   </g>
   <g id="patch_37">
    <path clip-path="url(#p5f129c8cd8)" d="M 294.597818 307.584 
L 301.090909 307.584 
L 301.090909 298.875754 
L 294.597818 298.875754 
z
" style="fill:#3d65c2;"/>
   </g>
   <g id="patch_38">
    <path clip-path="url(#p5f129c8cd8)" d="M 301.090909 307.584 
L 307.584 307.584 
L 307.584 298.725611 
L 301.090909 298.725611 
z
" style="fill:#3d65c2;"/>
   </g>
   <g id="patch_39">
    <path clip-path="url(#p5f129c8cd8)" d="M 307.584 307.584 
L 314.077091 307.584 
L 314.077091 298.875754 
L 307.584 298.875754 
z
" style="fill:#3d65c2;"/>
   </g>
   <g id="patch_40">
    <path clip-path="url(#p5f129c8cd8)" d="M 314.077091 307.584 
L 320.570182 307.584 
L 320.570182 300.827602 
L 314.077091 300.827602 
z
" style="fill:#3d65c2;"/>
   </g>
   <g id="patch_41">
    <path clip-path="url(#p5f129c8cd8)" d="M 320.570182 307.584 
L 327.063273 307.584 
L 327.063273 300.227033 
L 320.570182 300.227033 
z
" style="fill:#3d65c2;"/>
   </g>
   <g id="patch_42">
    <path clip-path="url(#p5f129c8cd8)" d="M 327.063273 307.584 
L 333.556364 307.584 
L 333.556364 301.278028 
L 327.063273 301.278028 
z
" style="fill:#3d65c2;"/>
   </g>
   <g id="patch_43">
    <path clip-path="url(#p5f129c8cd8)" d="M 333.556364 307.584 
L 340.049455 307.584 
L 340.049455 301.278028 
L 333.556364 301.278028 
z
" style="fill:#3d65c2;"/>
   </g>
   <g id="patch_44">
    <path clip-path="url(#p5f129c8cd8)" d="M 340.049455 307.584 
L 346.542545 307.584 
L 346.542545 300.527318 
L 340.049455 300.527318 
z
" style="fill:#3d65c2;"/>
   </g>
   <g id="patch_45">
    <path clip-path="url(#p5f129c8cd8)" d="M 346.542545 307.584 
L 353.035636 307.584 
L 353.035636 303.830445 
L 346.542545 303.830445 
z
" style="fill:#3d65c2;"/>
   </g>
   <g id="patch_46">
    <path clip-path="url(#p5f129c8cd8)" d="M 353.035636 307.584 
L 359.528727 307.584 
L 359.528727 303.980588 
L 353.035636 303.980588 
z
" style="fill:#3d65c2;"/>
   </g>
   <g id="patch_47">
    <path clip-path="url(#p5f129c8cd8)" d="M 359.528727 307.584 
L 366.021818 307.584 
L 366.021818 303.680303 
L 359.528727 303.680303 
z
" style="fill:#3d65c2;"/>
   </g>
   <g id="patch_48">
    <path clip-path="url(#p5f129c8cd8)" d="M 366.021818 307.584 
L 372.514909 307.584 
L 372.514909 304.13073 
L 366.021818 304.13073 
z
" style="fill:#3d65c2;"/>
   </g>
   <g id="patch_49">
    <path clip-path="url(#p5f129c8cd8)" d="M 372.514909 307.584 
L 379.008 307.584 
L 379.008 304.431014 
L 372.514909 304.431014 
z
" style="fill:#3d65c2;"/>
   </g>
   <g id="patch_50">
    <path clip-path="url(#p5f129c8cd8)" d="M 379.008 307.584 
L 385.501091 307.584 
L 385.501091 305.031583 
L 379.008 305.031583 
z
" style="fill:#3d65c2;"/>
   </g>
   <g id="patch_51">
    <path clip-path="url(#p5f129c8cd8)" d="M 385.501091 307.584 
L 391.994182 307.584 
L 391.994182 305.632152 
L 385.501091 305.632152 
z
" style="fill:#3d65c2;"/>
   </g>
   <g id="patch_52">
    <path clip-path="url(#p5f129c8cd8)" d="M 391.994182 307.584 
L 398.487273 307.584 
L 398.487273 305.632152 
L 391.994182 305.632152 
z
" style="fill:#3d65c2;"/>
   </g>
   <g id="matplotlib.axis_1"/>
   <g id="matplotlib.axis_2"/>
   <g id="patch_53">
    <path d="M 57.6 307.584 
L 57.6 41.472 
" style="fill:none;"/>
   </g>
   <g id="patch_54">
    <path d="M 414.72 307.584 
L 414.72 41.472 
" style="fill:none;"/>
   </g>
   <g id="patch_55">
    <path d="M 57.6 307.584 
L 414.72 307.584 
" style="fill:none;"/>
   </g>
   <g id="patch_56">
    <path d="M 57.6 41.472 
L 414.72 41.472 
" style="fill:none;"/>
   </g>
   <g id="text_1">
    <!-- Skew-Right -->
    <defs>
     <path d="M 53.515625 70.515625 
L 53.515625 60.890625 
Q 47.90625 63.578125 42.921875 64.890625 
Q 37.9375 66.21875 33.296875 66.21875 
Q 25.25 66.21875 20.875 63.09375 
Q 16.5 59.96875 16.5 54.203125 
Q 16.5 49.359375 19.40625 46.890625 
Q 22.3125 44.4375 30.421875 42.921875 
L 36.375 41.703125 
Q 47.40625 39.59375 52.65625 34.296875 
Q 57.90625 29 57.90625 20.125 
Q 57.90625 9.515625 50.796875 4.046875 
Q 43.703125 -1.421875 29.984375 -1.421875 
Q 24.8125 -1.421875 18.96875 -0.25 
Q 13.140625 0.921875 6.890625 3.21875 
L 6.890625 13.375 
Q 12.890625 10.015625 18.65625 8.296875 
Q 24.421875 6.59375 29.984375 6.59375 
Q 38.421875 6.59375 43.015625 9.90625 
Q 47.609375 13.234375 47.609375 19.390625 
Q 47.609375 24.75 44.3125 27.78125 
Q 41.015625 30.8125 33.5 32.328125 
L 27.484375 33.5 
Q 16.453125 35.6875 11.515625 40.375 
Q 6.59375 45.0625 6.59375 53.421875 
Q 6.59375 63.09375 13.40625 68.65625 
Q 20.21875 74.21875 32.171875 74.21875 
Q 37.3125 74.21875 42.625 73.28125 
Q 47.953125 72.359375 53.515625 70.515625 
z
" id="DejaVuSans-53"/>
     <path d="M 9.078125 75.984375 
L 18.109375 75.984375 
L 18.109375 31.109375 
L 44.921875 54.6875 
L 56.390625 54.6875 
L 27.390625 29.109375 
L 57.625 0 
L 45.90625 0 
L 18.109375 26.703125 
L 18.109375 0 
L 9.078125 0 
z
" id="DejaVuSans-6b"/>
     <path d="M 56.203125 29.59375 
L 56.203125 25.203125 
L 14.890625 25.203125 
Q 15.484375 15.921875 20.484375 11.0625 
Q 25.484375 6.203125 34.421875 6.203125 
Q 39.59375 6.203125 44.453125 7.46875 
Q 49.3125 8.734375 54.109375 11.28125 
L 54.109375 2.78125 
Q 49.265625 0.734375 44.1875 -0.34375 
Q 39.109375 -1.421875 33.890625 -1.421875 
Q 20.796875 -1.421875 13.15625 6.1875 
Q 5.515625 13.8125 5.515625 26.8125 
Q 5.515625 40.234375 12.765625 48.109375 
Q 20.015625 56 32.328125 56 
Q 43.359375 56 49.78125 48.890625 
Q 56.203125 41.796875 56.203125 29.59375 
z
M 47.21875 32.234375 
Q 47.125 39.59375 43.09375 43.984375 
Q 39.0625 48.390625 32.421875 48.390625 
Q 24.90625 48.390625 20.390625 44.140625 
Q 15.875 39.890625 15.1875 32.171875 
z
" id="DejaVuSans-65"/>
     <path d="M 4.203125 54.6875 
L 13.1875 54.6875 
L 24.421875 12.015625 
L 35.59375 54.6875 
L 46.1875 54.6875 
L 57.421875 12.015625 
L 68.609375 54.6875 
L 77.59375 54.6875 
L 63.28125 0 
L 52.6875 0 
L 40.921875 44.828125 
L 29.109375 0 
L 18.5 0 
z
" id="DejaVuSans-77"/>
     <path d="M 4.890625 31.390625 
L 31.203125 31.390625 
L 31.203125 23.390625 
L 4.890625 23.390625 
z
" id="DejaVuSans-2d"/>
     <path d="M 44.390625 34.1875 
Q 47.5625 33.109375 50.5625 29.59375 
Q 53.5625 26.078125 56.59375 19.921875 
L 66.609375 0 
L 56 0 
L 46.6875 18.703125 
Q 43.0625 26.03125 39.671875 28.421875 
Q 36.28125 30.8125 30.421875 30.8125 
L 19.671875 30.8125 
L 19.671875 0 
L 9.8125 0 
L 9.8125 72.90625 
L 32.078125 72.90625 
Q 44.578125 72.90625 50.734375 67.671875 
Q 56.890625 62.453125 56.890625 51.90625 
Q 56.890625 45.015625 53.6875 40.46875 
Q 50.484375 35.9375 44.390625 34.1875 
z
M 19.671875 64.796875 
L 19.671875 38.921875 
L 32.078125 38.921875 
Q 39.203125 38.921875 42.84375 42.21875 
Q 46.484375 45.515625 46.484375 51.90625 
Q 46.484375 58.296875 42.84375 61.546875 
Q 39.203125 64.796875 32.078125 64.796875 
z
" id="DejaVuSans-52"/>
     <path d="M 9.421875 54.6875 
L 18.40625 54.6875 
L 18.40625 0 
L 9.421875 0 
z
M 9.421875 75.984375 
L 18.40625 75.984375 
L 18.40625 64.59375 
L 9.421875 64.59375 
z
" id="DejaVuSans-69"/>
     <path d="M 45.40625 27.984375 
Q 45.40625 37.75 41.375 43.109375 
Q 37.359375 48.484375 30.078125 48.484375 
Q 22.859375 48.484375 18.828125 43.109375 
Q 14.796875 37.75 14.796875 27.984375 
Q 14.796875 18.265625 18.828125 12.890625 
Q 22.859375 7.515625 30.078125 7.515625 
Q 37.359375 7.515625 41.375 12.890625 
Q 45.40625 18.265625 45.40625 27.984375 
z
M 54.390625 6.78125 
Q 54.390625 -7.171875 48.1875 -13.984375 
Q 42 -20.796875 29.203125 -20.796875 
Q 24.46875 -20.796875 20.265625 -20.09375 
Q 16.0625 -19.390625 12.109375 -17.921875 
L 12.109375 -9.1875 
Q 16.0625 -11.328125 19.921875 -12.34375 
Q 23.78125 -13.375 27.78125 -13.375 
Q 36.625 -13.375 41.015625 -8.765625 
Q 45.40625 -4.15625 45.40625 5.171875 
L 45.40625 9.625 
Q 42.625 4.78125 38.28125 2.390625 
Q 33.9375 0 27.875 0 
Q 17.828125 0 11.671875 7.65625 
Q 5.515625 15.328125 5.515625 27.984375 
Q 5.515625 40.671875 11.671875 48.328125 
Q 17.828125 56 27.875 56 
Q 33.9375 56 38.28125 53.609375 
Q 42.625 51.21875 45.40625 46.390625 
L 45.40625 54.6875 
L 54.390625 54.6875 
z
" id="DejaVuSans-67"/>
     <path d="M 54.890625 33.015625 
L 54.890625 0 
L 45.90625 0 
L 45.90625 32.71875 
Q 45.90625 40.484375 42.875 44.328125 
Q 39.84375 48.1875 33.796875 48.1875 
Q 26.515625 48.1875 22.3125 43.546875 
Q 18.109375 38.921875 18.109375 30.90625 
L 18.109375 0 
L 9.078125 0 
L 9.078125 75.984375 
L 18.109375 75.984375 
L 18.109375 46.1875 
Q 21.34375 51.125 25.703125 53.5625 
Q 30.078125 56 35.796875 56 
Q 45.21875 56 50.046875 50.171875 
Q 54.890625 44.34375 54.890625 33.015625 
z
" id="DejaVuSans-68"/>
     <path d="M 18.3125 70.21875 
L 18.3125 54.6875 
L 36.8125 54.6875 
L 36.8125 47.703125 
L 18.3125 47.703125 
L 18.3125 18.015625 
Q 18.3125 11.328125 20.140625 9.421875 
Q 21.96875 7.515625 27.59375 7.515625 
L 36.8125 7.515625 
L 36.8125 0 
L 27.59375 0 
Q 17.1875 0 13.234375 3.875 
Q 9.28125 7.765625 9.28125 18.015625 
L 9.28125 47.703125 
L 2.6875 47.703125 
L 2.6875 54.6875 
L 9.28125 54.6875 
L 9.28125 70.21875 
z
" id="DejaVuSans-74"/>
    </defs>
    <g transform="translate(202.31625 35.472)scale(0.12 -0.12)">
     <use xlink:href="#DejaVuSans-53"/>
     <use x="63.476562" xlink:href="#DejaVuSans-6b"/>
     <use x="121.339844" xlink:href="#DejaVuSans-65"/>
     <use x="182.863281" xlink:href="#DejaVuSans-77"/>
     <use x="264.650391" xlink:href="#DejaVuSans-2d"/>
     <use x="300.734375" xlink:href="#DejaVuSans-52"/>
     <use x="370.216797" xlink:href="#DejaVuSans-69"/>
     <use x="398" xlink:href="#DejaVuSans-67"/>
     <use x="461.476562" xlink:href="#DejaVuSans-68"/>
     <use x="524.855469" xlink:href="#DejaVuSans-74"/>
    </g>
   </g>
  </g>
 </g>
 <defs>
  <clipPath id="p5f129c8cd8">
   <rect height="266.112" width="357.12" x="57.6" y="41.472"/>
  </clipPath>
 </defs>
</svg>
