<?xml version="1.0" encoding="UTF-8"?>
<svg width="545px" height="297px" viewBox="0 0 545 297" version="1.1" xmlns="http://www.w3.org/2000/svg" xmlns:xlink="http://www.w3.org/1999/xlink">
    <!-- Generator: Sketch 46.2 (44496) - http://www.bohemiancoding.com/sketch -->
    <title>Artboard</title>
    <desc>Created with Sketch.</desc>
    <defs></defs>
    <g id="Page-1" stroke="none" stroke-width="1" fill="none" fill-rule="evenodd">
        <g id="Artboard"></g>
        <g id="formula_2">
            <polygon id="Page-1" points="0 297 545 297 545 0 0 0"></polygon>
            <g id="Group" transform="translate(110.000000, 114.000000)">
                <g id="Group-2">
                    <path d="M120.193609,33.5 L325.807849,33.5" id="Line" stroke="#000000" stroke-linecap="square"></path>
                    <path d="M2.78515625,37 L0.7109375,37 L0.7109375,19.46875 L6.359375,19.46875 C7.2187543,19.46875 7.99609027,19.5585929 8.69140625,19.7382812 C9.3867222,19.9179696 10.0039036,20.1914044 10.5429688,20.5585938 C11.0820339,20.9257831 11.4999985,21.4179657 11.796875,22.0351562 C12.0937515,22.6523468 12.2421875,23.3710896 12.2421875,24.1914062 C12.2421875,24.8710971 12.1796881,25.4785129 12.0546875,26.0136719 C11.9296869,26.5488308 11.7148453,27.0507789 11.4101563,27.5195312 C11.1054672,27.9882836 10.7070337,28.3769516 10.2148438,28.6855469 C9.7226538,28.9941422 9.0918007,29.2363272 8.32226562,29.4121094 C7.55273053,29.5878915 6.66016133,29.6757812 5.64453125,29.6757812 C4.83983973,29.6757812 3.88672426,29.6250005 2.78515625,29.5234375 L2.78515625,37 Z M5.84375,27.8828125 C6.60937883,27.8828125 7.26562227,27.8085945 7.8125,27.6601562 C8.35937773,27.511718 8.77929541,27.3281261 9.0722656,27.109375 C9.3652358,26.8906239 9.5957023,26.6054705 9.7636719,26.2539062 C9.9316415,25.902342 10.0351561,25.5800796 10.0742188,25.2871094 C10.1132814,24.9941392 10.1328125,24.6406271 10.1328125,24.2265625 C10.1328125,23.23437 9.7988315,22.5039086 9.1308594,22.0351562 C8.46288729,21.5664039 7.55469324,21.3320312 6.40625,21.3320312 L2.78515625,21.3320312 L2.78515625,27.859375 C4.29297629,27.8750001 5.31249734,27.8828125 5.84375,27.8828125 Z M23.0117188,39.8007812 C22.0195263,38.4257744 21.2421903,36.8437589 20.6796875,35.0546875 C20.1171847,33.2656161 19.8359375,31.4648528 19.8359375,29.6523438 C19.8359375,25.8710748 20.882802,22.4062657 22.9765625,19.2578125 L24.3710938,19.2578125 C23.2773383,21.1093843 22.5097678,22.8437419 22.0683594,24.4609375 C21.6269509,26.0781331 21.40625,27.7851473 21.40625,29.5820312 C21.40625,33.1054864 22.3945214,36.5117023 24.3710938,39.8007812 L23.0117188,39.8007812 Z M25.5546875,37 L32.3632813,19.5625 L33.8046875,19.5625 L40.3671875,37 L38.8203125,37 L36.59375,31.0820312 L29.3632813,31.0820312 L27.0429688,37 L25.5546875,37 Z M29.9375,29.9804688 L36.0546875,29.9804688 C34.2968662,24.9335685 33.3007824,21.9648482 33.0664062,21.0742188 C32.9726558,21.4179705 32.6640651,22.3320238 32.140625,23.8164062 C31.6171849,25.3007887 31.1171899,26.6992122 30.640625,28.0117188 L29.9375,29.9804688 Z M49.953125,41.8398438 L49.953125,18.1796875 L51.3476563,18.1796875 L51.3476563,41.8398438 L49.953125,41.8398438 Z M62.9960938,37 L62.9960938,19.5625 L67.7539062,19.5625 C69.9179796,19.5625 71.4980419,19.9218714 72.4941406,20.640625 C73.4902394,21.3593786 73.9882812,22.4531177 73.9882812,23.921875 C73.9882812,24.0937509 73.9863281,24.2226558 73.9824219,24.3085938 C73.9785156,24.3945317 73.9609377,24.5644519 73.9296875,24.8183594 C73.8984373,25.0722669 73.8496097,25.2851554 73.7832031,25.4570312 C73.7167965,25.6289071 73.613282,25.8417956 73.4726562,26.0957031 C73.3320305,26.3496106 73.1621104,26.5703116 72.9628906,26.7578125 C72.7636709,26.9453134 72.5039079,27.1347647 72.1835938,27.3261719 C71.8632796,27.5175791 71.500002,27.6757806 71.09375,27.8007812 C72.3125061,27.9804696 73.2460905,28.468746 73.8945312,29.265625 C74.542972,30.062504 74.8671875,31.0039008 74.8671875,32.0898438 C74.8671875,33.6289139 74.3789111,34.8320269 73.4023438,35.6992188 C72.4257764,36.5664106 70.9257914,37 68.9023438,37 L62.9960938,37 Z M64.4960938,35.828125 L68.515625,35.828125 C71.6797033,35.828125 73.2617188,34.5820437 73.2617188,32.0898438 C73.2617188,30.7382745 72.8242231,29.7988308 71.9492188,29.2714844 C71.0742144,28.744138 69.7031343,28.4804688 67.8359375,28.4804688 L64.4960938,28.4804688 L64.4960938,35.828125 Z M64.4960938,27.3320312 L68.4921875,27.3320312 C69.1093781,27.3320312 69.6406228,27.2851567 70.0859375,27.1914062 C70.5312522,27.0976558 70.9355451,26.9316418 71.2988281,26.6933594 C71.6621112,26.4550769 71.935546,26.1152366 72.1191406,25.6738281 C72.3027353,25.2324197 72.3945313,24.683597 72.3945313,24.0273438 C72.3945313,22.8085877 72.0175819,21.962893 71.2636719,21.4902344 C70.5097619,21.0175758 69.3164144,20.78125 67.6835938,20.78125 L64.4960938,20.78125 L64.4960938,27.3320312 Z M76.8007812,39.8007812 C78.7773536,36.5038898 79.765625,33.0976738 79.765625,29.5820312 C79.765625,27.7929598 79.542971,26.0878987 79.0976562,24.4667969 C78.6523415,22.845695 77.882818,21.1093843 76.7890625,19.2578125 L78.171875,19.2578125 C80.2812605,22.4609535 81.3359375,25.9257626 81.3359375,29.6523438 C81.3359375,31.4726654 81.0527372,33.2714755 80.4863281,35.0488281 C79.919919,36.8261808 79.14063,38.4101493 78.1484375,39.8007812 L76.8007812,39.8007812 Z M90.1367188,32.5820312 L90.1367188,30.9179688 L101.445312,30.9179688 L101.445312,32.5820312 L90.1367188,32.5820312 Z M90.125,27.6367188 L90.125,25.9492188 L101.445312,25.9492188 L101.445312,27.6367188 L90.125,27.6367188 Z" id="P-(A-|-B)-=" fill="#0A0A24" fill-rule="nonzero"></path>
                    <path d="M130.785156,19 L128.710938,19 L128.710938,1.46875 L134.359375,1.46875 C135.218754,1.46875 135.99609,1.55859285 136.691406,1.73828125 C137.386722,1.91796965 138.003904,2.19140441 138.542969,2.55859375 C139.082034,2.92578309 139.499999,3.41796566 139.796875,4.0351562 C140.093751,4.6523468 140.242188,5.3710896 140.242188,6.1914062 C140.242188,6.8710971 140.179688,7.4785129 140.054688,8.0136719 C139.929687,8.5488308 139.714845,9.0507789 139.410156,9.5195312 C139.105467,9.9882836 138.707034,10.3769516 138.214844,10.6855469 C137.722654,10.9941422 137.091801,11.2363272 136.322266,11.4121094 C135.552731,11.5878915 134.660161,11.6757812 133.644531,11.6757812 C132.83984,11.6757812 131.886724,11.6250005 130.785156,11.5234375 L130.785156,19 Z M133.84375,9.8828125 C134.609379,9.8828125 135.265622,9.8085945 135.8125,9.6601562 C136.359378,9.511718 136.779295,9.3281261 137.072266,9.109375 C137.365236,8.8906239 137.595702,8.6054705 137.763672,8.2539062 C137.931641,7.902342 138.035156,7.5800796 138.074219,7.2871094 C138.113281,6.9941392 138.132812,6.6406271 138.132812,6.2265625 C138.132812,5.23437 137.798831,4.5039086 137.130859,4.0351562 C136.462887,3.56640391 135.554693,3.33203125 134.40625,3.33203125 L130.785156,3.33203125 L130.785156,9.859375 C132.292976,9.8750001 133.312497,9.8828125 133.84375,9.8828125 Z M151.011719,21.8007812 C150.019526,20.4257744 149.24219,18.8437589 148.679688,17.0546875 C148.117185,15.2656161 147.835938,13.4648528 147.835938,11.6523438 C147.835938,7.8710748 148.882802,4.4062657 150.976562,1.2578125 L152.371094,1.2578125 C151.277338,3.10938426 150.509768,4.8437419 150.068359,6.4609375 C149.626951,8.0781331 149.40625,9.7851473 149.40625,11.5820312 C149.40625,15.1054864 150.394521,18.5117023 152.371094,21.8007812 L151.011719,21.8007812 Z M155.617188,19 L155.617188,1.5625 L160.375,1.5625 C162.539073,1.5625 164.119136,1.92187141 165.115234,2.640625 C166.111333,3.35937859 166.609375,4.4531177 166.609375,5.921875 C166.609375,6.0937509 166.607422,6.2226558 166.603516,6.3085938 C166.599609,6.3945317 166.582031,6.5644519 166.550781,6.8183594 C166.519531,7.0722669 166.470703,7.2851554 166.404297,7.4570312 C166.33789,7.6289071 166.234376,7.8417956 166.09375,8.0957031 C165.953124,8.3496106 165.783204,8.5703116 165.583984,8.7578125 C165.384765,8.9453134 165.125002,9.1347647 164.804688,9.3261719 C164.484373,9.5175791 164.121096,9.6757806 163.714844,9.8007812 C164.9336,9.9804696 165.867184,10.468746 166.515625,11.265625 C167.164066,12.062504 167.488281,13.0039008 167.488281,14.0898438 C167.488281,15.6289139 167.000005,16.8320269 166.023438,17.6992188 C165.04687,18.5664106 163.546885,19 161.523438,19 L155.617188,19 Z M157.117188,17.828125 L161.136719,17.828125 C164.300797,17.828125 165.882812,16.5820437 165.882812,14.0898438 C165.882812,12.7382745 165.445317,11.7988308 164.570312,11.2714844 C163.695308,10.744138 162.324228,10.4804688 160.457031,10.4804688 L157.117188,10.4804688 L157.117188,17.828125 Z M157.117188,9.3320312 L161.113281,9.3320312 C161.730472,9.3320312 162.261717,9.2851567 162.707031,9.1914062 C163.152346,9.0976558 163.556639,8.9316418 163.919922,8.6933594 C164.283205,8.4550769 164.55664,8.1152366 164.740234,7.6738281 C164.923829,7.2324197 165.015625,6.683597 165.015625,6.0273438 C165.015625,4.8085877 164.638676,3.96289299 163.884766,3.49023438 C163.130856,3.01757576 161.937508,2.78125 160.304688,2.78125 L157.117188,2.78125 L157.117188,9.3320312 Z M177.824219,23.8398438 L177.824219,0.1796875 L179.21875,0.1796875 L179.21875,23.8398438 L177.824219,23.8398438 Z M188.804688,19 L195.613281,1.5625 L197.054688,1.5625 L203.617188,19 L202.070312,19 L199.84375,13.0820312 L192.613281,13.0820312 L190.292969,19 L188.804688,19 Z M193.1875,11.9804688 L199.304688,11.9804688 C197.546866,6.9335685 196.550782,3.9648482 196.316406,3.07421875 C196.222656,3.41797047 195.914065,4.3320238 195.390625,5.8164062 C194.867185,7.3007887 194.36719,8.6992122 193.890625,10.0117188 L193.1875,11.9804688 Z M204.800781,21.8007812 C206.777354,18.5038898 207.765625,15.0976738 207.765625,11.5820312 C207.765625,9.7929598 207.542971,8.0878987 207.097656,6.4667969 C206.652342,4.845695 205.882818,3.10938426 204.789062,1.2578125 L206.171875,1.2578125 C208.281261,4.4609535 209.335938,7.9257626 209.335938,11.6523438 C209.335938,13.4726654 209.052737,15.2714755 208.486328,17.0488281 C207.919919,18.8261808 207.14063,20.4101493 206.148438,21.8007812 L204.800781,21.8007812 Z M227.089844,12.4609375 L222.554688,6.1445312 L224.792969,6.1445312 L228.226562,11.0429688 L231.671875,6.1445312 L233.910156,6.1445312 L229.363281,12.484375 L234.027344,19 L231.859375,19 L228.238281,13.8320312 L224.617188,19 L222.378906,19 L227.089844,12.4609375 Z M250.164062,19 L248.089844,19 L248.089844,1.46875 L253.738281,1.46875 C254.597661,1.46875 255.374997,1.55859285 256.070312,1.73828125 C256.765628,1.91796965 257.38281,2.19140441 257.921875,2.55859375 C258.46094,2.92578309 258.878905,3.41796566 259.175781,4.0351562 C259.472658,4.6523468 259.621094,5.3710896 259.621094,6.1914062 C259.621094,6.8710971 259.558594,7.4785129 259.433594,8.0136719 C259.308593,8.5488308 259.093752,9.0507789 258.789062,9.5195312 C258.484373,9.9882836 258.08594,10.3769516 257.59375,10.6855469 C257.10156,10.9941422 256.470707,11.2363272 255.701172,11.4121094 C254.931637,11.5878915 254.039068,11.6757812 253.023438,11.6757812 C252.218746,11.6757812 251.265631,11.6250005 250.164062,11.5234375 L250.164062,19 Z M253.222656,9.8828125 C253.988285,9.8828125 254.644529,9.8085945 255.191406,9.6601562 C255.738284,9.511718 256.158202,9.3281261 256.451172,9.109375 C256.744142,8.8906239 256.974609,8.6054705 257.142578,8.2539062 C257.310548,7.902342 257.414062,7.5800796 257.453125,7.2871094 C257.492188,6.9941392 257.511719,6.6406271 257.511719,6.2265625 C257.511719,5.23437 257.177738,4.5039086 256.509766,4.0351562 C255.841794,3.56640391 254.933599,3.33203125 253.785156,3.33203125 L250.164062,3.33203125 L250.164062,9.859375 C251.671883,9.8750001 252.691404,9.8828125 253.222656,9.8828125 Z M267.15625,11.9921875 C267.15625,8.1640434 268.222646,4.695328 270.355469,1.5859375 L272.171875,1.5859375 C270.15624,4.7265782 269.148438,8.1796687 269.148438,11.9453125 C269.148438,13.7109463 269.41406,15.4921785 269.945312,17.2890625 C270.476565,19.0859465 271.218745,20.7148364 272.171875,22.1757812 L270.378906,22.1757812 C269.371089,20.7773368 268.582034,19.2011806 268.011719,17.4472656 C267.441403,15.6933506 267.15625,13.8750094 267.15625,11.9921875 Z M283.539062,11.8046875 C281.890617,7.0156011 280.98047,4.3242217 280.808594,3.73046875 L277.960938,11.8046875 L283.539062,11.8046875 Z M286.222656,19 L284.195312,13.5039062 L277.28125,13.5039062 L275.183594,19 L273.121094,19 L279.777344,1.6328125 L281.851562,1.6328125 L288.308594,19 L286.222656,19 Z M294.273438,11.9921875 C294.273438,13.8750094 293.988284,15.6913975 293.417969,17.4414062 C292.847653,19.191415 292.054693,20.7695242 291.039062,22.1757812 L289.257812,22.1757812 C290.210942,20.7148364 290.953122,19.0859465 291.484375,17.2890625 C292.015628,15.4921785 292.28125,13.7109463 292.28125,11.9453125 C292.28125,8.1952938 291.269541,4.7422033 289.246094,1.5859375 L291.0625,1.5859375 C293.203136,4.7422033 294.273438,8.2109186 294.273438,11.9921875 Z" id="P-(B-|-A)-x-P-(A)" fill="#0A0A24" fill-rule="nonzero"></path>
                    <path d="M190.785156,70 L188.710938,70 L188.710938,52.46875 L194.359375,52.46875 C195.218754,52.46875 195.99609,52.5585929 196.691406,52.7382812 C197.386722,52.9179696 198.003904,53.1914044 198.542969,53.5585938 C199.082034,53.9257831 199.499999,54.4179657 199.796875,55.0351562 C200.093751,55.6523468 200.242188,56.3710896 200.242188,57.1914062 C200.242188,57.8710971 200.179688,58.4785129 200.054688,59.0136719 C199.929687,59.5488308 199.714845,60.0507789 199.410156,60.5195312 C199.105467,60.9882836 198.707034,61.3769516 198.214844,61.6855469 C197.722654,61.9941422 197.091801,62.2363272 196.322266,62.4121094 C195.552731,62.5878915 194.660161,62.6757812 193.644531,62.6757812 C192.83984,62.6757812 191.886724,62.6250005 190.785156,62.5234375 L190.785156,70 Z M193.84375,60.8828125 C194.609379,60.8828125 195.265622,60.8085945 195.8125,60.6601562 C196.359378,60.511718 196.779295,60.3281261 197.072266,60.109375 C197.365236,59.8906239 197.595702,59.6054705 197.763672,59.2539062 C197.931641,58.902342 198.035156,58.5800796 198.074219,58.2871094 C198.113281,57.9941392 198.132812,57.6406271 198.132812,57.2265625 C198.132812,56.23437 197.798831,55.5039086 197.130859,55.0351562 C196.462887,54.5664039 195.554693,54.3320312 194.40625,54.3320312 L190.785156,54.3320312 L190.785156,60.859375 C192.292976,60.8750001 193.312497,60.8828125 193.84375,60.8828125 Z M216.4375,72.8007812 C215.445308,71.4257744 214.667972,69.8437589 214.105469,68.0546875 C213.542966,66.2656161 213.261719,64.4648528 213.261719,62.6523438 C213.261719,58.8710748 214.308583,55.4062657 216.402344,52.2578125 L217.796875,52.2578125 C216.70312,54.1093843 215.935549,55.8437419 215.494141,57.4609375 C215.052732,59.0781331 214.832031,60.7851473 214.832031,62.5820312 C214.832031,66.1054864 215.820303,69.5117023 217.796875,72.8007812 L216.4375,72.8007812 Z M226.46875,70 L226.46875,52.5625 L231.226562,52.5625 C233.390636,52.5625 234.970698,52.9218714 235.966797,53.640625 C236.962896,54.3593786 237.460938,55.4531177 237.460938,56.921875 C237.460938,57.0937509 237.458984,57.2226558 237.455078,57.3085938 C237.451172,57.3945317 237.433594,57.5644519 237.402344,57.8183594 C237.371094,58.0722669 237.322266,58.2851554 237.255859,58.4570312 C237.189453,58.6289071 237.085938,58.8417956 236.945312,59.0957031 C236.804687,59.3496106 236.634767,59.5703116 236.435547,59.7578125 C236.236327,59.9453134 235.976564,60.1347647 235.65625,60.3261719 C235.335936,60.5175791 234.972658,60.6757806 234.566406,60.8007812 C235.785162,60.9804696 236.718747,61.468746 237.367188,62.265625 C238.015628,63.062504 238.339844,64.0039008 238.339844,65.0898438 C238.339844,66.6289139 237.851567,67.8320269 236.875,68.6992188 C235.898433,69.5664106 234.398448,70 232.375,70 L226.46875,70 Z M227.96875,68.828125 L231.988281,68.828125 C235.15236,68.828125 236.734375,67.5820437 236.734375,65.0898438 C236.734375,63.7382745 236.296879,62.7988308 235.421875,62.2714844 C234.546871,61.744138 233.175791,61.4804688 231.308594,61.4804688 L227.96875,61.4804688 L227.96875,68.828125 Z M227.96875,60.3320312 L231.964844,60.3320312 C232.582034,60.3320312 233.113279,60.2851567 233.558594,60.1914062 C234.003908,60.0976558 234.408201,59.9316418 234.771484,59.6933594 C235.134767,59.4550769 235.408202,59.1152366 235.591797,58.6738281 C235.775392,58.2324197 235.867188,57.683597 235.867188,57.0273438 C235.867188,55.8085877 235.490238,54.962893 234.736328,54.4902344 C233.982418,54.0175758 232.789071,53.78125 231.15625,53.78125 L227.96875,53.78125 L227.96875,60.3320312 Z M240.273438,72.8007812 C242.25001,69.5038898 243.238281,66.0976738 243.238281,62.5820312 C243.238281,60.7929598 243.015627,59.0878987 242.570312,57.4667969 C242.124998,55.845695 241.355474,54.1093843 240.261719,52.2578125 L241.644531,52.2578125 C243.753917,55.4609535 244.808594,58.9257626 244.808594,62.6523438 C244.808594,64.4726654 244.525393,66.2714755 243.958984,68.0488281 C243.392575,69.8261808 242.613286,71.4101493 241.621094,72.8007812 L240.273438,72.8007812 Z" id="P-(-B)" fill="#0A0A24" fill-rule="nonzero"></path>
                </g>
            </g>
        </g>
    </g>
</svg>