<?xml version="1.0" encoding="UTF-8"?>
<svg width="1214px" height="222px" viewBox="0 0 1214 222" version="1.1" xmlns="http://www.w3.org/2000/svg" xmlns:xlink="http://www.w3.org/1999/xlink">
    <!-- Generator: Sketch 48.2 (47327) - http://www.bohemiancoding.com/sketch -->
    <title>bayes theorem</title>
    <desc>Created with Sketch.</desc>
    <defs>
        <rect id="path-1" x="0" y="0" width="1214" height="222"></rect>
    </defs>
    <g id="bayes-theorem" stroke="none" stroke-width="1" fill="none" fill-rule="evenodd">
        <g>
            <g id="Rectangle">
                <use fill="#FFFFFF" fill-rule="evenodd" xlink:href="#path-1"></use>
                <rect stroke="#979797" stroke-width="1" x="0.5" y="0.5" width="1213" height="221"></rect>
            </g>
            <g id="Group" transform="translate(62.000000, 67.000000)">
                <path d="M3.06835938,55 L0.475585938,55 L0.475585938,33.0859375 L7.53613281,33.0859375 C8.61035693,33.0859375 9.5820269,33.1982411 10.4511719,33.4228516 C11.3203168,33.6474621 12.0917935,33.9892555 12.765625,34.4482422 C13.4394565,34.9072289 13.9619122,35.5224571 14.3330078,36.2939453 C14.7041034,37.0654335 14.8896484,37.9638621 14.8896484,38.9892578 C14.8896484,39.8388714 14.8115242,40.5981412 14.6552734,41.2670898 C14.4990227,41.9360385 14.2304707,42.5634736 13.8496094,43.1494141 C13.4687481,43.7353545 12.9707062,44.2211895 12.3554688,44.6069336 C11.7402313,44.9926777 10.951665,45.2954091 9.98974609,45.5151367 C9.02782722,45.7348644 7.91211572,45.8447266 6.64257813,45.8447266 C5.63671372,45.8447266 4.44531938,45.7812506 3.06835938,45.6542969 L3.06835938,55 Z M6.89160156,43.6035156 C7.8486376,43.6035156 8.66894189,43.5107431 9.35253906,43.3251953 C10.0361362,43.1396475 10.5610333,42.9101576 10.9272461,42.6367188 C11.2934589,42.3632799 11.5815419,42.0068381 11.7915039,41.5673828 C12.0014659,41.1279275 12.1308591,40.7250995 12.1796875,40.3588867 C12.2285159,39.992674 12.2529297,39.5507838 12.2529297,39.0332031 C12.2529297,37.7929625 11.8354534,36.8798857 11.0004883,36.2939453 C10.1655232,35.7080049 9.03028062,35.4150391 7.59472656,35.4150391 L3.06835938,35.4150391 L3.06835938,43.5742188 C4.95313442,43.5937501 6.22753574,43.6035156 6.89160156,43.6035156 Z M28.3515625,58.5009766 C27.1113219,56.782218 26.139652,54.8046987 25.4365234,52.5683594 C24.7333949,50.3320201 24.3818359,48.081066 24.3818359,45.8154297 C24.3818359,41.0888436 25.6904166,36.7578322 28.3076172,32.8222656 L30.0507812,32.8222656 C28.6835869,35.1367303 27.7241239,37.3046774 27.1723633,39.3261719 C26.6206027,41.3476664 26.3447266,43.4814341 26.3447266,45.7275391 C26.3447266,50.131858 27.5800658,54.3896279 30.0507812,58.5009766 L28.3515625,58.5009766 Z M33.625,55 C33.6054687,45.5761248 33.5957031,40.2246158 33.5957031,38.9453125 L35.0898438,38.9453125 L35.2070312,42.109375 C35.783206,41.152339 36.5156206,40.3710968 37.4042969,39.765625 C38.2929732,39.1601532 39.2206983,38.8574219 40.1875,38.8574219 C40.5878926,38.8574219 41.0175758,38.8916012 41.4765625,38.9599609 L41.3447266,40.46875 C40.9931623,40.410156 40.6220723,40.3808594 40.2314453,40.3808594 C38.8740167,40.3808594 37.7338913,40.915522 36.8110352,41.9848633 C35.888179,43.0542046 35.4267578,44.3212817 35.4267578,45.7861328 L35.4267578,55 L33.625,55 Z M48.3613281,55.3515625 C46.8476487,55.3515625 45.6367233,54.9707069 44.7285156,54.2089844 C43.820308,53.4472618 43.3662109,52.3584055 43.3662109,50.9423828 C43.3662109,50.1025349 43.5468732,49.3725617 43.9082031,48.7524414 C44.2695331,48.1323211 44.7944302,47.6293965 45.4829102,47.2436523 C46.1713902,46.8579082 46.9575151,46.5576183 47.8413086,46.3427734 C48.7251021,46.1279286 49.7529238,45.9765629 50.9248047,45.8886719 C52.1748109,45.8105465 53.102536,45.7470706 53.7080078,45.6982422 L53.7080078,43.9111328 C53.7080078,42.6806579 53.4272489,41.7553742 52.8657227,41.1352539 C52.3041964,40.5151336 51.4033265,40.2050781 50.1630859,40.2050781 C48.4638587,40.2050781 46.8769605,40.6103475 45.4023438,41.4208984 C45.3632811,41.3232417 45.2729499,41.1108415 45.1313477,40.7836914 C44.9897454,40.4565413 44.8896487,40.205079 44.8310547,40.0292969 C45.4365265,39.6386699 46.2275342,39.3115248 47.2041016,39.0478516 C48.1806689,38.7841784 49.1376906,38.6523438 50.0751953,38.6523438 C51.9990331,38.6523438 53.3808552,39.0649373 54.2207031,39.8901367 C55.0605511,40.7153362 55.4804688,42.1777239 55.4804688,44.2773438 L55.4804688,55 L54.0595703,55 C54.0107419,54.7753895 53.9399419,54.331058 53.847168,53.6669922 C53.7543941,53.0029264 53.7080078,52.6611329 53.7080078,52.6416016 C52.4482359,54.4482512 50.6660271,55.3515625 48.3613281,55.3515625 Z M48.4199219,53.9013672 C49.6699281,53.9013672 50.7807569,53.5327185 51.7524414,52.7954102 C52.724126,52.0581018 53.3613266,51.0351628 53.6640625,49.7265625 L53.6640625,46.9873047 C52.2578055,47.1044928 51.5498047,47.1630859 51.5400391,47.1630859 C49.1572146,47.3779308 47.5019578,47.7685519 46.5742188,48.3349609 C45.6464797,48.90137 45.1826172,49.7802675 45.1826172,50.9716797 C45.1826172,51.9482471 45.4780244,52.6806616 46.0688477,53.1689453 C46.6596709,53.657229 47.4433545,53.9013672 48.4199219,53.9013672 Z M59.875,55 C59.8554687,45.5761248 59.8457031,40.2246158 59.8457031,38.9453125 L61.3398438,38.9453125 L61.4570313,42.109375 C62.033206,41.152339 62.7656206,40.3710968 63.6542969,39.765625 C64.5429732,39.1601532 65.4706983,38.8574219 66.4375,38.8574219 C66.8378926,38.8574219 67.2675758,38.8916012 67.7265625,38.9599609 L67.5947266,40.46875 C67.2431623,40.410156 66.8720723,40.3808594 66.4814453,40.3808594 C65.1240167,40.3808594 63.9838913,40.915522 63.0610352,41.9848633 C62.138179,43.0542046 61.6767578,44.3212817 61.6767578,45.7861328 L61.6767578,55 L59.875,55 Z M76.8232422,55.3515625 C74.6064342,55.3515625 72.8461979,54.6093824 71.5424805,53.125 C70.238763,51.6406176 69.5869141,49.6289189 69.5869141,47.0898438 C69.5869141,44.6386596 70.2241147,42.6318438 71.4985352,41.0693359 C72.7729556,39.5068281 74.4208883,38.7011721 76.4423828,38.6523438 C78.3271579,38.6523438 79.8408146,39.3261651 80.9833984,40.6738281 C82.1259823,42.0214911 82.6972656,43.8281137 82.6972656,46.09375 C82.6972656,46.1816411 82.6948242,46.3598619 82.6899414,46.628418 C82.6850586,46.896974 82.6826172,47.0849604 82.6826172,47.1923828 L71.5058594,47.1923828 C71.5253907,49.25294 72.0234326,50.8862244 73,52.0922852 C73.9765674,53.2983459 75.265617,53.9013672 76.8671875,53.9013672 C77.9121146,53.9013672 78.8203086,53.7792981 79.5917969,53.5351562 C80.3632851,53.2910144 81.1689411,52.9443382 82.0087891,52.4951172 L82.3164062,53.8574219 C80.6953044,54.8535206 78.864268,55.3515625 76.8232422,55.3515625 Z M71.5791016,45.7275391 L80.7197266,45.7275391 C80.7197266,43.9404208 80.3339882,42.5708055 79.5625,41.6186523 C78.7910118,40.6664991 77.7314521,40.1904297 76.3837891,40.1904297 C75.0165947,40.1904297 73.9130901,40.6982371 73.0732422,41.7138672 C72.2333942,42.7294973 71.7353523,44.0673745 71.5791016,45.7275391 Z M99.1767578,55.3369141 C97.0380752,55.3369141 95.3706115,54.594734 94.1743164,53.1103516 C92.9780214,51.6259691 92.3798828,49.5752084 92.3798828,46.9580078 C92.3798828,44.497058 92.9975524,42.4975663 94.2329102,40.9594727 C95.4682679,39.421379 97.0966696,38.6523438 99.1181641,38.6523438 C100.114263,38.6523438 101.110347,38.8671854 102.106445,39.296875 C103.102544,39.7265646 103.859372,40.3955033 104.376953,41.3037109 L104.376953,32.7197266 L106.134766,32.5585938 L106.134766,55 L104.625977,55 L104.362305,52.5830078 C103.805661,53.4912155 103.051274,54.1772438 102.099121,54.6411133 C101.146968,55.1049828 100.172857,55.3369141 99.1767578,55.3369141 Z M99.1328125,53.9013672 C100.04102,53.9013672 100.836911,53.7353532 101.520508,53.4033203 C102.204105,53.0712874 102.750975,52.6025421 103.161133,51.9970703 C103.571291,51.3915985 103.876464,50.6958047 104.07666,49.909668 C104.276856,49.1235312 104.376953,48.2519579 104.376953,47.2949219 C104.376953,42.5195074 102.619158,40.1318359 99.1035156,40.1318359 C98.2734333,40.1318359 97.5410188,40.3295879 96.90625,40.7250977 C96.2714812,41.1206074 95.7709979,41.6528287 95.4047852,42.3217773 C95.0385724,42.990726 94.767579,43.7182578 94.5917969,44.5043945 C94.4160147,45.2905313 94.328125,46.1181597 94.328125,46.9873047 C94.328125,47.7392616 94.3818354,48.4448209 94.4892578,49.1040039 C94.5966802,49.7631869 94.7724597,50.390622 95.0166016,50.9863281 C95.2607434,51.5820342 95.5634748,52.092283 95.9248047,52.5170898 C96.2861346,52.9418967 96.7402316,53.2788073 97.2871094,53.527832 C97.8339871,53.7768567 98.4492153,53.9013672 99.1328125,53.9013672 Z M110.631836,55 L110.631836,38.9453125 L112.462891,38.9453125 L112.462891,55 L110.631836,55 Z M110.631836,35.6640625 L110.631836,33.203125 L112.448242,33.203125 L112.448242,35.6640625 L110.631836,35.6640625 Z M121.647461,55.3662109 C120.6123,55.3662109 119.64063,55.2392591 118.732422,54.9853516 C117.824214,54.731444 117.106448,54.4287127 116.579102,54.0771484 L116.842773,52.5537109 C118.45411,53.3935589 119.997063,53.8134766 121.47168,53.8134766 C124.118177,53.8134766 125.490234,52.8320411 125.587891,50.8691406 C125.587891,50.048824 125.32178,49.4042992 124.789551,48.9355469 C124.257322,48.4667945 123.190438,47.9785182 121.588867,47.4707031 C120.749019,47.1777329 120.285157,47.0166017 120.197266,46.9873047 C117.687487,46.2255821 116.422852,44.8730566 116.40332,42.9296875 C116.40332,41.806635 116.898921,40.8129926 117.890137,39.9487305 C118.881353,39.0844683 120.221671,38.6523438 121.911133,38.6523438 C123.600594,38.6523438 125.187493,38.9843717 126.671875,39.6484375 L126.056641,40.9960938 C124.552727,40.4296847 123.156256,40.1464844 121.867188,40.1464844 C120.734369,40.1464844 119.843265,40.4003881 119.193848,40.9082031 C118.54443,41.4160182 118.219727,42.0996051 118.219727,42.9589844 C118.219727,43.6816442 118.432127,44.2358379 118.856934,44.621582 C119.28174,45.0073261 120.124017,45.3759748 121.383789,45.7275391 C121.520508,45.7666018 121.771971,45.8544915 122.138184,45.9912109 C122.504396,46.1279304 122.707031,46.2011718 122.746094,46.2109375 C124.435555,46.7285182 125.614743,47.3413051 126.283691,48.0493164 C126.95264,48.7573278 127.287109,49.7216736 127.287109,50.9423828 C127.257812,52.3486398 126.732915,53.4374961 125.712402,54.2089844 C124.691889,54.9804726 123.336923,55.3662109 121.647461,55.3662109 Z M137.291992,55.3515625 C135.075184,55.3515625 133.314948,54.6093824 132.01123,53.125 C130.707513,51.6406176 130.055664,49.6289189 130.055664,47.0898438 C130.055664,44.6386596 130.692865,42.6318438 131.967285,41.0693359 C133.241706,39.5068281 134.889638,38.7011721 136.911133,38.6523438 C138.795908,38.6523438 140.309565,39.3261651 141.452148,40.6738281 C142.594732,42.0214911 143.166016,43.8281137 143.166016,46.09375 C143.166016,46.1816411 143.163574,46.3598619 143.158691,46.628418 C143.153809,46.896974 143.151367,47.0849604 143.151367,47.1923828 L131.974609,47.1923828 C131.994141,49.25294 132.492183,50.8862244 133.46875,52.0922852 C134.445317,53.2983459 135.734367,53.9013672 137.335938,53.9013672 C138.380865,53.9013672 139.289059,53.7792981 140.060547,53.5351562 C140.832035,53.2910144 141.637691,52.9443382 142.477539,52.4951172 L142.785156,53.8574219 C141.164054,54.8535206 139.333018,55.3515625 137.291992,55.3515625 Z M132.047852,45.7275391 L141.188477,45.7275391 C141.188477,43.9404208 140.802738,42.5708055 140.03125,41.6186523 C139.259762,40.6664991 138.200202,40.1904297 136.852539,40.1904297 C135.485345,40.1904297 134.38184,40.6982371 133.541992,41.7138672 C132.702144,42.7294973 132.204102,44.0673745 132.047852,45.7275391 Z M151.09082,55.3515625 C149.577141,55.3515625 148.366215,54.9707069 147.458008,54.2089844 C146.5498,53.4472618 146.095703,52.3584055 146.095703,50.9423828 C146.095703,50.1025349 146.276365,49.3725617 146.637695,48.7524414 C146.999025,48.1323211 147.523922,47.6293965 148.212402,47.2436523 C148.900882,46.8579082 149.687007,46.5576183 150.570801,46.3427734 C151.454594,46.1279286 152.482416,45.9765629 153.654297,45.8886719 C154.904303,45.8105465 155.832028,45.7470706 156.4375,45.6982422 L156.4375,43.9111328 C156.4375,42.6806579 156.156741,41.7553742 155.595215,41.1352539 C155.033689,40.5151336 154.132819,40.2050781 152.892578,40.2050781 C151.193351,40.2050781 149.606453,40.6103475 148.131836,41.4208984 C148.092773,41.3232417 148.002442,41.1108415 147.86084,40.7836914 C147.719238,40.4565413 147.619141,40.205079 147.560547,40.0292969 C148.166019,39.6386699 148.957026,39.3115248 149.933594,39.0478516 C150.910161,38.7841784 151.867183,38.6523438 152.804688,38.6523438 C154.728525,38.6523438 156.110347,39.0649373 156.950195,39.8901367 C157.790043,40.7153362 158.209961,42.1777239 158.209961,44.2773438 L158.209961,55 L156.789062,55 C156.740234,54.7753895 156.669434,54.331058 156.57666,53.6669922 C156.483886,53.0029264 156.4375,52.6611329 156.4375,52.6416016 C155.177728,54.4482512 153.395519,55.3515625 151.09082,55.3515625 Z M151.149414,53.9013672 C152.39942,53.9013672 153.510249,53.5327185 154.481934,52.7954102 C155.453618,52.0581018 156.090819,51.0351628 156.393555,49.7265625 L156.393555,46.9873047 C154.987298,47.1044928 154.279297,47.1630859 154.269531,47.1630859 C151.886707,47.3779308 150.23145,47.7685519 149.303711,48.3349609 C148.375972,48.90137 147.912109,49.7802675 147.912109,50.9716797 C147.912109,51.9482471 148.207517,52.6806616 148.79834,53.1689453 C149.389163,53.657229 150.172847,53.9013672 151.149414,53.9013672 Z M167.262695,55.3662109 C166.227534,55.3662109 165.255864,55.2392591 164.347656,54.9853516 C163.439449,54.731444 162.721682,54.4287127 162.194336,54.0771484 L162.458008,52.5537109 C164.069344,53.3935589 165.612297,53.8134766 167.086914,53.8134766 C169.733412,53.8134766 171.105468,52.8320411 171.203125,50.8691406 C171.203125,50.048824 170.937014,49.4042992 170.404785,48.9355469 C169.872556,48.4667945 168.805672,47.9785182 167.204102,47.4707031 C166.364254,47.1777329 165.900391,47.0166017 165.8125,46.9873047 C163.302722,46.2255821 162.038086,44.8730566 162.018555,42.9296875 C162.018555,41.806635 162.514155,40.8129926 163.505371,39.9487305 C164.496587,39.0844683 165.836906,38.6523438 167.526367,38.6523438 C169.215829,38.6523438 170.802727,38.9843717 172.287109,39.6484375 L171.671875,40.9960938 C170.167961,40.4296847 168.771491,40.1464844 167.482422,40.1464844 C166.349604,40.1464844 165.458499,40.4003881 164.809082,40.9082031 C164.159665,41.4160182 163.834961,42.0996051 163.834961,42.9589844 C163.834961,43.6816442 164.047361,44.2358379 164.472168,44.621582 C164.896975,45.0073261 165.739252,45.3759748 166.999023,45.7275391 C167.135743,45.7666018 167.387205,45.8544915 167.753418,45.9912109 C168.119631,46.1279304 168.322265,46.2011718 168.361328,46.2109375 C170.05079,46.7285182 171.229977,47.3413051 171.898926,48.0493164 C172.567874,48.7573278 172.902344,49.7216736 172.902344,50.9423828 C172.873047,52.3486398 172.34815,53.4374961 171.327637,54.2089844 C170.307124,54.9804726 168.952157,55.3662109 167.262695,55.3662109 Z M182.907227,55.3515625 C180.690419,55.3515625 178.930182,54.6093824 177.626465,53.125 C176.322747,51.6406176 175.670898,49.6289189 175.670898,47.0898438 C175.670898,44.6386596 176.308099,42.6318438 177.58252,41.0693359 C178.85694,39.5068281 180.504873,38.7011721 182.526367,38.6523438 C184.411142,38.6523438 185.924799,39.3261651 187.067383,40.6738281 C188.209967,42.0214911 188.78125,43.8281137 188.78125,46.09375 C188.78125,46.1816411 188.778809,46.3598619 188.773926,46.628418 C188.769043,46.896974 188.766602,47.0849604 188.766602,47.1923828 L177.589844,47.1923828 C177.609375,49.25294 178.107417,50.8862244 179.083984,52.0922852 C180.060552,53.2983459 181.349601,53.9013672 182.951172,53.9013672 C183.996099,53.9013672 184.904293,53.7792981 185.675781,53.5351562 C186.447269,53.2910144 187.252925,52.9443382 188.092773,52.4951172 L188.400391,53.8574219 C186.779289,54.8535206 184.948252,55.3515625 182.907227,55.3515625 Z M177.663086,45.7275391 L186.803711,45.7275391 C186.803711,43.9404208 186.417973,42.5708055 185.646484,41.6186523 C184.874996,40.6664991 183.815436,40.1904297 182.467773,40.1904297 C181.100579,40.1904297 179.997075,40.6982371 179.157227,41.7138672 C178.317379,42.7294973 177.819337,44.0673745 177.663086,45.7275391 Z M202.155273,61.0498047 L202.155273,31.4746094 L203.898438,31.4746094 L203.898438,61.0498047 L202.155273,61.0498047 Z M217.946289,62.1484375 L217.946289,38.9453125 L219.572266,38.9453125 L219.733398,41.2304688 C220.485355,40.3710895 221.249508,39.7265646 222.025879,39.296875 C222.80225,38.8671854 223.708003,38.6523438 224.743164,38.6523438 C227.028332,38.6523438 228.73974,39.4116135 229.877441,40.9301758 C231.015142,42.4487381 231.583984,44.526354 231.583984,47.1630859 C231.583984,49.5654417 230.983404,51.5307541 229.782227,53.059082 C228.581049,54.58741 226.955088,55.3515625 224.904297,55.3515625 C223.849604,55.3515625 222.85352,55.1025416 221.916016,54.6044922 C220.978511,54.1064428 220.236331,53.4521525 219.689453,52.6416016 C219.738281,53.8427794 219.762695,55.0244083 219.762695,56.1865234 L219.762695,62.0166016 L217.946289,62.1484375 Z M224.787109,53.8574219 C225.617192,53.8574219 226.354489,53.6572286 226.999023,53.2568359 C227.643558,52.8564433 228.156248,52.3242221 228.537109,51.6601562 C228.917971,50.9960904 229.203612,50.271 229.394043,49.4848633 C229.584474,48.6987265 229.679688,47.8808636 229.679688,47.03125 C229.679688,46.1718707 229.586915,45.3515664 229.401367,44.5703125 C229.215819,43.7890586 228.93506,43.0639682 228.559082,42.3950195 C228.183104,41.7260709 227.667972,41.1914083 227.013672,40.7910156 C226.359372,40.390623 225.612309,40.1904297 224.772461,40.1904297 C223.864253,40.1904297 223.08057,40.3540023 222.421387,40.6811523 C221.762204,41.0083024 221.239748,41.4746063 220.854004,42.0800781 C220.46826,42.6855499 220.187501,43.3740196 220.011719,44.1455078 C219.835937,44.916996 219.748047,45.786128 219.748047,46.7529297 C219.748047,47.8662165 219.831054,48.8378865 219.99707,49.6679688 C220.163087,50.498051 220.43408,51.2377897 220.810059,51.887207 C221.186037,52.5366243 221.706051,53.0273421 222.370117,53.359375 C223.034183,53.6914079 223.839839,53.8574219 224.787109,53.8574219 Z M241.808594,53.9013672 C242.980475,53.9013672 243.969234,53.5913117 244.774902,52.9711914 C245.58057,52.3510711 246.166502,51.5332082 246.532715,50.5175781 C246.898928,49.501948 247.082031,48.3349675 247.082031,47.0166016 C247.082031,44.9462787 246.642583,43.2812563 245.763672,42.0214844 C244.884761,40.7617125 243.546884,40.1318359 241.75,40.1318359 C240.578119,40.1318359 239.579594,40.4467742 238.754395,41.0766602 C237.929195,41.7065461 237.326174,42.5317332 236.945313,43.5522461 C236.564451,44.572759 236.374023,45.7421809 236.374023,47.0605469 C236.374023,49.06251 236.840327,50.7031186 237.772949,51.9824219 C238.705571,53.2617251 240.050772,53.9013672 241.808594,53.9013672 Z M241.676758,55.3515625 C240.221672,55.3515625 238.939947,54.9853552 237.831543,54.2529297 C236.723139,53.5205042 235.878421,52.5268617 235.297363,51.2719727 C234.716306,50.0170836 234.425781,48.5986407 234.425781,47.0166016 C234.425781,45.8251894 234.594237,44.7192434 234.931152,43.6987305 C235.268068,42.6782176 235.74902,41.7944373 236.374023,41.0473633 C236.999027,40.3002892 237.775386,39.7143576 238.703125,39.2895508 C239.630864,38.864744 240.661127,38.6523438 241.793945,38.6523438 C243.297859,38.6523438 244.601557,39.0209924 245.705078,39.7583008 C246.808599,40.4956092 247.636228,41.4868102 248.187988,42.7319336 C248.739749,43.977057 249.015625,45.3954999 249.015625,46.9873047 C249.015625,48.5888752 248.732425,50.0146422 248.166016,51.2646484 C247.599607,52.5146547 246.754888,53.5082971 245.631836,54.2456055 C244.508783,54.9829138 243.190437,55.3515625 241.676758,55.3515625 Z M257.277344,55.3662109 C256.242182,55.3662109 255.270512,55.2392591 254.362305,54.9853516 C253.454097,54.731444 252.736331,54.4287127 252.208984,54.0771484 L252.472656,52.5537109 C254.083992,53.3935589 255.626946,53.8134766 257.101562,53.8134766 C259.74806,53.8134766 261.120117,52.8320411 261.217773,50.8691406 C261.217773,50.048824 260.951663,49.4042992 260.419434,48.9355469 C259.887204,48.4667945 258.820321,47.9785182 257.21875,47.4707031 C256.378902,47.1777329 255.91504,47.0166017 255.827148,46.9873047 C253.31737,46.2255821 252.052734,44.8730566 252.033203,42.9296875 C252.033203,41.806635 252.528804,40.8129926 253.52002,39.9487305 C254.511235,39.0844683 255.851554,38.6523438 257.541016,38.6523438 C259.230477,38.6523438 260.817375,38.9843717 262.301758,39.6484375 L261.686523,40.9960938 C260.18261,40.4296847 258.786139,40.1464844 257.49707,40.1464844 C256.364252,40.1464844 255.473148,40.4003881 254.82373,40.9082031 C254.174313,41.4160182 253.849609,42.0996051 253.849609,42.9589844 C253.849609,43.6816442 254.06201,44.2358379 254.486816,44.621582 C254.911623,45.0073261 255.7539,45.3759748 257.013672,45.7275391 C257.150391,45.7666018 257.401854,45.8544915 257.768066,45.9912109 C258.134279,46.1279304 258.336914,46.2011718 258.375977,46.2109375 C260.065438,46.7285182 261.244626,47.3413051 261.913574,48.0493164 C262.582523,48.7573278 262.916992,49.7216736 262.916992,50.9423828 C262.887695,52.3486398 262.362798,53.4374961 261.342285,54.2089844 C260.321772,54.9804726 258.966805,55.3662109 257.277344,55.3662109 Z M266.608398,55 L266.608398,38.9453125 L268.439453,38.9453125 L268.439453,55 L266.608398,55 Z M266.608398,35.6640625 L266.608398,33.203125 L268.424805,33.203125 L268.424805,35.6640625 L266.608398,35.6640625 Z M277.462891,55.3369141 C276.115228,55.3369141 275.128909,55.0317413 274.503906,54.4213867 C273.878903,53.8110321 273.566406,52.8173897 273.566406,51.4404297 L273.566406,40.2783203 L271.295898,40.2783203 L271.427734,39.1796875 L273.595703,38.9746094 L274.079102,35.2978516 L275.353516,35.2099609 L275.353516,38.9453125 L280.041016,38.9453125 L280.041016,40.2783203 L275.353516,40.2783203 L275.353516,51.0595703 C275.353516,52.1923885 275.539061,52.9516582 275.910156,53.3374023 C276.281252,53.7231465 276.935542,53.9160156 277.873047,53.9160156 C278.478519,53.9160156 279.230464,53.8037121 280.128906,53.5791016 L280.202148,54.9853516 C279.020502,55.2197277 278.107425,55.3369141 277.462891,55.3369141 Z M283.029297,55 L283.029297,38.9453125 L284.860352,38.9453125 L284.860352,55 L283.029297,55 Z M283.029297,35.6640625 L283.029297,33.203125 L284.845703,33.203125 L284.845703,35.6640625 L283.029297,35.6640625 Z M293.341797,55 L287.21875,38.9453125 L289.166992,38.9453125 L292.887695,49.0673828 C293.083009,49.7021516 293.31494,50.3784144 293.583496,51.0961914 C293.852052,51.8139684 294.069335,52.3730449 294.235352,52.7734375 L294.484375,53.3740234 C294.669923,52.7490203 294.91162,52.0776403 295.209473,51.3598633 C295.507326,50.6420863 295.778319,49.892582 296.022461,49.1113281 C296.286134,48.2714802 296.764645,47.004403 297.458008,45.3100586 C298.151371,43.6157142 298.908199,41.4941534 299.728516,38.9453125 L301.676758,38.9453125 L295.451172,55 L293.341797,55 Z M310.348633,55.3515625 C308.131825,55.3515625 306.371589,54.6093824 305.067871,53.125 C303.764154,51.6406176 303.112305,49.6289189 303.112305,47.0898438 C303.112305,44.6386596 303.749505,42.6318438 305.023926,41.0693359 C306.298346,39.5068281 307.946279,38.7011721 309.967773,38.6523438 C311.852548,38.6523438 313.366205,39.3261651 314.508789,40.6738281 C315.651373,42.0214911 316.222656,43.8281137 316.222656,46.09375 C316.222656,46.1816411 316.220215,46.3598619 316.215332,46.628418 C316.210449,46.896974 316.208008,47.0849604 316.208008,47.1923828 L305.03125,47.1923828 C305.050781,49.25294 305.548823,50.8862244 306.525391,52.0922852 C307.501958,53.2983459 308.791008,53.9013672 310.392578,53.9013672 C311.437505,53.9013672 312.345699,53.7792981 313.117188,53.5351562 C313.888676,53.2910144 314.694332,52.9443382 315.53418,52.4951172 L315.841797,53.8574219 C314.220695,54.8535206 312.389659,55.3515625 310.348633,55.3515625 Z M305.104492,45.7275391 L314.245117,45.7275391 C314.245117,43.9404208 313.859379,42.5708055 313.087891,41.6186523 C312.316402,40.6664991 311.256843,40.1904297 309.90918,40.1904297 C308.541985,40.1904297 307.438481,40.6982371 306.598633,41.7138672 C305.758785,42.7294973 305.260743,44.0673745 305.104492,45.7275391 Z M326.666992,55 C326.647461,45.5761248 326.637695,40.2246158 326.637695,38.9453125 L328.131836,38.9453125 L328.249023,42.109375 C328.825198,41.152339 329.557613,40.3710968 330.446289,39.765625 C331.334965,39.1601532 332.26269,38.8574219 333.229492,38.8574219 C333.629885,38.8574219 334.059568,38.8916012 334.518555,38.9599609 L334.386719,40.46875 C334.035154,40.410156 333.664064,40.3808594 333.273438,40.3808594 C331.916009,40.3808594 330.775884,40.915522 329.853027,41.9848633 C328.930171,43.0542046 328.46875,44.3212817 328.46875,45.7861328 L328.46875,55 L326.666992,55 Z M343.615234,55.3515625 C341.398426,55.3515625 339.63819,54.6093824 338.334473,53.125 C337.030755,51.6406176 336.378906,49.6289189 336.378906,47.0898438 C336.378906,44.6386596 337.016107,42.6318438 338.290527,41.0693359 C339.564948,39.5068281 341.212881,38.7011721 343.234375,38.6523438 C345.11915,38.6523438 346.632807,39.3261651 347.775391,40.6738281 C348.917974,42.0214911 349.489258,43.8281137 349.489258,46.09375 C349.489258,46.1816411 349.486816,46.3598619 349.481934,46.628418 C349.477051,46.896974 349.474609,47.0849604 349.474609,47.1923828 L338.297852,47.1923828 C338.317383,49.25294 338.815425,50.8862244 339.791992,52.0922852 C340.76856,53.2983459 342.057609,53.9013672 343.65918,53.9013672 C344.704107,53.9013672 345.612301,53.7792981 346.383789,53.5351562 C347.155277,53.2910144 347.960933,52.9443382 348.800781,52.4951172 L349.108398,53.8574219 C347.487297,54.8535206 345.65626,55.3515625 343.615234,55.3515625 Z M338.371094,45.7275391 L347.511719,45.7275391 C347.511719,43.9404208 347.12598,42.5708055 346.354492,41.6186523 C345.583004,40.6664991 344.523444,40.1904297 343.175781,40.1904297 C341.808587,40.1904297 340.705082,40.6982371 339.865234,41.7138672 C339.025386,42.7294973 338.527345,44.0673745 338.371094,45.7275391 Z M357.80957,55.3662109 C356.774409,55.3662109 355.802739,55.2392591 354.894531,54.9853516 C353.986324,54.731444 353.268557,54.4287127 352.741211,54.0771484 L353.004883,52.5537109 C354.616219,53.3935589 356.159172,53.8134766 357.633789,53.8134766 C360.280287,53.8134766 361.652343,52.8320411 361.75,50.8691406 C361.75,50.048824 361.483889,49.4042992 360.95166,48.9355469 C360.419431,48.4667945 359.352547,47.9785182 357.750977,47.4707031 C356.911129,47.1777329 356.447266,47.0166017 356.359375,46.9873047 C353.849597,46.2255821 352.584961,44.8730566 352.56543,42.9296875 C352.56543,41.806635 353.06103,40.8129926 354.052246,39.9487305 C355.043462,39.0844683 356.383781,38.6523438 358.073242,38.6523438 C359.762704,38.6523438 361.349602,38.9843717 362.833984,39.6484375 L362.21875,40.9960938 C360.714836,40.4296847 359.318366,40.1464844 358.029297,40.1464844 C356.896479,40.1464844 356.005374,40.4003881 355.355957,40.9082031 C354.70654,41.4160182 354.381836,42.0996051 354.381836,42.9589844 C354.381836,43.6816442 354.594236,44.2358379 355.019043,44.621582 C355.44385,45.0073261 356.286127,45.3759748 357.545898,45.7275391 C357.682618,45.7666018 357.93408,45.8544915 358.300293,45.9912109 C358.666506,46.1279304 358.86914,46.2011718 358.908203,46.2109375 C360.597665,46.7285182 361.776852,47.3413051 362.445801,48.0493164 C363.114749,48.7573278 363.449219,49.7216736 363.449219,50.9423828 C363.419922,52.3486398 362.895025,53.4374961 361.874512,54.2089844 C360.853999,54.9804726 359.499032,55.3662109 357.80957,55.3662109 Z M372.926758,55.3955078 C372.08691,55.3955078 371.308109,55.3002939 370.590332,55.1098633 C369.872555,54.9194326 369.206058,54.6215841 368.59082,54.2163086 C367.975583,53.8110331 367.489748,53.2373084 367.133301,52.4951172 C366.776854,51.752926 366.598633,50.8789113 366.598633,49.8730469 L366.598633,38.9453125 L368.415039,38.9453125 L368.415039,49.9169922 C368.415039,50.6787147 368.532225,51.3232396 368.766602,51.8505859 C369.000978,52.3779323 369.337888,52.7758776 369.777344,53.0444336 C370.216799,53.3129896 370.685544,53.500976 371.183594,53.6083984 C371.681643,53.7158208 372.262692,53.7695312 372.926758,53.7695312 C373.581058,53.7695312 374.157224,53.7133795 374.655273,53.6010742 C375.153323,53.488769 375.617185,53.2958998 376.046875,53.0224609 C376.476565,52.7490221 376.806151,52.3510768 377.035645,51.8286133 C377.265138,51.3061497 377.379883,50.6689491 377.379883,49.9169922 L377.379883,38.9453125 L379.196289,38.9453125 L379.196289,49.8730469 C379.196289,50.6933635 379.079103,51.425778 378.844727,52.0703125 C378.61035,52.714847 378.297854,53.2421854 377.907227,53.6523438 C377.5166,54.0625021 377.045413,54.4018541 376.493652,54.6704102 C375.941892,54.9389662 375.375491,55.1269526 374.794434,55.234375 C374.213376,55.3417974 373.590824,55.3955078 372.926758,55.3955078 Z M387.194336,55.3369141 C385.846673,55.3369141 384.860355,55.0317413 384.235352,54.4213867 C383.610348,53.8110321 383.297852,52.8173897 383.297852,51.4404297 L383.297852,32.7050781 L385.084961,32.5585938 L385.084961,51.3378906 C385.084961,52.314458 385.263182,52.9882794 385.619629,53.359375 C385.976076,53.7304706 386.515621,53.9160156 387.238281,53.9160156 C387.824222,53.9160156 388.556636,53.8037121 389.435547,53.5791016 L389.508789,54.9853516 C388.551753,55.2197277 387.780276,55.3369141 387.194336,55.3369141 Z M396.188477,55.3369141 C394.840814,55.3369141 393.854495,55.0317413 393.229492,54.4213867 C392.604489,53.8110321 392.291992,52.8173897 392.291992,51.4404297 L392.291992,40.2783203 L390.021484,40.2783203 L390.15332,39.1796875 L392.321289,38.9746094 L392.804688,35.2978516 L394.079102,35.2099609 L394.079102,38.9453125 L398.766602,38.9453125 L398.766602,40.2783203 L394.079102,40.2783203 L394.079102,51.0595703 C394.079102,52.1923885 394.264647,52.9516582 394.635742,53.3374023 C395.006838,53.7231465 395.661128,53.9160156 396.598633,53.9160156 C397.204105,53.9160156 397.95605,53.8037121 398.854492,53.5791016 L398.927734,54.9853516 C397.746088,55.2197277 396.833011,55.3369141 396.188477,55.3369141 Z M400.802734,58.5009766 C403.27345,54.3798622 404.508789,50.1220923 404.508789,45.7275391 C404.508789,43.4911998 404.230472,41.3598734 403.673828,39.3334961 C403.117185,37.3071188 402.15528,35.1367303 400.788086,32.8222656 L402.516602,32.8222656 C405.153333,36.8261919 406.47168,41.1572033 406.47168,45.8154297 C406.47168,48.0908317 406.117679,50.3393444 405.409668,52.5610352 C404.701657,54.782726 403.727545,56.7626866 402.487305,58.5009766 L400.802734,58.5009766 Z M417.033203,49.2871094 L417.033203,47.6757812 L430.802734,47.6757812 L430.802734,49.2871094 L417.033203,49.2871094 Z M417.018555,42.8564453 L417.018555,41.2158203 L430.817383,41.2158203 L430.817383,42.8564453 L417.018555,42.8564453 Z" id="P-(rare-disease-|-po" fill="#000000"></path>
                <path d="M456.24707,24 L453.654297,24 L453.654297,2.0859375 L460.714844,2.0859375 C461.789068,2.0859375 462.760738,2.19824106 463.629883,2.42285156 C464.499028,2.64746206 465.270504,2.98925552 465.944336,3.44824219 C466.618167,3.90722886 467.140623,4.52245708 467.511719,5.29394531 C467.882814,6.06543354 468.068359,6.96386206 468.068359,7.98925781 C468.068359,8.83887144 467.990235,9.59814119 467.833984,10.2670898 C467.677734,10.9360385 467.409182,11.5634736 467.02832,12.1494141 C466.647459,12.7353545 466.149417,13.2211895 465.53418,13.6069336 C464.918942,13.9926777 464.130376,14.2954091 463.168457,14.5151367 C462.206538,14.7348644 461.090827,14.8447266 459.821289,14.8447266 C458.815425,14.8447266 457.62403,14.7812506 456.24707,14.6542969 L456.24707,24 Z M460.070312,12.6035156 C461.027349,12.6035156 461.847653,12.5107431 462.53125,12.3251953 C463.214847,12.1396475 463.739744,11.9101576 464.105957,11.6367188 C464.47217,11.3632799 464.760253,11.0068381 464.970215,10.5673828 C465.180177,10.1279275 465.30957,9.72509949 465.358398,9.35888672 C465.407227,8.99267395 465.431641,8.55078384 465.431641,8.03320312 C465.431641,6.79296255 465.014164,5.87988574 464.179199,5.29394531 C463.344234,4.70800488 462.208992,4.41503906 460.773438,4.41503906 L456.24707,4.41503906 L456.24707,12.5742188 C458.131845,12.5937501 459.406247,12.6035156 460.070312,12.6035156 Z M481.530273,27.5009766 C480.290033,25.782218 479.318363,23.8046987 478.615234,21.5683594 C477.912106,19.3320201 477.560547,17.081066 477.560547,14.8154297 C477.560547,10.0888436 478.869128,5.75783218 481.486328,1.82226562 L483.229492,1.82226562 C481.862298,4.13673032 480.902835,6.30467739 480.351074,8.32617188 C479.799314,10.3476664 479.523438,12.4814341 479.523438,14.7275391 C479.523438,19.131858 480.758777,23.3896279 483.229492,27.5009766 L481.530273,27.5009766 Z M486.774414,31.1484375 L486.774414,7.9453125 L488.400391,7.9453125 L488.561523,10.2304688 C489.31348,9.37108945 490.077633,8.72656465 490.854004,8.296875 C491.630375,7.86718535 492.536128,7.65234375 493.571289,7.65234375 C495.856457,7.65234375 497.567865,8.4116135 498.705566,9.93017578 C499.843267,11.4487381 500.412109,13.526354 500.412109,16.1630859 C500.412109,18.5654417 499.811529,20.5307541 498.610352,22.059082 C497.409174,23.58741 495.783213,24.3515625 493.732422,24.3515625 C492.677729,24.3515625 491.681645,24.1025416 490.744141,23.6044922 C489.806636,23.1064428 489.064456,22.4521525 488.517578,21.6416016 C488.566406,22.8427794 488.59082,24.0244083 488.59082,25.1865234 L488.59082,31.0166016 L486.774414,31.1484375 Z M493.615234,22.8574219 C494.445317,22.8574219 495.182614,22.6572286 495.827148,22.2568359 C496.471683,21.8564433 496.984373,21.3242221 497.365234,20.6601562 C497.746096,19.9960904 498.031737,19.271 498.222168,18.4848633 C498.412599,17.6987265 498.507812,16.8808636 498.507812,16.03125 C498.507812,15.1718707 498.41504,14.3515664 498.229492,13.5703125 C498.043944,12.7890586 497.763185,12.0639682 497.387207,11.3950195 C497.011229,10.7260709 496.496097,10.1914083 495.841797,9.79101562 C495.187497,9.390623 494.440434,9.19042969 493.600586,9.19042969 C492.692378,9.19042969 491.908695,9.35400227 491.249512,9.68115234 C490.590329,10.0083024 490.067873,10.4746063 489.682129,11.0800781 C489.296385,11.6855499 489.015626,12.3740196 488.839844,13.1455078 C488.664062,13.916996 488.576172,14.786128 488.576172,15.7529297 C488.576172,16.8662165 488.659179,17.8378865 488.825195,18.6679688 C488.991212,19.498051 489.262205,20.2377897 489.638184,20.887207 C490.014162,21.5366243 490.534176,22.0273421 491.198242,22.359375 C491.862308,22.6914079 492.667964,22.8574219 493.615234,22.8574219 Z M510.636719,22.9013672 C511.8086,22.9013672 512.797359,22.5913117 513.603027,21.9711914 C514.408695,21.3510711 514.994627,20.5332082 515.36084,19.5175781 C515.727053,18.501948 515.910156,17.3349675 515.910156,16.0166016 C515.910156,13.9462787 515.470708,12.2812563 514.591797,11.0214844 C513.712886,9.76171245 512.375009,9.13183594 510.578125,9.13183594 C509.406244,9.13183594 508.407719,9.44677419 507.58252,10.0766602 C506.75732,10.7065461 506.154299,11.5317332 505.773438,12.5522461 C505.392576,13.572759 505.202148,14.7421809 505.202148,16.0605469 C505.202148,18.06251 505.668452,19.7031186 506.601074,20.9824219 C507.533696,22.2617251 508.878897,22.9013672 510.636719,22.9013672 Z M510.504883,24.3515625 C509.049797,24.3515625 507.768072,23.9853552 506.659668,23.2529297 C505.551264,22.5205042 504.706546,21.5268617 504.125488,20.2719727 C503.544431,19.0170836 503.253906,17.5986407 503.253906,16.0166016 C503.253906,14.8251894 503.422362,13.7192434 503.759277,12.6987305 C504.096193,11.6782176 504.577145,10.7944373 505.202148,10.0473633 C505.827152,9.30028923 506.603511,8.71435759 507.53125,8.28955078 C508.458989,7.86474397 509.489252,7.65234375 510.62207,7.65234375 C512.125984,7.65234375 513.429682,8.02099241 514.533203,8.75830078 C515.636724,9.49560916 516.464353,10.4868102 517.016113,11.7319336 C517.567874,12.977057 517.84375,14.3954999 517.84375,15.9873047 C517.84375,17.5888752 517.56055,19.0146422 516.994141,20.2646484 C516.427732,21.5146547 515.583013,22.5082971 514.459961,23.2456055 C513.336908,23.9829138 512.018562,24.3515625 510.504883,24.3515625 Z M526.105469,24.3662109 C525.070307,24.3662109 524.098637,24.2392591 523.19043,23.9853516 C522.282222,23.731444 521.564456,23.4287127 521.037109,23.0771484 L521.300781,21.5537109 C522.912117,22.3935589 524.455071,22.8134766 525.929688,22.8134766 C528.576185,22.8134766 529.948242,21.8320411 530.045898,19.8691406 C530.045898,19.048824 529.779788,18.4042992 529.247559,17.9355469 C528.715329,17.4667945 527.648446,16.9785182 526.046875,16.4707031 C525.207027,16.1777329 524.743165,16.0166017 524.655273,15.9873047 C522.145495,15.2255821 520.880859,13.8730566 520.861328,11.9296875 C520.861328,10.806635 521.356929,9.8129926 522.348145,8.94873047 C523.33936,8.08446833 524.679679,7.65234375 526.369141,7.65234375 C528.058602,7.65234375 529.6455,7.98437168 531.129883,8.6484375 L530.514648,9.99609375 C529.010735,9.42968467 527.614264,9.14648438 526.325195,9.14648438 C525.192377,9.14648438 524.301273,9.40038809 523.651855,9.90820312 C523.002438,10.4160182 522.677734,11.0996051 522.677734,11.9589844 C522.677734,12.6816442 522.890135,13.2358379 523.314941,13.621582 C523.739748,14.0073261 524.582025,14.3759748 525.841797,14.7275391 C525.978516,14.7666018 526.229979,14.8544915 526.596191,14.9912109 C526.962404,15.1279304 527.165039,15.2011718 527.204102,15.2109375 C528.893563,15.7285182 530.072751,16.3413051 530.741699,17.0493164 C531.410648,17.7573278 531.745117,18.7216736 531.745117,19.9423828 C531.71582,21.3486398 531.190923,22.4374961 530.17041,23.2089844 C529.149897,23.9804726 527.79493,24.3662109 526.105469,24.3662109 Z M535.436523,24 L535.436523,7.9453125 L537.267578,7.9453125 L537.267578,24 L535.436523,24 Z M535.436523,4.6640625 L535.436523,2.203125 L537.25293,2.203125 L537.25293,4.6640625 L535.436523,4.6640625 Z M546.291016,24.3369141 C544.943353,24.3369141 543.957034,24.0317413 543.332031,23.4213867 C542.707028,22.8110321 542.394531,21.8173897 542.394531,20.4404297 L542.394531,9.27832031 L540.124023,9.27832031 L540.255859,8.1796875 L542.423828,7.97460938 L542.907227,4.29785156 L544.181641,4.20996094 L544.181641,7.9453125 L548.869141,7.9453125 L548.869141,9.27832031 L544.181641,9.27832031 L544.181641,20.0595703 C544.181641,21.1923885 544.367186,21.9516582 544.738281,22.3374023 C545.109377,22.7231465 545.763667,22.9160156 546.701172,22.9160156 C547.306644,22.9160156 548.058589,22.8037121 548.957031,22.5791016 L549.030273,23.9853516 C547.848627,24.2197277 546.93555,24.3369141 546.291016,24.3369141 Z M551.857422,24 L551.857422,7.9453125 L553.688477,7.9453125 L553.688477,24 L551.857422,24 Z M551.857422,4.6640625 L551.857422,2.203125 L553.673828,2.203125 L553.673828,4.6640625 L551.857422,4.6640625 Z M562.169922,24 L556.046875,7.9453125 L557.995117,7.9453125 L561.71582,18.0673828 C561.911134,18.7021516 562.143065,19.3784144 562.411621,20.0961914 C562.680177,20.8139684 562.89746,21.3730449 563.063477,21.7734375 L563.3125,22.3740234 C563.498048,21.7490203 563.739745,21.0776403 564.037598,20.3598633 C564.335451,19.6420863 564.606444,18.892582 564.850586,18.1113281 C565.114259,17.2714802 565.59277,16.004403 566.286133,14.3100586 C566.979496,12.6157142 567.736324,10.4941534 568.556641,7.9453125 L570.504883,7.9453125 L564.279297,24 L562.169922,24 Z M579.176758,24.3515625 C576.95995,24.3515625 575.199714,23.6093824 573.895996,22.125 C572.592279,20.6406176 571.94043,18.6289189 571.94043,16.0898438 C571.94043,13.6386596 572.57763,11.6318437 573.852051,10.0693359 C575.126471,8.50682812 576.774404,7.70117212 578.795898,7.65234375 C580.680673,7.65234375 582.19433,8.32616514 583.336914,9.67382812 C584.479498,11.0214911 585.050781,12.8281137 585.050781,15.09375 C585.050781,15.1816411 585.04834,15.3598619 585.043457,15.628418 C585.038574,15.896974 585.036133,16.0849604 585.036133,16.1923828 L573.859375,16.1923828 C573.878906,18.25294 574.376948,19.8862244 575.353516,21.0922852 C576.330083,22.2983459 577.619133,22.9013672 579.220703,22.9013672 C580.26563,22.9013672 581.173824,22.7792981 581.945312,22.5351562 C582.716801,22.2910144 583.522457,21.9443382 584.362305,21.4951172 L584.669922,22.8574219 C583.04882,23.8535206 581.217784,24.3515625 579.176758,24.3515625 Z M573.932617,14.7275391 L583.073242,14.7275391 C583.073242,12.9404208 582.687504,11.5708055 581.916016,10.6186523 C581.144527,9.66649915 580.084968,9.19042969 578.737305,9.19042969 C577.37011,9.19042969 576.266606,9.69823711 575.426758,10.7138672 C574.58691,11.7294973 574.088868,13.0673745 573.932617,14.7275391 Z M595.495117,24 C595.475586,14.5761248 595.46582,9.22461577 595.46582,7.9453125 L596.959961,7.9453125 L597.077148,11.109375 C597.653323,10.152339 598.385738,9.37109678 599.274414,8.765625 C600.16309,8.16015322 601.090815,7.85742188 602.057617,7.85742188 C602.45801,7.85742188 602.887693,7.89160122 603.34668,7.95996094 L603.214844,9.46875 C602.863279,9.41015596 602.492189,9.38085938 602.101562,9.38085938 C600.744134,9.38085938 599.604009,9.915522 598.681152,10.9848633 C597.758296,12.0542046 597.296875,13.3212817 597.296875,14.7861328 L597.296875,24 L595.495117,24 Z M612.443359,24.3515625 C610.226551,24.3515625 608.466315,23.6093824 607.162598,22.125 C605.85888,20.6406176 605.207031,18.6289189 605.207031,16.0898438 C605.207031,13.6386596 605.844232,11.6318437 607.118652,10.0693359 C608.393073,8.50682812 610.041006,7.70117212 612.0625,7.65234375 C613.947275,7.65234375 615.460932,8.32616514 616.603516,9.67382812 C617.746099,11.0214911 618.317383,12.8281137 618.317383,15.09375 C618.317383,15.1816411 618.314941,15.3598619 618.310059,15.628418 C618.305176,15.896974 618.302734,16.0849604 618.302734,16.1923828 L607.125977,16.1923828 C607.145508,18.25294 607.64355,19.8862244 608.620117,21.0922852 C609.596685,22.2983459 610.885734,22.9013672 612.487305,22.9013672 C613.532232,22.9013672 614.440426,22.7792981 615.211914,22.5351562 C615.983402,22.2910144 616.789058,21.9443382 617.628906,21.4951172 L617.936523,22.8574219 C616.315422,23.8535206 614.484385,24.3515625 612.443359,24.3515625 Z M607.199219,14.7275391 L616.339844,14.7275391 C616.339844,12.9404208 615.954105,11.5708055 615.182617,10.6186523 C614.411129,9.66649915 613.351569,9.19042969 612.003906,9.19042969 C610.636712,9.19042969 609.533207,9.69823711 608.693359,10.7138672 C607.853511,11.7294973 607.35547,13.0673745 607.199219,14.7275391 Z M626.637695,24.3662109 C625.602534,24.3662109 624.630864,24.2392591 623.722656,23.9853516 C622.814449,23.731444 622.096682,23.4287127 621.569336,23.0771484 L621.833008,21.5537109 C623.444344,22.3935589 624.987297,22.8134766 626.461914,22.8134766 C629.108412,22.8134766 630.480468,21.8320411 630.578125,19.8691406 C630.578125,19.048824 630.312014,18.4042992 629.779785,17.9355469 C629.247556,17.4667945 628.180672,16.9785182 626.579102,16.4707031 C625.739254,16.1777329 625.275391,16.0166017 625.1875,15.9873047 C622.677722,15.2255821 621.413086,13.8730566 621.393555,11.9296875 C621.393555,10.806635 621.889155,9.8129926 622.880371,8.94873047 C623.871587,8.08446833 625.211906,7.65234375 626.901367,7.65234375 C628.590829,7.65234375 630.177727,7.98437168 631.662109,8.6484375 L631.046875,9.99609375 C629.542961,9.42968467 628.146491,9.14648438 626.857422,9.14648438 C625.724604,9.14648438 624.833499,9.40038809 624.184082,9.90820312 C623.534665,10.4160182 623.209961,11.0996051 623.209961,11.9589844 C623.209961,12.6816442 623.422361,13.2358379 623.847168,13.621582 C624.271975,14.0073261 625.114252,14.3759748 626.374023,14.7275391 C626.510743,14.7666018 626.762205,14.8544915 627.128418,14.9912109 C627.494631,15.1279304 627.697265,15.2011718 627.736328,15.2109375 C629.42579,15.7285182 630.604977,16.3413051 631.273926,17.0493164 C631.942874,17.7573278 632.277344,18.7216736 632.277344,19.9423828 C632.248047,21.3486398 631.72315,22.4374961 630.702637,23.2089844 C629.682124,23.9804726 628.327157,24.3662109 626.637695,24.3662109 Z M641.754883,24.3955078 C640.915035,24.3955078 640.136234,24.3002939 639.418457,24.1098633 C638.70068,23.9194326 638.034183,23.6215841 637.418945,23.2163086 C636.803708,22.8110331 636.317873,22.2373084 635.961426,21.4951172 C635.604979,20.752926 635.426758,19.8789113 635.426758,18.8730469 L635.426758,7.9453125 L637.243164,7.9453125 L637.243164,18.9169922 C637.243164,19.6787147 637.36035,20.3232396 637.594727,20.8505859 C637.829103,21.3779323 638.166013,21.7758776 638.605469,22.0444336 C639.044924,22.3129896 639.513669,22.500976 640.011719,22.6083984 C640.509768,22.7158208 641.090817,22.7695312 641.754883,22.7695312 C642.409183,22.7695312 642.985349,22.7133795 643.483398,22.6010742 C643.981448,22.488769 644.44531,22.2958998 644.875,22.0224609 C645.30469,21.7490221 645.634276,21.3510768 645.86377,20.8286133 C646.093263,20.3061497 646.208008,19.6689491 646.208008,18.9169922 L646.208008,7.9453125 L648.024414,7.9453125 L648.024414,18.8730469 C648.024414,19.6933635 647.907228,20.425778 647.672852,21.0703125 C647.438475,21.714847 647.125979,22.2421854 646.735352,22.6523438 C646.344725,23.0625021 645.873538,23.4018541 645.321777,23.6704102 C644.770017,23.9389662 644.203616,24.1269526 643.622559,24.234375 C643.041501,24.3417974 642.418949,24.3955078 641.754883,24.3955078 Z M656.022461,24.3369141 C654.674798,24.3369141 653.68848,24.0317413 653.063477,23.4213867 C652.438473,22.8110321 652.125977,21.8173897 652.125977,20.4404297 L652.125977,1.70507812 L653.913086,1.55859375 L653.913086,20.3378906 C653.913086,21.314458 654.091307,21.9882794 654.447754,22.359375 C654.804201,22.7304706 655.343746,22.9160156 656.066406,22.9160156 C656.652347,22.9160156 657.384761,22.8037121 658.263672,22.5791016 L658.336914,23.9853516 C657.379878,24.2197277 656.608401,24.3369141 656.022461,24.3369141 Z M665.016602,24.3369141 C663.668939,24.3369141 662.68262,24.0317413 662.057617,23.4213867 C661.432614,22.8110321 661.120117,21.8173897 661.120117,20.4404297 L661.120117,9.27832031 L658.849609,9.27832031 L658.981445,8.1796875 L661.149414,7.97460938 L661.632812,4.29785156 L662.907227,4.20996094 L662.907227,7.9453125 L667.594727,7.9453125 L667.594727,9.27832031 L662.907227,9.27832031 L662.907227,20.0595703 C662.907227,21.1923885 663.092772,21.9516582 663.463867,22.3374023 C663.834963,22.7231465 664.489253,22.9160156 665.426758,22.9160156 C666.03223,22.9160156 666.784175,22.8037121 667.682617,22.5791016 L667.755859,23.9853516 C666.574213,24.2197277 665.661136,24.3369141 665.016602,24.3369141 Z M680.133789,30.0498047 L680.133789,0.474609375 L681.876953,0.474609375 L681.876953,30.0498047 L680.133789,30.0498047 Z M695.954102,24 C695.93457,14.5761248 695.924805,9.22461577 695.924805,7.9453125 L697.418945,7.9453125 L697.536133,11.109375 C698.112308,10.152339 698.844722,9.37109678 699.733398,8.765625 C700.622075,8.16015322 701.5498,7.85742188 702.516602,7.85742188 C702.916994,7.85742188 703.346677,7.89160122 703.805664,7.95996094 L703.673828,9.46875 C703.322264,9.41015596 702.951174,9.38085938 702.560547,9.38085938 C701.203118,9.38085938 700.062993,9.915522 699.140137,10.9848633 C698.217281,12.0542046 697.755859,13.3212817 697.755859,14.7861328 L697.755859,24 L695.954102,24 Z M710.69043,24.3515625 C709.17675,24.3515625 707.965825,23.9707069 707.057617,23.2089844 C706.14941,22.4472618 705.695312,21.3584055 705.695312,19.9423828 C705.695312,19.1025349 705.875975,18.3725617 706.237305,17.7524414 C706.598635,17.1323211 707.123532,16.6293965 707.812012,16.2436523 C708.500492,15.8579082 709.286617,15.5576183 710.17041,15.3427734 C711.054204,15.1279286 712.082025,14.9765629 713.253906,14.8886719 C714.503913,14.8105465 715.431638,14.7470706 716.037109,14.6982422 L716.037109,12.9111328 C716.037109,11.6806579 715.75635,10.7553742 715.194824,10.1352539 C714.633298,9.51513362 713.732428,9.20507812 712.492188,9.20507812 C710.79296,9.20507812 709.206062,9.61034751 707.731445,10.4208984 C707.692383,10.3232417 707.602051,10.1108415 707.460449,9.78369141 C707.318847,9.45654133 707.21875,9.205079 707.160156,9.02929688 C707.765628,8.63866992 708.556636,8.31152476 709.533203,8.04785156 C710.509771,7.78417837 711.466792,7.65234375 712.404297,7.65234375 C714.328135,7.65234375 715.709957,8.06493728 716.549805,8.89013672 C717.389653,9.71533616 717.80957,11.1777239 717.80957,13.2773438 L717.80957,24 L716.388672,24 C716.339844,23.7753895 716.269043,23.331058 716.17627,22.6669922 C716.083496,22.0029264 716.037109,21.6611329 716.037109,21.6416016 C714.777337,23.4482512 712.995129,24.3515625 710.69043,24.3515625 Z M710.749023,22.9013672 C711.99903,22.9013672 713.109858,22.5327185 714.081543,21.7954102 C715.053228,21.0581018 715.690428,20.0351628 715.993164,18.7265625 L715.993164,15.9873047 C714.586907,16.1044928 713.878906,16.1630859 713.869141,16.1630859 C711.486316,16.3779308 709.831059,16.7685519 708.90332,17.3349609 C707.975581,17.90137 707.511719,18.7802675 707.511719,19.9716797 C707.511719,20.9482471 707.807126,21.6806616 708.397949,22.1689453 C708.988772,22.657229 709.772456,22.9013672 710.749023,22.9013672 Z M722.204102,24 C722.18457,14.5761248 722.174805,9.22461577 722.174805,7.9453125 L723.668945,7.9453125 L723.786133,11.109375 C724.362308,10.152339 725.094722,9.37109678 725.983398,8.765625 C726.872075,8.16015322 727.7998,7.85742188 728.766602,7.85742188 C729.166994,7.85742188 729.596677,7.89160122 730.055664,7.95996094 L729.923828,9.46875 C729.572264,9.41015596 729.201174,9.38085938 728.810547,9.38085938 C727.453118,9.38085938 726.312993,9.915522 725.390137,10.9848633 C724.467281,12.0542046 724.005859,13.3212817 724.005859,14.7861328 L724.005859,24 L722.204102,24 Z M739.152344,24.3515625 C736.935536,24.3515625 735.175299,23.6093824 733.871582,22.125 C732.567865,20.6406176 731.916016,18.6289189 731.916016,16.0898438 C731.916016,13.6386596 732.553216,11.6318437 733.827637,10.0693359 C735.102057,8.50682812 736.74999,7.70117212 738.771484,7.65234375 C740.656259,7.65234375 742.169916,8.32616514 743.3125,9.67382812 C744.455084,11.0214911 745.026367,12.8281137 745.026367,15.09375 C745.026367,15.1816411 745.023926,15.3598619 745.019043,15.628418 C745.01416,15.896974 745.011719,16.0849604 745.011719,16.1923828 L733.834961,16.1923828 C733.854492,18.25294 734.352534,19.8862244 735.329102,21.0922852 C736.305669,22.2983459 737.594719,22.9013672 739.196289,22.9013672 C740.241216,22.9013672 741.14941,22.7792981 741.920898,22.5351562 C742.692387,22.2910144 743.498043,21.9443382 744.337891,21.4951172 L744.645508,22.8574219 C743.024406,23.8535206 741.19337,24.3515625 739.152344,24.3515625 Z M733.908203,14.7275391 L743.048828,14.7275391 C743.048828,12.9404208 742.66309,11.5708055 741.891602,10.6186523 C741.120113,9.66649915 740.060554,9.19042969 738.712891,9.19042969 C737.345696,9.19042969 736.242192,9.69823711 735.402344,10.7138672 C734.562496,11.7294973 734.064454,13.0673745 733.908203,14.7275391 Z M761.505859,24.3369141 C759.367177,24.3369141 757.699713,23.594734 756.503418,22.1103516 C755.307123,20.6259691 754.708984,18.5752084 754.708984,15.9580078 C754.708984,13.497058 755.326654,11.4975663 756.562012,9.95947266 C757.797369,8.42137903 759.425771,7.65234375 761.447266,7.65234375 C762.443364,7.65234375 763.439448,7.86718535 764.435547,8.296875 C765.431646,8.72656465 766.188474,9.39550327 766.706055,10.3037109 L766.706055,1.71972656 L768.463867,1.55859375 L768.463867,24 L766.955078,24 L766.691406,21.5830078 C766.134763,22.4912155 765.380376,23.1772438 764.428223,23.6411133 C763.476069,24.1049828 762.501958,24.3369141 761.505859,24.3369141 Z M761.461914,22.9013672 C762.370122,22.9013672 763.166012,22.7353532 763.849609,22.4033203 C764.533207,22.0712874 765.080076,21.6025421 765.490234,20.9970703 C765.900393,20.3915985 766.205565,19.6958047 766.405762,18.909668 C766.605958,18.1235312 766.706055,17.2519579 766.706055,16.2949219 C766.706055,11.5195074 764.94826,9.13183594 761.432617,9.13183594 C760.602535,9.13183594 759.87012,9.32958787 759.235352,9.72509766 C758.600583,10.1206074 758.100099,10.6528287 757.733887,11.3217773 C757.367674,11.990726 757.096681,12.7182578 756.920898,13.5043945 C756.745116,14.2905313 756.657227,15.1181597 756.657227,15.9873047 C756.657227,16.7392616 756.710937,17.4448209 756.818359,18.1040039 C756.925782,18.7631869 757.101561,19.390622 757.345703,19.9863281 C757.589845,20.5820342 757.892576,21.092283 758.253906,21.5170898 C758.615236,21.9418967 759.069333,22.2788073 759.616211,22.527832 C760.163089,22.7768567 760.778317,22.9013672 761.461914,22.9013672 Z M772.960938,24 L772.960938,7.9453125 L774.791992,7.9453125 L774.791992,24 L772.960938,24 Z M772.960938,4.6640625 L772.960938,2.203125 L774.777344,2.203125 L774.777344,4.6640625 L772.960938,4.6640625 Z M783.976562,24.3662109 C782.941401,24.3662109 781.969731,24.2392591 781.061523,23.9853516 C780.153316,23.731444 779.43555,23.4287127 778.908203,23.0771484 L779.171875,21.5537109 C780.783211,22.3935589 782.326165,22.8134766 783.800781,22.8134766 C786.447279,22.8134766 787.819335,21.8320411 787.916992,19.8691406 C787.916992,19.048824 787.650882,18.4042992 787.118652,17.9355469 C786.586423,17.4667945 785.519539,16.9785182 783.917969,16.4707031 C783.078121,16.1777329 782.614258,16.0166017 782.526367,15.9873047 C780.016589,15.2255821 778.751953,13.8730566 778.732422,11.9296875 C778.732422,10.806635 779.228022,9.8129926 780.219238,8.94873047 C781.210454,8.08446833 782.550773,7.65234375 784.240234,7.65234375 C785.929696,7.65234375 787.516594,7.98437168 789.000977,8.6484375 L788.385742,9.99609375 C786.881828,9.42968467 785.485358,9.14648438 784.196289,9.14648438 C783.063471,9.14648438 782.172367,9.40038809 781.522949,9.90820312 C780.873532,10.4160182 780.548828,11.0996051 780.548828,11.9589844 C780.548828,12.6816442 780.761228,13.2358379 781.186035,13.621582 C781.610842,14.0073261 782.453119,14.3759748 783.712891,14.7275391 C783.84961,14.7666018 784.101072,14.8544915 784.467285,14.9912109 C784.833498,15.1279304 785.036133,15.2011718 785.075195,15.2109375 C786.764657,15.7285182 787.943844,16.3413051 788.612793,17.0493164 C789.281742,17.7573278 789.616211,18.7216736 789.616211,19.9423828 C789.586914,21.3486398 789.062017,22.4374961 788.041504,23.2089844 C787.020991,23.9804726 785.666024,24.3662109 783.976562,24.3662109 Z M799.621094,24.3515625 C797.404286,24.3515625 795.644049,23.6093824 794.340332,22.125 C793.036615,20.6406176 792.384766,18.6289189 792.384766,16.0898438 C792.384766,13.6386596 793.021966,11.6318437 794.296387,10.0693359 C795.570807,8.50682812 797.21874,7.70117212 799.240234,7.65234375 C801.125009,7.65234375 802.638666,8.32616514 803.78125,9.67382812 C804.923834,11.0214911 805.495117,12.8281137 805.495117,15.09375 C805.495117,15.1816411 805.492676,15.3598619 805.487793,15.628418 C805.48291,15.896974 805.480469,16.0849604 805.480469,16.1923828 L794.303711,16.1923828 C794.323242,18.25294 794.821284,19.8862244 795.797852,21.0922852 C796.774419,22.2983459 798.063469,22.9013672 799.665039,22.9013672 C800.709966,22.9013672 801.61816,22.7792981 802.389648,22.5351562 C803.161137,22.2910144 803.966793,21.9443382 804.806641,21.4951172 L805.114258,22.8574219 C803.493156,23.8535206 801.66212,24.3515625 799.621094,24.3515625 Z M794.376953,14.7275391 L803.517578,14.7275391 C803.517578,12.9404208 803.13184,11.5708055 802.360352,10.6186523 C801.588863,9.66649915 800.529304,9.19042969 799.181641,9.19042969 C797.814446,9.19042969 796.710942,9.69823711 795.871094,10.7138672 C795.031246,11.7294973 794.533204,13.0673745 794.376953,14.7275391 Z M813.419922,24.3515625 C811.906242,24.3515625 810.695317,23.9707069 809.787109,23.2089844 C808.878902,22.4472618 808.424805,21.3584055 808.424805,19.9423828 C808.424805,19.1025349 808.605467,18.3725617 808.966797,17.7524414 C809.328127,17.1323211 809.853024,16.6293965 810.541504,16.2436523 C811.229984,15.8579082 812.016109,15.5576183 812.899902,15.3427734 C813.783696,15.1279286 814.811518,14.9765629 815.983398,14.8886719 C817.233405,14.8105465 818.16113,14.7470706 818.766602,14.6982422 L818.766602,12.9111328 C818.766602,11.6806579 818.485843,10.7553742 817.924316,10.1352539 C817.36279,9.51513362 816.46192,9.20507812 815.22168,9.20507812 C813.522452,9.20507812 811.935554,9.61034751 810.460938,10.4208984 C810.421875,10.3232417 810.331544,10.1108415 810.189941,9.78369141 C810.048339,9.45654133 809.948242,9.205079 809.889648,9.02929688 C810.49512,8.63866992 811.286128,8.31152476 812.262695,8.04785156 C813.239263,7.78417837 814.196284,7.65234375 815.133789,7.65234375 C817.057627,7.65234375 818.439449,8.06493728 819.279297,8.89013672 C820.119145,9.71533616 820.539062,11.1777239 820.539062,13.2773438 L820.539062,24 L819.118164,24 C819.069336,23.7753895 818.998536,23.331058 818.905762,22.6669922 C818.812988,22.0029264 818.766602,21.6611329 818.766602,21.6416016 C817.50683,23.4482512 815.724621,24.3515625 813.419922,24.3515625 Z M813.478516,22.9013672 C814.728522,22.9013672 815.839351,22.5327185 816.811035,21.7954102 C817.78272,21.0581018 818.41992,20.0351628 818.722656,18.7265625 L818.722656,15.9873047 C817.316399,16.1044928 816.608398,16.1630859 816.598633,16.1630859 C814.215808,16.3779308 812.560552,16.7685519 811.632812,17.3349609 C810.705073,17.90137 810.241211,18.7802675 810.241211,19.9716797 C810.241211,20.9482471 810.536618,21.6806616 811.127441,22.1689453 C811.718265,22.657229 812.501948,22.9013672 813.478516,22.9013672 Z M829.591797,24.3662109 C828.556635,24.3662109 827.584965,24.2392591 826.676758,23.9853516 C825.76855,23.731444 825.050784,23.4287127 824.523438,23.0771484 L824.787109,21.5537109 C826.398446,22.3935589 827.941399,22.8134766 829.416016,22.8134766 C832.062513,22.8134766 833.43457,21.8320411 833.532227,19.8691406 C833.532227,19.048824 833.266116,18.4042992 832.733887,17.9355469 C832.201657,17.4667945 831.134774,16.9785182 829.533203,16.4707031 C828.693355,16.1777329 828.229493,16.0166017 828.141602,15.9873047 C825.631823,15.2255821 824.367188,13.8730566 824.347656,11.9296875 C824.347656,10.806635 824.843257,9.8129926 825.834473,8.94873047 C826.825689,8.08446833 828.166007,7.65234375 829.855469,7.65234375 C831.54493,7.65234375 833.131829,7.98437168 834.616211,8.6484375 L834.000977,9.99609375 C832.497063,9.42968467 831.100592,9.14648438 829.811523,9.14648438 C828.678705,9.14648438 827.787601,9.40038809 827.138184,9.90820312 C826.488766,10.4160182 826.164062,11.0996051 826.164062,11.9589844 C826.164062,12.6816442 826.376463,13.2358379 826.80127,13.621582 C827.226076,14.0073261 828.068353,14.3759748 829.328125,14.7275391 C829.464844,14.7666018 829.716307,14.8544915 830.08252,14.9912109 C830.448732,15.1279304 830.651367,15.2011718 830.69043,15.2109375 C832.379891,15.7285182 833.559079,16.3413051 834.228027,17.0493164 C834.896976,17.7573278 835.231445,18.7216736 835.231445,19.9423828 C835.202148,21.3486398 834.677251,22.4374961 833.656738,23.2089844 C832.636225,23.9804726 831.281258,24.3662109 829.591797,24.3662109 Z M845.236328,24.3515625 C843.01952,24.3515625 841.259284,23.6093824 839.955566,22.125 C838.651849,20.6406176 838,18.6289189 838,16.0898438 C838,13.6386596 838.637201,11.6318437 839.911621,10.0693359 C841.186042,8.50682812 842.833974,7.70117212 844.855469,7.65234375 C846.740244,7.65234375 848.253901,8.32616514 849.396484,9.67382812 C850.539068,11.0214911 851.110352,12.8281137 851.110352,15.09375 C851.110352,15.1816411 851.10791,15.3598619 851.103027,15.628418 C851.098145,15.896974 851.095703,16.0849604 851.095703,16.1923828 L839.918945,16.1923828 C839.938477,18.25294 840.436519,19.8862244 841.413086,21.0922852 C842.389653,22.2983459 843.678703,22.9013672 845.280273,22.9013672 C846.325201,22.9013672 847.233395,22.7792981 848.004883,22.5351562 C848.776371,22.2910144 849.582027,21.9443382 850.421875,21.4951172 L850.729492,22.8574219 C849.10839,23.8535206 847.277354,24.3515625 845.236328,24.3515625 Z M839.992188,14.7275391 L849.132812,14.7275391 C849.132812,12.9404208 848.747074,11.5708055 847.975586,10.6186523 C847.204098,9.66649915 846.144538,9.19042969 844.796875,9.19042969 C843.429681,9.19042969 842.326176,9.69823711 841.486328,10.7138672 C840.64648,11.7294973 840.148438,13.0673745 839.992188,14.7275391 Z M853.981445,27.5009766 C856.452161,23.3798622 857.6875,19.1220923 857.6875,14.7275391 C857.6875,12.4911998 857.409182,10.3598734 856.852539,8.33349609 C856.295896,6.30711877 855.333991,4.13673032 853.966797,1.82226562 L855.695312,1.82226562 C858.332044,5.82619189 859.650391,10.1572033 859.650391,14.8154297 C859.650391,17.0908317 859.29639,19.3393444 858.588379,21.5610352 C857.880368,23.782726 856.906256,25.7626866 855.666016,27.5009766 L853.981445,27.5009766 Z M868.556641,24 L874.547852,15.8701172 L868.74707,7.9453125 L870.768555,7.9453125 L875.456055,14.5664062 L880.114258,7.9453125 L882.179688,7.9453125 L876.393555,15.9287109 L882.296875,24 L880.348633,24 L875.470703,17.1884766 L870.607422,24 L868.556641,24 Z M894.352539,24 L891.759766,24 L891.759766,2.0859375 L898.820312,2.0859375 C899.894537,2.0859375 900.866207,2.19824106 901.735352,2.42285156 C902.604497,2.64746206 903.375973,2.98925552 904.049805,3.44824219 C904.723636,3.90722886 905.246092,4.52245708 905.617188,5.29394531 C905.988283,6.06543354 906.173828,6.96386206 906.173828,7.98925781 C906.173828,8.83887144 906.095704,9.59814119 905.939453,10.2670898 C905.783202,10.9360385 905.51465,11.5634736 905.133789,12.1494141 C904.752928,12.7353545 904.254886,13.2211895 903.639648,13.6069336 C903.024411,13.9926777 902.235845,14.2954091 901.273926,14.5151367 C900.312007,14.7348644 899.196295,14.8447266 897.926758,14.8447266 C896.920893,14.8447266 895.729499,14.7812506 894.352539,14.6542969 L894.352539,24 Z M898.175781,12.6035156 C899.132817,12.6035156 899.953122,12.5107431 900.636719,12.3251953 C901.320316,12.1396475 901.845213,11.9101576 902.211426,11.6367188 C902.577639,11.3632799 902.865722,11.0068381 903.075684,10.5673828 C903.285646,10.1279275 903.415039,9.72509949 903.463867,9.35888672 C903.512696,8.99267395 903.537109,8.55078384 903.537109,8.03320312 C903.537109,6.79296255 903.119633,5.87988574 902.284668,5.29394531 C901.449703,4.70800488 900.31446,4.41503906 898.878906,4.41503906 L894.352539,4.41503906 L894.352539,12.5742188 C896.237314,12.5937501 897.511715,12.6035156 898.175781,12.6035156 Z M918.932617,27.5009766 C917.692377,25.782218 916.720707,23.8046987 916.017578,21.5683594 C915.31445,19.3320201 914.962891,17.081066 914.962891,14.8154297 C914.962891,10.0888436 916.271471,5.75783218 918.888672,1.82226562 L920.631836,1.82226562 C919.264642,4.13673032 918.305179,6.30467739 917.753418,8.32617188 C917.201657,10.3476664 916.925781,12.4814341 916.925781,14.7275391 C916.925781,19.131858 918.16112,23.3896279 920.631836,27.5009766 L918.932617,27.5009766 Z M924.206055,24 C924.186523,14.5761248 924.176758,9.22461577 924.176758,7.9453125 L925.670898,7.9453125 L925.788086,11.109375 C926.364261,10.152339 927.096675,9.37109678 927.985352,8.765625 C928.874028,8.16015322 929.801753,7.85742188 930.768555,7.85742188 C931.168947,7.85742188 931.598631,7.89160122 932.057617,7.95996094 L931.925781,9.46875 C931.574217,9.41015596 931.203127,9.38085938 930.8125,9.38085938 C929.455071,9.38085938 928.314946,9.915522 927.39209,10.9848633 C926.469234,12.0542046 926.007812,13.3212817 926.007812,14.7861328 L926.007812,24 L924.206055,24 Z M938.942383,24.3515625 C937.428703,24.3515625 936.217778,23.9707069 935.30957,23.2089844 C934.401363,22.4472618 933.947266,21.3584055 933.947266,19.9423828 C933.947266,19.1025349 934.127928,18.3725617 934.489258,17.7524414 C934.850588,17.1323211 935.375485,16.6293965 936.063965,16.2436523 C936.752445,15.8579082 937.53857,15.5576183 938.422363,15.3427734 C939.306157,15.1279286 940.333979,14.9765629 941.505859,14.8886719 C942.755866,14.8105465 943.683591,14.7470706 944.289062,14.6982422 L944.289062,12.9111328 C944.289062,11.6806579 944.008304,10.7553742 943.446777,10.1352539 C942.885251,9.51513362 941.984381,9.20507812 940.744141,9.20507812 C939.044913,9.20507812 937.458015,9.61034751 935.983398,10.4208984 C935.944336,10.3232417 935.854005,10.1108415 935.712402,9.78369141 C935.5708,9.45654133 935.470703,9.205079 935.412109,9.02929688 C936.017581,8.63866992 936.808589,8.31152476 937.785156,8.04785156 C938.761724,7.78417837 939.718745,7.65234375 940.65625,7.65234375 C942.580088,7.65234375 943.96191,8.06493728 944.801758,8.89013672 C945.641606,9.71533616 946.061523,11.1777239 946.061523,13.2773438 L946.061523,24 L944.640625,24 C944.591797,23.7753895 944.520997,23.331058 944.428223,22.6669922 C944.335449,22.0029264 944.289062,21.6611329 944.289062,21.6416016 C943.029291,23.4482512 941.247082,24.3515625 938.942383,24.3515625 Z M939.000977,22.9013672 C940.250983,22.9013672 941.361812,22.5327185 942.333496,21.7954102 C943.305181,21.0581018 943.942381,20.0351628 944.245117,18.7265625 L944.245117,15.9873047 C942.83886,16.1044928 942.130859,16.1630859 942.121094,16.1630859 C939.738269,16.3779308 938.083012,16.7685519 937.155273,17.3349609 C936.227534,17.90137 935.763672,18.7802675 935.763672,19.9716797 C935.763672,20.9482471 936.059079,21.6806616 936.649902,22.1689453 C937.240726,22.657229 938.024409,22.9013672 939.000977,22.9013672 Z M950.456055,24 C950.436523,14.5761248 950.426758,9.22461577 950.426758,7.9453125 L951.920898,7.9453125 L952.038086,11.109375 C952.614261,10.152339 953.346675,9.37109678 954.235352,8.765625 C955.124028,8.16015322 956.051753,7.85742188 957.018555,7.85742188 C957.418947,7.85742188 957.848631,7.89160122 958.307617,7.95996094 L958.175781,9.46875 C957.824217,9.41015596 957.453127,9.38085938 957.0625,9.38085938 C955.705071,9.38085938 954.564946,9.915522 953.64209,10.9848633 C952.719234,12.0542046 952.257812,13.3212817 952.257812,14.7861328 L952.257812,24 L950.456055,24 Z M967.404297,24.3515625 C965.187489,24.3515625 963.427253,23.6093824 962.123535,22.125 C960.819818,20.6406176 960.167969,18.6289189 960.167969,16.0898438 C960.167969,13.6386596 960.805169,11.6318437 962.07959,10.0693359 C963.35401,8.50682812 965.001943,7.70117212 967.023438,7.65234375 C968.908213,7.65234375 970.421869,8.32616514 971.564453,9.67382812 C972.707037,11.0214911 973.27832,12.8281137 973.27832,15.09375 C973.27832,15.1816411 973.275879,15.3598619 973.270996,15.628418 C973.266113,15.896974 973.263672,16.0849604 973.263672,16.1923828 L962.086914,16.1923828 C962.106445,18.25294 962.604487,19.8862244 963.581055,21.0922852 C964.557622,22.2983459 965.846672,22.9013672 967.448242,22.9013672 C968.493169,22.9013672 969.401363,22.7792981 970.172852,22.5351562 C970.94434,22.2910144 971.749996,21.9443382 972.589844,21.4951172 L972.897461,22.8574219 C971.276359,23.8535206 969.445323,24.3515625 967.404297,24.3515625 Z M962.160156,14.7275391 L971.300781,14.7275391 C971.300781,12.9404208 970.915043,11.5708055 970.143555,10.6186523 C969.372066,9.66649915 968.312507,9.19042969 966.964844,9.19042969 C965.597649,9.19042969 964.494145,9.69823711 963.654297,10.7138672 C962.814449,11.7294973 962.316407,13.0673745 962.160156,14.7275391 Z M989.757812,24.3369141 C987.61913,24.3369141 985.951666,23.594734 984.755371,22.1103516 C983.559076,20.6259691 982.960938,18.5752084 982.960938,15.9580078 C982.960938,13.497058 983.578607,11.4975663 984.813965,9.95947266 C986.049323,8.42137903 987.677724,7.65234375 989.699219,7.65234375 C990.695317,7.65234375 991.691401,7.86718535 992.6875,8.296875 C993.683599,8.72656465 994.440427,9.39550327 994.958008,10.3037109 L994.958008,1.71972656 L996.71582,1.55859375 L996.71582,24 L995.207031,24 L994.943359,21.5830078 C994.386716,22.4912155 993.632329,23.1772438 992.680176,23.6411133 C991.728023,24.1049828 990.753911,24.3369141 989.757812,24.3369141 Z M989.713867,22.9013672 C990.622075,22.9013672 991.417965,22.7353532 992.101562,22.4033203 C992.78516,22.0712874 993.332029,21.6025421 993.742188,20.9970703 C994.152346,20.3915985 994.457519,19.6958047 994.657715,18.909668 C994.857911,18.1235312 994.958008,17.2519579 994.958008,16.2949219 C994.958008,11.5195074 993.200213,9.13183594 989.68457,9.13183594 C988.854488,9.13183594 988.122073,9.32958787 987.487305,9.72509766 C986.852536,10.1206074 986.352053,10.6528287 985.98584,11.3217773 C985.619627,11.990726 985.348634,12.7182578 985.172852,13.5043945 C984.997069,14.2905313 984.90918,15.1181597 984.90918,15.9873047 C984.90918,16.7392616 984.96289,17.4448209 985.070312,18.1040039 C985.177735,18.7631869 985.353514,19.390622 985.597656,19.9863281 C985.841798,20.5820342 986.144529,21.092283 986.505859,21.5170898 C986.867189,21.9418967 987.321286,22.2788073 987.868164,22.527832 C988.415042,22.7768567 989.03027,22.9013672 989.713867,22.9013672 Z M1001.21289,24 L1001.21289,7.9453125 L1003.04395,7.9453125 L1003.04395,24 L1001.21289,24 Z M1001.21289,4.6640625 L1001.21289,2.203125 L1003.0293,2.203125 L1003.0293,4.6640625 L1001.21289,4.6640625 Z M1012.22852,24.3662109 C1011.19335,24.3662109 1010.22168,24.2392591 1009.31348,23.9853516 C1008.40527,23.731444 1007.6875,23.4287127 1007.16016,23.0771484 L1007.42383,21.5537109 C1009.03516,22.3935589 1010.57812,22.8134766 1012.05273,22.8134766 C1014.69923,22.8134766 1016.07129,21.8320411 1016.16895,19.8691406 C1016.16895,19.048824 1015.90283,18.4042992 1015.37061,17.9355469 C1014.83838,17.4667945 1013.77149,16.9785182 1012.16992,16.4707031 C1011.33007,16.1777329 1010.86621,16.0166017 1010.77832,15.9873047 C1008.26854,15.2255821 1007.00391,13.8730566 1006.98438,11.9296875 C1006.98438,10.806635 1007.47998,9.8129926 1008.47119,8.94873047 C1009.46241,8.08446833 1010.80273,7.65234375 1012.49219,7.65234375 C1014.18165,7.65234375 1015.76855,7.98437168 1017.25293,8.6484375 L1016.6377,9.99609375 C1015.13378,9.42968467 1013.73731,9.14648438 1012.44824,9.14648438 C1011.31542,9.14648438 1010.42432,9.40038809 1009.7749,9.90820312 C1009.12549,10.4160182 1008.80078,11.0996051 1008.80078,11.9589844 C1008.80078,12.6816442 1009.01318,13.2358379 1009.43799,13.621582 C1009.8628,14.0073261 1010.70507,14.3759748 1011.96484,14.7275391 C1012.10156,14.7666018 1012.35303,14.8544915 1012.71924,14.9912109 C1013.08545,15.1279304 1013.28809,15.2011718 1013.32715,15.2109375 C1015.01661,15.7285182 1016.1958,16.3413051 1016.86475,17.0493164 C1017.53369,17.7573278 1017.86816,18.7216736 1017.86816,19.9423828 C1017.83887,21.3486398 1017.31397,22.4374961 1016.29346,23.2089844 C1015.27294,23.9804726 1013.91798,24.3662109 1012.22852,24.3662109 Z M1027.87305,24.3515625 C1025.65624,24.3515625 1023.896,23.6093824 1022.59229,22.125 C1021.28857,20.6406176 1020.63672,18.6289189 1020.63672,16.0898438 C1020.63672,13.6386596 1021.27392,11.6318437 1022.54834,10.0693359 C1023.82276,8.50682812 1025.47069,7.70117212 1027.49219,7.65234375 C1029.37696,7.65234375 1030.89062,8.32616514 1032.0332,9.67382812 C1033.17579,11.0214911 1033.74707,12.8281137 1033.74707,15.09375 C1033.74707,15.1816411 1033.74463,15.3598619 1033.73975,15.628418 C1033.73486,15.896974 1033.73242,16.0849604 1033.73242,16.1923828 L1022.55566,16.1923828 C1022.5752,18.25294 1023.07324,19.8862244 1024.0498,21.0922852 C1025.02637,22.2983459 1026.31542,22.9013672 1027.91699,22.9013672 C1028.96192,22.9013672 1029.87011,22.7792981 1030.6416,22.5351562 C1031.41309,22.2910144 1032.21875,21.9443382 1033.05859,21.4951172 L1033.36621,22.8574219 C1031.74511,23.8535206 1029.91407,24.3515625 1027.87305,24.3515625 Z M1022.62891,14.7275391 L1031.76953,14.7275391 C1031.76953,12.9404208 1031.38379,11.5708055 1030.6123,10.6186523 C1029.84082,9.66649915 1028.78126,9.19042969 1027.43359,9.19042969 C1026.0664,9.19042969 1024.96289,9.69823711 1024.12305,10.7138672 C1023.2832,11.7294973 1022.78516,13.0673745 1022.62891,14.7275391 Z M1041.67188,24.3515625 C1040.1582,24.3515625 1038.94727,23.9707069 1038.03906,23.2089844 C1037.13085,22.4472618 1036.67676,21.3584055 1036.67676,19.9423828 C1036.67676,19.1025349 1036.85742,18.3725617 1037.21875,17.7524414 C1037.58008,17.1323211 1038.10498,16.6293965 1038.79346,16.2436523 C1039.48194,15.8579082 1040.26806,15.5576183 1041.15186,15.3427734 C1042.03565,15.1279286 1043.06347,14.9765629 1044.23535,14.8886719 C1045.48536,14.8105465 1046.41308,14.7470706 1047.01855,14.6982422 L1047.01855,12.9111328 C1047.01855,11.6806579 1046.7378,10.7553742 1046.17627,10.1352539 C1045.61474,9.51513362 1044.71387,9.20507812 1043.47363,9.20507812 C1041.77441,9.20507812 1040.18751,9.61034751 1038.71289,10.4208984 C1038.67383,10.3232417 1038.5835,10.1108415 1038.44189,9.78369141 C1038.30029,9.45654133 1038.2002,9.205079 1038.1416,9.02929688 C1038.74707,8.63866992 1039.53808,8.31152476 1040.51465,8.04785156 C1041.49122,7.78417837 1042.44824,7.65234375 1043.38574,7.65234375 C1045.30958,7.65234375 1046.6914,8.06493728 1047.53125,8.89013672 C1048.3711,9.71533616 1048.79102,11.1777239 1048.79102,13.2773438 L1048.79102,24 L1047.37012,24 C1047.32129,23.7753895 1047.25049,23.331058 1047.15771,22.6669922 C1047.06494,22.0029264 1047.01855,21.6611329 1047.01855,21.6416016 C1045.75878,23.4482512 1043.97657,24.3515625 1041.67188,24.3515625 Z M1041.73047,22.9013672 C1042.98047,22.9013672 1044.0913,22.5327185 1045.06299,21.7954102 C1046.03467,21.0581018 1046.67187,20.0351628 1046.97461,18.7265625 L1046.97461,15.9873047 C1045.56835,16.1044928 1044.86035,16.1630859 1044.85059,16.1630859 C1042.46776,16.3779308 1040.8125,16.7685519 1039.88477,17.3349609 C1038.95703,17.90137 1038.49316,18.7802675 1038.49316,19.9716797 C1038.49316,20.9482471 1038.78857,21.6806616 1039.37939,22.1689453 C1039.97022,22.657229 1040.7539,22.9013672 1041.73047,22.9013672 Z M1057.84375,24.3662109 C1056.80859,24.3662109 1055.83692,24.2392591 1054.92871,23.9853516 C1054.0205,23.731444 1053.30274,23.4287127 1052.77539,23.0771484 L1053.03906,21.5537109 C1054.6504,22.3935589 1056.19335,22.8134766 1057.66797,22.8134766 C1060.31447,22.8134766 1061.68652,21.8320411 1061.78418,19.8691406 C1061.78418,19.048824 1061.51807,18.4042992 1060.98584,17.9355469 C1060.45361,17.4667945 1059.38673,16.9785182 1057.78516,16.4707031 C1056.94531,16.1777329 1056.48145,16.0166017 1056.39355,15.9873047 C1053.88378,15.2255821 1052.61914,13.8730566 1052.59961,11.9296875 C1052.59961,10.806635 1053.09521,9.8129926 1054.08643,8.94873047 C1055.07764,8.08446833 1056.41796,7.65234375 1058.10742,7.65234375 C1059.79688,7.65234375 1061.38378,7.98437168 1062.86816,8.6484375 L1062.25293,9.99609375 C1060.74902,9.42968467 1059.35255,9.14648438 1058.06348,9.14648438 C1056.93066,9.14648438 1056.03955,9.40038809 1055.39014,9.90820312 C1054.74072,10.4160182 1054.41602,11.0996051 1054.41602,11.9589844 C1054.41602,12.6816442 1054.62842,13.2358379 1055.05322,13.621582 C1055.47803,14.0073261 1056.32031,14.3759748 1057.58008,14.7275391 C1057.7168,14.7666018 1057.96826,14.8544915 1058.33447,14.9912109 C1058.70069,15.1279304 1058.90332,15.2011718 1058.94238,15.2109375 C1060.63184,15.7285182 1061.81103,16.3413051 1062.47998,17.0493164 C1063.14893,17.7573278 1063.4834,18.7216736 1063.4834,19.9423828 C1063.4541,21.3486398 1062.9292,22.4374961 1061.90869,23.2089844 C1060.88818,23.9804726 1059.53321,24.3662109 1057.84375,24.3662109 Z M1073.48828,24.3515625 C1071.27147,24.3515625 1069.51124,23.6093824 1068.20752,22.125 C1066.9038,20.6406176 1066.25195,18.6289189 1066.25195,16.0898438 C1066.25195,13.6386596 1066.88915,11.6318437 1068.16357,10.0693359 C1069.43799,8.50682812 1071.08593,7.70117212 1073.10742,7.65234375 C1074.9922,7.65234375 1076.50585,8.32616514 1077.64844,9.67382812 C1078.79102,11.0214911 1079.3623,12.8281137 1079.3623,15.09375 C1079.3623,15.1816411 1079.35986,15.3598619 1079.35498,15.628418 C1079.3501,15.896974 1079.34766,16.0849604 1079.34766,16.1923828 L1068.1709,16.1923828 C1068.19043,18.25294 1068.68847,19.8862244 1069.66504,21.0922852 C1070.64161,22.2983459 1071.93066,22.9013672 1073.53223,22.9013672 C1074.57715,22.9013672 1075.48535,22.7792981 1076.25684,22.5351562 C1077.02832,22.2910144 1077.83398,21.9443382 1078.67383,21.4951172 L1078.98145,22.8574219 C1077.36034,23.8535206 1075.52931,24.3515625 1073.48828,24.3515625 Z M1068.24414,14.7275391 L1077.38477,14.7275391 C1077.38477,12.9404208 1076.99903,11.5708055 1076.22754,10.6186523 C1075.45605,9.66649915 1074.39649,9.19042969 1073.04883,9.19042969 C1071.68163,9.19042969 1070.57813,9.69823711 1069.73828,10.7138672 C1068.89843,11.7294973 1068.40039,13.0673745 1068.24414,14.7275391 Z M1082.2334,27.5009766 C1084.70411,23.3798622 1085.93945,19.1220923 1085.93945,14.7275391 C1085.93945,12.4911998 1085.66114,10.3598734 1085.10449,8.33349609 C1084.54785,6.30711877 1083.58594,4.13673032 1082.21875,1.82226562 L1083.94727,1.82226562 C1086.584,5.82619189 1087.90234,10.1572033 1087.90234,14.8154297 C1087.90234,17.0908317 1087.54834,19.3393444 1086.84033,21.5610352 C1086.13232,23.782726 1085.15821,25.7626866 1083.91797,27.5009766 L1082.2334,27.5009766 Z" id="P-(positive-result-|" fill="#000000"></path>
                <path d="M662.04834,89 L659.455566,89 L659.455566,67.0859375 L666.516113,67.0859375 C667.590337,67.0859375 668.562007,67.1982411 669.431152,67.4228516 C670.300297,67.6474621 671.071774,67.9892555 671.745605,68.4482422 C672.419437,68.9072289 672.941893,69.5224571 673.312988,70.2939453 C673.684084,71.0654335 673.869629,71.9638621 673.869629,72.9892578 C673.869629,73.8388714 673.791505,74.5981412 673.635254,75.2670898 C673.479003,75.9360385 673.210451,76.5634736 672.82959,77.1494141 C672.448729,77.7353545 671.950687,78.2211895 671.335449,78.6069336 C670.720212,78.9926777 669.931645,79.2954091 668.969727,79.5151367 C668.007808,79.7348644 666.892096,79.8447266 665.622559,79.8447266 C664.616694,79.8447266 663.4253,79.7812506 662.04834,79.6542969 L662.04834,89 Z M665.871582,77.6035156 C666.828618,77.6035156 667.648922,77.5107431 668.33252,77.3251953 C669.016117,77.1396475 669.541014,76.9101576 669.907227,76.6367188 C670.273439,76.3632799 670.561522,76.0068381 670.771484,75.5673828 C670.981446,75.1279275 671.11084,74.7250995 671.159668,74.3588867 C671.208496,73.992674 671.23291,73.5507838 671.23291,73.0332031 C671.23291,71.7929625 670.815434,70.8798857 669.980469,70.2939453 C669.145504,69.7080049 668.010261,69.4150391 666.574707,69.4150391 L662.04834,69.4150391 L662.04834,77.5742188 C663.933115,77.5937501 665.207516,77.6035156 665.871582,77.6035156 Z M687.331543,92.5009766 C686.091302,90.782218 685.119632,88.8046987 684.416504,86.5683594 C683.713375,84.3320201 683.361816,82.081066 683.361816,79.8154297 C683.361816,75.0888436 684.670397,70.7578322 687.287598,66.8222656 L689.030762,66.8222656 C687.663567,69.1367303 686.704104,71.3046774 686.152344,73.3261719 C685.600583,75.3476664 685.324707,77.4814341 685.324707,79.7275391 C685.324707,84.131858 686.560046,88.3896279 689.030762,92.5009766 L687.331543,92.5009766 Z M692.575684,96.1484375 L692.575684,72.9453125 L694.20166,72.9453125 L694.362793,75.2304688 C695.11475,74.3710895 695.878902,73.7265646 696.655273,73.296875 C697.431645,72.8671854 698.337397,72.6523438 699.372559,72.6523438 C701.657726,72.6523438 703.369135,73.4116135 704.506836,74.9301758 C705.644537,76.4487381 706.213379,78.526354 706.213379,81.1630859 C706.213379,83.5654417 705.612799,85.5307541 704.411621,87.059082 C703.210443,88.58741 701.584483,89.3515625 699.533691,89.3515625 C698.478999,89.3515625 697.482915,89.1025416 696.54541,88.6044922 C695.607905,88.1064428 694.865725,87.4521525 694.318848,86.6416016 C694.367676,87.8427794 694.39209,89.0244083 694.39209,90.1865234 L694.39209,96.0166016 L692.575684,96.1484375 Z M699.416504,87.8574219 C700.246586,87.8574219 700.983883,87.6572286 701.628418,87.2568359 C702.272952,86.8564433 702.785643,86.3242221 703.166504,85.6601562 C703.547365,84.9960904 703.833007,84.271 704.023438,83.4848633 C704.213868,82.6987265 704.309082,81.8808636 704.309082,81.03125 C704.309082,80.1718707 704.21631,79.3515664 704.030762,78.5703125 C703.845214,77.7890586 703.564455,77.0639682 703.188477,76.3950195 C702.812498,75.7260709 702.297367,75.1914083 701.643066,74.7910156 C700.988766,74.390623 700.241703,74.1904297 699.401855,74.1904297 C698.493648,74.1904297 697.709964,74.3540023 697.050781,74.6811523 C696.391598,75.0083024 695.869143,75.4746063 695.483398,76.0800781 C695.097654,76.6855499 694.816895,77.3740196 694.641113,78.1455078 C694.465331,78.916996 694.377441,79.786128 694.377441,80.7529297 C694.377441,81.8662165 694.460448,82.8378865 694.626465,83.6679688 C694.792481,84.498051 695.063475,85.2377897 695.439453,85.887207 C695.815432,86.5366243 696.335446,87.0273421 696.999512,87.359375 C697.663578,87.6914079 698.469234,87.8574219 699.416504,87.8574219 Z M716.437988,87.9013672 C717.609869,87.9013672 718.598629,87.5913117 719.404297,86.9711914 C720.209965,86.3510711 720.795897,85.5332082 721.162109,84.5175781 C721.528322,83.501948 721.711426,82.3349675 721.711426,81.0166016 C721.711426,78.9462787 721.271977,77.2812563 720.393066,76.0214844 C719.514156,74.7617125 718.176279,74.1318359 716.379395,74.1318359 C715.207514,74.1318359 714.208989,74.4467742 713.383789,75.0766602 C712.55859,75.7065461 711.955568,76.5317332 711.574707,77.5522461 C711.193846,78.572759 711.003418,79.7421809 711.003418,81.0605469 C711.003418,83.06251 711.469722,84.7031186 712.402344,85.9824219 C713.334966,87.2617251 714.680167,87.9013672 716.437988,87.9013672 Z M716.306152,89.3515625 C714.851067,89.3515625 713.569341,88.9853552 712.460938,88.2529297 C711.352534,87.5205042 710.507815,86.5268617 709.926758,85.2719727 C709.3457,84.0170836 709.055176,82.5986407 709.055176,81.0166016 C709.055176,79.8251894 709.223631,78.7192434 709.560547,77.6987305 C709.897463,76.6782176 710.378415,75.7944373 711.003418,75.0473633 C711.628421,74.3002892 712.404781,73.7143576 713.33252,73.2895508 C714.260259,72.864744 715.290522,72.6523438 716.42334,72.6523438 C717.927254,72.6523438 719.230952,73.0209924 720.334473,73.7583008 C721.437994,74.4956092 722.265622,75.4868102 722.817383,76.7319336 C723.369143,77.977057 723.64502,79.3954999 723.64502,80.9873047 C723.64502,82.5888752 723.361819,84.0146422 722.79541,85.2646484 C722.229001,86.5146547 721.384283,87.5082971 720.26123,88.2456055 C719.138178,88.9829138 717.819832,89.3515625 716.306152,89.3515625 Z M731.906738,89.3662109 C730.871577,89.3662109 729.899907,89.2392591 728.991699,88.9853516 C728.083492,88.731444 727.365725,88.4287127 726.838379,88.0771484 L727.102051,86.5537109 C728.713387,87.3935589 730.25634,87.8134766 731.730957,87.8134766 C734.377455,87.8134766 735.749511,86.8320411 735.847168,84.8691406 C735.847168,84.048824 735.581057,83.4042992 735.048828,82.9355469 C734.516599,82.4667945 733.449715,81.9785182 731.848145,81.4707031 C731.008297,81.1777329 730.544434,81.0166017 730.456543,80.9873047 C727.946765,80.2255821 726.682129,78.8730566 726.662598,76.9296875 C726.662598,75.806635 727.158198,74.8129926 728.149414,73.9487305 C729.14063,73.0844683 730.480949,72.6523438 732.17041,72.6523438 C733.859872,72.6523438 735.44677,72.9843717 736.931152,73.6484375 L736.315918,74.9960938 C734.812004,74.4296847 733.415534,74.1464844 732.126465,74.1464844 C730.993647,74.1464844 730.102542,74.4003881 729.453125,74.9082031 C728.803708,75.4160182 728.479004,76.0996051 728.479004,76.9589844 C728.479004,77.6816442 728.691404,78.2358379 729.116211,78.621582 C729.541018,79.0073261 730.383294,79.3759748 731.643066,79.7275391 C731.779786,79.7666018 732.031248,79.8544915 732.397461,79.9912109 C732.763674,80.1279304 732.966308,80.2011718 733.005371,80.2109375 C734.694833,80.7285182 735.87402,81.3413051 736.542969,82.0493164 C737.211917,82.7573278 737.546387,83.7216736 737.546387,84.9423828 C737.51709,86.3486398 736.992193,87.4374961 735.97168,88.2089844 C734.951167,88.9804726 733.5962,89.3662109 731.906738,89.3662109 Z M741.237793,89 L741.237793,72.9453125 L743.068848,72.9453125 L743.068848,89 L741.237793,89 Z M741.237793,69.6640625 L741.237793,67.203125 L743.054199,67.203125 L743.054199,69.6640625 L741.237793,69.6640625 Z M752.092285,89.3369141 C750.744622,89.3369141 749.758304,89.0317413 749.133301,88.4213867 C748.508298,87.8110321 748.195801,86.8173897 748.195801,85.4404297 L748.195801,74.2783203 L745.925293,74.2783203 L746.057129,73.1796875 L748.225098,72.9746094 L748.708496,69.2978516 L749.98291,69.2099609 L749.98291,72.9453125 L754.67041,72.9453125 L754.67041,74.2783203 L749.98291,74.2783203 L749.98291,85.0595703 C749.98291,86.1923885 750.168455,86.9516582 750.539551,87.3374023 C750.910646,87.7231465 751.564937,87.9160156 752.502441,87.9160156 C753.107913,87.9160156 753.859859,87.8037121 754.758301,87.5791016 L754.831543,88.9853516 C753.649896,89.2197277 752.73682,89.3369141 752.092285,89.3369141 Z M757.658691,89 L757.658691,72.9453125 L759.489746,72.9453125 L759.489746,89 L757.658691,89 Z M757.658691,69.6640625 L757.658691,67.203125 L759.475098,67.203125 L759.475098,69.6640625 L757.658691,69.6640625 Z M767.971191,89 L761.848145,72.9453125 L763.796387,72.9453125 L767.51709,83.0673828 C767.712403,83.7021516 767.944335,84.3784144 768.212891,85.0961914 C768.481447,85.8139684 768.69873,86.3730449 768.864746,86.7734375 L769.11377,87.3740234 C769.299317,86.7490203 769.541014,86.0776403 769.838867,85.3598633 C770.13672,84.6420863 770.407714,83.892582 770.651855,83.1113281 C770.915529,82.2714802 771.39404,81.004403 772.087402,79.3100586 C772.780765,77.6157142 773.537594,75.4941534 774.35791,72.9453125 L776.306152,72.9453125 L770.080566,89 L767.971191,89 Z M784.978027,89.3515625 C782.761219,89.3515625 781.000983,88.6093824 779.697266,87.125 C778.393548,85.6406176 777.741699,83.6289189 777.741699,81.0898438 C777.741699,78.6386596 778.3789,76.6318438 779.65332,75.0693359 C780.927741,73.5068281 782.575673,72.7011721 784.597168,72.6523438 C786.481943,72.6523438 787.9956,73.3261651 789.138184,74.6738281 C790.280767,76.0214911 790.852051,77.8281137 790.852051,80.09375 C790.852051,80.1816411 790.849609,80.3598619 790.844727,80.628418 C790.839844,80.896974 790.837402,81.0849604 790.837402,81.1923828 L779.660645,81.1923828 C779.680176,83.25294 780.178218,84.8862244 781.154785,86.0922852 C782.131353,87.2983459 783.420402,87.9013672 785.021973,87.9013672 C786.0669,87.9013672 786.975094,87.7792981 787.746582,87.5351562 C788.51807,87.2910144 789.323726,86.9443382 790.163574,86.4951172 L790.471191,87.8574219 C788.85009,88.8535206 787.019053,89.3515625 784.978027,89.3515625 Z M779.733887,79.7275391 L788.874512,79.7275391 C788.874512,77.9404208 788.488773,76.5708055 787.717285,75.6186523 C786.945797,74.6664991 785.886237,74.1904297 784.538574,74.1904297 C783.17138,74.1904297 782.067875,74.6982371 781.228027,75.7138672 C780.388179,76.7294973 779.890138,78.0673745 779.733887,79.7275391 Z M801.296387,89 C801.276855,79.5761248 801.26709,74.2246158 801.26709,72.9453125 L802.76123,72.9453125 L802.878418,76.109375 C803.454593,75.152339 804.187007,74.3710968 805.075684,73.765625 C805.96436,73.1601532 806.892085,72.8574219 807.858887,72.8574219 C808.259279,72.8574219 808.688963,72.8916012 809.147949,72.9599609 L809.016113,74.46875 C808.664549,74.410156 808.293459,74.3808594 807.902832,74.3808594 C806.545403,74.3808594 805.405278,74.915522 804.482422,75.9848633 C803.559566,77.0542046 803.098145,78.3212817 803.098145,79.7861328 L803.098145,89 L801.296387,89 Z M818.244629,89.3515625 C816.027821,89.3515625 814.267585,88.6093824 812.963867,87.125 C811.66015,85.6406176 811.008301,83.6289189 811.008301,81.0898438 C811.008301,78.6386596 811.645501,76.6318438 812.919922,75.0693359 C814.194342,73.5068281 815.842275,72.7011721 817.86377,72.6523438 C819.748545,72.6523438 821.262201,73.3261651 822.404785,74.6738281 C823.547369,76.0214911 824.118652,77.8281137 824.118652,80.09375 C824.118652,80.1816411 824.116211,80.3598619 824.111328,80.628418 C824.106445,80.896974 824.104004,81.0849604 824.104004,81.1923828 L812.927246,81.1923828 C812.946777,83.25294 813.444819,84.8862244 814.421387,86.0922852 C815.397954,87.2983459 816.687004,87.9013672 818.288574,87.9013672 C819.333501,87.9013672 820.241695,87.7792981 821.013184,87.5351562 C821.784672,87.2910144 822.590328,86.9443382 823.430176,86.4951172 L823.737793,87.8574219 C822.116691,88.8535206 820.285655,89.3515625 818.244629,89.3515625 Z M813.000488,79.7275391 L822.141113,79.7275391 C822.141113,77.9404208 821.755375,76.5708055 820.983887,75.6186523 C820.212398,74.6664991 819.152839,74.1904297 817.805176,74.1904297 C816.437981,74.1904297 815.334477,74.6982371 814.494629,75.7138672 C813.654781,76.7294973 813.156739,78.0673745 813.000488,79.7275391 Z M832.438965,89.3662109 C831.403803,89.3662109 830.432133,89.2392591 829.523926,88.9853516 C828.615718,88.731444 827.897952,88.4287127 827.370605,88.0771484 L827.634277,86.5537109 C829.245614,87.3935589 830.788567,87.8134766 832.263184,87.8134766 C834.909681,87.8134766 836.281738,86.8320411 836.379395,84.8691406 C836.379395,84.048824 836.113284,83.4042992 835.581055,82.9355469 C835.048825,82.4667945 833.981942,81.9785182 832.380371,81.4707031 C831.540523,81.1777329 831.076661,81.0166017 830.98877,80.9873047 C828.478991,80.2255821 827.214356,78.8730566 827.194824,76.9296875 C827.194824,75.806635 827.690425,74.8129926 828.681641,73.9487305 C829.672857,73.0844683 831.013175,72.6523438 832.702637,72.6523438 C834.392098,72.6523438 835.978996,72.9843717 837.463379,73.6484375 L836.848145,74.9960938 C835.344231,74.4296847 833.94776,74.1464844 832.658691,74.1464844 C831.525873,74.1464844 830.634769,74.4003881 829.985352,74.9082031 C829.335934,75.4160182 829.01123,76.0996051 829.01123,76.9589844 C829.01123,77.6816442 829.223631,78.2358379 829.648438,78.621582 C830.073244,79.0073261 830.915521,79.3759748 832.175293,79.7275391 C832.312012,79.7666018 832.563475,79.8544915 832.929688,79.9912109 C833.2959,80.1279304 833.498535,80.2011718 833.537598,80.2109375 C835.227059,80.7285182 836.406247,81.3413051 837.075195,82.0493164 C837.744144,82.7573278 838.078613,83.7216736 838.078613,84.9423828 C838.049316,86.3486398 837.524419,87.4374961 836.503906,88.2089844 C835.483393,88.9804726 834.128426,89.3662109 832.438965,89.3662109 Z M847.556152,89.3955078 C846.716304,89.3955078 845.937504,89.3002939 845.219727,89.1098633 C844.50195,88.9194326 843.835452,88.6215841 843.220215,88.2163086 C842.604977,87.8110331 842.119142,87.2373084 841.762695,86.4951172 C841.406248,85.752926 841.228027,84.8789113 841.228027,83.8730469 L841.228027,72.9453125 L843.044434,72.9453125 L843.044434,83.9169922 C843.044434,84.6787147 843.16162,85.3232396 843.395996,85.8505859 C843.630372,86.3779323 843.967283,86.7758776 844.406738,87.0444336 C844.846194,87.3129896 845.314939,87.500976 845.812988,87.6083984 C846.311038,87.7158208 846.892087,87.7695312 847.556152,87.7695312 C848.210452,87.7695312 848.786619,87.7133795 849.284668,87.6010742 C849.782717,87.488769 850.24658,87.2958998 850.67627,87.0224609 C851.105959,86.7490221 851.435546,86.3510768 851.665039,85.8286133 C851.894532,85.3061497 852.009277,84.6689491 852.009277,83.9169922 L852.009277,72.9453125 L853.825684,72.9453125 L853.825684,83.8730469 C853.825684,84.6933635 853.708497,85.425778 853.474121,86.0703125 C853.239745,86.714847 852.927248,87.2421854 852.536621,87.6523438 C852.145994,88.0625021 851.674807,88.4018541 851.123047,88.6704102 C850.571286,88.9389662 850.004886,89.1269526 849.423828,89.234375 C848.842771,89.3417974 848.220218,89.3955078 847.556152,89.3955078 Z M861.82373,89.3369141 C860.476067,89.3369141 859.489749,89.0317413 858.864746,88.4213867 C858.239743,87.8110321 857.927246,86.8173897 857.927246,85.4404297 L857.927246,66.7050781 L859.714355,66.5585938 L859.714355,85.3378906 C859.714355,86.314458 859.892576,86.9882794 860.249023,87.359375 C860.605471,87.7304706 861.145016,87.9160156 861.867676,87.9160156 C862.453616,87.9160156 863.186031,87.8037121 864.064941,87.5791016 L864.138184,88.9853516 C863.181148,89.2197277 862.409671,89.3369141 861.82373,89.3369141 Z M870.817871,89.3369141 C869.470208,89.3369141 868.48389,89.0317413 867.858887,88.4213867 C867.233884,87.8110321 866.921387,86.8173897 866.921387,85.4404297 L866.921387,74.2783203 L864.650879,74.2783203 L864.782715,73.1796875 L866.950684,72.9746094 L867.434082,69.2978516 L868.708496,69.2099609 L868.708496,72.9453125 L873.395996,72.9453125 L873.395996,74.2783203 L868.708496,74.2783203 L868.708496,85.0595703 C868.708496,86.1923885 868.894041,86.9516582 869.265137,87.3374023 C869.636232,87.7231465 870.290523,87.9160156 871.228027,87.9160156 C871.833499,87.9160156 872.585445,87.8037121 873.483887,87.5791016 L873.557129,88.9853516 C872.375482,89.2197277 871.462406,89.3369141 870.817871,89.3369141 Z M875.432129,92.5009766 C877.902844,88.3798622 879.138184,84.1220923 879.138184,79.7275391 C879.138184,77.4911998 878.859866,75.3598734 878.303223,73.3334961 C877.746579,71.3071188 876.784675,69.1367303 875.41748,66.8222656 L877.145996,66.8222656 C879.782728,70.8261919 881.101074,75.1572033 881.101074,79.8154297 C881.101074,82.0908317 880.747074,84.3393444 880.039062,86.5610352 C879.331051,88.782726 878.35694,90.7626866 877.116699,92.5009766 L875.432129,92.5009766 Z" id="P-(positive-result)" fill="#000000"></path>
                <path d="M448.5,44.5 L1092.76703,44.5" id="Line" stroke="#000000" stroke-width="2" stroke-linecap="square"></path>
            </g>
        </g>
    </g>
</svg>