<?xml version="1.0" encoding="UTF-8"?>
<svg width="1214px" height="941px" viewBox="0 0 1214 941" version="1.1" xmlns="http://www.w3.org/2000/svg" xmlns:xlink="http://www.w3.org/1999/xlink">
    <!-- Generator: Sketch 46.2 (44496) - http://www.bohemiancoding.com/sketch -->
    <title>2 panel_example_4 copy</title>
    <desc>Created with Sketch.</desc>
    <defs></defs>
    <g id="Page-1" stroke="none" stroke-width="1" fill="none" fill-rule="evenodd">
        <g id="2-panel_example_4-copy">
            <polygon id="Page-1" fill="#204056" points="0 941 1214 941 1214 0 0 0"></polygon>
            <path d="M588.599609,886 L588.599609,872.921875 L589.724609,872.921875 L589.724609,878.705078 L597.230469,878.705078 L597.230469,872.921875 L598.355469,872.921875 L598.355469,886 L597.230469,886 L597.230469,879.689453 L589.724609,879.689453 L589.724609,886 L588.599609,886 Z M605.237305,885.34082 C605.940433,885.34082 606.533689,885.154787 607.01709,884.782715 C607.500491,884.410643 607.85205,883.919925 608.071777,883.310547 C608.291505,882.701169 608.401367,882.000981 608.401367,881.209961 C608.401367,879.967767 608.137698,878.968754 607.610352,878.212891 C607.083005,877.457027 606.280279,877.079102 605.202148,877.079102 C604.49902,877.079102 603.899905,877.268065 603.404785,877.645996 C602.909665,878.023928 602.547853,878.51904 602.319336,879.131348 C602.090819,879.743655 601.976562,880.445309 601.976562,881.236328 C601.976562,882.437506 602.256345,883.421871 602.815918,884.189453 C603.375491,884.957035 604.182612,885.34082 605.237305,885.34082 Z M605.158203,886.210938 C604.285152,886.210938 603.516117,885.991213 602.851074,885.551758 C602.186032,885.112302 601.679201,884.516117 601.330566,883.763184 C600.981932,883.01025 600.807617,882.159184 600.807617,881.209961 C600.807617,880.495114 600.90869,879.831546 601.11084,879.219238 C601.312989,878.606931 601.601561,878.076662 601.976562,877.628418 C602.351564,877.180174 602.81738,876.828615 603.374023,876.57373 C603.930667,876.318846 604.548825,876.191406 605.228516,876.191406 C606.130864,876.191406 606.913083,876.412595 607.575195,876.85498 C608.237308,877.297365 608.733885,877.892086 609.064941,878.63916 C609.395998,879.386234 609.561523,880.2373 609.561523,881.192383 C609.561523,882.153325 609.391603,883.008785 609.051758,883.758789 C608.711912,884.508793 608.205081,885.104978 607.53125,885.547363 C606.857419,885.989748 606.066411,886.210938 605.158203,886.210938 Z M615.291992,886.237305 C614.788083,886.237305 614.320803,886.180176 613.890137,886.065918 C613.459471,885.95166 613.059572,885.77295 612.69043,885.529785 C612.321287,885.28662 612.029786,884.942385 611.815918,884.49707 C611.60205,884.051756 611.495117,883.527347 611.495117,882.923828 L611.495117,876.367188 L612.584961,876.367188 L612.584961,882.950195 C612.584961,883.407229 612.655273,883.793944 612.795898,884.110352 C612.936524,884.426759 613.138671,884.665527 613.402344,884.82666 C613.666017,884.987794 613.947264,885.100586 614.246094,885.165039 C614.544923,885.229493 614.893553,885.261719 615.291992,885.261719 C615.684572,885.261719 616.030272,885.228028 616.329102,885.160645 C616.627931,885.093261 616.906249,884.97754 617.164062,884.813477 C617.421876,884.649413 617.619628,884.410646 617.757324,884.097168 C617.89502,883.78369 617.963867,883.401369 617.963867,882.950195 L617.963867,876.367188 L619.053711,876.367188 L619.053711,882.923828 C619.053711,883.416018 618.983399,883.855467 618.842773,884.242188 C618.702148,884.628908 618.51465,884.945311 618.280273,885.191406 C618.045897,885.437501 617.763185,885.641112 617.432129,885.802246 C617.101073,885.96338 616.761232,886.076172 616.412598,886.140625 C616.063963,886.205078 615.690432,886.237305 615.291992,886.237305 Z M621.444336,886 C621.432617,880.345675 621.426758,877.134769 621.426758,876.367188 L622.323242,876.367188 L622.393555,878.265625 C622.73926,877.691403 623.178708,877.222658 623.711914,876.859375 C624.24512,876.496092 624.801755,876.314453 625.381836,876.314453 C625.622072,876.314453 625.879881,876.334961 626.155273,876.375977 L626.076172,877.28125 C625.865233,877.246094 625.642579,877.228516 625.408203,877.228516 C624.593746,877.228516 623.909671,877.549313 623.355957,878.190918 C622.802243,878.832523 622.525391,879.592769 622.525391,880.47168 L622.525391,886 L621.444336,886 Z" id="Hour" fill="#7A98A9"></path>
            <text id="Traffic-Data" font-family="Oxygen-Light, Oxygen" font-size="36" font-weight="300" fill="#FFFFFF">
                <tspan x="517" y="100">Traffic Data</tspan>
            </text>
            <polygon id="Fill-17" fill="#4E768D" points="199 776 230 776 230 741 199 741"></polygon>
            <polygon id="Fill-17-Copy" fill="#4E768D" points="234.782609 775 265.782609 775 265.782609 470 234.782609 470"></polygon>
            <polygon id="Fill-17-Copy-2" fill="#4E768D" points="270.565217 776 301.565217 776 301.565217 448 270.565217 448"></polygon>
            <polygon id="Fill-17-Copy-3" fill="#4E768D" points="306.347826 776 337.347826 776 337.347826 294 306.347826 294"></polygon>
            <polygon id="Fill-17-Copy-5" fill="#4E768D" points="377.913043 776 408.913043 776 408.913043 294 377.913043 294"></polygon>
            <polygon id="Fill-17-Copy-5" fill="#4E768D" points="413.695652 776 444.695652 776 444.695652 307 413.695652 307"></polygon>
            <polygon id="Fill-17-Copy-5" fill="#4E768D" points="449.478261 776 480.478261 776 480.478261 448 449.478261 448"></polygon>
            <polygon id="Fill-17-Copy-5" fill="#4E768D" points="485.26087 777 516.26087 777 516.26087 496 485.26087 496"></polygon>
            <polygon id="Fill-17-Copy-5" fill="#4E768D" points="521.043478 777 552.043478 777 552.043478 564 521.043478 564"></polygon>
            <polygon id="Fill-17-Copy-5" fill="#4E768D" points="556.826087 777 587.826087 777 587.826087 678 556.826087 678"></polygon>
            <polygon id="Fill-17-Copy-5" fill="#4E768D" points="592.608696 777 623.608696 777 623.608696 647 592.608696 647"></polygon>
            <polygon id="Fill-17-Copy-5" fill="#4E768D" points="628.391304 777 659.391304 777 659.391304 647 628.391304 647"></polygon>
            <polygon id="Fill-17-Copy-5" fill="#4E768D" points="664.173913 777 695.173913 777 695.173913 564 664.173913 564"></polygon>
            <polygon id="Fill-17-Copy-5" fill="#4E768D" points="699.956522 777 730.956522 777 730.956522 508 699.956522 508"></polygon>
            <polygon id="Fill-17-Copy-6" fill="#4E768D" points="735.73913 777 766.73913 777 766.73913 419 735.73913 419"></polygon>
            <polygon id="Fill-17-Copy-6" fill="#4E768D" points="771.521739 777 802.521739 777 802.521739 320.649378 771.521739 320.649378"></polygon>
            <polygon id="Fill-17-Copy-6" fill="#4E768D" points="807.304348 777 838.304348 777 838.304348 257 807.304348 257"></polygon>
            <polygon id="Fill-17-Copy-6" fill="#4E768D" points="843.086957 777 874.086957 777 874.086957 308 843.086957 308"></polygon>
            <polygon id="Fill-17-Copy-6" fill="#4E768D" points="878.869565 777 909.869565 777 909.869565 357 878.869565 357"></polygon>
            <polygon id="Fill-17-Copy-6" fill="#4E768D" points="914.652174 777 945.652174 777 945.652174 338 914.652174 338"></polygon>
            <polygon id="Fill-17-Copy-6" fill="#4E768D" points="950.434783 777 981.434783 777 981.434783 472 950.434783 472"></polygon>
            <polygon id="Fill-17-Copy-6" fill="#4E768D" points="986.217391 777 1017.21739 777 1017.21739 601 986.217391 601"></polygon>
            <polygon id="Fill-17-Copy-6" fill="#4E768D" points="1022 777 1053 777 1053 537 1022 537"></polygon>
            <polygon id="Fill-17-Copy-4" fill="#4E768D" points="342.130435 776 373.130435 776 373.130435 256 342.130435 256"></polygon>
            <path d="M199.5,774.5 L1049.5,774.5" id="Line-2" stroke="#4E768D" stroke-linecap="square"></path>
            <path d="M171.34375,772.200195 C172.240239,772.200195 172.963864,771.662603 173.514648,770.587402 C174.065432,769.512202 174.34082,768.066415 174.34082,766.25 C174.34082,764.468741 174.065432,763.049322 173.514648,761.991699 C172.963864,760.934077 172.243169,760.405273 171.352539,760.405273 C170.45605,760.405273 169.732425,760.935542 169.181641,761.996094 C168.630857,763.056646 168.358398,764.48046 168.364258,766.267578 C168.364258,768.083993 168.638181,769.52685 169.186035,770.596191 C169.733889,771.665533 170.453121,772.200195 171.34375,772.200195 Z M171.352539,773.210938 C170.614254,773.210938 169.96387,773.043947 169.401367,772.709961 C168.838864,772.375975 168.383303,771.899905 168.034668,771.281738 C167.686033,770.663571 167.425294,769.938481 167.252441,769.106445 C167.079589,768.27441 166.993164,767.336919 166.993164,766.293945 C166.993164,764.096669 167.366695,762.397467 168.11377,761.196289 C168.860844,759.995111 169.940423,759.394531 171.352539,759.394531 C172.764655,759.394531 173.838375,759.993646 174.57373,761.191895 C175.309086,762.390143 175.676758,764.090809 175.676758,766.293945 C175.676758,767.336919 175.591798,768.27441 175.421875,769.106445 C175.251952,769.938481 174.994142,770.663571 174.648438,771.281738 C174.302733,771.899905 173.851565,772.375975 173.294922,772.709961 C172.738278,773.043947 172.090824,773.210938 171.352539,773.210938 Z" id="0" fill="#7A98A9"></path>
            <path d="M202.34375,805.200195 C203.240239,805.200195 203.963864,804.662603 204.514648,803.587402 C205.065432,802.512202 205.34082,801.066415 205.34082,799.25 C205.34082,797.468741 205.065432,796.049322 204.514648,794.991699 C203.963864,793.934077 203.243169,793.405273 202.352539,793.405273 C201.45605,793.405273 200.732425,793.935542 200.181641,794.996094 C199.630857,796.056646 199.358398,797.48046 199.364258,799.267578 C199.364258,801.083993 199.638181,802.52685 200.186035,803.596191 C200.733889,804.665533 201.453121,805.200195 202.34375,805.200195 Z M202.352539,806.210938 C201.614254,806.210938 200.96387,806.043947 200.401367,805.709961 C199.838864,805.375975 199.383303,804.899905 199.034668,804.281738 C198.686033,803.663571 198.425294,802.938481 198.252441,802.106445 C198.079589,801.27441 197.993164,800.336919 197.993164,799.293945 C197.993164,797.096669 198.366695,795.397467 199.11377,794.196289 C199.860844,792.995111 200.940423,792.394531 202.352539,792.394531 C203.764655,792.394531 204.838375,792.993646 205.57373,794.191895 C206.309086,795.390143 206.676758,797.090809 206.676758,799.293945 C206.676758,800.336919 206.591798,801.27441 206.421875,802.106445 C206.251952,802.938481 205.994142,803.663571 205.648438,804.281738 C205.302733,804.899905 204.851565,805.375975 204.294922,805.709961 C203.738278,806.043947 203.090824,806.210938 202.352539,806.210938 Z" id="0-copy" fill="#7A98A9"></path>
            <path d="M355.948242,806.202148 C354.383781,806.202148 353.11231,805.809574 352.133789,805.024414 L352.529297,804.180664 C353.443364,804.91309 354.600579,805.279297 356.000977,805.279297 C356.956059,805.279297 357.7207,804.958499 358.294922,804.316895 C358.869143,803.67529 359.15625,802.835943 359.15625,801.798828 C359.15625,800.931636 358.908694,800.209476 358.413574,799.632324 C357.918455,799.055173 357.304691,798.766602 356.572266,798.766602 C356.03906,798.766602 355.586428,798.839843 355.214355,798.986328 C354.842283,799.132813 354.418948,799.387693 353.944336,799.750977 L352.845703,799.671875 L353.144531,792.921875 L359.833008,792.921875 L359.71875,793.897461 L354.102539,793.897461 L353.838867,798.6875 C354.583012,798.124997 355.423823,797.834961 356.361328,797.817383 C357.164067,797.805664 357.875973,797.982908 358.49707,798.349121 C359.118167,798.715334 359.586912,799.197263 359.90332,799.794922 C360.219728,800.392581 360.37793,801.045895 360.37793,801.754883 C360.37793,803.102546 359.978031,804.18066 359.178223,804.989258 C358.378414,805.797856 357.301765,806.202148 355.948242,806.202148 Z" id="5" fill="#7A98A9"></path>
            <path d="M537.408203,806 L537.408203,794.082031 C537.220702,794.216798 536.923342,794.383788 536.516113,794.583008 C536.108885,794.782228 535.703127,794.952148 535.298828,795.092773 L535.298828,794.143555 C536.529303,793.575192 537.299803,793.16797 537.610352,792.921875 L538.533203,792.921875 L538.533203,806 L537.408203,806 Z M545.608398,805.200195 C546.504887,805.200195 547.228513,804.662603 547.779297,803.587402 C548.330081,802.512202 548.605469,801.066415 548.605469,799.25 C548.605469,797.468741 548.330081,796.049322 547.779297,794.991699 C547.228513,793.934077 546.507817,793.405273 545.617188,793.405273 C544.720699,793.405273 543.997073,793.935542 543.446289,794.996094 C542.895505,796.056646 542.623047,797.48046 542.628906,799.267578 C542.628906,801.083993 542.902829,802.52685 543.450684,803.596191 C543.998538,804.665533 544.717769,805.200195 545.608398,805.200195 Z M545.617188,806.210938 C544.878903,806.210938 544.228518,806.043947 543.666016,805.709961 C543.103513,805.375975 542.647951,804.899905 542.299316,804.281738 C541.950682,803.663571 541.689942,802.938481 541.51709,802.106445 C541.344237,801.27441 541.257812,800.336919 541.257812,799.293945 C541.257812,797.096669 541.631344,795.397467 542.378418,794.196289 C543.125492,792.995111 544.205071,792.394531 545.617188,792.394531 C547.029304,792.394531 548.103024,792.993646 548.838379,794.191895 C549.573734,795.390143 549.941406,797.090809 549.941406,799.293945 C549.941406,800.336919 549.856446,801.27441 549.686523,802.106445 C549.516601,802.938481 549.258791,803.663571 548.913086,804.281738 C548.567381,804.899905 548.116214,805.375975 547.55957,805.709961 C547.002927,806.043947 546.355472,806.210938 545.617188,806.210938 Z" id="10" fill="#7A98A9"></path>
            <path d="M713.408203,806 L713.408203,794.082031 C713.220702,794.216798 712.923342,794.383788 712.516113,794.583008 C712.108885,794.782228 711.703127,794.952148 711.298828,795.092773 L711.298828,794.143555 C712.529303,793.575192 713.299803,793.16797 713.610352,792.921875 L714.533203,792.921875 L714.533203,806 L713.408203,806 Z M721.212891,806.202148 C719.64843,806.202148 718.376958,805.809574 717.398438,805.024414 L717.793945,804.180664 C718.708012,804.91309 719.865227,805.279297 721.265625,805.279297 C722.220708,805.279297 722.985349,804.958499 723.55957,804.316895 C724.133792,803.67529 724.420898,802.835943 724.420898,801.798828 C724.420898,800.931636 724.173342,800.209476 723.678223,799.632324 C723.183103,799.055173 722.56934,798.766602 721.836914,798.766602 C721.303708,798.766602 720.851076,798.839843 720.479004,798.986328 C720.106932,799.132813 719.683596,799.387693 719.208984,799.750977 L718.110352,799.671875 L718.40918,792.921875 L725.097656,792.921875 L724.983398,793.897461 L719.367188,793.897461 L719.103516,798.6875 C719.84766,798.124997 720.688472,797.834961 721.625977,797.817383 C722.428715,797.805664 723.140622,797.982908 723.761719,798.349121 C724.382816,798.715334 724.851561,799.197263 725.167969,799.794922 C725.484377,800.392581 725.642578,801.045895 725.642578,801.754883 C725.642578,803.102546 725.24268,804.18066 724.442871,804.989258 C723.643062,805.797856 722.566413,806.202148 721.212891,806.202148 Z" id="15" fill="#7A98A9"></path>
            <path d="M886.160156,806 L885.896484,804.883789 L890.458008,799.575195 C891.055667,798.866207 891.500975,798.249514 891.793945,797.725098 C892.086916,797.200681 892.233398,796.689456 892.233398,796.191406 C892.233398,795.359371 892.037111,794.72217 891.644531,794.279785 C891.251951,793.8374 890.66602,793.616211 889.886719,793.616211 C889.330075,793.616211 888.783694,793.699706 888.247559,793.866699 C887.711423,794.033692 887.273439,794.278319 886.933594,794.600586 L886.520508,793.748047 C887.252933,793.044918 888.389641,792.693359 889.930664,792.693359 C891.04981,792.693359 891.933102,793.000973 892.580566,793.616211 C893.228031,794.231448 893.551758,795.040034 893.551758,796.041992 C893.551758,796.715824 893.380373,797.379391 893.037598,798.032715 C892.694823,798.686038 892.130863,799.466792 891.345703,800.375 L887.390625,804.918945 L893.657227,804.918945 L893.586914,806 L886.160156,806 Z M900.398438,805.200195 C901.294926,805.200195 902.018552,804.662603 902.569336,803.587402 C903.12012,802.512202 903.395508,801.066415 903.395508,799.25 C903.395508,797.468741 903.12012,796.049322 902.569336,794.991699 C902.018552,793.934077 901.297856,793.405273 900.407227,793.405273 C899.510738,793.405273 898.787112,793.935542 898.236328,794.996094 C897.685544,796.056646 897.413086,797.48046 897.418945,799.267578 C897.418945,801.083993 897.692868,802.52685 898.240723,803.596191 C898.788577,804.665533 899.507808,805.200195 900.398438,805.200195 Z M900.407227,806.210938 C899.668942,806.210938 899.018558,806.043947 898.456055,805.709961 C897.893552,805.375975 897.43799,804.899905 897.089355,804.281738 C896.740721,803.663571 896.479981,802.938481 896.307129,802.106445 C896.134276,801.27441 896.047852,800.336919 896.047852,799.293945 C896.047852,797.096669 896.421383,795.397467 897.168457,794.196289 C897.915531,792.995111 898.99511,792.394531 900.407227,792.394531 C901.819343,792.394531 902.893063,792.993646 903.628418,794.191895 C904.363773,795.390143 904.731445,797.090809 904.731445,799.293945 C904.731445,800.336919 904.646485,801.27441 904.476562,802.106445 C904.30664,802.938481 904.04883,803.663571 903.703125,804.281738 C903.35742,804.899905 902.906253,805.375975 902.349609,805.709961 C901.792966,806.043947 901.145512,806.210938 900.407227,806.210938 Z" id="20" fill="#7A98A9"></path>
            <path d="M1032.16016,806 L1031.89648,804.883789 L1036.45801,799.575195 C1037.05567,798.866207 1037.50098,798.249514 1037.79395,797.725098 C1038.08692,797.200681 1038.2334,796.689456 1038.2334,796.191406 C1038.2334,795.359371 1038.03711,794.72217 1037.64453,794.279785 C1037.25195,793.8374 1036.66602,793.616211 1035.88672,793.616211 C1035.33008,793.616211 1034.78369,793.699706 1034.24756,793.866699 C1033.71142,794.033692 1033.27344,794.278319 1032.93359,794.600586 L1032.52051,793.748047 C1033.25293,793.044918 1034.38964,792.693359 1035.93066,792.693359 C1037.04981,792.693359 1037.9331,793.000973 1038.58057,793.616211 C1039.22803,794.231448 1039.55176,795.040034 1039.55176,796.041992 C1039.55176,796.715824 1039.38037,797.379391 1039.0376,798.032715 C1038.69482,798.686038 1038.13086,799.466792 1037.3457,800.375 L1033.39062,804.918945 L1039.65723,804.918945 L1039.58691,806 L1032.16016,806 Z M1048.06836,806 L1048.06836,802.466797 L1042.07422,802.466797 L1042.07422,801.271484 L1048.10352,792.631836 L1049.1582,792.631836 L1049.1582,801.5 L1050.79297,801.5 L1050.66113,802.466797 L1049.1582,802.466797 L1049.1582,806 L1048.06836,806 Z M1043.27832,801.5 L1048.06836,801.5 L1048.06836,794.451172 L1043.27832,801.5 Z" id="24" fill="#7A98A9"></path>
            <path d="M162.160156,696 L161.896484,694.883789 L166.458008,689.575195 C167.055667,688.866207 167.500975,688.249514 167.793945,687.725098 C168.086916,687.200681 168.233398,686.689456 168.233398,686.191406 C168.233398,685.359371 168.037111,684.72217 167.644531,684.279785 C167.251951,683.8374 166.66602,683.616211 165.886719,683.616211 C165.330075,683.616211 164.783694,683.699706 164.247559,683.866699 C163.711423,684.033692 163.273439,684.278319 162.933594,684.600586 L162.520508,683.748047 C163.252933,683.044918 164.389641,682.693359 165.930664,682.693359 C167.04981,682.693359 167.933102,683.000973 168.580566,683.616211 C169.228031,684.231448 169.551758,685.040034 169.551758,686.041992 C169.551758,686.715824 169.380373,687.379391 169.037598,688.032715 C168.694823,688.686038 168.130863,689.466792 167.345703,690.375 L163.390625,694.918945 L169.657227,694.918945 L169.586914,696 L162.160156,696 Z M176.398438,695.200195 C177.294926,695.200195 178.018552,694.662603 178.569336,693.587402 C179.12012,692.512202 179.395508,691.066415 179.395508,689.25 C179.395508,687.468741 179.12012,686.049322 178.569336,684.991699 C178.018552,683.934077 177.297856,683.405273 176.407227,683.405273 C175.510738,683.405273 174.787112,683.935542 174.236328,684.996094 C173.685544,686.056646 173.413086,687.48046 173.418945,689.267578 C173.418945,691.083993 173.692868,692.52685 174.240723,693.596191 C174.788577,694.665533 175.507808,695.200195 176.398438,695.200195 Z M176.407227,696.210938 C175.668942,696.210938 175.018557,696.043947 174.456055,695.709961 C173.893552,695.375975 173.43799,694.899905 173.089355,694.281738 C172.740721,693.663571 172.479981,692.938481 172.307129,692.106445 C172.134276,691.27441 172.047852,690.336919 172.047852,689.293945 C172.047852,687.096669 172.421383,685.397467 173.168457,684.196289 C173.915531,682.995111 174.99511,682.394531 176.407227,682.394531 C177.819343,682.394531 178.893063,682.993646 179.628418,684.191895 C180.363773,685.390143 180.731445,687.090809 180.731445,689.293945 C180.731445,690.336919 180.646485,691.27441 180.476562,692.106445 C180.30664,692.938481 180.04883,693.663571 179.703125,694.281738 C179.35742,694.899905 178.906253,695.375975 178.349609,695.709961 C177.792966,696.043947 177.145512,696.210938 176.407227,696.210938 Z" id="20" fill="#7A98A9"></path>
            <path d="M168.013672,619 L168.013672,615.466797 L162.019531,615.466797 L162.019531,614.271484 L168.048828,605.631836 L169.103516,605.631836 L169.103516,614.5 L170.738281,614.5 L170.606445,615.466797 L169.103516,615.466797 L169.103516,619 L168.013672,619 Z M163.223633,614.5 L168.013672,614.5 L168.013672,607.451172 L163.223633,614.5 Z M176.820312,618.200195 C177.716801,618.200195 178.440427,617.662603 178.991211,616.587402 C179.541995,615.512202 179.817383,614.066415 179.817383,612.25 C179.817383,610.468741 179.541995,609.049322 178.991211,607.991699 C178.440427,606.934077 177.719731,606.405273 176.829102,606.405273 C175.932613,606.405273 175.208987,606.935542 174.658203,607.996094 C174.107419,609.056646 173.834961,610.48046 173.84082,612.267578 C173.84082,614.083993 174.114743,615.52685 174.662598,616.596191 C175.210452,617.665533 175.929683,618.200195 176.820312,618.200195 Z M176.829102,619.210938 C176.090817,619.210938 175.440432,619.043947 174.87793,618.709961 C174.315427,618.375975 173.859865,617.899905 173.51123,617.281738 C173.162596,616.663571 172.901856,615.938481 172.729004,615.106445 C172.556151,614.27441 172.469727,613.336919 172.469727,612.293945 C172.469727,610.096669 172.843258,608.397467 173.590332,607.196289 C174.337406,605.995111 175.416985,605.394531 176.829102,605.394531 C178.241218,605.394531 179.314938,605.993646 180.050293,607.191895 C180.785648,608.390143 181.15332,610.090809 181.15332,612.293945 C181.15332,613.336919 181.06836,614.27441 180.898438,615.106445 C180.728515,615.938481 180.470705,616.663571 180.125,617.281738 C179.779295,617.899905 179.328128,618.375975 178.771484,618.709961 C178.214841,619.043947 177.567387,619.210938 176.829102,619.210938 Z" id="40" fill="#7A98A9"></path>
            <path d="M166.308594,542.202148 C165.6582,542.202148 165.06055,542.080568 164.515625,541.837402 C163.9707,541.594237 163.522463,541.269045 163.170898,540.861816 C162.819334,540.454588 162.546876,539.990237 162.353516,539.46875 C162.160155,538.947263 162.063477,538.405276 162.063477,537.842773 C162.063477,537.58496 162.078125,537.347657 162.107422,537.130859 C162.136719,536.914061 162.171875,536.711915 162.212891,536.524414 C162.253906,536.336913 162.334472,536.123048 162.45459,535.882812 C162.574708,535.642577 162.683105,535.431642 162.779785,535.25 C162.876465,535.068358 163.041991,534.810549 163.276367,534.476562 C163.510743,534.142576 163.717284,533.85254 163.895996,533.606445 C164.074708,533.36035 164.348631,532.991213 164.717773,532.499023 C165.016603,532.124022 165.423826,531.639163 165.939453,531.044434 C166.455081,530.449704 166.894529,529.947268 167.257812,529.537109 L167.811523,528.921875 L169.015625,528.921875 L164.401367,534.538086 C164.752931,534.333007 165.10742,534.183594 165.464844,534.089844 C165.822267,533.996093 166.22656,533.949219 166.677734,533.949219 C167.181643,533.949219 167.667966,534.056151 168.136719,534.27002 C168.605471,534.483888 169.015623,534.772459 169.367188,535.135742 C169.718752,535.499025 169.999999,535.939939 170.210938,536.458496 C170.421876,536.977053 170.527344,537.523435 170.527344,538.097656 C170.527344,539.228521 170.12891,540.195308 169.332031,540.998047 C168.535152,541.800785 167.52735,542.202148 166.308594,542.202148 Z M166.291016,541.226562 C167.205083,541.226562 167.950681,540.914554 168.527832,540.290527 C169.104983,539.666501 169.393555,538.938481 169.393555,538.106445 C169.393555,537.526364 169.276368,536.993166 169.041992,536.506836 C168.807616,536.020505 168.454592,535.623537 167.98291,535.315918 C167.511228,535.008299 166.961917,534.854492 166.334961,534.854492 C165.831052,534.854492 165.37842,534.940917 164.977051,535.11377 C164.575682,535.286622 164.249025,535.520995 163.99707,535.816895 C163.745116,536.112794 163.553223,536.452635 163.421387,536.836426 C163.28955,537.220217 163.223633,537.628904 163.223633,538.0625 C163.223633,538.45508 163.295409,538.84033 163.438965,539.218262 C163.58252,539.596193 163.781737,539.934569 164.036621,540.233398 C164.291505,540.532228 164.615232,540.77246 165.007812,540.954102 C165.400393,541.135743 165.828123,541.226562 166.291016,541.226562 Z M176.855469,541.200195 C177.751958,541.200195 178.475583,540.662603 179.026367,539.587402 C179.577151,538.512202 179.852539,537.066415 179.852539,535.25 C179.852539,533.468741 179.577151,532.049322 179.026367,530.991699 C178.475583,529.934077 177.754887,529.405273 176.864258,529.405273 C175.967769,529.405273 175.244143,529.935542 174.693359,530.996094 C174.142575,532.056646 173.870117,533.48046 173.875977,535.267578 C173.875977,537.083993 174.1499,538.52685 174.697754,539.596191 C175.245608,540.665533 175.964839,541.200195 176.855469,541.200195 Z M176.864258,542.210938 C176.125973,542.210938 175.475589,542.043947 174.913086,541.709961 C174.350583,541.375975 173.895021,540.899905 173.546387,540.281738 C173.197752,539.663571 172.937013,538.938481 172.76416,538.106445 C172.591308,537.27441 172.504883,536.336919 172.504883,535.293945 C172.504883,533.096669 172.878414,531.397467 173.625488,530.196289 C174.372562,528.995111 175.452141,528.394531 176.864258,528.394531 C178.276374,528.394531 179.350094,528.993646 180.085449,530.191895 C180.820804,531.390143 181.188477,533.090809 181.188477,535.293945 C181.188477,536.336919 181.103516,537.27441 180.933594,538.106445 C180.763671,538.938481 180.505861,539.663571 180.160156,540.281738 C179.814451,540.899905 179.363284,541.375975 178.806641,541.709961 C178.249997,542.043947 177.602543,542.210938 176.864258,542.210938 Z" id="60" fill="#7A98A9"></path>
            <path d="M166.282227,466.202148 C165.502926,466.202148 164.798343,466.068849 164.168457,465.802246 C163.538571,465.535643 163.030275,465.126956 162.643555,464.576172 C162.256834,464.025388 162.063477,463.375004 162.063477,462.625 C162.063477,461.763668 162.330075,461.000492 162.863281,460.335449 C163.396487,459.670407 164.14062,459.206056 165.095703,458.942383 C164.216792,458.702147 163.538577,458.328616 163.061035,457.821777 C162.583494,457.314939 162.344727,456.689457 162.344727,455.945312 C162.344727,454.949214 162.708004,454.158206 163.43457,453.572266 C164.161136,452.986325 165.113275,452.693359 166.291016,452.693359 C167.451178,452.693359 168.387203,452.98486 169.099121,453.567871 C169.811039,454.150882 170.166992,454.943354 170.166992,455.945312 C170.166992,456.689457 169.938479,457.314939 169.481445,457.821777 C169.024412,458.328616 168.385746,458.702147 167.56543,458.942383 C168.461919,459.206056 169.167966,459.670407 169.683594,460.335449 C170.199221,461.000492 170.457031,461.763668 170.457031,462.625 C170.457031,463.187503 170.347169,463.698728 170.127441,464.158691 C169.907714,464.618655 169.608889,464.995116 169.230957,465.288086 C168.853025,465.581056 168.412112,465.80664 167.908203,465.964844 C167.404294,466.123048 166.862308,466.202148 166.282227,466.202148 Z M166.282227,465.279297 C167.1377,465.279297 167.849607,465.041995 168.417969,464.567383 C168.986331,464.092771 169.270508,463.462895 169.270508,462.677734 C169.270508,461.83398 169.000979,461.135257 168.461914,460.581543 C167.922849,460.027829 167.196294,459.63672 166.282227,459.408203 C165.368159,459.642579 164.63428,460.036618 164.080566,460.590332 C163.526853,461.144046 163.25,461.83691 163.25,462.668945 C163.25,463.454105 163.540036,464.085447 164.120117,464.562988 C164.700198,465.04053 165.420894,465.279297 166.282227,465.279297 Z M166.282227,458.476562 C168.104501,458.119139 169.015625,457.269538 169.015625,455.927734 C169.015625,455.195309 168.749026,454.629885 168.21582,454.231445 C167.682615,453.833006 167.03809,453.633789 166.282227,453.633789 C165.520504,453.633789 164.868655,453.834471 164.32666,454.23584 C163.784665,454.637209 163.513672,455.201168 163.513672,455.927734 C163.513672,457.257819 164.436514,458.10742 166.282227,458.476562 Z M176.855469,465.200195 C177.751958,465.200195 178.475583,464.662603 179.026367,463.587402 C179.577151,462.512202 179.852539,461.066415 179.852539,459.25 C179.852539,457.468741 179.577151,456.049322 179.026367,454.991699 C178.475583,453.934077 177.754887,453.405273 176.864258,453.405273 C175.967769,453.405273 175.244143,453.935542 174.693359,454.996094 C174.142575,456.056646 173.870117,457.48046 173.875977,459.267578 C173.875977,461.083993 174.1499,462.52685 174.697754,463.596191 C175.245608,464.665533 175.964839,465.200195 176.855469,465.200195 Z M176.864258,466.210938 C176.125973,466.210938 175.475589,466.043947 174.913086,465.709961 C174.350583,465.375975 173.895021,464.899905 173.546387,464.281738 C173.197752,463.663571 172.937013,462.938481 172.76416,462.106445 C172.591308,461.27441 172.504883,460.336919 172.504883,459.293945 C172.504883,457.096669 172.878414,455.397467 173.625488,454.196289 C174.372562,452.995111 175.452141,452.394531 176.864258,452.394531 C178.276374,452.394531 179.350094,452.993646 180.085449,454.191895 C180.820804,455.390143 181.188477,457.090809 181.188477,459.293945 C181.188477,460.336919 181.103516,461.27441 180.933594,462.106445 C180.763671,462.938481 180.505861,463.663571 180.160156,464.281738 C179.814451,464.899905 179.363284,465.375975 178.806641,465.709961 C178.249997,466.043947 177.602543,466.210938 176.864258,466.210938 Z" id="80" fill="#7A98A9"></path>
            <path d="M160.408203,389 L160.408203,377.082031 C160.220702,377.216798 159.923342,377.383788 159.516113,377.583008 C159.108885,377.782228 158.703127,377.952148 158.298828,378.092773 L158.298828,377.143555 C159.529303,376.575192 160.299803,376.16797 160.610352,375.921875 L161.533203,375.921875 L161.533203,389 L160.408203,389 Z M168.608398,388.200195 C169.504887,388.200195 170.228513,387.662603 170.779297,386.587402 C171.330081,385.512202 171.605469,384.066415 171.605469,382.25 C171.605469,380.468741 171.330081,379.049322 170.779297,377.991699 C170.228513,376.934077 169.507817,376.405273 168.617188,376.405273 C167.720699,376.405273 166.997073,376.935542 166.446289,377.996094 C165.895505,379.056646 165.623047,380.48046 165.628906,382.267578 C165.628906,384.083993 165.902829,385.52685 166.450684,386.596191 C166.998538,387.665533 167.717769,388.200195 168.608398,388.200195 Z M168.617188,389.210938 C167.878903,389.210938 167.228518,389.043947 166.666016,388.709961 C166.103513,388.375975 165.647951,387.899905 165.299316,387.281738 C164.950682,386.663571 164.689942,385.938481 164.51709,385.106445 C164.344237,384.27441 164.257812,383.336919 164.257812,382.293945 C164.257812,380.096669 164.631344,378.397467 165.378418,377.196289 C166.125492,375.995111 167.205071,375.394531 168.617188,375.394531 C170.029304,375.394531 171.103024,375.993646 171.838379,377.191895 C172.573734,378.390143 172.941406,380.090809 172.941406,382.293945 C172.941406,383.336919 172.856446,384.27441 172.686523,385.106445 C172.516601,385.938481 172.258791,386.663571 171.913086,387.281738 C171.567381,387.899905 171.116214,388.375975 170.55957,388.709961 C170.002927,389.043947 169.355472,389.210938 168.617188,389.210938 Z M179.295898,388.200195 C180.192387,388.200195 180.916013,387.662603 181.466797,386.587402 C182.017581,385.512202 182.292969,384.066415 182.292969,382.25 C182.292969,380.468741 182.017581,379.049322 181.466797,377.991699 C180.916013,376.934077 180.195317,376.405273 179.304688,376.405273 C178.408199,376.405273 177.684573,376.935542 177.133789,377.996094 C176.583005,379.056646 176.310547,380.48046 176.316406,382.267578 C176.316406,384.083993 176.590329,385.52685 177.138184,386.596191 C177.686038,387.665533 178.405269,388.200195 179.295898,388.200195 Z M179.304688,389.210938 C178.566403,389.210938 177.916018,389.043947 177.353516,388.709961 C176.791013,388.375975 176.335451,387.899905 175.986816,387.281738 C175.638182,386.663571 175.377442,385.938481 175.20459,385.106445 C175.031737,384.27441 174.945312,383.336919 174.945312,382.293945 C174.945312,380.096669 175.318844,378.397467 176.065918,377.196289 C176.812992,375.995111 177.892571,375.394531 179.304688,375.394531 C180.716804,375.394531 181.790524,375.993646 182.525879,377.191895 C183.261234,378.390143 183.628906,380.090809 183.628906,382.293945 C183.628906,383.336919 183.543946,384.27441 183.374023,385.106445 C183.204101,385.938481 182.946291,386.663571 182.600586,387.281738 C182.254881,387.899905 181.803714,388.375975 181.24707,388.709961 C180.690427,389.043947 180.042972,389.210938 179.304688,389.210938 Z" id="100" fill="#7A98A9"></path>
            <path d="M160.408203,312 L160.408203,300.082031 C160.220702,300.216798 159.923342,300.383788 159.516113,300.583008 C159.108885,300.782228 158.703127,300.952148 158.298828,301.092773 L158.298828,300.143555 C159.529303,299.575192 160.299803,299.16797 160.610352,298.921875 L161.533203,298.921875 L161.533203,312 L160.408203,312 Z M164.424805,312 L164.161133,310.883789 L168.722656,305.575195 C169.320315,304.866207 169.765624,304.249514 170.058594,303.725098 C170.351564,303.200681 170.498047,302.689456 170.498047,302.191406 C170.498047,301.359371 170.30176,300.72217 169.90918,300.279785 C169.5166,299.8374 168.930668,299.616211 168.151367,299.616211 C167.594724,299.616211 167.048343,299.699706 166.512207,299.866699 C165.976072,300.033692 165.538088,300.278319 165.198242,300.600586 L164.785156,299.748047 C165.517582,299.044918 166.654289,298.693359 168.195312,298.693359 C169.314459,298.693359 170.197751,299.000973 170.845215,299.616211 C171.492679,300.231448 171.816406,301.040034 171.816406,302.041992 C171.816406,302.715824 171.645021,303.379391 171.302246,304.032715 C170.959471,304.686038 170.395512,305.466792 169.610352,306.375 L165.655273,310.918945 L171.921875,310.918945 L171.851562,312 L164.424805,312 Z M178.663086,311.200195 C179.559575,311.200195 180.2832,310.662603 180.833984,309.587402 C181.384768,308.512202 181.660156,307.066415 181.660156,305.25 C181.660156,303.468741 181.384768,302.049322 180.833984,300.991699 C180.2832,299.934077 179.562504,299.405273 178.671875,299.405273 C177.775386,299.405273 177.051761,299.935542 176.500977,300.996094 C175.950193,302.056646 175.677734,303.48046 175.683594,305.267578 C175.683594,307.083993 175.957517,308.52685 176.505371,309.596191 C177.053225,310.665533 177.772456,311.200195 178.663086,311.200195 Z M178.671875,312.210938 C177.93359,312.210938 177.283206,312.043947 176.720703,311.709961 C176.1582,311.375975 175.702638,310.899905 175.354004,310.281738 C175.005369,309.663571 174.74463,308.938481 174.571777,308.106445 C174.398925,307.27441 174.3125,306.336919 174.3125,305.293945 C174.3125,303.096669 174.686031,301.397467 175.433105,300.196289 C176.18018,298.995111 177.259759,298.394531 178.671875,298.394531 C180.083991,298.394531 181.157711,298.993646 181.893066,300.191895 C182.628422,301.390143 182.996094,303.090809 182.996094,305.293945 C182.996094,306.336919 182.911134,307.27441 182.741211,308.106445 C182.571288,308.938481 182.313478,309.663571 181.967773,310.281738 C181.622069,310.899905 181.170901,311.375975 180.614258,311.709961 C180.057614,312.043947 179.41016,312.210938 178.671875,312.210938 Z" id="120" fill="#7A98A9"></path>
            <path d="M160.408203,235 L160.408203,223.082031 C160.220702,223.216798 159.923342,223.383788 159.516113,223.583008 C159.108885,223.782228 158.703127,223.952148 158.298828,224.092773 L158.298828,223.143555 C159.529303,222.575192 160.299803,222.16797 160.610352,221.921875 L161.533203,221.921875 L161.533203,235 L160.408203,235 Z M170.27832,235 L170.27832,231.466797 L164.28418,231.466797 L164.28418,230.271484 L170.313477,221.631836 L171.368164,221.631836 L171.368164,230.5 L173.00293,230.5 L172.871094,231.466797 L171.368164,231.466797 L171.368164,235 L170.27832,235 Z M165.488281,230.5 L170.27832,230.5 L170.27832,223.451172 L165.488281,230.5 Z M179.084961,234.200195 C179.98145,234.200195 180.705075,233.662603 181.255859,232.587402 C181.806643,231.512202 182.082031,230.066415 182.082031,228.25 C182.082031,226.468741 181.806643,225.049322 181.255859,223.991699 C180.705075,222.934077 179.984379,222.405273 179.09375,222.405273 C178.197261,222.405273 177.473636,222.935542 176.922852,223.996094 C176.372068,225.056646 176.099609,226.48046 176.105469,228.267578 C176.105469,230.083993 176.379392,231.52685 176.927246,232.596191 C177.4751,233.665533 178.194331,234.200195 179.084961,234.200195 Z M179.09375,235.210938 C178.355465,235.210938 177.705081,235.043947 177.142578,234.709961 C176.580075,234.375975 176.124513,233.899905 175.775879,233.281738 C175.427244,232.663571 175.166505,231.938481 174.993652,231.106445 C174.8208,230.27441 174.734375,229.336919 174.734375,228.293945 C174.734375,226.096669 175.107906,224.397467 175.85498,223.196289 C176.602055,221.995111 177.681634,221.394531 179.09375,221.394531 C180.505866,221.394531 181.579586,221.993646 182.314941,223.191895 C183.050297,224.390143 183.417969,226.090809 183.417969,228.293945 C183.417969,229.336919 183.333009,230.27441 183.163086,231.106445 C182.993163,231.938481 182.735353,232.663571 182.389648,233.281738 C182.043944,233.899905 181.592776,234.375975 181.036133,234.709961 C180.479489,235.043947 179.832035,235.210938 179.09375,235.210938 Z" id="140" fill="#7A98A9"></path>
            <path d="M199.5,215.5 L199.5,775.078413" id="Line" stroke="#4E768D" stroke-linecap="square"></path>
            <path d="M2.09960938,546.5 L2.09960938,533.421875 L3.40917969,533.421875 L10.6074219,544.452148 L11.0732422,545.09375 C11.0322264,543.289053 11.0117188,542.166994 11.0117188,541.727539 L11.0117188,533.421875 L12.0751953,533.421875 L12.0751953,546.5 L10.7392578,546.5 L3.55859375,535.487305 L3.11035156,534.845703 C3.1572268,536.164069 3.18066406,537.300776 3.18066406,538.255859 L3.18066406,546.5 L2.09960938,546.5 Z M18.5527344,546.737305 C18.0488256,546.737305 17.5815451,546.680176 17.1508789,546.565918 C16.7202127,546.45166 16.3203143,546.27295 15.9511719,546.029785 C15.5820294,545.78662 15.2905284,545.442385 15.0766602,544.99707 C14.8627919,544.551756 14.7558594,544.027347 14.7558594,543.423828 L14.7558594,536.867188 L15.8457031,536.867188 L15.8457031,543.450195 C15.8457031,543.907229 15.9160149,544.293944 16.0566406,544.610352 C16.1972663,544.926759 16.3994127,545.165527 16.6630859,545.32666 C16.9267591,545.487794 17.2080063,545.600586 17.5068359,545.665039 C17.8056656,545.729493 18.1542949,545.761719 18.5527344,545.761719 C18.9453145,545.761719 19.2910141,545.728028 19.5898438,545.660645 C19.8886734,545.593261 20.1669909,545.47754 20.4248047,545.313477 C20.6826185,545.149413 20.8803704,544.910646 21.0180664,544.597168 C21.1557624,544.28369 21.2246094,543.901369 21.2246094,543.450195 L21.2246094,536.867188 L22.3144531,536.867188 L22.3144531,543.423828 C22.3144531,543.916018 22.2441413,544.355467 22.1035156,544.742188 C21.9628899,545.128908 21.7753918,545.445311 21.5410156,545.691406 C21.3066395,545.937501 21.0239274,546.141112 20.6928711,546.302246 C20.3618148,546.46338 20.0219744,546.576172 19.6733398,546.640625 C19.3247053,546.705078 18.9511739,546.737305 18.5527344,546.737305 Z M24.7138672,546.5 C24.696289,540.675752 24.6875,537.464847 24.6875,536.867188 L25.6367188,536.867188 L25.7773438,538.34375 C26.0585952,537.863279 26.4790011,537.467775 27.0385742,537.157227 C27.5981473,536.846678 28.1914031,536.691406 28.8183594,536.691406 C30.3593827,536.691406 31.3261699,537.297845 31.71875,538.510742 C32.4043003,537.297845 33.4853442,536.691406 34.9619141,536.691406 C36.0166068,536.691406 36.7915014,536.991696 37.2866211,537.592285 C37.7817408,538.192874 38.0292969,539.087885 38.0292969,540.277344 L38.0292969,546.5 L36.9394531,546.5 L36.9394531,541.789062 C36.9394531,541.343748 36.9335938,540.971681 36.921875,540.672852 C36.9101562,540.374022 36.8823244,540.04883 36.8383789,539.697266 C36.7944334,539.345701 36.7270512,539.058595 36.6362305,538.835938 C36.5454097,538.61328 36.4267585,538.402345 36.2802734,538.203125 C36.1337883,538.003905 35.9462902,537.857422 35.7177734,537.763672 C35.4892567,537.669921 35.2197281,537.623047 34.9091797,537.623047 C34.1708947,537.623047 33.5454127,537.841306 33.0327148,538.277832 C32.520017,538.714358 32.1640635,539.328121 31.9648438,540.119141 C31.9765626,540.7168 31.9912108,541.179686 32.0087891,541.507812 L32.0087891,546.5 L30.9277344,546.5 L30.9277344,541.595703 C30.9277344,541.097654 30.9130861,540.665529 30.8837891,540.299316 C30.854492,539.933104 30.7958989,539.574221 30.7080078,539.222656 C30.6201167,538.871092 30.5014656,538.583985 30.3520508,538.361328 C30.202636,538.138671 30.0034192,537.959962 29.7543945,537.825195 C29.5053698,537.690429 29.2080095,537.623047 28.8623047,537.623047 C28.0654257,537.623047 27.3989285,537.835447 26.862793,538.260254 C26.3266575,538.685061 25.979493,539.263668 25.8212891,539.996094 C25.8095703,540.236329 25.8037109,540.579099 25.8037109,541.024414 L25.8037109,546.5 L24.7138672,546.5 Z M44.7001953,546.710938 C43.3935482,546.710938 42.3535195,546.17481 41.5800781,545.102539 L41.4658203,546.5 L40.5517578,546.5 L40.5517578,533.131836 L41.6328125,533.035156 L41.6328125,536.27832 C41.6328125,537.26856 41.6240235,537.95117 41.6064453,538.326172 C41.963869,537.775388 42.4194308,537.365236 42.9731445,537.095703 C43.5268582,536.826171 44.1025361,536.691406 44.7001953,536.691406 C46.0009831,536.691406 47.0161096,537.155757 47.7456055,538.084473 C48.4751013,539.013188 48.8398438,540.209954 48.8398438,541.674805 C48.8398438,542.659185 48.6889664,543.524899 48.387207,544.271973 C48.0854477,545.019047 47.6181672,545.612302 46.9853516,546.051758 C46.3525359,546.491213 45.5908248,546.710938 44.7001953,546.710938 Z M44.7529297,545.84082 C45.2919949,545.84082 45.7592754,545.725099 46.1547852,545.493652 C46.5502949,545.262206 46.8549794,544.945803 47.0688477,544.544434 C47.2827159,544.143064 47.4379878,543.709475 47.534668,543.243652 C47.6313481,542.77783 47.6796875,542.272464 47.6796875,541.727539 C47.6796875,541.293943 47.6518557,540.885256 47.5961914,540.501465 C47.5405271,540.117674 47.4409187,539.742678 47.2973633,539.376465 C47.1538079,539.010252 46.9750987,538.698243 46.7612305,538.44043 C46.5473622,538.182616 46.2690447,537.97461 45.9262695,537.816406 C45.5834944,537.658202 45.192385,537.579102 44.7529297,537.579102 C43.7392527,537.579102 42.9643581,537.943844 42.4282227,538.67334 C41.8920872,539.402836 41.6269531,540.43847 41.6328125,541.780273 C41.6328125,542.395511 41.6899408,542.944822 41.8041992,543.428223 C41.9184576,543.911624 42.0971668,544.336424 42.340332,544.702637 C42.5834973,545.068849 42.9072245,545.350097 43.3115234,545.546387 C43.7158223,545.742677 44.1962863,545.84082 44.7529297,545.84082 Z M54.8867188,546.710938 C53.556634,546.710938 52.5004922,546.265629 51.7182617,545.375 C50.9360312,544.484371 50.5449219,543.277351 50.5449219,541.753906 C50.5449219,540.283196 50.9272423,539.079106 51.6918945,538.141602 C52.4565468,537.204097 53.4453064,536.720703 54.6582031,536.691406 C55.7890682,536.691406 56.6972622,537.095699 57.3828125,537.904297 C58.0683628,538.712895 58.4111328,539.796868 58.4111328,541.15625 C58.4111328,541.208985 58.409668,541.315917 58.4067383,541.477051 C58.4038086,541.638184 58.4023438,541.750976 58.4023438,541.81543 L51.6962891,541.81543 C51.7080079,543.051764 52.006833,544.031735 52.5927734,544.755371 C53.1787139,545.479008 53.9521436,545.84082 54.9130859,545.84082 C55.5400422,545.84082 56.0849586,545.767579 56.5478516,545.621094 C57.0107445,545.474609 57.4941381,545.266603 57.9980469,544.99707 L58.1826172,545.814453 C57.2099561,546.412112 56.1113342,546.710938 54.8867188,546.710938 Z M51.7402344,540.936523 L57.2246094,540.936523 C57.2246094,539.864252 56.9931664,539.042483 56.5302734,538.471191 C56.0673805,537.899899 55.4316447,537.614258 54.6230469,537.614258 C53.8027303,537.614258 53.1406275,537.918942 52.6367188,538.52832 C52.13281,539.137698 51.8339848,539.940425 51.7402344,540.936523 Z M60.6083984,546.5 C60.5966796,540.845675 60.5908203,537.634769 60.5908203,536.867188 L61.4873047,536.867188 L61.5576172,538.765625 C61.903322,538.191403 62.3427708,537.722658 62.8759766,537.359375 C63.4091824,536.996092 63.9658174,536.814453 64.5458984,536.814453 C64.786134,536.814453 65.0439439,536.834961 65.3193359,536.875977 L65.2402344,537.78125 C65.0292958,537.746094 64.8066418,537.728516 64.5722656,537.728516 C63.7578084,537.728516 63.0737332,538.049313 62.5200195,538.690918 C61.9663058,539.332523 61.6894531,540.092769 61.6894531,540.97168 L61.6894531,546.5 L60.6083984,546.5 Z M74.9345703,545.84082 C75.6376988,545.84082 76.2309546,545.654787 76.7143555,545.282715 C77.1977563,544.910643 77.5493153,544.419925 77.769043,543.810547 C77.9887706,543.201169 78.0986328,542.500981 78.0986328,541.709961 C78.0986328,540.467767 77.8349636,539.468754 77.3076172,538.712891 C76.7802708,537.957027 75.9775445,537.579102 74.8994141,537.579102 C74.1962855,537.579102 73.5971704,537.768065 73.1020508,538.145996 C72.6069311,538.523928 72.2451183,539.01904 72.0166016,539.631348 C71.7880848,540.243655 71.6738281,540.945309 71.6738281,541.736328 C71.6738281,542.937506 71.9536105,543.921871 72.5131836,544.689453 C73.0727567,545.457035 73.8798775,545.84082 74.9345703,545.84082 Z M74.8554688,546.710938 C73.9824175,546.710938 73.2133822,546.491213 72.5483398,546.051758 C71.8832975,545.612302 71.3764666,545.016117 71.027832,544.263184 C70.6791975,543.51025 70.5048828,542.659184 70.5048828,541.709961 C70.5048828,540.995114 70.605956,540.331546 70.8081055,539.719238 C71.0102549,539.106931 71.2988263,538.576662 71.6738281,538.128418 C72.04883,537.680174 72.5146457,537.328615 73.0712891,537.07373 C73.6279325,536.818846 74.2460904,536.691406 74.9257812,536.691406 C75.8281295,536.691406 76.6103483,536.912595 77.2724609,537.35498 C77.9345736,537.797365 78.4311507,538.392086 78.762207,539.13916 C79.0932634,539.886234 79.2587891,540.7373 79.2587891,541.692383 C79.2587891,542.653325 79.0888689,543.508785 78.7490234,544.258789 C78.409178,545.008793 77.9023471,545.604978 77.2285156,546.047363 C76.5546841,546.489748 75.7636764,546.710938 74.8554688,546.710938 Z M82.0097656,546.5 L82.0097656,537.666992 L80.4277344,537.666992 L80.4980469,536.990234 L82.0097656,536.867188 L82.0097656,536.506836 C82.0097656,535.241205 82.2309548,534.321292 82.6733398,533.74707 C83.1157249,533.172849 83.7939407,532.885742 84.7080078,532.885742 C84.971681,532.885742 85.4199187,532.929687 86.0527344,533.017578 L85.9736328,533.738281 C85.41113,533.673828 85.0302744,533.641602 84.8310547,533.641602 C84.1630826,533.641602 83.7075207,533.856931 83.4643555,534.287598 C83.2211902,534.718264 83.0996094,535.475581 83.0996094,536.55957 L83.0996094,536.867188 L85.4462891,536.867188 L85.4462891,537.666992 L83.0996094,537.666992 L83.0996094,546.5 L82.0097656,546.5 Z M96.9335938,546.702148 C95.9316356,546.702148 95.0380899,546.530763 94.2529297,546.187988 C93.4677695,545.845213 92.8276392,545.369144 92.3325195,544.759766 C91.8373999,544.150388 91.4624036,543.435551 91.2075195,542.615234 C90.9526354,541.794918 90.8251953,540.895513 90.8251953,539.916992 C90.8251953,538.616204 91.0639625,537.463384 91.5415039,536.458496 C92.0190454,535.453608 92.7324171,534.658206 93.6816406,534.072266 C94.6308641,533.486325 95.7529232,533.193359 97.0478516,533.193359 C98.4716868,533.193359 99.6845653,533.492185 100.686523,534.089844 L100.150391,534.959961 C99.2363236,534.409177 98.2050839,534.133789 97.0566406,534.133789 C96.2539022,534.133789 95.5332063,534.284666 94.8945312,534.586426 C94.2558562,534.888185 93.7329122,535.305661 93.3256836,535.838867 C92.918455,536.372073 92.6079112,536.990231 92.394043,537.693359 C92.1801747,538.396488 92.0732422,539.158199 92.0732422,539.978516 C92.0732422,540.781254 92.1713857,541.523922 92.3676758,542.206543 C92.5639658,542.889164 92.8598613,543.498532 93.2553711,544.034668 C93.6508809,544.570803 94.1767545,544.992674 94.8330078,545.300293 C95.4892611,545.607912 96.2451129,545.761719 97.1005859,545.761719 C98.0205124,545.761719 99.0458928,545.506838 100.176758,544.99707 L100.405273,545.902344 C99.5498004,546.43555 98.3925854,546.702148 96.9335938,546.702148 Z M104.958008,546.710938 C104.0498,546.710938 103.323245,546.482424 102.77832,546.025391 C102.233396,545.568357 101.960938,544.915043 101.960938,544.06543 C101.960938,543.561521 102.069335,543.123537 102.286133,542.751465 C102.502931,542.379393 102.817869,542.077638 103.230957,541.846191 C103.644045,541.614745 104.11572,541.434571 104.645996,541.305664 C105.176272,541.176757 105.792965,541.085938 106.496094,541.033203 C107.246098,540.986328 107.802733,540.948242 108.166016,540.918945 L108.166016,539.84668 C108.166016,539.108395 107.99756,538.553225 107.660645,538.181152 C107.323729,537.80908 106.783207,537.623047 106.039062,537.623047 C105.019526,537.623047 104.067387,537.866209 103.182617,538.352539 C103.15918,538.293945 103.104981,538.166505 103.02002,537.970215 C102.935058,537.773925 102.875,537.623047 102.839844,537.517578 C103.203127,537.283202 103.677731,537.086915 104.263672,536.928711 C104.849612,536.770507 105.423825,536.691406 105.986328,536.691406 C107.140631,536.691406 107.969724,536.938962 108.473633,537.434082 C108.977542,537.929202 109.229492,538.806634 109.229492,540.066406 L109.229492,546.5 L108.376953,546.5 C108.347656,546.365234 108.305176,546.098635 108.249512,545.700195 C108.193847,545.301756 108.166016,545.09668 108.166016,545.084961 C107.410152,546.168951 106.340827,546.710938 104.958008,546.710938 Z M104.993164,545.84082 C105.743168,545.84082 106.409665,545.619631 106.992676,545.177246 C107.575687,544.734861 107.958007,544.121098 108.139648,543.335938 L108.139648,541.692383 C107.295894,541.762696 106.871094,541.797852 106.865234,541.797852 C105.43554,541.926758 104.442386,542.161131 103.885742,542.500977 C103.329099,542.840822 103.050781,543.36816 103.050781,544.083008 C103.050781,544.668948 103.228026,545.108397 103.58252,545.401367 C103.937013,545.694337 104.407224,545.84082 104.993164,545.84082 Z M111.866211,546.5 C111.854492,540.845675 111.848633,537.634769 111.848633,536.867188 L112.745117,536.867188 L112.81543,538.765625 C113.161135,538.191403 113.600583,537.722658 114.133789,537.359375 C114.666995,536.996092 115.22363,536.814453 115.803711,536.814453 C116.043947,536.814453 116.301756,536.834961 116.577148,536.875977 L116.498047,537.78125 C116.287108,537.746094 116.064454,537.728516 115.830078,537.728516 C115.015621,537.728516 114.331546,538.049313 113.777832,538.690918 C113.224118,539.332523 112.947266,540.092769 112.947266,540.97168 L112.947266,546.5 L111.866211,546.5 Z M120.813477,546.719727 C120.19238,546.719727 119.609378,546.643555 119.064453,546.491211 C118.519529,546.338866 118.088869,546.157228 117.772461,545.946289 L117.930664,545.032227 C118.897466,545.536135 119.823238,545.788086 120.708008,545.788086 C122.295906,545.788086 123.11914,545.199225 123.177734,544.021484 C123.177734,543.529294 123.018068,543.14258 122.69873,542.861328 C122.379393,542.580077 121.739263,542.287111 120.77832,541.982422 C120.274412,541.80664 119.996094,541.709961 119.943359,541.692383 C118.437492,541.235349 117.678711,540.423834 117.666992,539.257812 C117.666992,538.583981 117.964352,537.987796 118.559082,537.469238 C119.153812,536.950681 119.958003,536.691406 120.97168,536.691406 C121.985357,536.691406 122.937496,536.890623 123.828125,537.289062 L123.458984,538.097656 C122.556636,537.757811 121.718754,537.587891 120.945312,537.587891 C120.265622,537.587891 119.730959,537.740233 119.341309,538.044922 C118.951658,538.349611 118.756836,538.759763 118.756836,539.275391 C118.756836,539.708987 118.884276,540.041503 119.13916,540.272949 C119.394044,540.504396 119.89941,540.725585 120.655273,540.936523 C120.737305,540.959961 120.888182,541.012695 121.10791,541.094727 C121.327638,541.176758 121.449219,541.220703 121.472656,541.226562 C122.486333,541.537111 123.193846,541.904783 123.595215,542.32959 C123.996584,542.754397 124.197266,543.333004 124.197266,544.06543 C124.179687,544.909184 123.864749,545.562498 123.252441,546.025391 C122.640134,546.488284 121.827154,546.719727 120.813477,546.719727 Z" id="Number-of-Cars" fill="#7A98A9" transform="translate(63.148438, 539.811523) rotate(-90.000000) translate(-63.148438, -539.811523) "></path>
        </g>
    </g>
</svg>