<?xml version="1.0" encoding="utf-8" standalone="no"?>
<!DOCTYPE svg PUBLIC "-//W3C//DTD SVG 1.1//EN"
  "http://www.w3.org/Graphics/SVG/1.1/DTD/svg11.dtd">
<!-- Created with matplotlib (http://matplotlib.org/) -->
<svg height="288pt" version="1.1" viewBox="0 0 432 288" width="432pt" xmlns="http://www.w3.org/2000/svg" xmlns:xlink="http://www.w3.org/1999/xlink">
 <defs>
  <style type="text/css">
*{stroke-linecap:butt;stroke-linejoin:round;}
  </style>
 </defs>
 <g id="figure_1">
  <g id="patch_1">
   <path d="M 0 288 
L 432 288 
L 432 0 
L 0 0 
z
" style="fill:#ffffff;"/>
  </g>
  <g id="axes_1">
   <g id="patch_2">
    <path clip-path="url(#pa9e023db1d)" d="M 69.218182 252 
L 72.261818 252 
L 72.261818 251.916371 
L 69.218182 251.916371 
z
" style="fill:#1f77b4;"/>
   </g>
   <g id="patch_3">
    <path clip-path="url(#pa9e023db1d)" d="M 72.261818 252 
L 75.305455 252 
L 75.305455 251.958186 
L 72.261818 251.958186 
z
" style="fill:#1f77b4;"/>
   </g>
   <g id="patch_4">
    <path clip-path="url(#pa9e023db1d)" d="M 75.305455 252 
L 78.349091 252 
L 78.349091 251.728207 
L 75.305455 251.728207 
z
" style="fill:#1f77b4;"/>
   </g>
   <g id="patch_5">
    <path clip-path="url(#pa9e023db1d)" d="M 78.349091 252 
L 81.392727 252 
L 81.392727 251.372784 
L 78.349091 251.372784 
z
" style="fill:#1f77b4;"/>
   </g>
   <g id="patch_6">
    <path clip-path="url(#pa9e023db1d)" d="M 81.392727 252 
L 84.436364 252 
L 84.436364 251.393691 
L 81.392727 251.393691 
z
" style="fill:#1f77b4;"/>
   </g>
   <g id="patch_7">
    <path clip-path="url(#pa9e023db1d)" d="M 84.436364 252 
L 87.48 252 
L 87.48 250.641033 
L 84.436364 250.641033 
z
" style="fill:#1f77b4;"/>
   </g>
   <g id="patch_8">
    <path clip-path="url(#pa9e023db1d)" d="M 87.48 252 
L 90.523636 252 
L 90.523636 249.888374 
L 87.48 249.888374 
z
" style="fill:#1f77b4;"/>
   </g>
   <g id="patch_9">
    <path clip-path="url(#pa9e023db1d)" d="M 90.523636 252 
L 93.567273 252 
L 93.567273 248.173984 
L 90.523636 248.173984 
z
" style="fill:#1f77b4;"/>
   </g>
   <g id="patch_10">
    <path clip-path="url(#pa9e023db1d)" d="M 93.567273 252 
L 96.610909 252 
L 96.610909 246.334152 
L 93.567273 246.334152 
z
" style="fill:#1f77b4;"/>
   </g>
   <g id="patch_11">
    <path clip-path="url(#pa9e023db1d)" d="M 96.610909 252 
L 99.654545 252 
L 99.654545 242.759022 
L 96.610909 242.759022 
z
" style="fill:#1f77b4;"/>
   </g>
   <g id="patch_12">
    <path clip-path="url(#pa9e023db1d)" d="M 99.654545 252 
L 102.698182 252 
L 102.698182 238.53577 
L 99.654545 238.53577 
z
" style="fill:#1f77b4;"/>
   </g>
   <g id="patch_13">
    <path clip-path="url(#pa9e023db1d)" d="M 102.698182 252 
L 105.741818 252 
L 105.741818 231.950005 
L 102.698182 231.950005 
z
" style="fill:#1f77b4;"/>
   </g>
   <g id="patch_14">
    <path clip-path="url(#pa9e023db1d)" d="M 105.741818 252 
L 108.785455 252 
L 108.785455 225.113354 
L 105.741818 225.113354 
z
" style="fill:#1f77b4;"/>
   </g>
   <g id="patch_15">
    <path clip-path="url(#pa9e023db1d)" d="M 108.785455 252 
L 111.829091 252 
L 111.829091 217.921281 
L 108.785455 217.921281 
z
" style="fill:#1f77b4;"/>
   </g>
   <g id="patch_16">
    <path clip-path="url(#pa9e023db1d)" d="M 111.829091 252 
L 114.872727 252 
L 114.872727 204.498865 
L 111.829091 204.498865 
z
" style="fill:#1f77b4;"/>
   </g>
   <g id="patch_17">
    <path clip-path="url(#pa9e023db1d)" d="M 114.872727 252 
L 117.916364 252 
L 117.916364 193.418054 
L 114.872727 193.418054 
z
" style="fill:#1f77b4;"/>
   </g>
   <g id="patch_18">
    <path clip-path="url(#pa9e023db1d)" d="M 117.916364 252 
L 120.96 252 
L 120.96 184.97155 
L 117.916364 184.97155 
z
" style="fill:#1f77b4;"/>
   </g>
   <g id="patch_19">
    <path clip-path="url(#pa9e023db1d)" d="M 120.96 252 
L 124.003636 252 
L 124.003636 168.475777 
L 120.96 168.475777 
z
" style="fill:#1f77b4;"/>
   </g>
   <g id="patch_20">
    <path clip-path="url(#pa9e023db1d)" d="M 124.003636 252 
L 127.047273 252 
L 127.047273 152.000912 
L 124.003636 152.000912 
z
" style="fill:#1f77b4;"/>
   </g>
   <g id="patch_21">
    <path clip-path="url(#pa9e023db1d)" d="M 127.047273 252 
L 130.090909 252 
L 130.090909 139.791113 
L 127.047273 139.791113 
z
" style="fill:#1f77b4;"/>
   </g>
   <g id="patch_22">
    <path clip-path="url(#pa9e023db1d)" d="M 130.090909 252 
L 133.134545 252 
L 133.134545 129.713847 
L 130.090909 129.713847 
z
" style="fill:#1f77b4;"/>
   </g>
   <g id="patch_23">
    <path clip-path="url(#pa9e023db1d)" d="M 133.134545 252 
L 136.178182 252 
L 136.178182 118.047635 
L 133.134545 118.047635 
z
" style="fill:#1f77b4;"/>
   </g>
   <g id="patch_24">
    <path clip-path="url(#pa9e023db1d)" d="M 136.178182 252 
L 139.221818 252 
L 139.221818 115.120629 
L 136.178182 115.120629 
z
" style="fill:#1f77b4;"/>
   </g>
   <g id="patch_25">
    <path clip-path="url(#pa9e023db1d)" d="M 139.221818 252 
L 142.265455 252 
L 142.265455 112.50723 
L 139.221818 112.50723 
z
" style="fill:#1f77b4;"/>
   </g>
   <g id="patch_26">
    <path clip-path="url(#pa9e023db1d)" d="M 142.265455 252 
L 145.309091 252 
L 145.309091 111.566407 
L 142.265455 111.566407 
z
" style="fill:#1f77b4;"/>
   </g>
   <g id="patch_27">
    <path clip-path="url(#pa9e023db1d)" d="M 145.309091 252 
L 148.352727 252 
L 148.352727 115.664216 
L 145.309091 115.664216 
z
" style="fill:#1f77b4;"/>
   </g>
   <g id="patch_28">
    <path clip-path="url(#pa9e023db1d)" d="M 148.352727 252 
L 151.396364 252 
L 151.396364 125.636945 
L 148.352727 125.636945 
z
" style="fill:#1f77b4;"/>
   </g>
   <g id="patch_29">
    <path clip-path="url(#pa9e023db1d)" d="M 151.396364 252 
L 154.44 252 
L 154.44 137.700394 
L 151.396364 137.700394 
z
" style="fill:#1f77b4;"/>
   </g>
   <g id="patch_30">
    <path clip-path="url(#pa9e023db1d)" d="M 154.44 252 
L 157.483636 252 
L 157.483636 144.976096 
L 154.44 144.976096 
z
" style="fill:#1f77b4;"/>
   </g>
   <g id="patch_31">
    <path clip-path="url(#pa9e023db1d)" d="M 157.483636 252 
L 160.527273 252 
L 160.527273 156.99773 
L 157.483636 156.99773 
z
" style="fill:#1f77b4;"/>
   </g>
   <g id="patch_32">
    <path clip-path="url(#pa9e023db1d)" d="M 160.527273 252 
L 163.570909 252 
L 163.570909 168.622127 
L 160.527273 168.622127 
z
" style="fill:#1f77b4;"/>
   </g>
   <g id="patch_33">
    <path clip-path="url(#pa9e023db1d)" d="M 163.570909 252 
L 166.614545 252 
L 166.614545 176.462324 
L 163.570909 176.462324 
z
" style="fill:#1f77b4;"/>
   </g>
   <g id="patch_34">
    <path clip-path="url(#pa9e023db1d)" d="M 166.614545 252 
L 169.658182 252 
L 169.658182 179.828381 
L 166.614545 179.828381 
z
" style="fill:#1f77b4;"/>
   </g>
   <g id="patch_35">
    <path clip-path="url(#pa9e023db1d)" d="M 169.658182 252 
L 172.701818 252 
L 172.701818 180.079267 
L 169.658182 180.079267 
z
" style="fill:#1f77b4;"/>
   </g>
   <g id="patch_36">
    <path clip-path="url(#pa9e023db1d)" d="M 172.701818 252 
L 175.745455 252 
L 175.745455 178.824836 
L 172.701818 178.824836 
z
" style="fill:#1f77b4;"/>
   </g>
   <g id="patch_37">
    <path clip-path="url(#pa9e023db1d)" d="M 175.745455 252 
L 178.789091 252 
L 178.789091 173.242616 
L 175.745455 173.242616 
z
" style="fill:#1f77b4;"/>
   </g>
   <g id="patch_38">
    <path clip-path="url(#pa9e023db1d)" d="M 178.789091 252 
L 181.832727 252 
L 181.832727 163.688031 
L 178.789091 163.688031 
z
" style="fill:#1f77b4;"/>
   </g>
   <g id="patch_39">
    <path clip-path="url(#pa9e023db1d)" d="M 181.832727 252 
L 184.876364 252 
L 184.876364 157.436781 
L 181.832727 157.436781 
z
" style="fill:#1f77b4;"/>
   </g>
   <g id="patch_40">
    <path clip-path="url(#pa9e023db1d)" d="M 184.876364 252 
L 187.92 252 
L 187.92 145.456961 
L 184.876364 145.456961 
z
" style="fill:#1f77b4;"/>
   </g>
   <g id="patch_41">
    <path clip-path="url(#pa9e023db1d)" d="M 187.92 252 
L 190.963636 252 
L 190.963636 134.815202 
L 187.92 134.815202 
z
" style="fill:#1f77b4;"/>
   </g>
   <g id="patch_42">
    <path clip-path="url(#pa9e023db1d)" d="M 190.963636 252 
L 194.007273 252 
L 194.007273 121.204621 
L 190.963636 121.204621 
z
" style="fill:#1f77b4;"/>
   </g>
   <g id="patch_43">
    <path clip-path="url(#pa9e023db1d)" d="M 194.007273 252 
L 197.050909 252 
L 197.050909 113.197167 
L 194.007273 113.197167 
z
" style="fill:#1f77b4;"/>
   </g>
   <g id="patch_44">
    <path clip-path="url(#pa9e023db1d)" d="M 197.050909 252 
L 200.094545 252 
L 200.094545 111.69185 
L 197.050909 111.69185 
z
" style="fill:#1f77b4;"/>
   </g>
   <g id="patch_45">
    <path clip-path="url(#pa9e023db1d)" d="M 200.094545 252 
L 203.138182 252 
L 203.138182 111.210984 
L 200.094545 111.210984 
z
" style="fill:#1f77b4;"/>
   </g>
   <g id="patch_46">
    <path clip-path="url(#pa9e023db1d)" d="M 203.138182 252 
L 206.181818 252 
L 206.181818 113.678033 
L 203.138182 113.678033 
z
" style="fill:#1f77b4;"/>
   </g>
   <g id="patch_47">
    <path clip-path="url(#pa9e023db1d)" d="M 206.181818 252 
L 209.225455 252 
L 209.225455 124.382514 
L 206.181818 124.382514 
z
" style="fill:#1f77b4;"/>
   </g>
   <g id="patch_48">
    <path clip-path="url(#pa9e023db1d)" d="M 209.225455 252 
L 212.269091 252 
L 212.269091 130.654671 
L 209.225455 130.654671 
z
" style="fill:#1f77b4;"/>
   </g>
   <g id="patch_49">
    <path clip-path="url(#pa9e023db1d)" d="M 212.269091 252 
L 215.312727 252 
L 215.312727 143.136263 
L 212.269091 143.136263 
z
" style="fill:#1f77b4;"/>
   </g>
   <g id="patch_50">
    <path clip-path="url(#pa9e023db1d)" d="M 215.312727 252 
L 218.356364 252 
L 218.356364 158.001275 
L 215.312727 158.001275 
z
" style="fill:#1f77b4;"/>
   </g>
   <g id="patch_51">
    <path clip-path="url(#pa9e023db1d)" d="M 218.356364 252 
L 221.4 252 
L 221.4 172.866287 
L 218.356364 172.866287 
z
" style="fill:#1f77b4;"/>
   </g>
   <g id="patch_52">
    <path clip-path="url(#pa9e023db1d)" d="M 221.4 252 
L 224.443636 252 
L 224.443636 184.929735 
L 221.4 184.929735 
z
" style="fill:#1f77b4;"/>
   </g>
   <g id="patch_53">
    <path clip-path="url(#pa9e023db1d)" d="M 224.443636 252 
L 227.487273 252 
L 227.487273 199.062996 
L 224.443636 199.062996 
z
" style="fill:#1f77b4;"/>
   </g>
   <g id="patch_54">
    <path clip-path="url(#pa9e023db1d)" d="M 227.487273 252 
L 230.530909 252 
L 230.530909 212.966277 
L 227.487273 212.966277 
z
" style="fill:#1f77b4;"/>
   </g>
   <g id="patch_55">
    <path clip-path="url(#pa9e023db1d)" d="M 230.530909 252 
L 233.574545 252 
L 233.574545 219.886557 
L 230.530909 219.886557 
z
" style="fill:#1f77b4;"/>
   </g>
   <g id="patch_56">
    <path clip-path="url(#pa9e023db1d)" d="M 233.574545 252 
L 236.618182 252 
L 236.618182 228.897555 
L 233.574545 228.897555 
z
" style="fill:#1f77b4;"/>
   </g>
   <g id="patch_57">
    <path clip-path="url(#pa9e023db1d)" d="M 236.618182 252 
L 239.661818 252 
L 239.661818 235.817835 
L 236.618182 235.817835 
z
" style="fill:#1f77b4;"/>
   </g>
   <g id="patch_58">
    <path clip-path="url(#pa9e023db1d)" d="M 239.661818 252 
L 242.705455 252 
L 242.705455 240.731025 
L 239.661818 240.731025 
z
" style="fill:#1f77b4;"/>
   </g>
   <g id="patch_59">
    <path clip-path="url(#pa9e023db1d)" d="M 242.705455 252 
L 245.749091 252 
L 245.749091 245.205163 
L 242.705455 245.205163 
z
" style="fill:#1f77b4;"/>
   </g>
   <g id="patch_60">
    <path clip-path="url(#pa9e023db1d)" d="M 245.749091 252 
L 248.792727 252 
L 248.792727 247.337697 
L 245.749091 247.337697 
z
" style="fill:#1f77b4;"/>
   </g>
   <g id="patch_61">
    <path clip-path="url(#pa9e023db1d)" d="M 248.792727 252 
L 251.836364 252 
L 251.836364 248.905736 
L 248.792727 248.905736 
z
" style="fill:#1f77b4;"/>
   </g>
   <g id="patch_62">
    <path clip-path="url(#pa9e023db1d)" d="M 251.836364 252 
L 254.88 252 
L 254.88 250.243796 
L 251.836364 250.243796 
z
" style="fill:#1f77b4;"/>
   </g>
   <g id="patch_63">
    <path clip-path="url(#pa9e023db1d)" d="M 254.88 252 
L 257.923636 252 
L 257.923636 250.80829 
L 254.88 250.80829 
z
" style="fill:#1f77b4;"/>
   </g>
   <g id="patch_64">
    <path clip-path="url(#pa9e023db1d)" d="M 257.923636 252 
L 260.967273 252 
L 260.967273 251.247341 
L 257.923636 251.247341 
z
" style="fill:#1f77b4;"/>
   </g>
   <g id="patch_65">
    <path clip-path="url(#pa9e023db1d)" d="M 260.967273 252 
L 264.010909 252 
L 264.010909 251.644578 
L 260.967273 251.644578 
z
" style="fill:#1f77b4;"/>
   </g>
   <g id="patch_66">
    <path clip-path="url(#pa9e023db1d)" d="M 264.010909 252 
L 267.054545 252 
L 267.054545 251.832742 
L 264.010909 251.832742 
z
" style="fill:#1f77b4;"/>
   </g>
   <g id="patch_67">
    <path clip-path="url(#pa9e023db1d)" d="M 267.054545 252 
L 270.098182 252 
L 270.098182 251.790928 
L 267.054545 251.790928 
z
" style="fill:#1f77b4;"/>
   </g>
   <g id="patch_68">
    <path clip-path="url(#pa9e023db1d)" d="M 270.098182 252 
L 273.141818 252 
L 273.141818 251.958186 
L 270.098182 251.958186 
z
" style="fill:#1f77b4;"/>
   </g>
   <g id="patch_69">
    <path clip-path="url(#pa9e023db1d)" d="M 273.141818 252 
L 276.185455 252 
L 276.185455 251.85365 
L 273.141818 251.85365 
z
" style="fill:#1f77b4;"/>
   </g>
   <g id="patch_70">
    <path clip-path="url(#pa9e023db1d)" d="M 276.185455 252 
L 279.229091 252 
L 279.229091 251.623671 
L 276.185455 251.623671 
z
" style="fill:#1f77b4;"/>
   </g>
   <g id="patch_71">
    <path clip-path="url(#pa9e023db1d)" d="M 279.229091 252 
L 282.272727 252 
L 282.272727 251.33097 
L 279.229091 251.33097 
z
" style="fill:#1f77b4;"/>
   </g>
   <g id="patch_72">
    <path clip-path="url(#pa9e023db1d)" d="M 282.272727 252 
L 285.316364 252 
L 285.316364 250.201982 
L 282.272727 250.201982 
z
" style="fill:#1f77b4;"/>
   </g>
   <g id="patch_73">
    <path clip-path="url(#pa9e023db1d)" d="M 285.316364 252 
L 288.36 252 
L 288.36 248.090356 
L 285.316364 248.090356 
z
" style="fill:#1f77b4;"/>
   </g>
   <g id="patch_74">
    <path clip-path="url(#pa9e023db1d)" d="M 288.36 252 
L 291.403636 252 
L 291.403636 244.347969 
L 288.36 244.347969 
z
" style="fill:#1f77b4;"/>
   </g>
   <g id="patch_75">
    <path clip-path="url(#pa9e023db1d)" d="M 291.403636 252 
L 294.447273 252 
L 294.447273 238.263976 
L 291.403636 238.263976 
z
" style="fill:#1f77b4;"/>
   </g>
   <g id="patch_76">
    <path clip-path="url(#pa9e023db1d)" d="M 294.447273 252 
L 297.490909 252 
L 297.490909 226.242342 
L 294.447273 226.242342 
z
" style="fill:#1f77b4;"/>
   </g>
   <g id="patch_77">
    <path clip-path="url(#pa9e023db1d)" d="M 297.490909 252 
L 300.534545 252 
L 300.534545 211.08463 
L 297.490909 211.08463 
z
" style="fill:#1f77b4;"/>
   </g>
   <g id="patch_78">
    <path clip-path="url(#pa9e023db1d)" d="M 300.534545 252 
L 303.578182 252 
L 303.578182 186.874104 
L 300.534545 186.874104 
z
" style="fill:#1f77b4;"/>
   </g>
   <g id="patch_79">
    <path clip-path="url(#pa9e023db1d)" d="M 303.578182 252 
L 306.621818 252 
L 306.621818 162.621764 
L 303.578182 162.621764 
z
" style="fill:#1f77b4;"/>
   </g>
   <g id="patch_80">
    <path clip-path="url(#pa9e023db1d)" d="M 306.621818 252 
L 309.665455 252 
L 309.665455 130.173805 
L 306.621818 130.173805 
z
" style="fill:#1f77b4;"/>
   </g>
   <g id="patch_81">
    <path clip-path="url(#pa9e023db1d)" d="M 309.665455 252 
L 312.709091 252 
L 312.709091 98.164898 
L 309.665455 98.164898 
z
" style="fill:#1f77b4;"/>
   </g>
   <g id="patch_82">
    <path clip-path="url(#pa9e023db1d)" d="M 312.709091 252 
L 315.752727 252 
L 315.752727 70.692851 
L 312.709091 70.692851 
z
" style="fill:#1f77b4;"/>
   </g>
   <g id="patch_83">
    <path clip-path="url(#pa9e023db1d)" d="M 315.752727 252 
L 318.796364 252 
L 318.796364 49.34661 
L 315.752727 49.34661 
z
" style="fill:#1f77b4;"/>
   </g>
   <g id="patch_84">
    <path clip-path="url(#pa9e023db1d)" d="M 318.796364 252 
L 321.84 252 
L 321.84 44.914286 
L 318.796364 44.914286 
z
" style="fill:#1f77b4;"/>
   </g>
   <g id="patch_85">
    <path clip-path="url(#pa9e023db1d)" d="M 321.84 252 
L 324.883636 252 
L 324.883636 46.168717 
L 321.84 46.168717 
z
" style="fill:#1f77b4;"/>
   </g>
   <g id="patch_86">
    <path clip-path="url(#pa9e023db1d)" d="M 324.883636 252 
L 327.927273 252 
L 327.927273 61.430966 
L 324.883636 61.430966 
z
" style="fill:#1f77b4;"/>
   </g>
   <g id="patch_87">
    <path clip-path="url(#pa9e023db1d)" d="M 327.927273 252 
L 330.970909 252 
L 330.970909 88.359426 
L 327.927273 88.359426 
z
" style="fill:#1f77b4;"/>
   </g>
   <g id="patch_88">
    <path clip-path="url(#pa9e023db1d)" d="M 330.970909 252 
L 334.014545 252 
L 334.014545 122.417238 
L 330.970909 122.417238 
z
" style="fill:#1f77b4;"/>
   </g>
   <g id="patch_89">
    <path clip-path="url(#pa9e023db1d)" d="M 334.014545 252 
L 337.058182 252 
L 337.058182 152.774478 
L 334.014545 152.774478 
z
" style="fill:#1f77b4;"/>
   </g>
   <g id="patch_90">
    <path clip-path="url(#pa9e023db1d)" d="M 337.058182 252 
L 340.101818 252 
L 340.101818 179.159351 
L 337.058182 179.159351 
z
" style="fill:#1f77b4;"/>
   </g>
   <g id="patch_91">
    <path clip-path="url(#pa9e023db1d)" d="M 340.101818 252 
L 343.145455 252 
L 343.145455 204.728844 
L 340.101818 204.728844 
z
" style="fill:#1f77b4;"/>
   </g>
   <g id="patch_92">
    <path clip-path="url(#pa9e023db1d)" d="M 343.145455 252 
L 346.189091 252 
L 346.189091 222.562677 
L 343.145455 222.562677 
z
" style="fill:#1f77b4;"/>
   </g>
   <g id="patch_93">
    <path clip-path="url(#pa9e023db1d)" d="M 346.189091 252 
L 349.232727 252 
L 349.232727 233.894374 
L 346.189091 233.894374 
z
" style="fill:#1f77b4;"/>
   </g>
   <g id="patch_94">
    <path clip-path="url(#pa9e023db1d)" d="M 349.232727 252 
L 352.276364 252 
L 352.276364 242.821744 
L 349.232727 242.821744 
z
" style="fill:#1f77b4;"/>
   </g>
   <g id="patch_95">
    <path clip-path="url(#pa9e023db1d)" d="M 352.276364 252 
L 355.32 252 
L 355.32 247.484047 
L 352.276364 247.484047 
z
" style="fill:#1f77b4;"/>
   </g>
   <g id="patch_96">
    <path clip-path="url(#pa9e023db1d)" d="M 355.32 252 
L 358.363636 252 
L 358.363636 249.512044 
L 355.32 249.512044 
z
" style="fill:#1f77b4;"/>
   </g>
   <g id="patch_97">
    <path clip-path="url(#pa9e023db1d)" d="M 358.363636 252 
L 361.407273 252 
L 361.407273 251.142805 
L 358.363636 251.142805 
z
" style="fill:#1f77b4;"/>
   </g>
   <g id="patch_98">
    <path clip-path="url(#pa9e023db1d)" d="M 361.407273 252 
L 364.450909 252 
L 364.450909 251.393691 
L 361.407273 251.393691 
z
" style="fill:#1f77b4;"/>
   </g>
   <g id="patch_99">
    <path clip-path="url(#pa9e023db1d)" d="M 364.450909 252 
L 367.494545 252 
L 367.494545 251.832742 
L 364.450909 251.832742 
z
" style="fill:#1f77b4;"/>
   </g>
   <g id="patch_100">
    <path clip-path="url(#pa9e023db1d)" d="M 367.494545 252 
L 370.538182 252 
L 370.538182 251.895464 
L 367.494545 251.895464 
z
" style="fill:#1f77b4;"/>
   </g>
   <g id="patch_101">
    <path clip-path="url(#pa9e023db1d)" d="M 370.538182 252 
L 373.581818 252 
L 373.581818 251.916371 
L 370.538182 251.916371 
z
" style="fill:#1f77b4;"/>
   </g>
   <g id="text_1">
    <!-- Multimodal Distribution -->
    <defs>
     <path d="M 9.8125 72.90625 
L 24.515625 72.90625 
L 43.109375 23.296875 
L 61.8125 72.90625 
L 76.515625 72.90625 
L 76.515625 0 
L 66.890625 0 
L 66.890625 64.015625 
L 48.09375 14.015625 
L 38.1875 14.015625 
L 19.390625 64.015625 
L 19.390625 0 
L 9.8125 0 
z
" id="DejaVuSans-4d"/>
     <path d="M 8.5 21.578125 
L 8.5 54.6875 
L 17.484375 54.6875 
L 17.484375 21.921875 
Q 17.484375 14.15625 20.5 10.265625 
Q 23.53125 6.390625 29.59375 6.390625 
Q 36.859375 6.390625 41.078125 11.03125 
Q 45.3125 15.671875 45.3125 23.6875 
L 45.3125 54.6875 
L 54.296875 54.6875 
L 54.296875 0 
L 45.3125 0 
L 45.3125 8.40625 
Q 42.046875 3.421875 37.71875 1 
Q 33.40625 -1.421875 27.6875 -1.421875 
Q 18.265625 -1.421875 13.375 4.4375 
Q 8.5 10.296875 8.5 21.578125 
z
M 31.109375 56 
z
" id="DejaVuSans-75"/>
     <path d="M 9.421875 75.984375 
L 18.40625 75.984375 
L 18.40625 0 
L 9.421875 0 
z
" id="DejaVuSans-6c"/>
     <path d="M 18.3125 70.21875 
L 18.3125 54.6875 
L 36.8125 54.6875 
L 36.8125 47.703125 
L 18.3125 47.703125 
L 18.3125 18.015625 
Q 18.3125 11.328125 20.140625 9.421875 
Q 21.96875 7.515625 27.59375 7.515625 
L 36.8125 7.515625 
L 36.8125 0 
L 27.59375 0 
Q 17.1875 0 13.234375 3.875 
Q 9.28125 7.765625 9.28125 18.015625 
L 9.28125 47.703125 
L 2.6875 47.703125 
L 2.6875 54.6875 
L 9.28125 54.6875 
L 9.28125 70.21875 
z
" id="DejaVuSans-74"/>
     <path d="M 9.421875 54.6875 
L 18.40625 54.6875 
L 18.40625 0 
L 9.421875 0 
z
M 9.421875 75.984375 
L 18.40625 75.984375 
L 18.40625 64.59375 
L 9.421875 64.59375 
z
" id="DejaVuSans-69"/>
     <path d="M 52 44.1875 
Q 55.375 50.25 60.0625 53.125 
Q 64.75 56 71.09375 56 
Q 79.640625 56 84.28125 50.015625 
Q 88.921875 44.046875 88.921875 33.015625 
L 88.921875 0 
L 79.890625 0 
L 79.890625 32.71875 
Q 79.890625 40.578125 77.09375 44.375 
Q 74.3125 48.1875 68.609375 48.1875 
Q 61.625 48.1875 57.5625 43.546875 
Q 53.515625 38.921875 53.515625 30.90625 
L 53.515625 0 
L 44.484375 0 
L 44.484375 32.71875 
Q 44.484375 40.625 41.703125 44.40625 
Q 38.921875 48.1875 33.109375 48.1875 
Q 26.21875 48.1875 22.15625 43.53125 
Q 18.109375 38.875 18.109375 30.90625 
L 18.109375 0 
L 9.078125 0 
L 9.078125 54.6875 
L 18.109375 54.6875 
L 18.109375 46.1875 
Q 21.1875 51.21875 25.484375 53.609375 
Q 29.78125 56 35.6875 56 
Q 41.65625 56 45.828125 52.96875 
Q 50 49.953125 52 44.1875 
z
" id="DejaVuSans-6d"/>
     <path d="M 30.609375 48.390625 
Q 23.390625 48.390625 19.1875 42.75 
Q 14.984375 37.109375 14.984375 27.296875 
Q 14.984375 17.484375 19.15625 11.84375 
Q 23.34375 6.203125 30.609375 6.203125 
Q 37.796875 6.203125 41.984375 11.859375 
Q 46.1875 17.53125 46.1875 27.296875 
Q 46.1875 37.015625 41.984375 42.703125 
Q 37.796875 48.390625 30.609375 48.390625 
z
M 30.609375 56 
Q 42.328125 56 49.015625 48.375 
Q 55.71875 40.765625 55.71875 27.296875 
Q 55.71875 13.875 49.015625 6.21875 
Q 42.328125 -1.421875 30.609375 -1.421875 
Q 18.84375 -1.421875 12.171875 6.21875 
Q 5.515625 13.875 5.515625 27.296875 
Q 5.515625 40.765625 12.171875 48.375 
Q 18.84375 56 30.609375 56 
z
" id="DejaVuSans-6f"/>
     <path d="M 45.40625 46.390625 
L 45.40625 75.984375 
L 54.390625 75.984375 
L 54.390625 0 
L 45.40625 0 
L 45.40625 8.203125 
Q 42.578125 3.328125 38.25 0.953125 
Q 33.9375 -1.421875 27.875 -1.421875 
Q 17.96875 -1.421875 11.734375 6.484375 
Q 5.515625 14.40625 5.515625 27.296875 
Q 5.515625 40.1875 11.734375 48.09375 
Q 17.96875 56 27.875 56 
Q 33.9375 56 38.25 53.625 
Q 42.578125 51.265625 45.40625 46.390625 
z
M 14.796875 27.296875 
Q 14.796875 17.390625 18.875 11.75 
Q 22.953125 6.109375 30.078125 6.109375 
Q 37.203125 6.109375 41.296875 11.75 
Q 45.40625 17.390625 45.40625 27.296875 
Q 45.40625 37.203125 41.296875 42.84375 
Q 37.203125 48.484375 30.078125 48.484375 
Q 22.953125 48.484375 18.875 42.84375 
Q 14.796875 37.203125 14.796875 27.296875 
z
" id="DejaVuSans-64"/>
     <path d="M 34.28125 27.484375 
Q 23.390625 27.484375 19.1875 25 
Q 14.984375 22.515625 14.984375 16.5 
Q 14.984375 11.71875 18.140625 8.90625 
Q 21.296875 6.109375 26.703125 6.109375 
Q 34.1875 6.109375 38.703125 11.40625 
Q 43.21875 16.703125 43.21875 25.484375 
L 43.21875 27.484375 
z
M 52.203125 31.203125 
L 52.203125 0 
L 43.21875 0 
L 43.21875 8.296875 
Q 40.140625 3.328125 35.546875 0.953125 
Q 30.953125 -1.421875 24.3125 -1.421875 
Q 15.921875 -1.421875 10.953125 3.296875 
Q 6 8.015625 6 15.921875 
Q 6 25.140625 12.171875 29.828125 
Q 18.359375 34.515625 30.609375 34.515625 
L 43.21875 34.515625 
L 43.21875 35.40625 
Q 43.21875 41.609375 39.140625 45 
Q 35.0625 48.390625 27.6875 48.390625 
Q 23 48.390625 18.546875 47.265625 
Q 14.109375 46.140625 10.015625 43.890625 
L 10.015625 52.203125 
Q 14.9375 54.109375 19.578125 55.046875 
Q 24.21875 56 28.609375 56 
Q 40.484375 56 46.34375 49.84375 
Q 52.203125 43.703125 52.203125 31.203125 
z
" id="DejaVuSans-61"/>
     <path id="DejaVuSans-20"/>
     <path d="M 19.671875 64.796875 
L 19.671875 8.109375 
L 31.59375 8.109375 
Q 46.6875 8.109375 53.6875 14.9375 
Q 60.6875 21.78125 60.6875 36.53125 
Q 60.6875 51.171875 53.6875 57.984375 
Q 46.6875 64.796875 31.59375 64.796875 
z
M 9.8125 72.90625 
L 30.078125 72.90625 
Q 51.265625 72.90625 61.171875 64.09375 
Q 71.09375 55.28125 71.09375 36.53125 
Q 71.09375 17.671875 61.125 8.828125 
Q 51.171875 0 30.078125 0 
L 9.8125 0 
z
" id="DejaVuSans-44"/>
     <path d="M 44.28125 53.078125 
L 44.28125 44.578125 
Q 40.484375 46.53125 36.375 47.5 
Q 32.28125 48.484375 27.875 48.484375 
Q 21.1875 48.484375 17.84375 46.4375 
Q 14.5 44.390625 14.5 40.28125 
Q 14.5 37.15625 16.890625 35.375 
Q 19.28125 33.59375 26.515625 31.984375 
L 29.59375 31.296875 
Q 39.15625 29.25 43.1875 25.515625 
Q 47.21875 21.78125 47.21875 15.09375 
Q 47.21875 7.46875 41.1875 3.015625 
Q 35.15625 -1.421875 24.609375 -1.421875 
Q 20.21875 -1.421875 15.453125 -0.5625 
Q 10.6875 0.296875 5.421875 2 
L 5.421875 11.28125 
Q 10.40625 8.6875 15.234375 7.390625 
Q 20.0625 6.109375 24.8125 6.109375 
Q 31.15625 6.109375 34.5625 8.28125 
Q 37.984375 10.453125 37.984375 14.40625 
Q 37.984375 18.0625 35.515625 20.015625 
Q 33.0625 21.96875 24.703125 23.78125 
L 21.578125 24.515625 
Q 13.234375 26.265625 9.515625 29.90625 
Q 5.8125 33.546875 5.8125 39.890625 
Q 5.8125 47.609375 11.28125 51.796875 
Q 16.75 56 26.8125 56 
Q 31.78125 56 36.171875 55.265625 
Q 40.578125 54.546875 44.28125 53.078125 
z
" id="DejaVuSans-73"/>
     <path d="M 41.109375 46.296875 
Q 39.59375 47.171875 37.8125 47.578125 
Q 36.03125 48 33.890625 48 
Q 26.265625 48 22.1875 43.046875 
Q 18.109375 38.09375 18.109375 28.8125 
L 18.109375 0 
L 9.078125 0 
L 9.078125 54.6875 
L 18.109375 54.6875 
L 18.109375 46.1875 
Q 20.953125 51.171875 25.484375 53.578125 
Q 30.03125 56 36.53125 56 
Q 37.453125 56 38.578125 55.875 
Q 39.703125 55.765625 41.0625 55.515625 
z
" id="DejaVuSans-72"/>
     <path d="M 48.6875 27.296875 
Q 48.6875 37.203125 44.609375 42.84375 
Q 40.53125 48.484375 33.40625 48.484375 
Q 26.265625 48.484375 22.1875 42.84375 
Q 18.109375 37.203125 18.109375 27.296875 
Q 18.109375 17.390625 22.1875 11.75 
Q 26.265625 6.109375 33.40625 6.109375 
Q 40.53125 6.109375 44.609375 11.75 
Q 48.6875 17.390625 48.6875 27.296875 
z
M 18.109375 46.390625 
Q 20.953125 51.265625 25.265625 53.625 
Q 29.59375 56 35.59375 56 
Q 45.5625 56 51.78125 48.09375 
Q 58.015625 40.1875 58.015625 27.296875 
Q 58.015625 14.40625 51.78125 6.484375 
Q 45.5625 -1.421875 35.59375 -1.421875 
Q 29.59375 -1.421875 25.265625 0.953125 
Q 20.953125 3.328125 18.109375 8.203125 
L 18.109375 0 
L 9.078125 0 
L 9.078125 75.984375 
L 18.109375 75.984375 
z
" id="DejaVuSans-62"/>
     <path d="M 54.890625 33.015625 
L 54.890625 0 
L 45.90625 0 
L 45.90625 32.71875 
Q 45.90625 40.484375 42.875 44.328125 
Q 39.84375 48.1875 33.796875 48.1875 
Q 26.515625 48.1875 22.3125 43.546875 
Q 18.109375 38.921875 18.109375 30.90625 
L 18.109375 0 
L 9.078125 0 
L 9.078125 54.6875 
L 18.109375 54.6875 
L 18.109375 46.1875 
Q 21.34375 51.125 25.703125 53.5625 
Q 30.078125 56 35.796875 56 
Q 45.21875 56 50.046875 50.171875 
Q 54.890625 44.34375 54.890625 33.015625 
z
" id="DejaVuSans-6e"/>
    </defs>
    <g transform="translate(151.156875 28.56)scale(0.12 -0.12)">
     <use xlink:href="#DejaVuSans-4d"/>
     <use x="86.279297" xlink:href="#DejaVuSans-75"/>
     <use x="149.658203" xlink:href="#DejaVuSans-6c"/>
     <use x="177.441406" xlink:href="#DejaVuSans-74"/>
     <use x="216.650391" xlink:href="#DejaVuSans-69"/>
     <use x="244.433594" xlink:href="#DejaVuSans-6d"/>
     <use x="341.845703" xlink:href="#DejaVuSans-6f"/>
     <use x="403.027344" xlink:href="#DejaVuSans-64"/>
     <use x="466.503906" xlink:href="#DejaVuSans-61"/>
     <use x="527.783203" xlink:href="#DejaVuSans-6c"/>
     <use x="555.566406" xlink:href="#DejaVuSans-20"/>
     <use x="587.353516" xlink:href="#DejaVuSans-44"/>
     <use x="664.355469" xlink:href="#DejaVuSans-69"/>
     <use x="692.138672" xlink:href="#DejaVuSans-73"/>
     <use x="744.238281" xlink:href="#DejaVuSans-74"/>
     <use x="783.447266" xlink:href="#DejaVuSans-72"/>
     <use x="824.560547" xlink:href="#DejaVuSans-69"/>
     <use x="852.34375" xlink:href="#DejaVuSans-62"/>
     <use x="915.820312" xlink:href="#DejaVuSans-75"/>
     <use x="979.199219" xlink:href="#DejaVuSans-74"/>
     <use x="1018.408203" xlink:href="#DejaVuSans-69"/>
     <use x="1046.191406" xlink:href="#DejaVuSans-6f"/>
     <use x="1107.373047" xlink:href="#DejaVuSans-6e"/>
    </g>
   </g>
  </g>
 </g>
 <defs>
  <clipPath id="pa9e023db1d">
   <rect height="217.44" width="334.8" x="54" y="34.56"/>
  </clipPath>
 </defs>
</svg>
