<?xml version="1.0" encoding="utf-8" standalone="no"?>
<!DOCTYPE svg PUBLIC "-//W3C//DTD SVG 1.1//EN"
  "http://www.w3.org/Graphics/SVG/1.1/DTD/svg11.dtd">
<!-- Created with matplotlib (http://matplotlib.org/) -->
<svg height="288pt" version="1.1" viewBox="0 0 432 288" width="432pt" xmlns="http://www.w3.org/2000/svg" xmlns:xlink="http://www.w3.org/1999/xlink">
 <defs>
  <style type="text/css">
*{stroke-linecap:butt;stroke-linejoin:round;}
  </style>
 </defs>
 <g id="figure_1">
  <g id="patch_1">
   <path d="M 0 288 
L 432 288 
L 432 0 
L 0 0 
z
" style="fill:#ffffff;"/>
  </g>
  <g id="axes_1">
   <g id="patch_2">
    <path d="M 54 252 
L 388.8 252 
L 388.8 34.56 
L 54 34.56 
z
" style="fill:#ffffff;"/>
   </g>
   <g id="patch_3">
    <path clip-path="url(#peaabfeb096)" d="M 69.218182 252 
L 69.218182 252 
L 74.290909 252 
L 74.290909 252 
L 79.363636 252 
L 79.363636 252 
L 84.436364 252 
L 84.436364 252 
L 89.509091 252 
L 89.509091 252 
L 94.581818 252 
L 94.581818 252 
L 99.654545 252 
L 99.654545 252 
L 104.727273 252 
L 104.727273 252 
L 109.8 252 
L 109.8 252 
L 114.872727 252 
L 114.872727 252 
L 119.945455 252 
L 119.945455 252 
L 125.018182 252 
L 125.018182 252 
L 130.090909 252 
L 130.090909 252 
L 135.163636 252 
L 135.163636 252 
L 140.236364 252 
L 140.236364 252 
L 145.309091 252 
L 145.309091 252 
L 150.381818 252 
L 150.381818 252 
L 155.454545 252 
L 155.454545 252 
L 160.527273 252 
L 160.527273 252 
L 165.6 252 
L 165.6 252 
L 170.672727 252 
L 170.672727 252 
L 175.745455 252 
L 175.745455 252 
L 180.818182 252 
L 180.818182 252 
L 185.890909 252 
L 185.890909 252 
L 190.963636 252 
L 190.963636 252 
L 196.036364 252 
L 196.036364 252 
L 201.109091 252 
L 201.109091 252 
L 206.181818 252 
L 206.181818 252 
L 211.254545 252 
L 211.254545 252 
L 216.327273 252 
L 216.327273 251.973589 
L 221.4 251.973589 
L 221.4 251.920768 
L 226.472727 251.920768 
L 226.472727 251.247297 
L 231.545455 251.247297 
L 231.545455 249.490991 
L 236.618182 249.490991 
L 236.618182 245.001184 
L 241.690909 245.001184 
L 241.690909 232.918323 
L 246.763636 232.918323 
L 246.763636 209.492098 
L 251.836364 209.492098 
L 251.836364 173.151078 
L 256.909091 173.151078 
L 256.909091 125.242203 
L 261.981818 125.242203 
L 261.981818 78.006799 
L 267.054545 78.006799 
L 267.054545 49.034343 
L 272.127273 49.034343 
L 272.127273 44.914286 
L 277.2 44.914286 
L 277.2 75.69587 
L 282.272727 75.69587 
L 282.272727 124.344242 
L 287.345455 124.344242 
L 287.345455 171.434387 
L 292.418182 171.434387 
L 292.418182 207.696176 
L 297.490909 207.696176 
L 297.490909 232.442932 
L 302.563636 232.442932 
L 302.563636 244.895542 
L 307.636364 244.895542 
L 307.636364 249.398553 
L 312.709091 249.398553 
L 312.709091 251.326529 
L 317.781818 251.326529 
L 317.781818 251.894357 
L 322.854545 251.894357 
L 322.854545 251.947179 
L 327.927273 251.947179 
L 327.927273 252 
L 333 252 
L 333 252 
L 338.072727 252 
L 338.072727 252 
L 343.145455 252 
L 343.145455 252 
L 348.218182 252 
L 348.218182 252 
L 353.290909 252 
L 353.290909 252 
L 358.363636 252 
L 358.363636 252 
L 363.436364 252 
L 363.436364 252 
L 368.509091 252 
L 368.509091 252 
L 373.581818 252 
L 373.581818 252 
" style="fill:none;stroke:#1f77b4;stroke-linejoin:miter;"/>
   </g>
   <g id="patch_4">
    <path clip-path="url(#peaabfeb096)" d="M 69.218182 252 
L 69.218182 250.436159 
L 74.290909 250.436159 
L 74.290909 250.250618 
L 79.363636 250.250618 
L 79.363636 249.468698 
L 84.436364 249.468698 
L 84.436364 249.256652 
L 89.509091 249.256652 
L 89.509091 248.51449 
L 94.581818 248.51449 
L 94.581818 247.136189 
L 99.654545 247.136189 
L 99.654545 246.460292 
L 104.727273 246.460292 
L 104.727273 244.843439 
L 109.8 244.843439 
L 109.8 243.067552 
L 114.872727 243.067552 
L 114.872727 242.100091 
L 119.945455 242.100091 
L 119.945455 239.913364 
L 125.018182 239.913364 
L 125.018182 236.878452 
L 130.090909 236.878452 
L 130.090909 235.738703 
L 135.163636 235.738703 
L 135.163636 231.683319 
L 140.236364 231.683319 
L 140.236364 229.894178 
L 145.309091 229.894178 
L 145.309091 226.236381 
L 150.381818 226.236381 
L 150.381818 223.479779 
L 155.454545 223.479779 
L 155.454545 219.649694 
L 160.527273 219.649694 
L 160.527273 216.720805 
L 165.6 216.720805 
L 165.6 213.222042 
L 170.672727 213.222042 
L 170.672727 209.299186 
L 175.745455 209.299186 
L 175.745455 207.934139 
L 180.818182 207.934139 
L 180.818182 206.966678 
L 185.890909 206.966678 
L 185.890909 203.481167 
L 190.963636 203.481167 
L 190.963636 200.830589 
L 196.036364 200.830589 
L 196.036364 200.353485 
L 201.109091 200.353485 
L 201.109091 199.902887 
L 206.181818 199.902887 
L 206.181818 198.922173 
L 211.254545 198.922173 
L 211.254545 199.293254 
L 216.327273 199.293254 
L 216.327273 200.287221 
L 221.4 200.287221 
L 221.4 202.407683 
L 226.472727 202.407683 
L 226.472727 204.952238 
L 231.545455 204.952238 
L 231.545455 205.058261 
L 236.618182 205.058261 
L 236.618182 207.006436 
L 241.690909 207.006436 
L 241.690909 209.431715 
L 246.763636 209.431715 
L 246.763636 213.526859 
L 251.836364 213.526859 
L 251.836364 216.097919 
L 256.909091 216.097919 
L 256.909091 219.26536 
L 261.981818 219.26536 
L 261.981818 222.499066 
L 267.054545 222.499066 
L 267.054545 227.362876 
L 272.127273 227.362876 
L 272.127273 229.072499 
L 277.2 229.072499 
L 277.2 232.451986 
L 282.272727 232.451986 
L 282.272727 234.506184 
L 287.345455 234.506184 
L 287.345455 236.613394 
L 292.418182 236.613394 
L 292.418182 240.112157 
L 297.490909 240.112157 
L 297.490909 241.304917 
L 302.563636 241.304917 
L 302.563636 242.855505 
L 307.636364 242.855505 
L 307.636364 244.684404 
L 312.709091 244.684404 
L 312.709091 246.102464 
L 317.781818 246.102464 
L 317.781818 247.109683 
L 322.854545 247.109683 
L 322.854545 248.461478 
L 327.927273 248.461478 
L 327.927273 249.004847 
L 333 249.004847 
L 333 249.640985 
L 338.072727 249.640985 
L 338.072727 250.224113 
L 343.145455 250.224113 
L 343.145455 250.581941 
L 348.218182 250.581941 
L 348.218182 250.953022 
L 353.290909 250.953022 
L 353.290909 251.191574 
L 358.363636 251.191574 
L 358.363636 251.536149 
L 363.436364 251.536149 
L 363.436364 251.549402 
L 368.509091 251.549402 
L 368.509091 251.681931 
L 373.581818 251.681931 
L 373.581818 252 
" style="fill:none;stroke:#ff7f0e;stroke-linejoin:miter;"/>
   </g>
   <g id="patch_5">
    <path clip-path="url(#peaabfeb096)" d="M 69.218182 252 
L 69.218182 252 
L 74.290909 252 
L 74.290909 252 
L 79.363636 252 
L 79.363636 252 
L 84.436364 252 
L 84.436364 252 
L 89.509091 252 
L 89.509091 252 
L 94.581818 252 
L 94.581818 252 
L 99.654545 252 
L 99.654545 252 
L 104.727273 252 
L 104.727273 252 
L 109.8 252 
L 109.8 252 
L 114.872727 252 
L 114.872727 252 
L 119.945455 252 
L 119.945455 252 
L 125.018182 252 
L 125.018182 251.973589 
L 130.090909 251.973589 
L 130.090909 251.973589 
L 135.163636 251.973589 
L 135.163636 251.907563 
L 140.236364 251.907563 
L 140.236364 251.762304 
L 145.309091 251.762304 
L 145.309091 251.77551 
L 150.381818 251.77551 
L 150.381818 251.418966 
L 155.454545 251.418966 
L 155.454545 250.917164 
L 160.527273 250.917164 
L 160.527273 249.702276 
L 165.6 249.702276 
L 165.6 248.157254 
L 170.672727 248.157254 
L 170.672727 246.374537 
L 175.745455 246.374537 
L 175.745455 242.08281 
L 180.818182 242.08281 
L 180.818182 237.579798 
L 185.890909 237.579798 
L 185.890909 230.845089 
L 190.963636 230.845089 
L 190.963636 223.027544 
L 196.036364 223.027544 
L 196.036364 212.582141 
L 201.109091 212.582141 
L 201.109091 200.723771 
L 206.181818 200.723771 
L 206.181818 187.888207 
L 211.254545 187.888207 
L 211.254545 175.14508 
L 216.327273 175.14508 
L 216.327273 163.854538 
L 221.4 163.854538 
L 221.4 154.425944 
L 226.472727 154.425944 
L 226.472727 149.447541 
L 231.545455 149.447541 
L 231.545455 146.832889 
L 236.618182 146.832889 
L 236.618182 149.117408 
L 241.690909 149.117408 
L 241.690909 155.746475 
L 246.763636 155.746475 
L 246.763636 163.497994 
L 251.836364 163.497994 
L 251.836364 176.756128 
L 256.909091 176.756128 
L 256.909091 188.971042 
L 261.981818 188.971042 
L 261.981818 199.65414 
L 267.054545 199.65414 
L 267.054545 211.763412 
L 272.127273 211.763412 
L 272.127273 221.284443 
L 277.2 221.284443 
L 277.2 231.452533 
L 282.272727 231.452533 
L 282.272727 237.923137 
L 287.345455 237.923137 
L 287.345455 242.346916 
L 292.418182 242.346916 
L 292.418182 246.836723 
L 297.490909 246.836723 
L 297.490909 248.117638 
L 302.563636 248.117638 
L 302.563636 249.939971 
L 307.636364 249.939971 
L 307.636364 250.903959 
L 312.709091 250.903959 
L 312.709091 251.405761 
L 317.781818 251.405761 
L 317.781818 251.603841 
L 322.854545 251.603841 
L 322.854545 251.828331 
L 327.927273 251.828331 
L 327.927273 251.947179 
L 333 251.947179 
L 333 252 
L 338.072727 252 
L 338.072727 251.973589 
L 343.145455 251.973589 
L 343.145455 252 
L 348.218182 252 
L 348.218182 252 
L 353.290909 252 
L 353.290909 252 
L 358.363636 252 
L 358.363636 252 
L 363.436364 252 
L 363.436364 252 
L 368.509091 252 
L 368.509091 252 
L 373.581818 252 
L 373.581818 252 
" style="fill:none;stroke:#2ca02c;stroke-linejoin:miter;"/>
   </g>
   <g id="matplotlib.axis_1">
    <g id="xtick_1">
     <g id="line2d_1">
      <defs>
       <path d="M 0 0 
L 0 3.5 
" id="mebfdacd158" style="stroke:#000000;stroke-width:0.8;"/>
      </defs>
      <g>
       <use style="stroke:#000000;stroke-width:0.8;" x="69.218182" xlink:href="#mebfdacd158" y="252"/>
      </g>
     </g>
     <g id="text_1">
      <!-- −20 -->
      <defs>
       <path d="M 10.59375 35.5 
L 73.1875 35.5 
L 73.1875 27.203125 
L 10.59375 27.203125 
z
" id="DejaVuSans-2212"/>
       <path d="M 19.1875 8.296875 
L 53.609375 8.296875 
L 53.609375 0 
L 7.328125 0 
L 7.328125 8.296875 
Q 12.9375 14.109375 22.625 23.890625 
Q 32.328125 33.6875 34.8125 36.53125 
Q 39.546875 41.84375 41.421875 45.53125 
Q 43.3125 49.21875 43.3125 52.78125 
Q 43.3125 58.59375 39.234375 62.25 
Q 35.15625 65.921875 28.609375 65.921875 
Q 23.96875 65.921875 18.8125 64.3125 
Q 13.671875 62.703125 7.8125 59.421875 
L 7.8125 69.390625 
Q 13.765625 71.78125 18.9375 73 
Q 24.125 74.21875 28.421875 74.21875 
Q 39.75 74.21875 46.484375 68.546875 
Q 53.21875 62.890625 53.21875 53.421875 
Q 53.21875 48.921875 51.53125 44.890625 
Q 49.859375 40.875 45.40625 35.40625 
Q 44.1875 33.984375 37.640625 27.21875 
Q 31.109375 20.453125 19.1875 8.296875 
z
" id="DejaVuSans-32"/>
       <path d="M 31.78125 66.40625 
Q 24.171875 66.40625 20.328125 58.90625 
Q 16.5 51.421875 16.5 36.375 
Q 16.5 21.390625 20.328125 13.890625 
Q 24.171875 6.390625 31.78125 6.390625 
Q 39.453125 6.390625 43.28125 13.890625 
Q 47.125 21.390625 47.125 36.375 
Q 47.125 51.421875 43.28125 58.90625 
Q 39.453125 66.40625 31.78125 66.40625 
z
M 31.78125 74.21875 
Q 44.046875 74.21875 50.515625 64.515625 
Q 56.984375 54.828125 56.984375 36.375 
Q 56.984375 17.96875 50.515625 8.265625 
Q 44.046875 -1.421875 31.78125 -1.421875 
Q 19.53125 -1.421875 13.0625 8.265625 
Q 6.59375 17.96875 6.59375 36.375 
Q 6.59375 54.828125 13.0625 64.515625 
Q 19.53125 74.21875 31.78125 74.21875 
z
" id="DejaVuSans-30"/>
      </defs>
      <g transform="translate(58.665838 266.598437)scale(0.1 -0.1)">
       <use xlink:href="#DejaVuSans-2212"/>
       <use x="83.789062" xlink:href="#DejaVuSans-32"/>
       <use x="147.412109" xlink:href="#DejaVuSans-30"/>
      </g>
     </g>
    </g>
    <g id="xtick_2">
     <g id="line2d_2">
      <g>
       <use style="stroke:#000000;stroke-width:0.8;" x="119.945455" xlink:href="#mebfdacd158" y="252"/>
      </g>
     </g>
     <g id="text_2">
      <!-- 0 -->
      <g transform="translate(116.764205 266.598437)scale(0.1 -0.1)">
       <use xlink:href="#DejaVuSans-30"/>
      </g>
     </g>
    </g>
    <g id="xtick_3">
     <g id="line2d_3">
      <g>
       <use style="stroke:#000000;stroke-width:0.8;" x="170.672727" xlink:href="#mebfdacd158" y="252"/>
      </g>
     </g>
     <g id="text_3">
      <!-- 20 -->
      <g transform="translate(164.310227 266.598437)scale(0.1 -0.1)">
       <use xlink:href="#DejaVuSans-32"/>
       <use x="63.623047" xlink:href="#DejaVuSans-30"/>
      </g>
     </g>
    </g>
    <g id="xtick_4">
     <g id="line2d_4">
      <g>
       <use style="stroke:#000000;stroke-width:0.8;" x="221.4" xlink:href="#mebfdacd158" y="252"/>
      </g>
     </g>
     <g id="text_4">
      <!-- 40 -->
      <defs>
       <path d="M 37.796875 64.3125 
L 12.890625 25.390625 
L 37.796875 25.390625 
z
M 35.203125 72.90625 
L 47.609375 72.90625 
L 47.609375 25.390625 
L 58.015625 25.390625 
L 58.015625 17.1875 
L 47.609375 17.1875 
L 47.609375 0 
L 37.796875 0 
L 37.796875 17.1875 
L 4.890625 17.1875 
L 4.890625 26.703125 
z
" id="DejaVuSans-34"/>
      </defs>
      <g transform="translate(215.0375 266.598437)scale(0.1 -0.1)">
       <use xlink:href="#DejaVuSans-34"/>
       <use x="63.623047" xlink:href="#DejaVuSans-30"/>
      </g>
     </g>
    </g>
    <g id="xtick_5">
     <g id="line2d_5">
      <g>
       <use style="stroke:#000000;stroke-width:0.8;" x="272.127273" xlink:href="#mebfdacd158" y="252"/>
      </g>
     </g>
     <g id="text_5">
      <!-- 60 -->
      <defs>
       <path d="M 33.015625 40.375 
Q 26.375 40.375 22.484375 35.828125 
Q 18.609375 31.296875 18.609375 23.390625 
Q 18.609375 15.53125 22.484375 10.953125 
Q 26.375 6.390625 33.015625 6.390625 
Q 39.65625 6.390625 43.53125 10.953125 
Q 47.40625 15.53125 47.40625 23.390625 
Q 47.40625 31.296875 43.53125 35.828125 
Q 39.65625 40.375 33.015625 40.375 
z
M 52.59375 71.296875 
L 52.59375 62.3125 
Q 48.875 64.0625 45.09375 64.984375 
Q 41.3125 65.921875 37.59375 65.921875 
Q 27.828125 65.921875 22.671875 59.328125 
Q 17.53125 52.734375 16.796875 39.40625 
Q 19.671875 43.65625 24.015625 45.921875 
Q 28.375 48.1875 33.59375 48.1875 
Q 44.578125 48.1875 50.953125 41.515625 
Q 57.328125 34.859375 57.328125 23.390625 
Q 57.328125 12.15625 50.6875 5.359375 
Q 44.046875 -1.421875 33.015625 -1.421875 
Q 20.359375 -1.421875 13.671875 8.265625 
Q 6.984375 17.96875 6.984375 36.375 
Q 6.984375 53.65625 15.1875 63.9375 
Q 23.390625 74.21875 37.203125 74.21875 
Q 40.921875 74.21875 44.703125 73.484375 
Q 48.484375 72.75 52.59375 71.296875 
z
" id="DejaVuSans-36"/>
      </defs>
      <g transform="translate(265.764773 266.598437)scale(0.1 -0.1)">
       <use xlink:href="#DejaVuSans-36"/>
       <use x="63.623047" xlink:href="#DejaVuSans-30"/>
      </g>
     </g>
    </g>
    <g id="xtick_6">
     <g id="line2d_6">
      <g>
       <use style="stroke:#000000;stroke-width:0.8;" x="322.854545" xlink:href="#mebfdacd158" y="252"/>
      </g>
     </g>
     <g id="text_6">
      <!-- 80 -->
      <defs>
       <path d="M 31.78125 34.625 
Q 24.75 34.625 20.71875 30.859375 
Q 16.703125 27.09375 16.703125 20.515625 
Q 16.703125 13.921875 20.71875 10.15625 
Q 24.75 6.390625 31.78125 6.390625 
Q 38.8125 6.390625 42.859375 10.171875 
Q 46.921875 13.96875 46.921875 20.515625 
Q 46.921875 27.09375 42.890625 30.859375 
Q 38.875 34.625 31.78125 34.625 
z
M 21.921875 38.8125 
Q 15.578125 40.375 12.03125 44.71875 
Q 8.5 49.078125 8.5 55.328125 
Q 8.5 64.0625 14.71875 69.140625 
Q 20.953125 74.21875 31.78125 74.21875 
Q 42.671875 74.21875 48.875 69.140625 
Q 55.078125 64.0625 55.078125 55.328125 
Q 55.078125 49.078125 51.53125 44.71875 
Q 48 40.375 41.703125 38.8125 
Q 48.828125 37.15625 52.796875 32.3125 
Q 56.78125 27.484375 56.78125 20.515625 
Q 56.78125 9.90625 50.3125 4.234375 
Q 43.84375 -1.421875 31.78125 -1.421875 
Q 19.734375 -1.421875 13.25 4.234375 
Q 6.78125 9.90625 6.78125 20.515625 
Q 6.78125 27.484375 10.78125 32.3125 
Q 14.796875 37.15625 21.921875 38.8125 
z
M 18.3125 54.390625 
Q 18.3125 48.734375 21.84375 45.5625 
Q 25.390625 42.390625 31.78125 42.390625 
Q 38.140625 42.390625 41.71875 45.5625 
Q 45.3125 48.734375 45.3125 54.390625 
Q 45.3125 60.0625 41.71875 63.234375 
Q 38.140625 66.40625 31.78125 66.40625 
Q 25.390625 66.40625 21.84375 63.234375 
Q 18.3125 60.0625 18.3125 54.390625 
z
" id="DejaVuSans-38"/>
      </defs>
      <g transform="translate(316.492045 266.598437)scale(0.1 -0.1)">
       <use xlink:href="#DejaVuSans-38"/>
       <use x="63.623047" xlink:href="#DejaVuSans-30"/>
      </g>
     </g>
    </g>
    <g id="xtick_7">
     <g id="line2d_7">
      <g>
       <use style="stroke:#000000;stroke-width:0.8;" x="373.581818" xlink:href="#mebfdacd158" y="252"/>
      </g>
     </g>
     <g id="text_7">
      <!-- 100 -->
      <defs>
       <path d="M 12.40625 8.296875 
L 28.515625 8.296875 
L 28.515625 63.921875 
L 10.984375 60.40625 
L 10.984375 69.390625 
L 28.421875 72.90625 
L 38.28125 72.90625 
L 38.28125 8.296875 
L 54.390625 8.296875 
L 54.390625 0 
L 12.40625 0 
z
" id="DejaVuSans-31"/>
      </defs>
      <g transform="translate(364.038068 266.598437)scale(0.1 -0.1)">
       <use xlink:href="#DejaVuSans-31"/>
       <use x="63.623047" xlink:href="#DejaVuSans-30"/>
       <use x="127.246094" xlink:href="#DejaVuSans-30"/>
      </g>
     </g>
    </g>
   </g>
   <g id="matplotlib.axis_2">
    <g id="ytick_1">
     <g id="line2d_8">
      <defs>
       <path d="M 0 0 
L -3.5 0 
" id="m2dac11c1ae" style="stroke:#000000;stroke-width:0.8;"/>
      </defs>
      <g>
       <use style="stroke:#000000;stroke-width:0.8;" x="54" xlink:href="#m2dac11c1ae" y="252"/>
      </g>
     </g>
     <g id="text_8">
      <!-- 0.00 -->
      <defs>
       <path d="M 10.6875 12.40625 
L 21 12.40625 
L 21 0 
L 10.6875 0 
z
" id="DejaVuSans-2e"/>
      </defs>
      <g transform="translate(24.734375 255.799219)scale(0.1 -0.1)">
       <use xlink:href="#DejaVuSans-30"/>
       <use x="63.623047" xlink:href="#DejaVuSans-2e"/>
       <use x="95.410156" xlink:href="#DejaVuSans-30"/>
       <use x="159.033203" xlink:href="#DejaVuSans-30"/>
      </g>
     </g>
    </g>
    <g id="ytick_2">
     <g id="line2d_9">
      <g>
       <use style="stroke:#000000;stroke-width:0.8;" x="54" xlink:href="#m2dac11c1ae" y="225.589375"/>
      </g>
     </g>
     <g id="text_9">
      <!-- 0.01 -->
      <g transform="translate(24.734375 229.388593)scale(0.1 -0.1)">
       <use xlink:href="#DejaVuSans-30"/>
       <use x="63.623047" xlink:href="#DejaVuSans-2e"/>
       <use x="95.410156" xlink:href="#DejaVuSans-30"/>
       <use x="159.033203" xlink:href="#DejaVuSans-31"/>
      </g>
     </g>
    </g>
    <g id="ytick_3">
     <g id="line2d_10">
      <g>
       <use style="stroke:#000000;stroke-width:0.8;" x="54" xlink:href="#m2dac11c1ae" y="199.178749"/>
      </g>
     </g>
     <g id="text_10">
      <!-- 0.02 -->
      <g transform="translate(24.734375 202.977968)scale(0.1 -0.1)">
       <use xlink:href="#DejaVuSans-30"/>
       <use x="63.623047" xlink:href="#DejaVuSans-2e"/>
       <use x="95.410156" xlink:href="#DejaVuSans-30"/>
       <use x="159.033203" xlink:href="#DejaVuSans-32"/>
      </g>
     </g>
    </g>
    <g id="ytick_4">
     <g id="line2d_11">
      <g>
       <use style="stroke:#000000;stroke-width:0.8;" x="54" xlink:href="#m2dac11c1ae" y="172.768124"/>
      </g>
     </g>
     <g id="text_11">
      <!-- 0.03 -->
      <defs>
       <path d="M 40.578125 39.3125 
Q 47.65625 37.796875 51.625 33 
Q 55.609375 28.21875 55.609375 21.1875 
Q 55.609375 10.40625 48.1875 4.484375 
Q 40.765625 -1.421875 27.09375 -1.421875 
Q 22.515625 -1.421875 17.65625 -0.515625 
Q 12.796875 0.390625 7.625 2.203125 
L 7.625 11.71875 
Q 11.71875 9.328125 16.59375 8.109375 
Q 21.484375 6.890625 26.8125 6.890625 
Q 36.078125 6.890625 40.9375 10.546875 
Q 45.796875 14.203125 45.796875 21.1875 
Q 45.796875 27.640625 41.28125 31.265625 
Q 36.765625 34.90625 28.71875 34.90625 
L 20.21875 34.90625 
L 20.21875 43.015625 
L 29.109375 43.015625 
Q 36.375 43.015625 40.234375 45.921875 
Q 44.09375 48.828125 44.09375 54.296875 
Q 44.09375 59.90625 40.109375 62.90625 
Q 36.140625 65.921875 28.71875 65.921875 
Q 24.65625 65.921875 20.015625 65.03125 
Q 15.375 64.15625 9.8125 62.3125 
L 9.8125 71.09375 
Q 15.4375 72.65625 20.34375 73.4375 
Q 25.25 74.21875 29.59375 74.21875 
Q 40.828125 74.21875 47.359375 69.109375 
Q 53.90625 64.015625 53.90625 55.328125 
Q 53.90625 49.265625 50.4375 45.09375 
Q 46.96875 40.921875 40.578125 39.3125 
z
" id="DejaVuSans-33"/>
      </defs>
      <g transform="translate(24.734375 176.567342)scale(0.1 -0.1)">
       <use xlink:href="#DejaVuSans-30"/>
       <use x="63.623047" xlink:href="#DejaVuSans-2e"/>
       <use x="95.410156" xlink:href="#DejaVuSans-30"/>
       <use x="159.033203" xlink:href="#DejaVuSans-33"/>
      </g>
     </g>
    </g>
    <g id="ytick_5">
     <g id="line2d_12">
      <g>
       <use style="stroke:#000000;stroke-width:0.8;" x="54" xlink:href="#m2dac11c1ae" y="146.357498"/>
      </g>
     </g>
     <g id="text_12">
      <!-- 0.04 -->
      <g transform="translate(24.734375 150.156717)scale(0.1 -0.1)">
       <use xlink:href="#DejaVuSans-30"/>
       <use x="63.623047" xlink:href="#DejaVuSans-2e"/>
       <use x="95.410156" xlink:href="#DejaVuSans-30"/>
       <use x="159.033203" xlink:href="#DejaVuSans-34"/>
      </g>
     </g>
    </g>
    <g id="ytick_6">
     <g id="line2d_13">
      <g>
       <use style="stroke:#000000;stroke-width:0.8;" x="54" xlink:href="#m2dac11c1ae" y="119.946873"/>
      </g>
     </g>
     <g id="text_13">
      <!-- 0.05 -->
      <defs>
       <path d="M 10.796875 72.90625 
L 49.515625 72.90625 
L 49.515625 64.59375 
L 19.828125 64.59375 
L 19.828125 46.734375 
Q 21.96875 47.46875 24.109375 47.828125 
Q 26.265625 48.1875 28.421875 48.1875 
Q 40.625 48.1875 47.75 41.5 
Q 54.890625 34.8125 54.890625 23.390625 
Q 54.890625 11.625 47.5625 5.09375 
Q 40.234375 -1.421875 26.90625 -1.421875 
Q 22.3125 -1.421875 17.546875 -0.640625 
Q 12.796875 0.140625 7.71875 1.703125 
L 7.71875 11.625 
Q 12.109375 9.234375 16.796875 8.0625 
Q 21.484375 6.890625 26.703125 6.890625 
Q 35.15625 6.890625 40.078125 11.328125 
Q 45.015625 15.765625 45.015625 23.390625 
Q 45.015625 31 40.078125 35.4375 
Q 35.15625 39.890625 26.703125 39.890625 
Q 22.75 39.890625 18.8125 39.015625 
Q 14.890625 38.140625 10.796875 36.28125 
z
" id="DejaVuSans-35"/>
      </defs>
      <g transform="translate(24.734375 123.746091)scale(0.1 -0.1)">
       <use xlink:href="#DejaVuSans-30"/>
       <use x="63.623047" xlink:href="#DejaVuSans-2e"/>
       <use x="95.410156" xlink:href="#DejaVuSans-30"/>
       <use x="159.033203" xlink:href="#DejaVuSans-35"/>
      </g>
     </g>
    </g>
    <g id="ytick_7">
     <g id="line2d_14">
      <g>
       <use style="stroke:#000000;stroke-width:0.8;" x="54" xlink:href="#m2dac11c1ae" y="93.536247"/>
      </g>
     </g>
     <g id="text_14">
      <!-- 0.06 -->
      <g transform="translate(24.734375 97.335466)scale(0.1 -0.1)">
       <use xlink:href="#DejaVuSans-30"/>
       <use x="63.623047" xlink:href="#DejaVuSans-2e"/>
       <use x="95.410156" xlink:href="#DejaVuSans-30"/>
       <use x="159.033203" xlink:href="#DejaVuSans-36"/>
      </g>
     </g>
    </g>
    <g id="ytick_8">
     <g id="line2d_15">
      <g>
       <use style="stroke:#000000;stroke-width:0.8;" x="54" xlink:href="#m2dac11c1ae" y="67.125622"/>
      </g>
     </g>
     <g id="text_15">
      <!-- 0.07 -->
      <defs>
       <path d="M 8.203125 72.90625 
L 55.078125 72.90625 
L 55.078125 68.703125 
L 28.609375 0 
L 18.3125 0 
L 43.21875 64.59375 
L 8.203125 64.59375 
z
" id="DejaVuSans-37"/>
      </defs>
      <g transform="translate(24.734375 70.92484)scale(0.1 -0.1)">
       <use xlink:href="#DejaVuSans-30"/>
       <use x="63.623047" xlink:href="#DejaVuSans-2e"/>
       <use x="95.410156" xlink:href="#DejaVuSans-30"/>
       <use x="159.033203" xlink:href="#DejaVuSans-37"/>
      </g>
     </g>
    </g>
    <g id="ytick_9">
     <g id="line2d_16">
      <g>
       <use style="stroke:#000000;stroke-width:0.8;" x="54" xlink:href="#m2dac11c1ae" y="40.714996"/>
      </g>
     </g>
     <g id="text_16">
      <!-- 0.08 -->
      <g transform="translate(24.734375 44.514215)scale(0.1 -0.1)">
       <use xlink:href="#DejaVuSans-30"/>
       <use x="63.623047" xlink:href="#DejaVuSans-2e"/>
       <use x="95.410156" xlink:href="#DejaVuSans-30"/>
       <use x="159.033203" xlink:href="#DejaVuSans-38"/>
      </g>
     </g>
    </g>
   </g>
   <g id="patch_6">
    <path d="M 54 252 
L 54 34.56 
" style="fill:none;stroke:#000000;stroke-linecap:square;stroke-linejoin:miter;stroke-width:0.8;"/>
   </g>
   <g id="patch_7">
    <path d="M 388.8 252 
L 388.8 34.56 
" style="fill:none;stroke:#000000;stroke-linecap:square;stroke-linejoin:miter;stroke-width:0.8;"/>
   </g>
   <g id="patch_8">
    <path d="M 54 252 
L 388.8 252 
" style="fill:none;stroke:#000000;stroke-linecap:square;stroke-linejoin:miter;stroke-width:0.8;"/>
   </g>
   <g id="patch_9">
    <path d="M 54 34.56 
L 388.8 34.56 
" style="fill:none;stroke:#000000;stroke-linecap:square;stroke-linejoin:miter;stroke-width:0.8;"/>
   </g>
   <g id="legend_1">
    <g id="patch_10">
     <path d="M 61 86.594375 
L 185.303125 86.594375 
Q 187.303125 86.594375 187.303125 84.594375 
L 187.303125 41.56 
Q 187.303125 39.56 185.303125 39.56 
L 61 39.56 
Q 59 39.56 59 41.56 
L 59 84.594375 
Q 59 86.594375 61 86.594375 
z
" style="fill:#ffffff;opacity:0.8;stroke:#cccccc;stroke-linejoin:miter;"/>
    </g>
    <g id="patch_11">
     <path d="M 63 51.158438 
L 83 51.158438 
L 83 44.158438 
L 63 44.158438 
z
" style="fill:none;stroke:#1f77b4;stroke-linejoin:miter;"/>
    </g>
    <g id="text_17">
     <!-- Mean: 60, STD: 5 -->
     <defs>
      <path d="M 9.8125 72.90625 
L 24.515625 72.90625 
L 43.109375 23.296875 
L 61.8125 72.90625 
L 76.515625 72.90625 
L 76.515625 0 
L 66.890625 0 
L 66.890625 64.015625 
L 48.09375 14.015625 
L 38.1875 14.015625 
L 19.390625 64.015625 
L 19.390625 0 
L 9.8125 0 
z
" id="DejaVuSans-4d"/>
      <path d="M 56.203125 29.59375 
L 56.203125 25.203125 
L 14.890625 25.203125 
Q 15.484375 15.921875 20.484375 11.0625 
Q 25.484375 6.203125 34.421875 6.203125 
Q 39.59375 6.203125 44.453125 7.46875 
Q 49.3125 8.734375 54.109375 11.28125 
L 54.109375 2.78125 
Q 49.265625 0.734375 44.1875 -0.34375 
Q 39.109375 -1.421875 33.890625 -1.421875 
Q 20.796875 -1.421875 13.15625 6.1875 
Q 5.515625 13.8125 5.515625 26.8125 
Q 5.515625 40.234375 12.765625 48.109375 
Q 20.015625 56 32.328125 56 
Q 43.359375 56 49.78125 48.890625 
Q 56.203125 41.796875 56.203125 29.59375 
z
M 47.21875 32.234375 
Q 47.125 39.59375 43.09375 43.984375 
Q 39.0625 48.390625 32.421875 48.390625 
Q 24.90625 48.390625 20.390625 44.140625 
Q 15.875 39.890625 15.1875 32.171875 
z
" id="DejaVuSans-65"/>
      <path d="M 34.28125 27.484375 
Q 23.390625 27.484375 19.1875 25 
Q 14.984375 22.515625 14.984375 16.5 
Q 14.984375 11.71875 18.140625 8.90625 
Q 21.296875 6.109375 26.703125 6.109375 
Q 34.1875 6.109375 38.703125 11.40625 
Q 43.21875 16.703125 43.21875 25.484375 
L 43.21875 27.484375 
z
M 52.203125 31.203125 
L 52.203125 0 
L 43.21875 0 
L 43.21875 8.296875 
Q 40.140625 3.328125 35.546875 0.953125 
Q 30.953125 -1.421875 24.3125 -1.421875 
Q 15.921875 -1.421875 10.953125 3.296875 
Q 6 8.015625 6 15.921875 
Q 6 25.140625 12.171875 29.828125 
Q 18.359375 34.515625 30.609375 34.515625 
L 43.21875 34.515625 
L 43.21875 35.40625 
Q 43.21875 41.609375 39.140625 45 
Q 35.0625 48.390625 27.6875 48.390625 
Q 23 48.390625 18.546875 47.265625 
Q 14.109375 46.140625 10.015625 43.890625 
L 10.015625 52.203125 
Q 14.9375 54.109375 19.578125 55.046875 
Q 24.21875 56 28.609375 56 
Q 40.484375 56 46.34375 49.84375 
Q 52.203125 43.703125 52.203125 31.203125 
z
" id="DejaVuSans-61"/>
      <path d="M 54.890625 33.015625 
L 54.890625 0 
L 45.90625 0 
L 45.90625 32.71875 
Q 45.90625 40.484375 42.875 44.328125 
Q 39.84375 48.1875 33.796875 48.1875 
Q 26.515625 48.1875 22.3125 43.546875 
Q 18.109375 38.921875 18.109375 30.90625 
L 18.109375 0 
L 9.078125 0 
L 9.078125 54.6875 
L 18.109375 54.6875 
L 18.109375 46.1875 
Q 21.34375 51.125 25.703125 53.5625 
Q 30.078125 56 35.796875 56 
Q 45.21875 56 50.046875 50.171875 
Q 54.890625 44.34375 54.890625 33.015625 
z
" id="DejaVuSans-6e"/>
      <path d="M 11.71875 12.40625 
L 22.015625 12.40625 
L 22.015625 0 
L 11.71875 0 
z
M 11.71875 51.703125 
L 22.015625 51.703125 
L 22.015625 39.3125 
L 11.71875 39.3125 
z
" id="DejaVuSans-3a"/>
      <path id="DejaVuSans-20"/>
      <path d="M 11.71875 12.40625 
L 22.015625 12.40625 
L 22.015625 4 
L 14.015625 -11.625 
L 7.71875 -11.625 
L 11.71875 4 
z
" id="DejaVuSans-2c"/>
      <path d="M 53.515625 70.515625 
L 53.515625 60.890625 
Q 47.90625 63.578125 42.921875 64.890625 
Q 37.9375 66.21875 33.296875 66.21875 
Q 25.25 66.21875 20.875 63.09375 
Q 16.5 59.96875 16.5 54.203125 
Q 16.5 49.359375 19.40625 46.890625 
Q 22.3125 44.4375 30.421875 42.921875 
L 36.375 41.703125 
Q 47.40625 39.59375 52.65625 34.296875 
Q 57.90625 29 57.90625 20.125 
Q 57.90625 9.515625 50.796875 4.046875 
Q 43.703125 -1.421875 29.984375 -1.421875 
Q 24.8125 -1.421875 18.96875 -0.25 
Q 13.140625 0.921875 6.890625 3.21875 
L 6.890625 13.375 
Q 12.890625 10.015625 18.65625 8.296875 
Q 24.421875 6.59375 29.984375 6.59375 
Q 38.421875 6.59375 43.015625 9.90625 
Q 47.609375 13.234375 47.609375 19.390625 
Q 47.609375 24.75 44.3125 27.78125 
Q 41.015625 30.8125 33.5 32.328125 
L 27.484375 33.5 
Q 16.453125 35.6875 11.515625 40.375 
Q 6.59375 45.0625 6.59375 53.421875 
Q 6.59375 63.09375 13.40625 68.65625 
Q 20.21875 74.21875 32.171875 74.21875 
Q 37.3125 74.21875 42.625 73.28125 
Q 47.953125 72.359375 53.515625 70.515625 
z
" id="DejaVuSans-53"/>
      <path d="M -0.296875 72.90625 
L 61.375 72.90625 
L 61.375 64.59375 
L 35.5 64.59375 
L 35.5 0 
L 25.59375 0 
L 25.59375 64.59375 
L -0.296875 64.59375 
z
" id="DejaVuSans-54"/>
      <path d="M 19.671875 64.796875 
L 19.671875 8.109375 
L 31.59375 8.109375 
Q 46.6875 8.109375 53.6875 14.9375 
Q 60.6875 21.78125 60.6875 36.53125 
Q 60.6875 51.171875 53.6875 57.984375 
Q 46.6875 64.796875 31.59375 64.796875 
z
M 9.8125 72.90625 
L 30.078125 72.90625 
Q 51.265625 72.90625 61.171875 64.09375 
Q 71.09375 55.28125 71.09375 36.53125 
Q 71.09375 17.671875 61.125 8.828125 
Q 51.171875 0 30.078125 0 
L 9.8125 0 
z
" id="DejaVuSans-44"/>
     </defs>
     <g transform="translate(91 51.158438)scale(0.1 -0.1)">
      <use xlink:href="#DejaVuSans-4d"/>
      <use x="86.279297" xlink:href="#DejaVuSans-65"/>
      <use x="147.802734" xlink:href="#DejaVuSans-61"/>
      <use x="209.082031" xlink:href="#DejaVuSans-6e"/>
      <use x="272.460938" xlink:href="#DejaVuSans-3a"/>
      <use x="306.152344" xlink:href="#DejaVuSans-20"/>
      <use x="337.939453" xlink:href="#DejaVuSans-36"/>
      <use x="401.5625" xlink:href="#DejaVuSans-30"/>
      <use x="465.185547" xlink:href="#DejaVuSans-2c"/>
      <use x="496.972656" xlink:href="#DejaVuSans-20"/>
      <use x="528.759766" xlink:href="#DejaVuSans-53"/>
      <use x="592.236328" xlink:href="#DejaVuSans-54"/>
      <use x="653.320312" xlink:href="#DejaVuSans-44"/>
      <use x="730.322266" xlink:href="#DejaVuSans-3a"/>
      <use x="764.013672" xlink:href="#DejaVuSans-20"/>
      <use x="795.800781" xlink:href="#DejaVuSans-35"/>
     </g>
    </g>
    <g id="patch_12">
     <path d="M 63 65.836563 
L 83 65.836563 
L 83 58.836563 
L 63 58.836563 
z
" style="fill:none;stroke:#ff7f0e;stroke-linejoin:miter;"/>
    </g>
    <g id="text_18">
     <!-- Mean: 35, STD: 20 -->
     <g transform="translate(91 65.836563)scale(0.1 -0.1)">
      <use xlink:href="#DejaVuSans-4d"/>
      <use x="86.279297" xlink:href="#DejaVuSans-65"/>
      <use x="147.802734" xlink:href="#DejaVuSans-61"/>
      <use x="209.082031" xlink:href="#DejaVuSans-6e"/>
      <use x="272.460938" xlink:href="#DejaVuSans-3a"/>
      <use x="306.152344" xlink:href="#DejaVuSans-20"/>
      <use x="337.939453" xlink:href="#DejaVuSans-33"/>
      <use x="401.5625" xlink:href="#DejaVuSans-35"/>
      <use x="465.185547" xlink:href="#DejaVuSans-2c"/>
      <use x="496.972656" xlink:href="#DejaVuSans-20"/>
      <use x="528.759766" xlink:href="#DejaVuSans-53"/>
      <use x="592.236328" xlink:href="#DejaVuSans-54"/>
      <use x="653.320312" xlink:href="#DejaVuSans-44"/>
      <use x="730.322266" xlink:href="#DejaVuSans-3a"/>
      <use x="764.013672" xlink:href="#DejaVuSans-20"/>
      <use x="795.800781" xlink:href="#DejaVuSans-32"/>
      <use x="859.423828" xlink:href="#DejaVuSans-30"/>
     </g>
    </g>
    <g id="patch_13">
     <path d="M 63 80.514688 
L 83 80.514688 
L 83 73.514688 
L 63 73.514688 
z
" style="fill:none;stroke:#2ca02c;stroke-linejoin:miter;"/>
    </g>
    <g id="text_19">
     <!-- Mean: 45, STD: 10 -->
     <g transform="translate(91 80.514688)scale(0.1 -0.1)">
      <use xlink:href="#DejaVuSans-4d"/>
      <use x="86.279297" xlink:href="#DejaVuSans-65"/>
      <use x="147.802734" xlink:href="#DejaVuSans-61"/>
      <use x="209.082031" xlink:href="#DejaVuSans-6e"/>
      <use x="272.460938" xlink:href="#DejaVuSans-3a"/>
      <use x="306.152344" xlink:href="#DejaVuSans-20"/>
      <use x="337.939453" xlink:href="#DejaVuSans-34"/>
      <use x="401.5625" xlink:href="#DejaVuSans-35"/>
      <use x="465.185547" xlink:href="#DejaVuSans-2c"/>
      <use x="496.972656" xlink:href="#DejaVuSans-20"/>
      <use x="528.759766" xlink:href="#DejaVuSans-53"/>
      <use x="592.236328" xlink:href="#DejaVuSans-54"/>
      <use x="653.320312" xlink:href="#DejaVuSans-44"/>
      <use x="730.322266" xlink:href="#DejaVuSans-3a"/>
      <use x="764.013672" xlink:href="#DejaVuSans-20"/>
      <use x="795.800781" xlink:href="#DejaVuSans-31"/>
      <use x="859.423828" xlink:href="#DejaVuSans-30"/>
     </g>
    </g>
   </g>
  </g>
 </g>
 <defs>
  <clipPath id="peaabfeb096">
   <rect height="217.44" width="334.8" x="54" y="34.56"/>
  </clipPath>
 </defs>
</svg>
