<?xml version="1.0" encoding="utf-8" standalone="no"?>
<!DOCTYPE svg PUBLIC "-//W3C//DTD SVG 1.1//EN"
  "http://www.w3.org/Graphics/SVG/1.1/DTD/svg11.dtd">
<!-- Created with matplotlib (http://matplotlib.org/) -->
<svg height="288pt" version="1.1" viewBox="0 0 432 288" width="432pt" xmlns="http://www.w3.org/2000/svg" xmlns:xlink="http://www.w3.org/1999/xlink">
 <defs>
  <style type="text/css">
*{stroke-linecap:butt;stroke-linejoin:round;}
  </style>
 </defs>
 <g id="figure_1">
  <g id="patch_1">
   <path d="M 0 288 
L 432 288 
L 432 0 
L 0 0 
z
" style="fill:#ffffff;"/>
  </g>
  <g id="axes_1">
   <g id="patch_2">
    <path clip-path="url(#pfef50289c1)" d="M 69.218182 252 
L 72.261818 252 
L 72.261818 59.366549 
L 69.218182 59.366549 
z
" style="fill:#1f77b4;"/>
   </g>
   <g id="patch_3">
    <path clip-path="url(#pfef50289c1)" d="M 72.261818 252 
L 75.305455 252 
L 75.305455 64.500905 
L 72.261818 64.500905 
z
" style="fill:#1f77b4;"/>
   </g>
   <g id="patch_4">
    <path clip-path="url(#pfef50289c1)" d="M 75.305455 252 
L 78.349091 252 
L 78.349091 68.304132 
L 75.305455 68.304132 
z
" style="fill:#1f77b4;"/>
   </g>
   <g id="patch_5">
    <path clip-path="url(#pfef50289c1)" d="M 78.349091 252 
L 81.392727 252 
L 81.392727 70.205746 
L 78.349091 70.205746 
z
" style="fill:#1f77b4;"/>
   </g>
   <g id="patch_6">
    <path clip-path="url(#pfef50289c1)" d="M 81.392727 252 
L 84.436364 252 
L 84.436364 60.127194 
L 81.392727 60.127194 
z
" style="fill:#1f77b4;"/>
   </g>
   <g id="patch_7">
    <path clip-path="url(#pfef50289c1)" d="M 84.436364 252 
L 87.48 252 
L 87.48 67.353325 
L 84.436364 67.353325 
z
" style="fill:#1f77b4;"/>
   </g>
   <g id="patch_8">
    <path clip-path="url(#pfef50289c1)" d="M 87.48 252 
L 90.523636 252 
L 90.523636 64.691067 
L 87.48 64.691067 
z
" style="fill:#1f77b4;"/>
   </g>
   <g id="patch_9">
    <path clip-path="url(#pfef50289c1)" d="M 90.523636 252 
L 93.567273 252 
L 93.567273 63.74026 
L 90.523636 63.74026 
z
" style="fill:#1f77b4;"/>
   </g>
   <g id="patch_10">
    <path clip-path="url(#pfef50289c1)" d="M 93.567273 252 
L 96.610909 252 
L 96.610909 64.881228 
L 93.567273 64.881228 
z
" style="fill:#1f77b4;"/>
   </g>
   <g id="patch_11">
    <path clip-path="url(#pfef50289c1)" d="M 96.610909 252 
L 99.654545 252 
L 99.654545 58.415742 
L 96.610909 58.415742 
z
" style="fill:#1f77b4;"/>
   </g>
   <g id="patch_12">
    <path clip-path="url(#pfef50289c1)" d="M 99.654545 252 
L 102.698182 252 
L 102.698182 62.789453 
L 99.654545 62.789453 
z
" style="fill:#1f77b4;"/>
   </g>
   <g id="patch_13">
    <path clip-path="url(#pfef50289c1)" d="M 102.698182 252 
L 105.741818 252 
L 105.741818 52.140417 
L 102.698182 52.140417 
z
" style="fill:#1f77b4;"/>
   </g>
   <g id="patch_14">
    <path clip-path="url(#pfef50289c1)" d="M 105.741818 252 
L 108.785455 252 
L 108.785455 59.176387 
L 105.741818 59.176387 
z
" style="fill:#1f77b4;"/>
   </g>
   <g id="patch_15">
    <path clip-path="url(#pfef50289c1)" d="M 108.785455 252 
L 111.829091 252 
L 111.829091 56.894451 
L 108.785455 56.894451 
z
" style="fill:#1f77b4;"/>
   </g>
   <g id="patch_16">
    <path clip-path="url(#pfef50289c1)" d="M 111.829091 252 
L 114.872727 252 
L 114.872727 74.769618 
L 111.829091 74.769618 
z
" style="fill:#1f77b4;"/>
   </g>
   <g id="patch_17">
    <path clip-path="url(#pfef50289c1)" d="M 114.872727 252 
L 117.916364 252 
L 117.916364 62.40913 
L 114.872727 62.40913 
z
" style="fill:#1f77b4;"/>
   </g>
   <g id="patch_18">
    <path clip-path="url(#pfef50289c1)" d="M 117.916364 252 
L 120.96 252 
L 120.96 66.59268 
L 117.916364 66.59268 
z
" style="fill:#1f77b4;"/>
   </g>
   <g id="patch_19">
    <path clip-path="url(#pfef50289c1)" d="M 120.96 252 
L 124.003636 252 
L 124.003636 61.458323 
L 120.96 61.458323 
z
" style="fill:#1f77b4;"/>
   </g>
   <g id="patch_20">
    <path clip-path="url(#pfef50289c1)" d="M 124.003636 252 
L 127.047273 252 
L 127.047273 67.353325 
L 124.003636 67.353325 
z
" style="fill:#1f77b4;"/>
   </g>
   <g id="patch_21">
    <path clip-path="url(#pfef50289c1)" d="M 127.047273 252 
L 130.090909 252 
L 130.090909 64.120582 
L 127.047273 64.120582 
z
" style="fill:#1f77b4;"/>
   </g>
   <g id="patch_22">
    <path clip-path="url(#pfef50289c1)" d="M 130.090909 252 
L 133.134545 252 
L 133.134545 74.769618 
L 130.090909 74.769618 
z
" style="fill:#1f77b4;"/>
   </g>
   <g id="patch_23">
    <path clip-path="url(#pfef50289c1)" d="M 133.134545 252 
L 136.178182 252 
L 136.178182 58.22558 
L 133.134545 58.22558 
z
" style="fill:#1f77b4;"/>
   </g>
   <g id="patch_24">
    <path clip-path="url(#pfef50289c1)" d="M 136.178182 252 
L 139.221818 252 
L 139.221818 59.176387 
L 136.178182 59.176387 
z
" style="fill:#1f77b4;"/>
   </g>
   <g id="patch_25">
    <path clip-path="url(#pfef50289c1)" d="M 139.221818 252 
L 142.265455 252 
L 142.265455 62.979614 
L 139.221818 62.979614 
z
" style="fill:#1f77b4;"/>
   </g>
   <g id="patch_26">
    <path clip-path="url(#pfef50289c1)" d="M 142.265455 252 
L 145.309091 252 
L 145.309091 63.550098 
L 142.265455 63.550098 
z
" style="fill:#1f77b4;"/>
   </g>
   <g id="patch_27">
    <path clip-path="url(#pfef50289c1)" d="M 145.309091 252 
L 148.352727 252 
L 148.352727 58.035419 
L 145.309091 58.035419 
z
" style="fill:#1f77b4;"/>
   </g>
   <g id="patch_28">
    <path clip-path="url(#pfef50289c1)" d="M 148.352727 252 
L 151.396364 252 
L 151.396364 58.22558 
L 148.352727 58.22558 
z
" style="fill:#1f77b4;"/>
   </g>
   <g id="patch_29">
    <path clip-path="url(#pfef50289c1)" d="M 151.396364 252 
L 154.44 252 
L 154.44 58.415742 
L 151.396364 58.415742 
z
" style="fill:#1f77b4;"/>
   </g>
   <g id="patch_30">
    <path clip-path="url(#pfef50289c1)" d="M 154.44 252 
L 157.483636 252 
L 157.483636 51.760094 
L 154.44 51.760094 
z
" style="fill:#1f77b4;"/>
   </g>
   <g id="patch_31">
    <path clip-path="url(#pfef50289c1)" d="M 157.483636 252 
L 160.527273 252 
L 160.527273 70.015584 
L 157.483636 70.015584 
z
" style="fill:#1f77b4;"/>
   </g>
   <g id="patch_32">
    <path clip-path="url(#pfef50289c1)" d="M 160.527273 252 
L 163.570909 252 
L 163.570909 65.261551 
L 160.527273 65.261551 
z
" style="fill:#1f77b4;"/>
   </g>
   <g id="patch_33">
    <path clip-path="url(#pfef50289c1)" d="M 163.570909 252 
L 166.614545 252 
L 166.614545 64.500905 
L 163.570909 64.500905 
z
" style="fill:#1f77b4;"/>
   </g>
   <g id="patch_34">
    <path clip-path="url(#pfef50289c1)" d="M 166.614545 252 
L 169.658182 252 
L 169.658182 60.697678 
L 166.614545 60.697678 
z
" style="fill:#1f77b4;"/>
   </g>
   <g id="patch_35">
    <path clip-path="url(#pfef50289c1)" d="M 169.658182 252 
L 172.701818 252 
L 172.701818 50.999449 
L 169.658182 50.999449 
z
" style="fill:#1f77b4;"/>
   </g>
   <g id="patch_36">
    <path clip-path="url(#pfef50289c1)" d="M 172.701818 252 
L 175.745455 252 
L 175.745455 72.107359 
L 172.701818 72.107359 
z
" style="fill:#1f77b4;"/>
   </g>
   <g id="patch_37">
    <path clip-path="url(#pfef50289c1)" d="M 175.745455 252 
L 178.789091 252 
L 178.789091 59.176387 
L 175.745455 59.176387 
z
" style="fill:#1f77b4;"/>
   </g>
   <g id="patch_38">
    <path clip-path="url(#pfef50289c1)" d="M 178.789091 252 
L 181.832727 252 
L 181.832727 68.874616 
L 178.789091 68.874616 
z
" style="fill:#1f77b4;"/>
   </g>
   <g id="patch_39">
    <path clip-path="url(#pfef50289c1)" d="M 181.832727 252 
L 184.876364 252 
L 184.876364 53.851869 
L 181.832727 53.851869 
z
" style="fill:#1f77b4;"/>
   </g>
   <g id="patch_40">
    <path clip-path="url(#pfef50289c1)" d="M 184.876364 252 
L 187.92 252 
L 187.92 61.268162 
L 184.876364 61.268162 
z
" style="fill:#1f77b4;"/>
   </g>
   <g id="patch_41">
    <path clip-path="url(#pfef50289c1)" d="M 187.92 252 
L 190.963636 252 
L 190.963636 55.753483 
L 187.92 55.753483 
z
" style="fill:#1f77b4;"/>
   </g>
   <g id="patch_42">
    <path clip-path="url(#pfef50289c1)" d="M 190.963636 252 
L 194.007273 252 
L 194.007273 66.973003 
L 190.963636 66.973003 
z
" style="fill:#1f77b4;"/>
   </g>
   <g id="patch_43">
    <path clip-path="url(#pfef50289c1)" d="M 194.007273 252 
L 197.050909 252 
L 197.050909 54.422353 
L 194.007273 54.422353 
z
" style="fill:#1f77b4;"/>
   </g>
   <g id="patch_44">
    <path clip-path="url(#pfef50289c1)" d="M 197.050909 252 
L 200.094545 252 
L 200.094545 70.966391 
L 197.050909 70.966391 
z
" style="fill:#1f77b4;"/>
   </g>
   <g id="patch_45">
    <path clip-path="url(#pfef50289c1)" d="M 200.094545 252 
L 203.138182 252 
L 203.138182 61.648485 
L 200.094545 61.648485 
z
" style="fill:#1f77b4;"/>
   </g>
   <g id="patch_46">
    <path clip-path="url(#pfef50289c1)" d="M 203.138182 252 
L 206.181818 252 
L 206.181818 44.914286 
L 203.138182 44.914286 
z
" style="fill:#1f77b4;"/>
   </g>
   <g id="patch_47">
    <path clip-path="url(#pfef50289c1)" d="M 206.181818 252 
L 209.225455 252 
L 209.225455 67.353325 
L 206.181818 67.353325 
z
" style="fill:#1f77b4;"/>
   </g>
   <g id="patch_48">
    <path clip-path="url(#pfef50289c1)" d="M 209.225455 252 
L 212.269091 252 
L 212.269091 59.366549 
L 209.225455 59.366549 
z
" style="fill:#1f77b4;"/>
   </g>
   <g id="patch_49">
    <path clip-path="url(#pfef50289c1)" d="M 212.269091 252 
L 215.312727 252 
L 215.312727 66.402519 
L 212.269091 66.402519 
z
" style="fill:#1f77b4;"/>
   </g>
   <g id="patch_50">
    <path clip-path="url(#pfef50289c1)" d="M 215.312727 252 
L 218.356364 252 
L 218.356364 63.169776 
L 215.312727 63.169776 
z
" style="fill:#1f77b4;"/>
   </g>
   <g id="patch_51">
    <path clip-path="url(#pfef50289c1)" d="M 218.356364 252 
L 221.4 252 
L 221.4 67.353325 
L 218.356364 67.353325 
z
" style="fill:#1f77b4;"/>
   </g>
   <g id="patch_52">
    <path clip-path="url(#pfef50289c1)" d="M 221.4 252 
L 224.443636 252 
L 224.443636 73.058166 
L 221.4 73.058166 
z
" style="fill:#1f77b4;"/>
   </g>
   <g id="patch_53">
    <path clip-path="url(#pfef50289c1)" d="M 224.443636 252 
L 227.487273 252 
L 227.487273 63.930421 
L 224.443636 63.930421 
z
" style="fill:#1f77b4;"/>
   </g>
   <g id="patch_54">
    <path clip-path="url(#pfef50289c1)" d="M 227.487273 252 
L 230.530909 252 
L 230.530909 73.438489 
L 227.487273 73.438489 
z
" style="fill:#1f77b4;"/>
   </g>
   <g id="patch_55">
    <path clip-path="url(#pfef50289c1)" d="M 230.530909 252 
L 233.574545 252 
L 233.574545 59.746871 
L 230.530909 59.746871 
z
" style="fill:#1f77b4;"/>
   </g>
   <g id="patch_56">
    <path clip-path="url(#pfef50289c1)" d="M 233.574545 252 
L 236.618182 252 
L 236.618182 67.163164 
L 233.574545 67.163164 
z
" style="fill:#1f77b4;"/>
   </g>
   <g id="patch_57">
    <path clip-path="url(#pfef50289c1)" d="M 236.618182 252 
L 239.661818 252 
L 239.661818 54.802676 
L 236.618182 54.802676 
z
" style="fill:#1f77b4;"/>
   </g>
   <g id="patch_58">
    <path clip-path="url(#pfef50289c1)" d="M 239.661818 252 
L 242.705455 252 
L 242.705455 61.078001 
L 239.661818 61.078001 
z
" style="fill:#1f77b4;"/>
   </g>
   <g id="patch_59">
    <path clip-path="url(#pfef50289c1)" d="M 242.705455 252 
L 245.749091 252 
L 245.749091 47.576545 
L 242.705455 47.576545 
z
" style="fill:#1f77b4;"/>
   </g>
   <g id="patch_60">
    <path clip-path="url(#pfef50289c1)" d="M 245.749091 252 
L 248.792727 252 
L 248.792727 69.254939 
L 245.749091 69.254939 
z
" style="fill:#1f77b4;"/>
   </g>
   <g id="patch_61">
    <path clip-path="url(#pfef50289c1)" d="M 248.792727 252 
L 251.836364 252 
L 251.836364 55.182999 
L 248.792727 55.182999 
z
" style="fill:#1f77b4;"/>
   </g>
   <g id="patch_62">
    <path clip-path="url(#pfef50289c1)" d="M 251.836364 252 
L 254.88 252 
L 254.88 64.691067 
L 251.836364 64.691067 
z
" style="fill:#1f77b4;"/>
   </g>
   <g id="patch_63">
    <path clip-path="url(#pfef50289c1)" d="M 254.88 252 
L 257.923636 252 
L 257.923636 56.514128 
L 254.88 56.514128 
z
" style="fill:#1f77b4;"/>
   </g>
   <g id="patch_64">
    <path clip-path="url(#pfef50289c1)" d="M 257.923636 252 
L 260.967273 252 
L 260.967273 70.966391 
L 257.923636 70.966391 
z
" style="fill:#1f77b4;"/>
   </g>
   <g id="patch_65">
    <path clip-path="url(#pfef50289c1)" d="M 260.967273 252 
L 264.010909 252 
L 264.010909 58.796065 
L 260.967273 58.796065 
z
" style="fill:#1f77b4;"/>
   </g>
   <g id="patch_66">
    <path clip-path="url(#pfef50289c1)" d="M 264.010909 252 
L 267.054545 252 
L 267.054545 53.471547 
L 264.010909 53.471547 
z
" style="fill:#1f77b4;"/>
   </g>
   <g id="patch_67">
    <path clip-path="url(#pfef50289c1)" d="M 267.054545 252 
L 270.098182 252 
L 270.098182 62.979614 
L 267.054545 62.979614 
z
" style="fill:#1f77b4;"/>
   </g>
   <g id="patch_68">
    <path clip-path="url(#pfef50289c1)" d="M 270.098182 252 
L 273.141818 252 
L 273.141818 61.078001 
L 270.098182 61.078001 
z
" style="fill:#1f77b4;"/>
   </g>
   <g id="patch_69">
    <path clip-path="url(#pfef50289c1)" d="M 273.141818 252 
L 276.185455 252 
L 276.185455 56.894451 
L 273.141818 56.894451 
z
" style="fill:#1f77b4;"/>
   </g>
   <g id="patch_70">
    <path clip-path="url(#pfef50289c1)" d="M 276.185455 252 
L 279.229091 252 
L 279.229091 68.874616 
L 276.185455 68.874616 
z
" style="fill:#1f77b4;"/>
   </g>
   <g id="patch_71">
    <path clip-path="url(#pfef50289c1)" d="M 279.229091 252 
L 282.272727 252 
L 282.272727 66.59268 
L 279.229091 66.59268 
z
" style="fill:#1f77b4;"/>
   </g>
   <g id="patch_72">
    <path clip-path="url(#pfef50289c1)" d="M 282.272727 252 
L 285.316364 252 
L 285.316364 66.782841 
L 282.272727 66.782841 
z
" style="fill:#1f77b4;"/>
   </g>
   <g id="patch_73">
    <path clip-path="url(#pfef50289c1)" d="M 285.316364 252 
L 288.36 252 
L 288.36 56.323967 
L 285.316364 56.323967 
z
" style="fill:#1f77b4;"/>
   </g>
   <g id="patch_74">
    <path clip-path="url(#pfef50289c1)" d="M 288.36 252 
L 291.403636 252 
L 291.403636 58.986226 
L 288.36 58.986226 
z
" style="fill:#1f77b4;"/>
   </g>
   <g id="patch_75">
    <path clip-path="url(#pfef50289c1)" d="M 291.403636 252 
L 294.447273 252 
L 294.447273 52.52074 
L 291.403636 52.52074 
z
" style="fill:#1f77b4;"/>
   </g>
   <g id="patch_76">
    <path clip-path="url(#pfef50289c1)" d="M 294.447273 252 
L 297.490909 252 
L 297.490909 62.40913 
L 294.447273 62.40913 
z
" style="fill:#1f77b4;"/>
   </g>
   <g id="patch_77">
    <path clip-path="url(#pfef50289c1)" d="M 297.490909 252 
L 300.534545 252 
L 300.534545 66.59268 
L 297.490909 66.59268 
z
" style="fill:#1f77b4;"/>
   </g>
   <g id="patch_78">
    <path clip-path="url(#pfef50289c1)" d="M 300.534545 252 
L 303.578182 252 
L 303.578182 65.641873 
L 300.534545 65.641873 
z
" style="fill:#1f77b4;"/>
   </g>
   <g id="patch_79">
    <path clip-path="url(#pfef50289c1)" d="M 303.578182 252 
L 306.621818 252 
L 306.621818 49.858481 
L 303.578182 49.858481 
z
" style="fill:#1f77b4;"/>
   </g>
   <g id="patch_80">
    <path clip-path="url(#pfef50289c1)" d="M 306.621818 252 
L 309.665455 252 
L 309.665455 57.274774 
L 306.621818 57.274774 
z
" style="fill:#1f77b4;"/>
   </g>
   <g id="patch_81">
    <path clip-path="url(#pfef50289c1)" d="M 309.665455 252 
L 312.709091 252 
L 312.709091 57.274774 
L 309.665455 57.274774 
z
" style="fill:#1f77b4;"/>
   </g>
   <g id="patch_82">
    <path clip-path="url(#pfef50289c1)" d="M 312.709091 252 
L 315.752727 252 
L 315.752727 52.52074 
L 312.709091 52.52074 
z
" style="fill:#1f77b4;"/>
   </g>
   <g id="patch_83">
    <path clip-path="url(#pfef50289c1)" d="M 315.752727 252 
L 318.796364 252 
L 318.796364 68.304132 
L 315.752727 68.304132 
z
" style="fill:#1f77b4;"/>
   </g>
   <g id="patch_84">
    <path clip-path="url(#pfef50289c1)" d="M 318.796364 252 
L 321.84 252 
L 321.84 53.661708 
L 318.796364 53.661708 
z
" style="fill:#1f77b4;"/>
   </g>
   <g id="patch_85">
    <path clip-path="url(#pfef50289c1)" d="M 321.84 252 
L 324.883636 252 
L 324.883636 51.760094 
L 321.84 51.760094 
z
" style="fill:#1f77b4;"/>
   </g>
   <g id="patch_86">
    <path clip-path="url(#pfef50289c1)" d="M 324.883636 252 
L 327.927273 252 
L 327.927273 62.789453 
L 324.883636 62.789453 
z
" style="fill:#1f77b4;"/>
   </g>
   <g id="patch_87">
    <path clip-path="url(#pfef50289c1)" d="M 327.927273 252 
L 330.970909 252 
L 330.970909 63.74026 
L 327.927273 63.74026 
z
" style="fill:#1f77b4;"/>
   </g>
   <g id="patch_88">
    <path clip-path="url(#pfef50289c1)" d="M 330.970909 252 
L 334.014545 252 
L 334.014545 66.782841 
L 330.970909 66.782841 
z
" style="fill:#1f77b4;"/>
   </g>
   <g id="patch_89">
    <path clip-path="url(#pfef50289c1)" d="M 334.014545 252 
L 337.058182 252 
L 337.058182 53.851869 
L 334.014545 53.851869 
z
" style="fill:#1f77b4;"/>
   </g>
   <g id="patch_90">
    <path clip-path="url(#pfef50289c1)" d="M 337.058182 252 
L 340.101818 252 
L 340.101818 64.120582 
L 337.058182 64.120582 
z
" style="fill:#1f77b4;"/>
   </g>
   <g id="patch_91">
    <path clip-path="url(#pfef50289c1)" d="M 340.101818 252 
L 343.145455 252 
L 343.145455 62.218969 
L 340.101818 62.218969 
z
" style="fill:#1f77b4;"/>
   </g>
   <g id="patch_92">
    <path clip-path="url(#pfef50289c1)" d="M 343.145455 252 
L 346.189091 252 
L 346.189091 57.084612 
L 343.145455 57.084612 
z
" style="fill:#1f77b4;"/>
   </g>
   <g id="patch_93">
    <path clip-path="url(#pfef50289c1)" d="M 346.189091 252 
L 349.232727 252 
L 349.232727 50.428965 
L 346.189091 50.428965 
z
" style="fill:#1f77b4;"/>
   </g>
   <g id="patch_94">
    <path clip-path="url(#pfef50289c1)" d="M 349.232727 252 
L 352.276364 252 
L 352.276364 64.881228 
L 349.232727 64.881228 
z
" style="fill:#1f77b4;"/>
   </g>
   <g id="patch_95">
    <path clip-path="url(#pfef50289c1)" d="M 352.276364 252 
L 355.32 252 
L 355.32 71.917198 
L 352.276364 71.917198 
z
" style="fill:#1f77b4;"/>
   </g>
   <g id="patch_96">
    <path clip-path="url(#pfef50289c1)" d="M 355.32 252 
L 358.363636 252 
L 358.363636 58.605903 
L 355.32 58.605903 
z
" style="fill:#1f77b4;"/>
   </g>
   <g id="patch_97">
    <path clip-path="url(#pfef50289c1)" d="M 358.363636 252 
L 361.407273 252 
L 361.407273 62.789453 
L 358.363636 62.789453 
z
" style="fill:#1f77b4;"/>
   </g>
   <g id="patch_98">
    <path clip-path="url(#pfef50289c1)" d="M 361.407273 252 
L 364.450909 252 
L 364.450909 66.59268 
L 361.407273 66.59268 
z
" style="fill:#1f77b4;"/>
   </g>
   <g id="patch_99">
    <path clip-path="url(#pfef50289c1)" d="M 364.450909 252 
L 367.494545 252 
L 367.494545 72.677843 
L 364.450909 72.677843 
z
" style="fill:#1f77b4;"/>
   </g>
   <g id="patch_100">
    <path clip-path="url(#pfef50289c1)" d="M 367.494545 252 
L 370.538182 252 
L 370.538182 58.796065 
L 367.494545 58.796065 
z
" style="fill:#1f77b4;"/>
   </g>
   <g id="patch_101">
    <path clip-path="url(#pfef50289c1)" d="M 370.538182 252 
L 373.581818 252 
L 373.581818 61.078001 
L 370.538182 61.078001 
z
" style="fill:#1f77b4;"/>
   </g>
   <g id="text_1">
    <!-- Uniform Distribution -->
    <defs>
     <path d="M 8.6875 72.90625 
L 18.609375 72.90625 
L 18.609375 28.609375 
Q 18.609375 16.890625 22.84375 11.734375 
Q 27.09375 6.59375 36.625 6.59375 
Q 46.09375 6.59375 50.34375 11.734375 
Q 54.59375 16.890625 54.59375 28.609375 
L 54.59375 72.90625 
L 64.5 72.90625 
L 64.5 27.390625 
Q 64.5 13.140625 57.4375 5.859375 
Q 50.390625 -1.421875 36.625 -1.421875 
Q 22.796875 -1.421875 15.734375 5.859375 
Q 8.6875 13.140625 8.6875 27.390625 
z
" id="DejaVuSans-55"/>
     <path d="M 54.890625 33.015625 
L 54.890625 0 
L 45.90625 0 
L 45.90625 32.71875 
Q 45.90625 40.484375 42.875 44.328125 
Q 39.84375 48.1875 33.796875 48.1875 
Q 26.515625 48.1875 22.3125 43.546875 
Q 18.109375 38.921875 18.109375 30.90625 
L 18.109375 0 
L 9.078125 0 
L 9.078125 54.6875 
L 18.109375 54.6875 
L 18.109375 46.1875 
Q 21.34375 51.125 25.703125 53.5625 
Q 30.078125 56 35.796875 56 
Q 45.21875 56 50.046875 50.171875 
Q 54.890625 44.34375 54.890625 33.015625 
z
" id="DejaVuSans-6e"/>
     <path d="M 9.421875 54.6875 
L 18.40625 54.6875 
L 18.40625 0 
L 9.421875 0 
z
M 9.421875 75.984375 
L 18.40625 75.984375 
L 18.40625 64.59375 
L 9.421875 64.59375 
z
" id="DejaVuSans-69"/>
     <path d="M 37.109375 75.984375 
L 37.109375 68.5 
L 28.515625 68.5 
Q 23.6875 68.5 21.796875 66.546875 
Q 19.921875 64.59375 19.921875 59.515625 
L 19.921875 54.6875 
L 34.71875 54.6875 
L 34.71875 47.703125 
L 19.921875 47.703125 
L 19.921875 0 
L 10.890625 0 
L 10.890625 47.703125 
L 2.296875 47.703125 
L 2.296875 54.6875 
L 10.890625 54.6875 
L 10.890625 58.5 
Q 10.890625 67.625 15.140625 71.796875 
Q 19.390625 75.984375 28.609375 75.984375 
z
" id="DejaVuSans-66"/>
     <path d="M 30.609375 48.390625 
Q 23.390625 48.390625 19.1875 42.75 
Q 14.984375 37.109375 14.984375 27.296875 
Q 14.984375 17.484375 19.15625 11.84375 
Q 23.34375 6.203125 30.609375 6.203125 
Q 37.796875 6.203125 41.984375 11.859375 
Q 46.1875 17.53125 46.1875 27.296875 
Q 46.1875 37.015625 41.984375 42.703125 
Q 37.796875 48.390625 30.609375 48.390625 
z
M 30.609375 56 
Q 42.328125 56 49.015625 48.375 
Q 55.71875 40.765625 55.71875 27.296875 
Q 55.71875 13.875 49.015625 6.21875 
Q 42.328125 -1.421875 30.609375 -1.421875 
Q 18.84375 -1.421875 12.171875 6.21875 
Q 5.515625 13.875 5.515625 27.296875 
Q 5.515625 40.765625 12.171875 48.375 
Q 18.84375 56 30.609375 56 
z
" id="DejaVuSans-6f"/>
     <path d="M 41.109375 46.296875 
Q 39.59375 47.171875 37.8125 47.578125 
Q 36.03125 48 33.890625 48 
Q 26.265625 48 22.1875 43.046875 
Q 18.109375 38.09375 18.109375 28.8125 
L 18.109375 0 
L 9.078125 0 
L 9.078125 54.6875 
L 18.109375 54.6875 
L 18.109375 46.1875 
Q 20.953125 51.171875 25.484375 53.578125 
Q 30.03125 56 36.53125 56 
Q 37.453125 56 38.578125 55.875 
Q 39.703125 55.765625 41.0625 55.515625 
z
" id="DejaVuSans-72"/>
     <path d="M 52 44.1875 
Q 55.375 50.25 60.0625 53.125 
Q 64.75 56 71.09375 56 
Q 79.640625 56 84.28125 50.015625 
Q 88.921875 44.046875 88.921875 33.015625 
L 88.921875 0 
L 79.890625 0 
L 79.890625 32.71875 
Q 79.890625 40.578125 77.09375 44.375 
Q 74.3125 48.1875 68.609375 48.1875 
Q 61.625 48.1875 57.5625 43.546875 
Q 53.515625 38.921875 53.515625 30.90625 
L 53.515625 0 
L 44.484375 0 
L 44.484375 32.71875 
Q 44.484375 40.625 41.703125 44.40625 
Q 38.921875 48.1875 33.109375 48.1875 
Q 26.21875 48.1875 22.15625 43.53125 
Q 18.109375 38.875 18.109375 30.90625 
L 18.109375 0 
L 9.078125 0 
L 9.078125 54.6875 
L 18.109375 54.6875 
L 18.109375 46.1875 
Q 21.1875 51.21875 25.484375 53.609375 
Q 29.78125 56 35.6875 56 
Q 41.65625 56 45.828125 52.96875 
Q 50 49.953125 52 44.1875 
z
" id="DejaVuSans-6d"/>
     <path id="DejaVuSans-20"/>
     <path d="M 19.671875 64.796875 
L 19.671875 8.109375 
L 31.59375 8.109375 
Q 46.6875 8.109375 53.6875 14.9375 
Q 60.6875 21.78125 60.6875 36.53125 
Q 60.6875 51.171875 53.6875 57.984375 
Q 46.6875 64.796875 31.59375 64.796875 
z
M 9.8125 72.90625 
L 30.078125 72.90625 
Q 51.265625 72.90625 61.171875 64.09375 
Q 71.09375 55.28125 71.09375 36.53125 
Q 71.09375 17.671875 61.125 8.828125 
Q 51.171875 0 30.078125 0 
L 9.8125 0 
z
" id="DejaVuSans-44"/>
     <path d="M 44.28125 53.078125 
L 44.28125 44.578125 
Q 40.484375 46.53125 36.375 47.5 
Q 32.28125 48.484375 27.875 48.484375 
Q 21.1875 48.484375 17.84375 46.4375 
Q 14.5 44.390625 14.5 40.28125 
Q 14.5 37.15625 16.890625 35.375 
Q 19.28125 33.59375 26.515625 31.984375 
L 29.59375 31.296875 
Q 39.15625 29.25 43.1875 25.515625 
Q 47.21875 21.78125 47.21875 15.09375 
Q 47.21875 7.46875 41.1875 3.015625 
Q 35.15625 -1.421875 24.609375 -1.421875 
Q 20.21875 -1.421875 15.453125 -0.5625 
Q 10.6875 0.296875 5.421875 2 
L 5.421875 11.28125 
Q 10.40625 8.6875 15.234375 7.390625 
Q 20.0625 6.109375 24.8125 6.109375 
Q 31.15625 6.109375 34.5625 8.28125 
Q 37.984375 10.453125 37.984375 14.40625 
Q 37.984375 18.0625 35.515625 20.015625 
Q 33.0625 21.96875 24.703125 23.78125 
L 21.578125 24.515625 
Q 13.234375 26.265625 9.515625 29.90625 
Q 5.8125 33.546875 5.8125 39.890625 
Q 5.8125 47.609375 11.28125 51.796875 
Q 16.75 56 26.8125 56 
Q 31.78125 56 36.171875 55.265625 
Q 40.578125 54.546875 44.28125 53.078125 
z
" id="DejaVuSans-73"/>
     <path d="M 18.3125 70.21875 
L 18.3125 54.6875 
L 36.8125 54.6875 
L 36.8125 47.703125 
L 18.3125 47.703125 
L 18.3125 18.015625 
Q 18.3125 11.328125 20.140625 9.421875 
Q 21.96875 7.515625 27.59375 7.515625 
L 36.8125 7.515625 
L 36.8125 0 
L 27.59375 0 
Q 17.1875 0 13.234375 3.875 
Q 9.28125 7.765625 9.28125 18.015625 
L 9.28125 47.703125 
L 2.6875 47.703125 
L 2.6875 54.6875 
L 9.28125 54.6875 
L 9.28125 70.21875 
z
" id="DejaVuSans-74"/>
     <path d="M 48.6875 27.296875 
Q 48.6875 37.203125 44.609375 42.84375 
Q 40.53125 48.484375 33.40625 48.484375 
Q 26.265625 48.484375 22.1875 42.84375 
Q 18.109375 37.203125 18.109375 27.296875 
Q 18.109375 17.390625 22.1875 11.75 
Q 26.265625 6.109375 33.40625 6.109375 
Q 40.53125 6.109375 44.609375 11.75 
Q 48.6875 17.390625 48.6875 27.296875 
z
M 18.109375 46.390625 
Q 20.953125 51.265625 25.265625 53.625 
Q 29.59375 56 35.59375 56 
Q 45.5625 56 51.78125 48.09375 
Q 58.015625 40.1875 58.015625 27.296875 
Q 58.015625 14.40625 51.78125 6.484375 
Q 45.5625 -1.421875 35.59375 -1.421875 
Q 29.59375 -1.421875 25.265625 0.953125 
Q 20.953125 3.328125 18.109375 8.203125 
L 18.109375 0 
L 9.078125 0 
L 9.078125 75.984375 
L 18.109375 75.984375 
z
" id="DejaVuSans-62"/>
     <path d="M 8.5 21.578125 
L 8.5 54.6875 
L 17.484375 54.6875 
L 17.484375 21.921875 
Q 17.484375 14.15625 20.5 10.265625 
Q 23.53125 6.390625 29.59375 6.390625 
Q 36.859375 6.390625 41.078125 11.03125 
Q 45.3125 15.671875 45.3125 23.6875 
L 45.3125 54.6875 
L 54.296875 54.6875 
L 54.296875 0 
L 45.3125 0 
L 45.3125 8.40625 
Q 42.046875 3.421875 37.71875 1 
Q 33.40625 -1.421875 27.6875 -1.421875 
Q 18.265625 -1.421875 13.375 4.4375 
Q 8.5 10.296875 8.5 21.578125 
z
M 31.109375 56 
z
" id="DejaVuSans-75"/>
    </defs>
    <g transform="translate(160.536563 28.56)scale(0.12 -0.12)">
     <use xlink:href="#DejaVuSans-55"/>
     <use x="73.193359" xlink:href="#DejaVuSans-6e"/>
     <use x="136.572266" xlink:href="#DejaVuSans-69"/>
     <use x="164.355469" xlink:href="#DejaVuSans-66"/>
     <use x="199.560547" xlink:href="#DejaVuSans-6f"/>
     <use x="260.742188" xlink:href="#DejaVuSans-72"/>
     <use x="301.839844" xlink:href="#DejaVuSans-6d"/>
     <use x="399.251953" xlink:href="#DejaVuSans-20"/>
     <use x="431.039062" xlink:href="#DejaVuSans-44"/>
     <use x="508.041016" xlink:href="#DejaVuSans-69"/>
     <use x="535.824219" xlink:href="#DejaVuSans-73"/>
     <use x="587.923828" xlink:href="#DejaVuSans-74"/>
     <use x="627.132812" xlink:href="#DejaVuSans-72"/>
     <use x="668.246094" xlink:href="#DejaVuSans-69"/>
     <use x="696.029297" xlink:href="#DejaVuSans-62"/>
     <use x="759.505859" xlink:href="#DejaVuSans-75"/>
     <use x="822.884766" xlink:href="#DejaVuSans-74"/>
     <use x="862.09375" xlink:href="#DejaVuSans-69"/>
     <use x="889.876953" xlink:href="#DejaVuSans-6f"/>
     <use x="951.058594" xlink:href="#DejaVuSans-6e"/>
    </g>
   </g>
  </g>
 </g>
 <defs>
  <clipPath id="pfef50289c1">
   <rect height="217.44" width="334.8" x="54" y="34.56"/>
  </clipPath>
 </defs>
</svg>
